<svg width="24" height="24" viewBox="0 0 24 24" fill="none" xmlns="http://www.w3.org/2000/svg">
<path d="M4.32031 10.3148C4.32031 6.81043 4.32031 5.05823 5.44503 3.96954C6.56974 2.88086 8.37993 2.88086 12.0003 2.88086C15.6207 2.88086 17.4309 2.88086 18.5556 3.96954C19.6803 5.05823 19.6803 6.81043 19.6803 10.3148V19.8826C19.6803 20.5878 19.6803 20.9403 19.4433 21.075C19.2062 21.2097 18.8883 21.0377 18.2523 20.694L12.4683 17.5679C12.2396 17.4443 12.1253 17.3824 12.0003 17.3824C11.8754 17.3824 11.7611 17.4443 11.5323 17.5679L5.74834 20.694C5.11235 21.0377 4.79436 21.2097 4.55734 21.075C4.32031 20.9403 4.32031 20.5878 4.32031 19.8826V10.3148Z" fill="#292C32"/>
</svg>
