<svg width="24" height="24" viewBox="0 0 24 24" fill="none" xmlns="http://www.w3.org/2000/svg">
<path fill-rule="evenodd" clip-rule="evenodd" d="M21.4844 9.4263C21.6039 12.7516 21.6316 15.2437 21.5575 18.2096C21.5035 20.3747 19.7186 22.0799 17.5602 22.0799H16.7984C16.2682 22.0799 15.8384 21.6486 15.8384 21.1167V16.3694C15.8384 15.8373 15.4086 15.4061 14.8784 15.4061H11.9984H9.11844C8.58825 15.4061 8.15844 15.8373 8.15844 16.3694V21.1167C8.15844 21.6486 7.72864 22.0799 7.19844 22.0799H6.44151C4.28013 22.0799 2.49449 20.3704 2.44086 18.2023C2.36644 15.1936 2.39051 12.7016 2.50854 9.43828C2.54773 8.35491 3.01829 7.3243 3.85265 6.6356C5.34137 5.4068 6.60498 4.58425 7.95341 3.70649C8.4519 3.38199 8.96198 3.04996 9.49931 2.68706C11.0064 1.66923 12.9959 1.66238 14.5047 2.67759C15.0319 3.03238 15.5313 3.35733 16.0169 3.67329C17.4002 4.57335 18.6713 5.4005 20.1562 6.6368C20.9822 7.32453 21.4457 8.34997 21.4844 9.4263Z" fill="#292C32"/>
</svg>
