<svg width="18" height="22" viewBox="0 0 18 22" fill="none" xmlns="http://www.w3.org/2000/svg">
<path fill-rule="evenodd" clip-rule="evenodd" d="M9.06634 9.13954C11.2781 9.13954 13.0711 7.29949 13.0711 5.02971C13.0711 2.75993 11.2781 0.919922 9.06634 0.919922C6.85455 0.919922 5.06155 2.75993 5.06155 5.02971C5.06155 7.29949 6.85455 9.13954 9.06634 9.13954ZM1.00245 17.2761L0.875053 17.9701C0.703568 18.9042 1.2521 19.819 2.14191 20.0829C6.62475 21.4123 11.3827 21.4123 15.8656 20.0829C16.7554 19.819 17.3039 18.9042 17.1325 17.9701L17.0051 17.2761C16.323 13.5609 13.1606 10.8699 9.47655 10.8699H8.53095C4.84688 10.8699 1.68453 13.5609 1.00245 17.2761Z" fill="#292C32"/>
</svg>
