<svg width="256" height="256" viewBox="0 0 256 256" fill="none" xmlns="http://www.w3.org/2000/svg">
<g clip-path="url(#clip0_1073_89986)">
<path d="M63.9974 234.666C58.1307 234.666 53.1067 232.576 48.9254 228.394C44.7441 224.213 42.657 219.193 42.6641 213.333V42.6664C42.6641 36.7997 44.7547 31.7757 48.9361 27.5944C53.1174 23.413 58.1379 21.3259 63.9974 21.333H191.997C197.864 21.333 202.888 23.4237 207.069 27.605C211.251 31.7864 213.338 36.8068 213.331 42.6664V213.333C213.331 219.2 211.24 224.224 207.059 228.405C202.877 232.586 197.857 234.673 191.997 234.666H63.9974ZM119.997 176L107.731 160C106.664 158.577 105.242 157.866 103.464 157.866C101.686 157.866 100.264 158.577 99.1974 160L81.3307 183.466C79.9085 185.244 79.6845 187.111 80.6587 189.066C81.633 191.022 83.2792 192 85.5974 192H170.397C172.709 192 174.351 191.022 175.325 189.066C176.3 187.111 176.079 185.244 174.664 183.466L148.797 149.6C147.731 148.177 146.309 147.466 144.531 147.466C142.753 147.466 141.331 148.177 140.264 149.6L119.997 176Z" fill="white"/>
</g>
<defs>
<clipPath id="clip0_1073_89986">
<rect width="256" height="256" fill="white"/>
</clipPath>
</defs>
</svg>
