<svg width="256" height="256" viewBox="0 0 256 256" fill="none" xmlns="http://www.w3.org/2000/svg">
<g clip-path="url(#clip0_1073_90010)">
<path d="M136.003 29.291C136.003 27.1693 135.16 25.1345 133.659 23.6342C132.159 22.1339 130.124 21.291 128.003 21.291C125.881 21.291 123.846 22.1339 122.346 23.6342C120.845 25.1345 120.003 27.1693 120.003 29.291V42.667H98.6693C93.7186 42.667 88.9706 44.6337 85.4699 48.1344C81.9693 51.635 80.0026 56.383 80.0026 61.3337V84.3204C96.2159 82.8484 112.003 95.371 112.003 113.579V226.667C112.003 226.955 112.003 227.232 111.981 227.499V234.667H143.981V221.334H144.003V141.334C144.003 133.554 147.093 126.093 152.594 120.592C158.095 115.091 165.556 112 173.336 112H176.003V61.3337C176.003 56.383 174.036 51.635 170.535 48.1344C167.035 44.6337 162.287 42.667 157.336 42.667H136.003V29.291ZM154.648 234.667H200.003C204.953 234.667 209.701 232.7 213.202 229.2C216.703 225.699 218.669 220.951 218.669 216V141.334C218.669 136.383 216.703 131.635 213.202 128.134C209.701 124.634 204.953 122.667 200.003 122.667H173.336C168.385 122.667 163.637 124.634 160.137 128.134C156.636 131.635 154.669 136.383 154.669 141.334V221.334H154.648V234.667ZM101.336 221.334H101.315V234.667H56.0026C51.0519 234.667 46.304 232.7 42.8033 229.2C39.3026 225.699 37.3359 220.951 37.3359 216V131.094C37.3359 124.8 40.5039 118.934 45.7626 115.488L72.4293 97.9843C84.8346 89.8243 101.336 98.731 101.336 113.579V221.334Z" fill="white"/>
</g>
<defs>
<clipPath id="clip0_1073_90010">
<rect width="256" height="256" fill="white"/>
</clipPath>
</defs>
</svg>
