<svg width="20" height="20" viewBox="0 0 20 20" fill="none" xmlns="http://www.w3.org/2000/svg">
<g clip-path="url(#clip0_830_59976)">
<g clip-path="url(#clip1_830_59976)">
<path fill-rule="evenodd" clip-rule="evenodd" d="M8.34951 1.42773C6.6011 1.42773 5.83031 1.58175 5.04795 2.00016C4.35138 2.37269 3.80043 2.92363 3.4279 3.6202C3.00949 4.40257 2.85547 5.17336 2.85547 6.92177V13.0765C2.85547 14.8249 3.00949 15.5957 3.4279 16.3781C3.80043 17.0747 4.35138 17.6256 5.04795 17.9981C5.83031 18.4166 6.6011 18.5706 8.34951 18.5706H11.6471C13.3955 18.5706 14.1663 18.4166 14.9487 17.9981C15.6452 17.6256 16.1962 17.0747 16.5687 16.3781C16.9871 15.5957 17.1411 14.8249 17.1411 13.0765V8.82688C17.1411 8.25782 17.1213 8.0018 17.054 7.70963C16.9873 7.42021 16.879 7.15872 16.7215 6.9069C16.5625 6.65269 16.3955 6.45763 15.9931 6.05524L12.5136 2.57578C12.1113 2.17339 11.9162 2.00638 11.662 1.84741C11.4102 1.68992 11.1487 1.58161 10.8592 1.5149C10.615 1.45861 10.396 1.43552 9.99833 1.42945V1.42773H8.34951ZM8.34951 2.8563C6.6817 2.8563 6.19361 3.00749 5.72166 3.25989C5.27404 3.49928 4.92702 3.8463 4.68763 4.29392C4.43523 4.76586 4.28405 5.25395 4.28405 6.92177V13.0765C4.28405 14.7443 4.43523 15.2324 4.68763 15.7044C4.92702 16.152 5.27404 16.499 5.72166 16.7384C6.19361 16.9908 6.68169 17.142 8.34951 17.142H11.6471C13.3149 17.142 13.803 16.9908 14.275 16.7384C14.7226 16.499 15.0696 16.152 15.309 15.7044C15.5614 15.2324 15.7126 14.7443 15.7126 13.0765V8.82688C15.7126 8.72881 15.712 8.64423 15.7108 8.57028L11.784 8.57059C10.7978 8.57059 9.99833 7.7711 9.99833 6.78487L9.99944 2.85805C9.96069 2.85742 9.91908 2.85697 9.87415 2.85669L8.34951 2.8563ZM11.5035 3.58594L11.4269 3.50987V6.78487C11.4269 6.9602 11.5532 7.10602 11.7198 7.13626L11.784 7.14202L15.0607 7.14349C15.0362 7.1188 15.0104 7.09281 14.9829 7.06539L11.5035 3.58594ZM6.4269 14.2849C6.4269 13.8904 6.7467 13.5706 7.14119 13.5706H9.99833C10.3928 13.5706 10.7126 13.8904 10.7126 14.2849C10.7126 14.6793 10.3928 14.9991 9.99833 14.9991H7.14119C6.7467 14.9991 6.4269 14.6793 6.4269 14.2849ZM7.14119 10.7134C6.7467 10.7134 6.4269 11.0332 6.4269 11.4277C6.4269 11.8222 6.7467 12.142 7.14119 12.142H12.1411C12.5356 12.142 12.8554 11.8222 12.8554 11.4277C12.8554 11.0332 12.5356 10.7134 12.1411 10.7134H7.14119Z" fill="#212121"/>
</g>
</g>
<defs>
<clipPath id="clip0_830_59976">
<rect width="20" height="20" fill="white"/>
</clipPath>
<clipPath id="clip1_830_59976">
<rect width="20" height="20" fill="white"/>
</clipPath>
</defs>
</svg>
