<svg width="24" height="24" viewBox="0 0 24 24" fill="none" xmlns="http://www.w3.org/2000/svg">
<path d="M12.5088 0C17.9328 0 20.6501 -0.000312448 22.3301 1.67969C24.0004 3.36929 24 6.0769 24 11.4912V12.5088C24 17.9135 24.0004 20.6307 22.3301 22.3203C20.6501 24.0003 17.9328 24 12.5088 24H11.5107C6.08674 24 3.35969 24.0099 1.67969 22.3203C-0.000311255 20.6307 0 17.9232 0 12.5088V11.4912C0 6.08641 -0.0099104 3.35969 1.67969 1.67969C3.36929 -0.000312448 6.08674 0 11.5107 0H12.5088ZM8.49805 12.5859C8.00499 12.4852 7.48328 12.4852 6.99023 12.5859C6.74927 12.6354 6.51288 12.709 6.28711 12.8047C6.06542 12.8985 5.85086 13.0138 5.65039 13.1494C5.45244 13.2831 5.26613 13.4369 5.09668 13.6064C4.92733 13.7759 4.77357 13.9619 4.63965 14.1602C4.50441 14.3604 4.38835 14.5751 4.29492 14.7969C4.19931 15.0227 4.1259 15.2596 4.07617 15.501C4.02582 15.7481 4.00001 16.0021 4 16.2549V20.001H5.20215V16.2549C5.20216 16.0826 5.21972 15.91 5.25391 15.7422C5.28744 15.5789 5.33655 15.4188 5.40137 15.2656C5.46466 15.1156 5.54398 14.9698 5.63574 14.834C5.72659 14.6994 5.83109 14.5723 5.94629 14.457C6.06158 14.3417 6.18864 14.2368 6.32324 14.1455C6.45938 14.0537 6.6045 13.9745 6.75488 13.9111C6.90778 13.8465 7.06811 13.7969 7.23145 13.7637C7.56616 13.6949 7.92212 13.695 8.25684 13.7637C8.41979 13.7969 8.58055 13.8463 8.7334 13.9111C8.88347 13.9745 9.02889 14.0537 9.16504 14.1455C9.30028 14.2368 9.42671 14.3417 9.54199 14.457C9.65693 14.572 9.76134 14.699 9.85254 14.834C9.94433 14.9702 10.0236 15.1158 10.0869 15.2656C10.1517 15.4188 10.2012 15.5792 10.2344 15.7422C10.2689 15.9094 10.2861 16.082 10.2861 16.2549C10.2861 16.4281 10.2689 16.6004 10.2344 16.7676C10.2011 16.9311 10.1518 17.0921 10.0869 17.2451C10.0236 17.3949 9.94435 17.5406 9.85254 17.6768C9.76138 17.8119 9.65718 17.9388 9.54199 18.0537C9.42707 18.1687 9.30021 18.273 9.16504 18.3643C9.02949 18.4561 8.88415 18.5349 8.7334 18.5986C8.58075 18.6633 8.42059 18.7138 8.25781 18.7471C7.92115 18.8158 7.56685 18.8158 7.23145 18.7471C7.06802 18.7138 6.90785 18.6633 6.75488 18.5986C6.60412 18.5349 6.4588 18.4561 6.32324 18.3643L5.65039 19.3604C5.85047 19.4956 6.06422 19.6123 6.28613 19.7061C6.51164 19.8017 6.74924 19.8754 6.99121 19.9248C7.23808 19.9751 7.49158 20.001 7.74414 20.001C7.99677 20.001 8.25048 19.9751 8.49805 19.9248C8.73907 19.8754 8.97633 19.8017 9.20215 19.7061C9.42407 19.612 9.63812 19.4956 9.83789 19.3604C10.036 19.2267 10.2226 19.0733 10.3916 18.9043C10.5603 18.7352 10.7141 18.5485 10.8486 18.3496C10.9839 18.1487 11.1006 17.934 11.1943 17.7129C11.2896 17.4872 11.3627 17.2506 11.4121 17.0098C11.4625 16.7633 11.4883 16.5087 11.4883 16.2549C11.4883 16.0012 11.4624 15.7477 11.4121 15.501C11.3627 15.2605 11.2897 15.0231 11.1943 14.7969C11.1006 14.5751 10.9842 14.361 10.8486 14.1602C10.7144 13.9613 10.5603 13.7749 10.3916 13.6064C10.2229 13.4373 10.0364 13.2834 9.83789 13.1494C9.63754 13.0139 9.42337 12.8981 9.20215 12.8047C8.97601 12.709 8.73875 12.6354 8.49805 12.5859ZM17.7139 12.8047C16.7897 12.4137 15.723 12.414 14.7988 12.8047C14.3531 12.9935 13.9529 13.2631 13.6094 13.6064C13.2657 13.9502 12.9954 14.3508 12.8066 14.7969C12.6116 15.2588 12.5127 15.7496 12.5127 16.2549C12.5127 16.7605 12.6116 17.2513 12.8066 17.7129C12.9954 18.159 13.2657 18.5602 13.6094 18.9043C13.9529 19.2479 14.3531 19.5176 14.7988 19.7061L15.2676 18.5986C14.9649 18.4707 14.6927 18.2874 14.459 18.0537C14.2252 17.8202 14.042 17.5474 13.9141 17.2441C13.782 16.9315 13.7148 16.5989 13.7148 16.2549C13.7149 15.9113 13.7818 15.5785 13.9141 15.2656C14.0417 14.963 14.2252 14.6905 14.459 14.457C14.6927 14.2232 14.9648 14.0391 15.2676 13.9111C15.8933 13.6462 16.6198 13.646 17.2461 13.9111C17.5489 14.0391 17.8209 14.2232 18.0547 14.457C18.2883 14.6905 18.471 14.9632 18.5986 15.2656C18.7313 15.5792 18.7988 15.9119 18.7988 16.2549C18.7988 16.5983 18.7313 16.9318 18.5986 17.2451C18.471 17.5479 18.2877 17.8203 18.0537 18.0537C17.8204 18.2874 17.5487 18.4707 17.2461 18.5986C17.1195 18.6522 16.9898 18.6946 16.8574 18.7266V15.6787H15.6553V20.001H16.2568C16.7619 20.0009 17.2522 19.9015 17.7139 19.7061C18.1599 19.5176 18.5604 19.2475 18.9033 18.9043C19.2473 18.5605 19.5176 18.159 19.7061 17.7129C19.9014 17.2504 20.001 16.7599 20.001 16.2549C20.001 15.7502 19.9015 15.2594 19.7061 14.7969C19.5176 14.3505 19.2479 13.9499 18.9043 13.6064C18.561 13.2627 18.1603 12.9935 17.7139 12.8047ZM8.49805 4.07617C8.00515 3.9752 7.48284 3.97521 6.99121 4.07617C6.75057 4.12495 6.51382 4.19896 6.28711 4.29492C6.06481 4.38901 5.85021 4.5047 5.65039 4.63965C5.4525 4.77332 5.26608 4.92723 5.09668 5.09668C4.92755 5.26588 4.77394 5.4527 4.63965 5.65137C4.50446 5.85187 4.38833 6.06571 4.29492 6.28711C4.19932 6.51323 4.1259 6.7499 4.07617 6.99121C4.02581 7.23867 4 7.49293 4 7.74609C4.00003 7.99878 4.02585 8.25238 4.07617 8.5C4.12589 8.74075 4.19962 8.97757 4.29492 9.20312C4.38866 9.42489 4.50411 9.63964 4.63965 9.84082C4.77362 10.0388 4.92755 10.225 5.09668 10.3945C5.26609 10.564 5.45281 10.7172 5.65039 10.8506C5.85052 10.9858 6.06482 11.1022 6.28711 11.1963C6.5138 11.2922 6.75026 11.3659 6.99023 11.415C7.23658 11.4654 7.49052 11.4912 7.74414 11.4912C7.99783 11.4912 8.25227 11.4654 8.49805 11.415C8.73834 11.3659 8.97515 11.2923 9.20215 11.1963C9.42406 11.1025 9.63814 10.9858 9.83789 10.8506C10.0363 10.7166 10.2232 10.5633 10.3916 10.3945C10.5604 10.2257 10.714 10.0388 10.8486 9.83984C10.9839 9.63866 11.1006 9.42459 11.1943 9.20312L10.0869 8.73535C10.0236 8.88522 9.94439 9.03075 9.85254 9.16699C9.76139 9.30186 9.65718 9.429 9.54199 9.54395C9.42713 9.65886 9.30046 9.7633 9.16504 9.85449C9.02948 9.94606 8.88384 10.0255 8.7334 10.0889C8.57985 10.1538 8.41956 10.2044 8.25684 10.2373C7.92214 10.306 7.56611 10.306 7.23047 10.2373C7.0681 10.204 6.90839 10.1538 6.75488 10.0889C6.60414 10.0252 6.4591 9.94636 6.32324 9.85449C6.18864 9.76356 6.06158 9.65928 5.94629 9.54395C5.83106 9.42899 5.72661 9.30192 5.63574 9.16797C5.54392 9.03145 5.46502 8.88581 5.40137 8.73535C5.33676 8.58231 5.28748 8.42165 5.25391 8.25879C5.21974 8.09071 5.20218 7.91828 5.20215 7.74609C5.20215 7.57341 5.2197 7.40003 5.25391 7.23242C5.28746 7.0691 5.33652 6.90874 5.40137 6.75586C5.46471 6.60536 5.54421 6.45983 5.63574 6.32422C5.7269 6.18935 5.8311 6.06252 5.94629 5.94727C6.06158 5.83193 6.18832 5.72699 6.32324 5.63574C6.45876 5.5442 6.60416 5.46602 6.75488 5.40234C6.90848 5.3374 7.06835 5.28718 7.23145 5.25391C7.56622 5.18547 7.92209 5.18547 8.25781 5.25391C8.41989 5.28717 8.57986 5.33743 8.7334 5.40234C8.88384 5.46603 9.02917 5.54483 9.16504 5.63672C9.30018 5.72792 9.42678 5.83202 9.54199 5.94727C9.65691 6.06191 9.76167 6.18865 9.85254 6.32324C9.9447 6.46012 10.0236 6.60599 10.0869 6.75586C10.1401 6.8813 10.1829 7.01181 10.2148 7.14453H7.16797V8.34668H11.4883V7.74609C11.4883 7.49198 11.4625 7.23772 11.4121 6.99121C11.3627 6.75042 11.2897 6.51332 11.1943 6.28711C11.1006 6.06603 10.9841 5.85184 10.8486 5.65039C10.7144 5.45178 10.5601 5.26586 10.3916 5.09766C10.2228 4.92815 10.0361 4.77465 9.83789 4.64062C9.63785 4.50541 9.42402 4.38868 9.20215 4.29492C8.97506 4.19892 8.7378 4.12497 8.49805 4.07617ZM17.0107 4.07617C16.5189 3.9751 15.9951 3.9751 15.5029 4.07617C15.2626 4.12497 15.0259 4.19796 14.7988 4.29395C14.5772 4.38769 14.3632 4.50444 14.1631 4.63965C13.9652 4.77329 13.7788 4.92727 13.6094 5.09668C13.44 5.26613 13.286 5.45245 13.1523 5.65039C13.0168 5.85061 12.9007 6.06503 12.8066 6.28711C12.711 6.51365 12.6373 6.75073 12.5879 6.99121C12.5376 7.23794 12.5127 7.49142 12.5127 7.74512C12.5127 7.99859 12.5375 8.25254 12.5879 8.5C12.6373 8.74009 12.711 8.97665 12.8066 9.20312C12.9007 9.42517 13.0168 9.63933 13.1523 9.83984C13.286 10.0379 13.4399 10.2237 13.6094 10.3936C13.7788 10.5631 13.9651 10.7169 14.1631 10.8506C14.3632 10.9858 14.5772 11.1025 14.7988 11.1963C15.0258 11.2922 15.2623 11.3659 15.502 11.415C15.7484 11.4654 16.0031 11.4912 16.2568 11.4912C16.5107 11.4912 16.7644 11.4654 17.0098 11.415C17.2502 11.3659 17.4871 11.2923 17.7139 11.1963C17.9364 11.1022 18.1505 10.9855 18.3496 10.8506C18.5472 10.7175 18.7339 10.5634 18.9033 10.3936C19.0728 10.224 19.227 10.0382 19.3613 9.83984C19.4969 9.63867 19.6123 9.42457 19.7061 9.20312C19.802 8.97626 19.8754 8.73919 19.9248 8.49902L18.7471 8.25879C18.7138 8.42131 18.6639 8.58138 18.5986 8.73535C18.5357 8.88506 18.4573 9.03056 18.3652 9.16699C18.2743 9.30165 18.1693 9.42861 18.0537 9.54395C17.9382 9.65946 17.8116 9.76364 17.6768 9.85449C17.5415 9.94603 17.3965 10.0252 17.2461 10.0889C17.0923 10.1537 16.9318 10.2034 16.7695 10.2363C16.4354 10.3051 16.0789 10.3051 15.7432 10.2363C15.5812 10.2034 15.421 10.1537 15.2676 10.0889C15.1171 10.0255 14.9708 9.94638 14.835 9.85449C14.7006 9.76367 14.5741 9.65909 14.459 9.54395C14.3437 9.42863 14.2393 9.30131 14.1484 9.16699C14.0566 9.03078 13.9774 8.88582 13.9141 8.73535C13.8488 8.58169 13.7989 8.42132 13.7656 8.25879C13.7314 8.09118 13.7148 7.91812 13.7148 7.74512C13.7149 7.57223 13.7314 7.3993 13.7656 7.23242C13.7989 7.06965 13.8489 6.90946 13.9141 6.75586C13.9774 6.60536 14.0566 6.45917 14.1484 6.32324C14.2392 6.18878 14.3439 6.06245 14.459 5.94727C14.5742 5.83197 14.7004 5.72666 14.835 5.63574C14.9708 5.54386 15.1171 5.46505 15.2676 5.40137C15.421 5.33652 15.5815 5.28714 15.7441 5.25391C16.0787 5.18556 16.4343 5.18556 16.7695 5.25391C16.9313 5.28715 17.0923 5.33647 17.2461 5.40137C17.3965 5.46503 17.5419 5.5439 17.6777 5.63574C17.812 5.72636 17.9388 5.8313 18.0547 5.94727C18.1698 6.06215 18.2738 6.18908 18.3643 6.32324C18.4567 6.46012 18.5356 6.60599 18.5986 6.75586C18.6638 6.9094 18.7138 7.06936 18.7471 7.23145L19.9248 6.99121C19.8754 6.75108 19.802 6.51394 19.7061 6.28711C19.6123 6.06603 19.4962 5.85152 19.3604 5.65039C19.2265 5.45221 19.0733 5.26575 18.9043 5.09668C18.7345 4.92685 18.5476 4.77272 18.3506 4.63965C18.1508 4.50474 17.9364 4.38801 17.7139 4.29395C17.4872 4.19801 17.2503 4.12496 17.0107 4.07617Z" fill="#2777FF"/>
</svg>
