<svg width="24" height="24" viewBox="0 0 24 24" fill="none" xmlns="http://www.w3.org/2000/svg">
<path d="M13 8.5C12.6562 8.53125 12.3125 8.5625 12 8.65625C12.1562 8.90625 12.2188 9.21875 12.25 9.5C12.25 10.4688 11.4375 11.25 10.5 11.25C10.1875 11.25 9.875 11.1875 9.65625 11.0312C9.5625 11.3438 9.5 11.6562 9.5 12C9.5 13.9375 11.0625 15.5 13 15.5C14.9375 15.5 16.5 13.9375 16.5 12C16.5 10.0938 14.9375 8.53125 13 8.53125V8.5ZM21.875 11.5625C20.1875 8.25 16.8125 6 13 6C9.15625 6 5.78125 8.25 4.09375 11.5625C4.03125 11.6875 4 11.8438 4 12C4 12.1875 4.03125 12.3438 4.09375 12.4688C5.78125 15.7812 9.15625 18 13 18C16.8125 18 20.1875 15.7812 21.875 12.4688C21.9375 12.3438 21.9688 12.1875 21.9688 12.0312C21.9688 11.8438 21.9375 11.6875 21.875 11.5625ZM13 16.5C9.90625 16.5 7.0625 14.7812 5.5625 12C7.0625 9.21875 9.90625 7.5 13 7.5C16.0625 7.5 18.9062 9.21875 20.4062 12C18.9062 14.7812 16.0625 16.5 13 16.5Z" fill="white"/>
</svg>
