<svg width="24" height="24" viewBox="0 0 24 24" fill="none" xmlns="http://www.w3.org/2000/svg">
<path d="M11 21C11 21.5523 11.4477 22 12 22C12.5523 22 13 21.5523 13 21H12H11ZM12 19H11V21H12H13V19H12Z" fill="#0077FF"/>
<path d="M6.45249 15.3415L12.0013 9L17.5501 15.3415C18.1159 15.9881 17.6567 17 16.7975 17H7.20507C6.34591 17 5.88673 15.9881 6.45249 15.3415Z" fill="#0077FF"/>
<path d="M7.43749 9.08033L11.1975 4.067C11.5975 3.53366 12.3975 3.53366 12.7975 4.067L16.5575 9.08033C17.1508 9.87141 16.5864 11.0003 15.5975 11.0003H8.39749C7.40864 11.0003 6.84418 9.87141 7.43749 9.08033Z" fill="#0077FF"/>
</svg>
