<svg width="256" height="256" viewBox="0 0 256 256" fill="none" xmlns="http://www.w3.org/2000/svg">
<g clip-path="url(#clip0_1073_90004)">
<g clip-path="url(#clip1_1073_90004)">
<path d="M160.003 21.3332C171.319 21.3332 182.171 25.8284 190.172 33.83C198.174 41.8315 202.669 52.684 202.669 63.9999C202.666 66.7186 201.625 69.3335 199.759 71.3105C197.893 73.2874 195.342 74.477 192.628 74.6364C189.914 74.7957 187.241 73.9127 185.156 72.1677C183.072 70.4227 181.732 67.9476 181.411 65.2479L181.336 63.9999C181.361 58.464 179.233 53.1354 175.401 49.1396C171.57 45.1438 166.335 42.7938 160.803 42.5861C155.271 42.3784 149.875 44.3292 145.755 48.0264C141.635 51.7237 139.113 56.8778 138.723 62.3999L138.669 63.9999V160H149.336V117.333C149.336 108.846 152.707 100.707 158.709 94.7058C164.71 88.7046 172.849 85.3332 181.336 85.3332C189.823 85.3332 197.962 88.7046 203.963 94.7058C209.965 100.707 213.336 108.846 213.336 117.333C213.333 120.052 212.292 122.667 210.426 124.644C208.559 126.621 206.008 127.81 203.294 127.97C200.58 128.129 197.908 127.246 195.823 125.501C193.738 123.756 192.398 121.281 192.077 118.581L192.003 117.333C192 114.614 190.959 112 189.092 110.023C187.226 108.046 184.675 106.856 181.961 106.697C179.247 106.537 176.575 107.42 174.49 109.165C172.405 110.91 171.065 113.386 170.744 116.085L170.669 117.333V160H224.003C226.615 160 229.137 160.959 231.089 162.695C233.042 164.432 234.289 166.824 234.595 169.419L234.669 170.667V192C234.669 202.946 230.462 213.474 222.918 221.406C215.373 229.337 205.069 234.066 194.136 234.613L192.003 234.667H64.0026C53.056 234.667 42.5282 230.459 34.5966 222.915C26.6651 215.37 21.9366 205.066 21.3893 194.133L21.3359 192V170.667C21.3363 168.054 22.2955 165.532 24.0316 163.58C25.7677 161.628 28.1599 160.38 30.7546 160.075L32.0026 160H85.3359V117.333C85.3329 114.614 84.2919 112 82.4256 110.023C80.5592 108.046 78.0084 106.856 75.2944 106.697C72.5803 106.537 69.9079 107.42 67.8231 109.165C65.7382 110.91 64.3984 113.386 64.0773 116.085L64.0026 117.333C64.0026 120.162 62.8788 122.875 60.8784 124.876C58.878 126.876 56.1649 128 53.3359 128C50.507 128 47.7939 126.876 45.7935 124.876C43.7931 122.875 42.6693 120.162 42.6693 117.333C42.6612 109.004 45.9015 100.999 51.7015 95.0205C57.5015 89.0419 65.4041 85.5606 73.7302 85.3161C82.0563 85.0717 90.1495 88.0835 96.2903 93.7115C102.431 99.3394 106.135 107.14 106.616 115.456L106.669 117.333V160H117.336V63.9999C117.336 58.3419 115.088 52.9157 111.088 48.9149C107.087 44.9141 101.661 42.6665 96.0026 42.6665C90.3447 42.6665 84.9184 44.9141 80.9177 48.9149C76.9169 52.9157 74.6693 58.3419 74.6693 63.9999C74.6693 66.8288 73.5455 69.5419 71.5451 71.5423C69.5447 73.5427 66.8316 74.6665 64.0026 74.6665C61.1736 74.6665 58.4605 73.5427 56.4601 71.5423C54.4597 69.5419 53.3359 66.8288 53.3359 63.9999C53.3351 55.3316 55.9745 46.8688 60.9028 39.7378C65.8311 32.6069 72.8145 27.1462 80.9233 24.0826C89.0321 21.0191 97.8817 20.4981 106.294 22.5889C114.706 24.6797 122.282 29.2832 128.013 35.7865C132.008 31.2373 136.928 27.5943 142.445 25.1016C147.962 22.6089 153.949 21.324 160.003 21.3332Z" fill="white"/>
</g>
</g>
<defs>
<clipPath id="clip0_1073_90004">
<rect width="256" height="256" fill="white"/>
</clipPath>
<clipPath id="clip1_1073_90004">
<rect width="256" height="256" fill="white"/>
</clipPath>
</defs>
</svg>
