<svg width="64" height="65" viewBox="0 0 64 65" fill="none" xmlns="http://www.w3.org/2000/svg">
<path d="M32 5C33.6569 5 35 6.34315 35 8C35 9.65685 33.6569 11 32 11C30.3432 11 29 9.65685 29 8C29 6.34315 30.3432 5 32 5Z" fill="#222222"/>
<path d="M20.5018 10C19.6734 10 19.0018 10.6716 19.0018 11.5C19.0018 12.3284 19.6734 13 20.5018 13H21.5018C24.5394 13 27.0018 15.4624 27.0018 18.5V26H25.4903C23.5637 26 22.0018 24.4381 22.0018 22.5114C22.0018 20.8155 20.944 19.3573 19.4717 18.7137C17.2613 17.7475 13.1841 15.7102 9.77905 12.6222C8.43313 11.4016 6.03011 12.0301 5.7683 14.0638C4.7841 21.709 5.03607 28.2858 7.57939 32.8248C8.87953 35.1451 10.7667 36.911 13.3069 37.9826C15.8199 39.0428 18.8816 39.3864 22.5027 39.0413C22.6439 39.0279 22.7827 39.0258 22.918 39.0343L18.9808 43.2528C17.9406 44.3672 16.4845 45 14.96 45H12.2797L10.9115 41.2374C10.6284 40.4588 9.76771 40.0572 8.98916 40.3403C8.21061 40.6234 7.80897 41.4841 8.09208 42.2626L11.5921 51.8876C11.8752 52.6662 12.7359 53.0678 13.5144 52.7847C14.293 52.5016 14.6946 51.6409 14.4115 50.8624L13.3706 48H14.96C17.316 48 19.5664 47.0221 21.1739 45.2997L25.0991 41.0941L25.7397 45.365C25.8392 46.0279 25.5999 46.6965 25.1024 47.1458L19.0911 52.5755C18.3361 53.2574 18.1448 54.5269 18.9867 55.3899C20.2348 56.6693 24.249 60 31.9985 60C39.7478 60 43.7661 56.6696 45.0156 55.3907C45.8585 54.528 45.6678 53.2576 44.9123 52.5752L38.9012 47.1458C38.4038 46.6965 38.1645 46.0279 38.2639 45.365L38.9045 41.0941L42.8297 45.2997C44.3222 46.8988 46.3687 47.8562 48.5394 47.985C48.5147 48.1531 48.5018 48.3251 48.5018 48.5C48.5018 50.433 50.0688 52 52.0018 52C53.9348 52 55.5018 50.433 55.5018 48.5C55.5018 46.567 53.9348 45 52.0018 45H49.0437C47.5191 45 46.0631 44.3672 45.0229 43.2528L41.0857 39.0343C41.221 39.0258 41.3597 39.0279 41.501 39.0413C45.122 39.3864 48.1837 39.0428 50.6967 37.9826C53.2369 36.911 55.1241 35.1451 56.4242 32.8248C58.9675 28.2858 59.2195 21.709 58.2353 14.0638C57.9735 12.0301 55.5705 11.4016 54.2245 12.6222C50.8195 15.7102 46.7423 17.7475 44.5319 18.7137C43.0596 19.3573 42.0019 20.8155 42.0019 22.5114C42.0019 24.4381 40.44 26 38.5133 26H37.0018V18.5C37.0018 15.4624 39.4643 13 42.5018 13H43.5018C44.3303 13 45.0018 12.3284 45.0018 11.5C45.0018 10.6716 44.3303 10 43.5018 10H42.5018C37.8074 10 34.0018 13.8056 34.0018 18.5V26.5C34.0018 27.8807 35.1211 29 36.5018 29H38.5133C42.0968 29 45.0019 26.095 45.0019 22.5114C45.0019 22.0956 45.2708 21.6648 45.7335 21.4626C47.8976 20.5166 51.8443 18.5666 55.3971 15.5801C56.1876 22.5651 55.7433 27.9028 53.8071 31.3583C52.8157 33.1275 51.4247 34.4195 49.5306 35.2185C47.6093 36.029 45.0806 36.3689 41.7856 36.0549C39.1115 35.8 36.404 37.5403 35.9735 40.4109L35.2971 44.9199C35.0485 46.5772 35.6467 48.2489 36.8904 49.3722L42.043 54.0261C40.5573 55.187 37.3799 57 31.9985 57C26.6178 57 23.4435 55.1874 21.9598 54.0269L27.1133 49.3722C28.3569 48.2489 28.9551 46.5772 28.7065 44.9199L28.0302 40.4109C27.5996 37.5403 24.8921 35.8 22.218 36.0549C18.9231 36.3689 16.3943 36.029 14.473 35.2185C12.579 34.4195 11.1879 33.1275 10.1966 31.3583C8.26034 27.9028 7.81596 22.5651 8.60654 15.5801C12.1594 18.5666 16.106 20.5166 18.2701 21.4626C18.7329 21.6648 19.0018 22.0956 19.0018 22.5114C19.0018 26.095 21.9068 29 25.4903 29H27.5018C28.8825 29 30.0018 27.8807 30.0018 26.5V18.5C30.0018 13.8056 26.1962 10 21.5018 10H20.5018Z" fill="#222222"/>
</svg>
