<svg width="21" height="20" viewBox="0 0 21 20" fill="none" xmlns="http://www.w3.org/2000/svg">
<path d="M17.0782 7.17072C18.0192 8.10372 18.5532 9.31472 18.5532 10.6017C18.5522 11.4134 18.3392 12.2107 17.9352 12.9147C18.0002 13.3027 18.1882 13.8917 18.4982 14.6617L18.6652 15.0617L18.7012 15.1707L18.7172 15.2337C18.7443 15.3683 18.7402 15.5072 18.7053 15.64C18.6703 15.7727 18.6055 15.8957 18.5158 15.9995C18.426 16.1033 18.3137 16.1853 18.1875 16.239C18.0612 16.2928 17.9243 16.317 17.7872 16.3097C16.5612 16.2457 15.5832 15.9467 14.8692 15.3947C14.193 15.6277 13.4825 15.746 12.7672 15.7447C12.0377 15.746 11.3134 15.6229 10.6252 15.3807C10.4681 15.3211 10.3405 15.2024 10.2698 15.0499C10.1991 14.8974 10.1909 14.7234 10.247 14.5649C10.3031 14.4065 10.419 14.2763 10.5699 14.2022C10.7207 14.1282 10.8946 14.1162 11.0542 14.1687C11.5922 14.3587 12.1712 14.4587 12.7672 14.4587C13.4652 14.4587 14.1402 14.3227 14.7512 14.0637C14.8696 14.0138 15.0002 14.0004 15.1262 14.0254C15.2522 14.0503 15.3679 14.1124 15.4582 14.2037C15.8122 14.5607 16.3402 14.8087 17.0542 14.9367L17.2362 14.9667C16.8672 14.0307 16.6652 13.3247 16.6302 12.8167C16.6207 12.6802 16.6551 12.5443 16.7282 12.4287C17.0812 11.8717 17.2672 11.2487 17.2672 10.6017C17.2672 9.66672 16.8772 8.78172 16.1732 8.08272C16.1106 8.02391 16.0604 7.95316 16.0256 7.87463C15.9908 7.7961 15.9721 7.7114 15.9705 7.62551C15.969 7.53963 15.9847 7.4543 16.0167 7.37458C16.0487 7.29486 16.0963 7.22236 16.1568 7.16135C16.2172 7.10034 16.2893 7.05207 16.3688 7.01939C16.4482 6.9867 16.5334 6.97026 16.6193 6.97104C16.7052 6.97182 16.79 6.9898 16.8689 7.02393C16.9477 7.05805 17.0189 7.10762 17.0782 7.16972V7.17072ZM8.91024 2.88672C12.0872 2.88672 14.6952 5.16872 14.6952 8.02972C14.6952 10.8897 12.0872 13.1717 8.91024 13.1717C8.18124 13.1717 7.47124 13.0517 6.80724 12.8217C6.09424 13.3737 5.11524 13.6737 3.88924 13.7377C3.75209 13.745 3.61508 13.7208 3.48872 13.667C3.36236 13.6132 3.24999 13.5312 3.16022 13.4272C3.07046 13.3232 3.00567 13.2001 2.97084 13.0673C2.936 12.9344 2.93203 12.7953 2.95924 12.6607L2.97524 12.5977L3.01224 12.4897L3.09824 12.2847C3.42924 11.4847 3.63724 10.8647 3.72224 10.4447L3.74224 10.3427L3.64424 10.1637C3.30287 9.50416 3.12456 8.77239 3.12424 8.02972C3.12424 5.16872 5.73224 2.88672 8.91024 2.88672ZM8.91024 4.17172C6.40724 4.17172 4.41024 5.91972 4.41024 8.02972C4.41024 8.67672 4.59624 9.29972 4.94924 9.85672C5.02235 9.97234 5.05668 10.1083 5.04724 10.2447C5.01424 10.7147 4.83724 11.3587 4.51724 12.1967L4.44124 12.3937L4.62324 12.3637C5.33724 12.2367 5.86524 11.9877 6.21824 11.6307C6.30862 11.5394 6.42427 11.4773 6.55028 11.4524C6.67629 11.4274 6.80689 11.4408 6.92524 11.4907C7.55375 11.7542 8.22874 11.8889 8.91024 11.8867C11.4132 11.8867 13.4102 10.1387 13.4102 8.02972C13.4102 5.91972 11.4132 4.17172 8.91024 4.17172Z" fill="white"/>
</svg>
