<svg width="20" height="20" viewBox="0 0 20 20" fill="none" xmlns="http://www.w3.org/2000/svg">
<g clip-path="url(#clip0_1054_86148)">
<path d="M16.2384 7.16974C17.1794 8.10274 17.7134 9.31374 17.7134 10.6007C17.7123 11.4124 17.4993 12.2097 17.0954 12.9137C17.1604 13.3017 17.3484 13.8907 17.6584 14.6607L17.8254 15.0607L17.8614 15.1697L17.8774 15.2327C17.9044 15.3673 17.9003 15.5063 17.8654 15.639C17.8305 15.7717 17.7657 15.8947 17.6759 15.9985C17.5862 16.1024 17.4739 16.1843 17.3476 16.2381C17.2213 16.2918 17.0844 16.316 16.9474 16.3087C15.7214 16.2447 14.7434 15.9457 14.0294 15.3937C13.3531 15.6267 12.6427 15.745 11.9274 15.7437C11.1979 15.745 10.4735 15.6219 9.78539 15.3797C9.62824 15.3202 9.50066 15.2014 9.42996 15.049C9.35927 14.8965 9.35109 14.7224 9.40717 14.5639C9.46325 14.4055 9.57913 14.2753 9.73001 14.2013C9.88088 14.1272 10.0548 14.1152 10.2144 14.1677C10.7524 14.3577 11.3314 14.4577 11.9274 14.4577C12.6254 14.4577 13.3004 14.3217 13.9114 14.0627C14.0297 14.0128 14.1603 13.9994 14.2864 14.0244C14.4124 14.0493 14.528 14.1115 14.6184 14.2027C14.9724 14.5597 15.5004 14.8077 16.2144 14.9357L16.3964 14.9657C16.0274 14.0297 15.8254 13.3237 15.7904 12.8157C15.7809 12.6793 15.8152 12.5433 15.8884 12.4277C16.2414 11.8707 16.4274 11.2477 16.4274 10.6007C16.4274 9.66574 16.0374 8.78074 15.3334 8.08174C15.2708 8.02294 15.2206 7.95218 15.1858 7.87366C15.151 7.79513 15.1322 7.71042 15.1307 7.62454C15.1292 7.53865 15.1448 7.45333 15.1768 7.37361C15.2088 7.29389 15.2564 7.22138 15.3169 7.16037C15.3774 7.09937 15.4495 7.0511 15.5289 7.01841C15.6083 6.98572 15.6935 6.96929 15.7794 6.97007C15.8653 6.97085 15.9502 6.98883 16.029 7.02295C16.1078 7.05707 16.179 7.10665 16.2384 7.16874V7.16974ZM8.07039 2.88574C11.2474 2.88574 13.8554 5.16774 13.8554 8.02874C13.8554 10.8887 11.2474 13.1707 8.07039 13.1707C7.34139 13.1707 6.6314 13.0507 5.9674 12.8207C5.2544 13.3727 4.2754 13.6727 3.0494 13.7367C2.91224 13.744 2.77524 13.7199 2.64887 13.666C2.52251 13.6122 2.41014 13.5302 2.32038 13.4262C2.23061 13.3223 2.16583 13.1991 2.13099 13.0663C2.09616 12.9334 2.09219 12.7944 2.1194 12.6597L2.1354 12.5967L2.1724 12.4887L2.2584 12.2837C2.5894 11.4837 2.7974 10.8637 2.8824 10.4437L2.9024 10.3417L2.8044 10.1627C2.46303 9.50318 2.28471 8.77141 2.2844 8.02874C2.2844 5.16774 4.89239 2.88574 8.07039 2.88574ZM8.07039 4.17074C5.56739 4.17074 3.5704 5.91874 3.5704 8.02874C3.5704 8.67574 3.7564 9.29874 4.1094 9.85574C4.1825 9.97136 4.21683 10.1073 4.2074 10.2437C4.1744 10.7137 3.9974 11.3577 3.6774 12.1957L3.6014 12.3927L3.7834 12.3627C4.4974 12.2357 5.0254 11.9867 5.3784 11.6297C5.46877 11.5385 5.58442 11.4763 5.71044 11.4514C5.83645 11.4264 5.96705 11.4398 6.0854 11.4897C6.7139 11.7532 7.3889 11.8879 8.07039 11.8857C10.5734 11.8857 12.5704 10.1377 12.5704 8.02874C12.5704 5.91874 10.5734 4.17074 8.07039 4.17074Z" fill="black"/>
</g>
<defs>
<clipPath id="clip0_1054_86148">
<rect width="20" height="20" fill="white"/>
</clipPath>
</defs>
</svg>
