<svg width="21" height="21" viewBox="0 0 21 21" fill="none" xmlns="http://www.w3.org/2000/svg">
<path d="M9.69022 3.13831C10.1402 3.44331 10.5162 3.86431 10.8082 4.39331C11.0754 3.89208 11.4583 3.46183 11.9252 3.13831C12.9902 2.41731 14.3362 2.49431 15.1472 3.30431C15.9572 4.11431 16.0342 5.46132 15.3132 6.52532C15.2161 6.66833 15.1077 6.80342 14.9892 6.92931H15.8072C16.3772 6.92931 16.8852 7.05631 17.3092 7.28931C17.7322 7.52231 18.0712 7.86131 18.3042 8.28431C18.5372 8.70731 18.6642 9.21531 18.6642 9.78631V10.0923C18.6642 10.8123 18.5642 11.1973 18.3782 11.5463C18.1912 11.8963 17.9182 12.1703 17.5682 12.3563C17.4621 12.4135 17.3514 12.4617 17.2372 12.5003L17.2362 14.6943C17.2362 15.9683 17.1032 16.4303 16.8542 16.8953C16.6107 17.3555 16.2344 17.7318 15.7742 17.9753C15.3082 18.2253 14.8472 18.3573 13.5742 18.3573H8.04022C6.76722 18.3573 6.30522 18.2243 5.84022 17.9753C5.38007 17.7318 5.00378 17.3555 4.76022 16.8953C4.51022 16.4303 4.37822 15.9683 4.37822 14.6953V12.5003C4.26333 12.4618 4.15193 12.4137 4.04522 12.3563C3.7001 12.1736 3.41789 11.8914 3.23522 11.5463C3.06522 11.2263 2.96622 10.8753 2.95122 10.2643L2.94922 9.78432C2.94922 9.21432 3.07622 8.70631 3.30922 8.28431C3.54322 7.86031 3.88222 7.52131 4.30522 7.28831C4.72822 7.05531 5.23522 6.92831 5.80622 6.92831H6.62522C6.50671 6.80243 6.39837 6.66734 6.30122 6.52432C5.58122 5.46032 5.65722 4.11431 6.46722 3.30331C7.27722 2.49331 8.62422 2.41631 9.68922 3.13731L9.69022 3.13831ZM10.0932 12.6423H5.80722V14.6943C5.80722 15.6403 5.86322 15.9283 6.02022 16.2223C6.13622 16.4383 6.29722 16.6003 6.51422 16.7163C6.80822 16.8733 7.09622 16.9283 8.04122 16.9283H10.0932V12.6423ZM11.5212 12.6423V16.9283H13.5732C14.5192 16.9283 14.8062 16.8733 15.1002 16.7163C15.3172 16.6003 15.4792 16.4383 15.5942 16.2223C15.7522 15.9283 15.8072 15.6403 15.8072 14.6943V12.6433L11.5212 12.6423ZM10.0942 8.35731H5.80722C5.48022 8.35731 5.20722 8.42331 4.99522 8.54031C4.80922 8.64331 4.66522 8.78731 4.56222 8.97331C4.44522 9.18631 4.37922 9.45831 4.37922 9.78631V10.2213C4.38622 10.5823 4.42322 10.7363 4.49622 10.8733C4.55022 10.9733 4.62022 11.0433 4.72022 11.0973C4.87022 11.1773 5.04222 11.2143 5.48822 11.2143H10.0932L10.0942 8.35731ZM15.8082 8.35731H11.5222V11.2143H16.1272L16.2432 11.2133C16.6052 11.2063 16.7592 11.1703 16.8952 11.0973C16.9914 11.0478 17.0697 10.9695 17.1192 10.8733C17.1922 10.7373 17.2292 10.5833 17.2362 10.2213V9.78631C17.2362 9.45831 17.1712 9.18631 17.0542 8.97331C16.9545 8.79002 16.8037 8.6396 16.6202 8.54031C16.4082 8.42331 16.1362 8.35731 15.8082 8.35731ZM11.5222 6.92831C14.1302 6.67831 14.8762 4.99731 14.1652 4.28631C13.4552 3.57531 11.7722 4.32131 11.5222 6.92831ZM7.45222 4.28631C6.74122 4.99631 7.48722 6.67931 10.0952 6.92831C9.84522 4.32131 8.16322 3.57531 7.45222 4.28631Z" fill="#19191A"/>
</svg>
