<svg width="21" height="21" viewBox="0 0 21 21" fill="none" xmlns="http://www.w3.org/2000/svg">
<path fill-rule="evenodd" clip-rule="evenodd" d="M3.4396 10.1956C3.4396 6.55658 6.8396 3.76758 10.8216 3.76758C14.8016 3.76758 18.2016 6.55758 18.2016 10.1956C18.2016 13.8346 14.8016 16.6236 10.8216 16.6236C9.96725 16.625 9.11773 16.4955 8.3026 16.2396C7.3736 17.1066 6.0246 17.5236 4.3726 17.5886C4.21608 17.5936 4.06084 17.5588 3.92144 17.4874C3.78204 17.4161 3.66305 17.3105 3.5756 17.1806C3.48816 17.0506 3.43513 16.9006 3.42149 16.7446C3.40784 16.5886 3.43403 16.4317 3.4976 16.2886C3.8966 15.3946 4.4126 14.3686 4.4736 13.4746C3.80386 12.512 3.44251 11.3682 3.4396 10.1956ZM10.8216 5.05358C7.3596 5.05358 4.7256 7.44358 4.7256 10.1956C4.7256 11.1836 5.0566 12.1106 5.6406 12.8956C5.7226 13.0066 5.7666 13.1416 5.7666 13.2796C5.7666 14.3296 5.3486 15.3196 4.9216 16.2606C6.2436 16.1206 7.1116 15.6976 7.6336 15.0816C7.7194 14.9808 7.8342 14.909 7.96235 14.8758C8.09049 14.8427 8.22573 14.85 8.3496 14.8966C9.14046 15.1907 9.97781 15.3401 10.8216 15.3376C14.2836 15.3376 16.9166 12.9476 16.9166 10.1956C16.9166 7.44358 14.2836 5.05358 10.8216 5.05358Z" fill="#19191A"/>
</svg>
