<svg width="48" height="49" viewBox="0 0 48 49" fill="none" xmlns="http://www.w3.org/2000/svg">
<path d="M0 24.1797C0 13.6597 0 8.39969 2.9056 4.85969C3.43752 4.21153 4.03184 3.61721 4.68 3.08529C8.22 0.179688 13.48 0.179688 24 0.179688C34.52 0.179688 39.78 0.179688 43.32 3.08529C43.968 3.61729 44.5624 4.21169 45.0944 4.85969C48 8.39969 48 13.6597 48 24.1797C48 34.6997 48 39.9597 45.0944 43.4997C44.5624 44.1478 43.9681 44.7421 43.32 45.2741C39.78 48.1797 34.52 48.1797 24 48.1797C13.48 48.1797 8.22 48.1797 4.68 45.2741C4.03186 44.7421 3.43754 44.1478 2.9056 43.4997C0 39.9597 0 34.6997 0 24.1797Z" fill="#F6F7F9"/>
<g clip-path="url(#clip0_754_42480)">
<g clip-path="url(#clip1_754_42480)">
<path fill-rule="evenodd" clip-rule="evenodd" d="M28.6 13.1797H31.4L31.4463 13.1797C31.6845 13.1796 31.969 13.1795 32.2197 13.2C32.5101 13.2237 32.9261 13.2846 33.362 13.5067C33.9265 13.7943 34.3854 14.2533 34.673 14.8177C34.8951 15.2536 34.956 15.6696 34.9798 15.96C35.0002 16.2107 35.0001 16.4952 35 16.7334V16.7797V17.5797V17.626C35.0001 17.8642 35.0002 18.1488 34.9798 18.3994C34.956 18.6898 34.8951 19.1058 34.673 19.5417C34.3854 20.1062 33.9265 20.5651 33.362 20.8527C32.9261 21.0748 32.5101 21.1357 32.2197 21.1595C31.969 21.1799 31.6845 21.1798 31.4463 21.1797H31.4H28.6H28.5537C28.3155 21.1798 28.031 21.1799 27.7804 21.1595C27.4899 21.1357 27.0739 21.0748 26.6381 20.8527C26.0736 20.5651 25.6146 20.1062 25.327 19.5417C25.1049 19.1058 25.044 18.6898 25.0203 18.3994C24.9998 18.1487 24.9999 17.8642 25 17.626V17.5797V16.7797V16.7334C24.9999 16.4952 24.9998 16.2107 25.0203 15.96C25.044 15.6696 25.1049 15.2536 25.327 14.8177C25.6146 14.2533 26.0736 13.7943 26.6381 13.5067C27.0739 13.2846 27.4899 13.2237 27.7804 13.2C28.031 13.1795 28.3155 13.1796 28.5537 13.1797L28.6 13.1797ZM27.109 15.7257C27 15.9396 27 16.2197 27 16.7797V17.5797C27 18.1398 27 18.4198 27.109 18.6337C27.2049 18.8219 27.3579 18.9749 27.546 19.0707C27.7599 19.1797 28.04 19.1797 28.6 19.1797H31.4C31.9601 19.1797 32.2401 19.1797 32.454 19.0707C32.6422 18.9749 32.7952 18.8219 32.891 18.6337C33 18.4198 33 18.1398 33 17.5797V16.7797C33 16.2197 33 15.9396 32.891 15.7257C32.7952 15.5376 32.6422 15.3846 32.454 15.2887C32.2401 15.1797 31.9601 15.1797 31.4 15.1797H28.6C28.04 15.1797 27.7599 15.1797 27.546 15.2887C27.3579 15.3846 27.2049 15.5376 27.109 15.7257ZM19.4 27.1797H16.6H16.5538C16.3155 27.1796 16.031 27.1795 15.7804 27.2C15.4899 27.2237 15.0739 27.2846 14.6381 27.5067C14.0736 27.7943 13.6146 28.2533 13.327 28.8178C13.1049 29.2536 13.044 29.6696 13.0203 29.9601C12.9998 30.2107 12.9999 30.4952 13 30.7334L13 30.7797V31.5797L13 31.626C12.9999 31.8642 12.9998 32.1487 13.0203 32.3994C13.044 32.6898 13.1049 33.1058 13.327 33.5417C13.6146 34.1062 14.0736 34.5651 14.6381 34.8527C15.0739 35.0748 15.4899 35.1357 15.7804 35.1595C16.031 35.1799 16.3155 35.1798 16.5537 35.1797H16.6H19.4H19.4463C19.6845 35.1798 19.9691 35.1799 20.2197 35.1595C20.5101 35.1357 20.9261 35.0748 21.362 34.8527C21.9265 34.5651 22.3854 34.1062 22.673 33.5417C22.8951 33.1058 22.956 32.6898 22.9798 32.3994C23.0002 32.1487 23.0001 31.8642 23 31.626V31.5797V30.7797V30.7334C23.0001 30.4952 23.0002 30.2107 22.9798 29.9601C22.956 29.6696 22.8951 29.2536 22.673 28.8178C22.3854 28.2533 21.9265 27.7943 21.362 27.5067C20.9261 27.2846 20.5101 27.2237 20.2197 27.2C19.9691 27.1795 19.6845 27.1796 19.4463 27.1797H19.4ZM15 30.7797C15 30.2197 15 29.9396 15.109 29.7257C15.2049 29.5376 15.3579 29.3846 15.546 29.2887C15.76 29.1797 16.04 29.1797 16.6 29.1797H19.4C19.9601 29.1797 20.2401 29.1797 20.454 29.2887C20.6422 29.3846 20.7952 29.5376 20.891 29.7257C21 29.9396 21 30.2197 21 30.7797V31.5797C21 32.1398 21 32.4198 20.891 32.6337C20.7952 32.8219 20.6422 32.9749 20.454 33.0707C20.2401 33.1797 19.9601 33.1797 19.4001 33.1797H16.6C16.04 33.1797 15.7599 33.1797 15.546 33.0707C15.3579 32.9749 15.2049 32.8219 15.109 32.6337C15 32.4198 15 32.1398 15 31.5797V30.7797ZM31.4 23.1797H28.6H28.5537C28.3155 23.1796 28.031 23.1795 27.7804 23.2C27.4899 23.2237 27.0739 23.2846 26.6381 23.5067C26.0736 23.7943 25.6146 24.2533 25.327 24.8178C25.1049 25.2536 25.044 25.6696 25.0203 25.9601C24.9998 26.2107 24.9999 26.4952 25 26.7334V26.7797V31.5797V31.626C24.9999 31.8642 24.9998 32.1487 25.0203 32.3994C25.044 32.6898 25.1049 33.1058 25.327 33.5417C25.6146 34.1062 26.0736 34.5651 26.6381 34.8527C27.0739 35.0748 27.4899 35.1357 27.7804 35.1595C28.031 35.1799 28.3155 35.1798 28.5537 35.1797H28.6H31.4H31.4463C31.6845 35.1798 31.9691 35.1799 32.2197 35.1595C32.5101 35.1357 32.9261 35.0748 33.362 34.8527C33.9265 34.5651 34.3854 34.1062 34.673 33.5417C34.8951 33.1058 34.956 32.6898 34.9798 32.3994C35.0002 32.1488 35.0001 31.8643 35 31.626V31.5797V26.7797V26.7334C35.0001 26.4952 35.0002 26.2107 34.9798 25.9601C34.956 25.6696 34.8951 25.2536 34.673 24.8178C34.3854 24.2533 33.9265 23.7943 33.362 23.5067C32.9261 23.2846 32.5101 23.2237 32.2197 23.2C31.969 23.1795 31.6845 23.1796 31.4463 23.1797H31.4ZM27 26.7797C27 26.2197 27 25.9396 27.109 25.7257C27.2049 25.5376 27.3579 25.3846 27.546 25.2887C27.7599 25.1797 28.04 25.1797 28.6 25.1797H31.4C31.9601 25.1797 32.2401 25.1797 32.454 25.2887C32.6422 25.3846 32.7952 25.5376 32.891 25.7257C33 25.9396 33 26.2197 33 26.7797V31.5797C33 32.1398 33 32.4198 32.891 32.6337C32.7952 32.8219 32.6422 32.9749 32.454 33.0707C32.2401 33.1797 31.9601 33.1797 31.4001 33.1797H28.6C28.04 33.1797 27.7599 33.1797 27.546 33.0707C27.3579 32.9749 27.2049 32.8219 27.109 32.6337C27 32.4198 27 32.1398 27 31.5797V26.7797ZM19.4 13.1797H16.6L16.5538 13.1797C16.3155 13.1796 16.031 13.1795 15.7804 13.2C15.4899 13.2237 15.0739 13.2846 14.6381 13.5067C14.0736 13.7943 13.6146 14.2533 13.327 14.8177C13.1049 15.2536 13.044 15.6696 13.0203 15.96C12.9998 16.2107 12.9999 16.4952 13 16.7334L13 16.7797V21.5797L13 21.626C12.9999 21.8642 12.9998 22.1487 13.0203 22.3994C13.044 22.6898 13.1049 23.1058 13.327 23.5417C13.6146 24.1062 14.0736 24.5651 14.6381 24.8527C15.0739 25.0748 15.4899 25.1357 15.7804 25.1595C16.031 25.1799 16.3155 25.1798 16.5538 25.1797H16.6H19.4H19.4463C19.6845 25.1798 19.9691 25.1799 20.2197 25.1595C20.5101 25.1357 20.9261 25.0748 21.362 24.8527C21.9265 24.5651 22.3854 24.1062 22.673 23.5417C22.8951 23.1058 22.956 22.6898 22.9798 22.3994C23.0002 22.1487 23.0001 21.8642 23 21.626V21.5797V16.7797V16.7334C23.0001 16.4952 23.0002 16.2107 22.9798 15.96C22.956 15.6696 22.8951 15.2536 22.673 14.8177C22.3854 14.2533 21.9265 13.7943 21.362 13.5067C20.9261 13.2846 20.5101 13.2237 20.2197 13.2C19.9691 13.1795 19.6845 13.1796 19.4463 13.1797L19.4 13.1797ZM15 16.7797C15 16.2197 15 15.9396 15.109 15.7257C15.2049 15.5376 15.3579 15.3846 15.546 15.2887C15.76 15.1797 16.04 15.1797 16.6 15.1797H19.4C19.9601 15.1797 20.2401 15.1797 20.454 15.2887C20.6422 15.3846 20.7952 15.5376 20.891 15.7257C21 15.9396 21 16.2197 21 16.7797V21.5797C21 22.1398 21 22.4198 20.891 22.6337C20.7952 22.8219 20.6422 22.9749 20.454 23.0707C20.2401 23.1797 19.9601 23.1797 19.4 23.1797H16.6C16.04 23.1797 15.76 23.1797 15.546 23.0707C15.3579 22.9749 15.2049 22.8219 15.109 22.6337C15 22.4198 15 22.1398 15 21.5797V16.7797Z" fill="#212121"/>
</g>
</g>
<defs>
<clipPath id="clip0_754_42480">
<rect width="24" height="24" fill="white" transform="translate(12 12.1797)"/>
</clipPath>
<clipPath id="clip1_754_42480">
<rect width="24" height="24" fill="white" transform="translate(12 12.1797)"/>
</clipPath>
</defs>
</svg>
