<svg width="48" height="49" viewBox="0 0 48 49" fill="none" xmlns="http://www.w3.org/2000/svg">
<path d="M0 24.1797C0 13.6597 0 8.39969 2.9056 4.85969C3.43752 4.21153 4.03184 3.61721 4.68 3.08529C8.22 0.179688 13.48 0.179688 24 0.179688C34.52 0.179688 39.78 0.179688 43.32 3.08529C43.968 3.61729 44.5624 4.21169 45.0944 4.85969C48 8.39969 48 13.6597 48 24.1797C48 34.6997 48 39.9597 45.0944 43.4997C44.5624 44.1478 43.9681 44.7421 43.32 45.2741C39.78 48.1797 34.52 48.1797 24 48.1797C13.48 48.1797 8.22 48.1797 4.68 45.2741C4.03186 44.7421 3.43754 44.1478 2.9056 43.4997C0 39.9597 0 34.6997 0 24.1797Z" fill="#F6F7F9"/>
<g clip-path="url(#clip0_754_42497)">
<g clip-path="url(#clip1_754_42497)">
<path fill-rule="evenodd" clip-rule="evenodd" d="M31 31.1797C32.6569 31.1797 34 29.8366 34 28.1797V17.1797C34 15.5228 32.6569 14.1797 31 14.1797H20C18.3432 14.1797 17 15.5228 17 17.1797V28.1797C17 29.8366 18.3432 31.1797 20 31.1797H31ZM31 29.1797H25.5H20C19.4477 29.1797 19 28.732 19 28.1797V17.1797C19 16.6274 19.4477 16.1797 20 16.1797H31C31.5523 16.1797 32 16.6274 32 17.1797V28.1797C32 28.732 31.5523 29.1797 31 29.1797ZM27 35.1797C28.3063 35.1797 29.4175 34.3448 29.8293 33.1796L20.1278 33.1797C18.3447 33.1797 17.6982 32.994 17.0463 32.6454C16.3945 32.2968 15.8829 31.7852 15.5343 31.1334C15.1856 30.4815 15 29.8349 15 28.0519L15.0001 19.3503C13.8349 19.7622 13 20.8734 13 22.1797V29.1797C13 32.4934 15.6863 35.1797 19 35.1797H27ZM22.2933 24.4702C21.9022 24.8613 21.9022 25.4953 22.2933 25.8864C22.6844 26.2775 23.3184 26.2775 23.7095 25.8864L27.4972 22.0987V24.3459C27.4972 24.899 27.9455 25.3473 28.4986 25.3473C29.0517 25.3473 29.5 24.899 29.5 24.3459V19.6821V19.6718C29.4976 19.4196 29.4006 19.168 29.2088 18.9751L29.2067 18.973L29.2046 18.9709C29.1091 18.8759 28.9992 18.8042 28.8819 18.7557C28.7665 18.7078 28.6403 18.6809 28.5078 18.6797L28.4976 18.6797H23.8338C23.2807 18.6797 22.8324 19.128 22.8324 19.6811C22.8324 20.2342 23.2807 20.6825 23.8338 20.6825H26.081L22.2933 24.4702Z" fill="black"/>
</g>
</g>
<defs>
<clipPath id="clip0_754_42497">
<rect width="24" height="24" fill="white" transform="translate(12 12.1797)"/>
</clipPath>
<clipPath id="clip1_754_42497">
<rect width="24" height="24" fill="white" transform="translate(12 12.1797)"/>
</clipPath>
</defs>
</svg>
