<svg width="21" height="21" viewBox="0 0 21 21" fill="none" xmlns="http://www.w3.org/2000/svg">
<path d="M16.3417 17.6674C15.7066 18.007 15.0818 18.1126 13.7738 18.1126H11.5627C11.5574 18.1127 11.5522 18.1127 11.5469 18.1127C11.1327 18.1127 10.7969 17.777 10.7969 17.3627C10.7969 16.9485 11.1327 16.6127 11.5469 16.6127L13.7738 16.6126C15.0127 16.6126 15.3326 16.506 15.6343 16.3446C15.9142 16.195 16.1293 15.9798 16.279 15.6999C16.4403 15.3983 16.5469 15.0783 16.5469 13.8394V7.55244C16.5469 6.31355 16.4403 5.99361 16.279 5.69196C16.1293 5.41208 15.9142 5.19692 15.6343 5.04724C15.3326 4.88592 15.0127 4.7793 13.7738 4.7793H11.5627C11.5575 4.77941 11.5522 4.77946 11.5469 4.77946C11.1327 4.77946 10.7969 4.44368 10.7969 4.02946C10.7969 3.61525 11.1327 3.27946 11.5469 3.27946L13.7738 3.2793C15.0818 3.2793 15.7065 3.38485 16.3417 3.72452C16.883 4.014 17.3122 4.44328 17.6017 4.98456C17.9414 5.61968 18.0469 6.2444 18.0469 7.55244V13.8394C18.0469 15.1475 17.9414 15.7722 17.6017 16.4073C17.3122 16.9486 16.883 17.3779 16.3417 17.6674Z" fill="white"/>
<path d="M8.51784 13.4977L10.5708 11.4448H3.96484C3.55063 11.4448 3.21484 11.109 3.21484 10.6948C3.21484 10.2805 3.55063 9.94474 3.96484 9.94474H10.5709L8.51784 7.89166C8.22495 7.59876 8.22495 7.12389 8.51784 6.831C8.81074 6.5381 9.28561 6.5381 9.5785 6.831L12.9118 10.1643C13.2047 10.4572 13.2047 10.9321 12.9118 11.225L9.5785 14.5584C9.28561 14.8513 8.81074 14.8513 8.51784 14.5584C8.22495 14.2655 8.22495 13.7906 8.51784 13.4977Z" fill="white"/>
</svg>
