<svg width="24" height="24" viewBox="0 0 24 24" fill="none" xmlns="http://www.w3.org/2000/svg">
<path d="M7 14C8.65625 14 10 12.6562 10 11C10 9.34375 8.65625 8 7 8C5.34375 8 4 9.34375 4 11C4 12.6562 5.34375 14 7 14ZM7 9.5C7.8125 9.5 8.5 10.1875 8.5 11C8.5 11.8438 7.8125 12.5 7 12.5C6.15625 12.5 5.5 11.8438 5.5 11C5.5 10.1875 6.15625 9.5 7 9.5ZM15.0312 12.0312L17.2812 9.78125L18.0312 10.5625C18.375 10.9062 19 10.6562 19 10.1562V7.375C19 7.1875 18.8125 7 18.625 7H15.8438C15.3438 7 15.0938 7.625 15.4375 7.96875L16.2188 8.71875L14.5 10.4375L12.7812 8.71875C12.4688 8.4375 12 8.4375 11.7188 8.71875L10.75 9.6875C10.9062 10.0938 11 10.5625 11 11C11 11.2188 10.9688 11.4375 10.9375 11.625L12.25 10.3125L13.9688 12.0312C14.25 12.3438 14.7188 12.3438 15.0312 12.0312ZM20.5 4H8.5C7.65625 4 7 4.71875 7 5.5625V7C7.1875 7 7.34375 7.03125 7.46875 7.0625C7.65625 7.09375 7.8125 7.125 7.96875 7.15625C8.09375 7.1875 8.21875 7.21875 8.34375 7.28125C8.40625 7.28125 8.4375 7.28125 8.5 7.3125V5.5H20.5V15.5H13V17H20.5C21.3125 17 22 16.3125 22 15.4688V5.5625C22 4.71875 21.3125 4 20.5 4ZM9.0625 14.6875C8.75 14.6875 8.4375 14.75 8.15625 14.8438C7.78125 14.9375 7.40625 15 7 15C6.59375 15 6.1875 14.9375 5.8125 14.8438C5.53125 14.75 5.21875 14.6875 4.90625 14.6875C3.96875 14.6875 3.03125 15.125 2.5 15.9375C2.1875 16.4062 2 16.9688 2 17.5938V18.75C2 19.4688 2.53125 20 3.25 20H10.75C11.4375 20 12 19.4688 12 18.75V17.5938C12 16.9688 11.8125 16.4062 11.4688 15.9375C10.9375 15.125 10.0312 14.6875 9.0625 14.6875ZM10.5 18.5H3.5V17.5938C3.5 17.3125 3.5625 17 3.75 16.75C3.96875 16.4062 4.40625 16.2188 4.90625 16.2188C5.0625 16.2188 5.21875 16.2188 5.375 16.2812C5.90625 16.4375 6.4375 16.5312 7 16.5312C7.53125 16.5312 8.0625 16.4375 8.59375 16.2812C8.75 16.2188 8.90625 16.2188 9.0625 16.2188C9.5625 16.2188 10 16.4062 10.2188 16.75C10.4062 17 10.5 17.3125 10.5 17.5938V18.5Z" fill="white"/>
</svg>
