<svg width="256" height="256" viewBox="0 0 256 256" fill="none" xmlns="http://www.w3.org/2000/svg">
<g clip-path="url(#clip0_1073_89990)">
<path d="M12.2656 213.334L49.0656 139.734C50.8434 136.178 53.3785 133.334 56.671 131.2C59.9634 129.067 63.6505 128 67.7323 128C71.999 128 75.9101 129.11 79.4656 131.328C83.0212 133.547 85.599 136.704 87.199 140.8L94.399 158.4C94.7545 159.467 95.5545 159.954 96.799 159.862C98.0434 159.769 98.8434 159.193 99.199 158.134L122.132 81.6003C124.621 73.067 129.379 66.2225 136.404 61.067C143.43 55.9114 151.384 53.3337 160.266 53.3337C168.977 53.3337 176.756 55.8652 183.604 60.9283C190.452 65.9914 195.206 72.6154 197.866 80.8003L243.999 213.334H12.2656ZM63.999 106.667C55.1101 106.667 47.5545 103.51 41.3323 97.195C35.1101 90.8803 31.999 83.371 31.999 74.667C31.999 65.7781 35.1101 58.2225 41.3323 52.0003C47.5545 45.7781 55.1101 42.667 63.999 42.667C72.8878 42.667 80.4434 45.7781 86.6656 52.0003C92.8878 58.2225 95.999 65.7781 95.999 74.667C95.999 83.3781 92.8878 90.891 86.6656 97.2057C80.4434 103.52 72.8878 106.674 63.999 106.667Z" fill="white"/>
</g>
<defs>
<clipPath id="clip0_1073_89990">
<rect width="256" height="256" fill="white"/>
</clipPath>
</defs>
</svg>
