<svg width="215" height="209" viewBox="0 0 215 209" fill="none" xmlns="http://www.w3.org/2000/svg">
<path d="M164.697 97.5796C161.305 97.5796 157.904 97.2478 154.587 96.5886C151.363 95.9509 148.188 94.9901 145.151 93.7449C142.167 92.517 139.298 91.0003 136.615 89.2381C133.964 87.5017 131.463 85.4982 129.192 83.2879C126.927 81.0905 124.869 78.6604 123.069 76.0752C121.251 73.4642 119.69 70.6722 118.431 67.7811C117.154 64.8427 116.169 61.762 115.504 58.6167C114.826 55.3981 114.484 52.0934 114.484 48.7887C114.484 45.484 114.826 42.1793 115.504 38.965C116.169 35.8154 117.154 32.7305 118.435 29.792C119.69 26.9052 121.251 24.1132 123.069 21.5022C124.865 18.917 126.922 16.4913 129.192 14.2852C131.458 12.0835 133.955 10.0843 136.615 8.33503C139.302 6.56849 142.176 5.05616 145.155 3.83251C148.171 2.59163 151.345 1.63081 154.582 0.988822C161.211 -0.329617 168.2 -0.329617 174.807 0.988822C178.048 1.63081 181.223 2.59163 184.247 3.83682C187.222 5.05616 190.091 6.56849 192.778 8.33503C195.443 10.0843 197.939 12.0878 200.201 14.2852C202.476 16.4956 204.533 18.9213 206.329 21.5022C208.142 24.1132 209.699 26.9009 210.963 29.792C211.163 30.2521 211.356 30.7154 211.541 31.1816C213.198 35.3458 210.301 39.6778 205.905 40.5511L204.504 40.8294C200.954 41.5346 197.562 39.2094 196.113 35.893V35.893C195.261 33.9369 194.206 32.0411 192.973 30.2702C191.754 28.5166 190.353 26.8621 188.805 25.3627C187.266 23.8676 185.564 22.5018 183.75 21.3083C181.932 20.1148 179.986 19.0894 177.968 18.2621C175.915 17.4176 173.765 16.767 171.574 16.3318C167.091 15.4399 162.307 15.4399 157.815 16.3318C155.629 16.767 153.478 17.4176 151.434 18.2578C149.408 19.0894 147.466 20.1148 145.643 21.3083C143.83 22.5018 142.131 23.8633 140.588 25.3627C139.045 26.8578 137.644 28.5123 136.42 30.2702C135.187 32.0454 134.132 33.9326 133.281 35.893C132.412 37.8879 131.742 39.9733 131.294 42.106C130.838 44.2819 130.603 46.5353 130.603 48.7887C130.603 51.0421 130.838 53.2912 131.294 55.4757C131.742 57.5999 132.412 59.6895 133.281 61.6801C134.132 63.6449 135.187 65.5363 136.42 67.3072C137.644 69.0651 139.05 70.7196 140.588 72.2147C142.136 73.7141 143.834 75.0756 145.639 76.2605C147.461 77.4626 149.408 78.4881 151.43 79.3196C153.487 80.1641 155.633 80.8104 157.815 81.2413C162.324 82.1418 167.073 82.1418 171.578 81.2413C173.756 80.8104 175.911 80.1641 177.973 79.3153C179.981 78.4881 181.932 77.4626 183.755 76.2648C185.559 75.0756 187.258 73.7141 188.805 72.2147C190.348 70.7153 191.754 69.0608 192.978 67.3029C194.206 65.5363 195.266 63.6405 196.117 61.6758V61.6758C197.563 58.3635 200.95 56.0419 204.494 56.7461L205.902 57.0258C210.299 57.8993 213.197 62.2333 211.538 66.3977C211.353 66.8604 211.162 67.3202 210.963 67.7768C209.699 70.6722 208.142 73.4599 206.333 76.0709C204.529 78.6561 202.471 81.0819 200.201 83.2879C197.931 85.4939 195.434 87.4974 192.778 89.2424C190.095 91.0003 187.227 92.517 184.251 93.7406C181.201 94.9901 178.026 95.9509 174.807 96.5886C171.494 97.2478 168.093 97.5796 164.697 97.5796Z" fill="white"/>
<path d="M50.6342 97.5796C47.2376 97.5796 43.8366 97.2478 40.5243 96.5886C37.3051 95.9509 34.1303 94.9901 31.0885 93.7449C28.1087 92.5213 25.2398 91.0046 22.5527 89.2381C19.8967 87.5017 17.3958 85.4939 15.1255 83.2879C12.8597 81.0819 10.8022 78.6561 9.00196 76.0752C7.19283 73.4728 5.63644 70.6851 4.37271 67.7854C3.08237 64.8254 2.09799 61.7404 1.44173 58.6124C0.763307 55.4067 0.421875 52.0977 0.421875 48.7887C0.421875 45.4797 0.763307 42.1706 1.44173 38.9607C2.09799 35.8326 3.08237 32.7477 4.36827 29.7963C5.63644 26.8922 7.19283 24.1002 9.00196 21.5021C10.7978 18.9213 12.8552 16.4955 15.13 14.2852C17.3869 12.0878 19.8878 10.0843 22.5527 8.33498C25.2443 6.56844 28.1176 5.0518 31.0885 3.83246C34.1126 2.59158 37.2874 1.63075 40.5199 0.988769C47.1401 -0.329672 54.1283 -0.325363 60.7396 0.988769C63.981 1.63075 67.1558 2.59158 70.1844 3.83677C73.1508 5.0518 76.0242 6.56844 78.7157 8.33498C81.3806 10.0843 83.877 12.0878 86.1429 14.2895C88.4087 16.4955 90.4706 18.9213 92.2664 21.5021C94.0711 24.1002 95.632 26.8922 96.8957 29.7919C98.1816 32.7477 99.166 35.8326 99.8267 38.965C100.501 42.1706 100.847 45.4797 100.847 48.7887V48.7887C100.847 53.1124 97.3415 56.6175 93.0177 56.6175H50.732C46.4071 56.6175 42.901 53.1114 42.901 48.7865V48.7865C42.901 44.4616 46.4071 40.9556 50.732 40.9556H78.4175C81.137 40.9556 83.1371 38.3859 82.0502 35.893V35.893C81.1944 33.9282 80.139 32.0367 78.9108 30.2745C77.6914 28.5166 76.2858 26.8621 74.7427 25.3627C73.1996 23.8633 71.5057 22.5017 69.6877 21.3126C67.8609 20.1148 65.9187 19.085 63.9056 18.2621C61.8526 17.4176 59.6976 16.767 57.5071 16.3318C53.0286 15.4442 48.2442 15.4442 43.7524 16.3318C41.5664 16.767 39.4158 17.4176 37.3672 18.2577C35.3497 19.085 33.4031 20.1148 31.5762 21.3126C29.7627 22.5017 28.0644 23.8633 26.5302 25.3584C24.9782 26.8621 23.577 28.5166 22.3576 30.2702C21.1294 32.0367 20.0696 33.9282 19.2138 35.8973C18.3447 37.8922 17.6796 39.9818 17.2317 42.1017C16.7706 44.2862 16.54 46.531 16.54 48.7887C16.54 51.0421 16.7706 53.2912 17.2317 55.4714C17.6796 57.5912 18.3447 59.6852 19.2182 61.6844C20.0696 63.6491 21.1294 65.5406 22.3576 67.3072C23.577 69.0608 24.9826 70.7153 26.5257 72.2147C28.0732 73.7141 29.7671 75.0756 31.5718 76.2605C33.4031 77.4626 35.3497 78.4881 37.3672 79.3196C39.4247 80.1641 41.5752 80.8104 43.7524 81.2413C48.2575 82.1418 53.0065 82.1418 57.516 81.2413C59.6932 80.8104 61.8437 80.1641 63.9056 79.3153C65.9143 78.4881 67.8653 77.4626 69.6877 76.2648C71.5013 75.0756 73.1952 73.7141 74.7382 72.2147C76.2858 70.7153 77.6914 69.0608 78.9108 67.3029V67.3029C80.9618 64.3602 84.7078 62.768 88.0247 64.1335L89.3229 64.668C93.4799 66.3793 95.4693 71.2206 93.0053 74.9807C92.764 75.349 92.5176 75.7139 92.2664 76.0752C90.4662 78.6561 88.4087 81.0819 86.1384 83.2879C83.8726 85.4939 81.3717 87.5017 78.7112 89.2424C76.0286 91.0046 73.1552 92.5213 70.1844 93.7406C67.1337 94.9901 63.9588 95.9509 60.7396 96.5886C57.4273 97.2478 54.0308 97.5796 50.6342 97.5796Z" fill="white"/>
<path d="M164.697 208.421V208.421C160.247 208.421 156.64 204.814 156.64 200.364V160.177C156.64 155.727 160.247 152.12 164.697 152.12V152.12C169.146 152.12 172.754 155.727 172.754 160.177V186.351C172.754 189.151 175.376 191.22 177.968 190.161V190.161C182.021 188.493 185.67 186.102 188.805 183.056C191.94 180.014 194.397 176.468 196.117 172.521C197.891 168.445 198.791 164.107 198.791 159.63C198.791 155.158 197.891 150.819 196.117 146.734C194.397 142.796 191.94 139.25 188.805 136.204C185.67 133.162 182.025 130.771 177.964 129.099C169.57 125.652 159.824 125.652 151.43 129.099C147.368 130.771 143.723 133.162 140.588 136.204C137.453 139.25 134.992 142.796 133.281 146.739C131.503 150.819 130.603 155.158 130.603 159.63C130.603 164.107 131.503 168.445 133.281 172.521C134.992 176.464 137.453 180.01 140.588 183.06C143 185.404 145.723 187.356 148.698 188.894V188.894C150.165 189.657 150.887 191.407 150.227 192.922L148.223 197.527C146.516 201.447 141.944 203.339 138.28 201.134C134.999 199.161 131.959 196.82 129.192 194.133C124.581 189.648 120.958 184.43 118.435 178.622C115.815 172.603 114.484 166.214 114.484 159.63C114.484 153.051 115.815 146.661 118.435 140.638C120.963 134.83 124.581 129.612 129.188 125.131C133.795 120.654 139.165 117.138 145.147 114.678C157.544 109.585 171.849 109.581 184.242 114.678C190.229 117.138 195.594 120.654 200.201 125.131C204.808 129.607 208.426 134.821 210.963 140.633C213.583 146.661 214.909 153.051 214.909 159.63C214.909 166.214 213.583 172.603 210.963 178.622C208.431 184.439 204.808 189.657 200.201 194.133C195.589 198.614 190.22 202.13 184.247 204.582C178.048 207.133 171.468 208.421 164.697 208.421Z" fill="white"/>
<path d="M50.6342 208.421C47.2332 208.421 43.8278 208.089 40.5243 207.434C37.2874 206.788 34.1126 205.827 31.084 204.582C30.6068 204.386 30.1319 204.183 29.6598 203.972C25.6027 202.16 24.6459 197.073 27.1825 193.425L27.8383 192.482C29.918 189.491 33.9874 188.776 37.3583 190.157V190.157C39.4158 191.005 41.5664 191.652 43.7568 192.087C48.2353 192.974 53.0153 192.979 57.516 192.087C59.6976 191.652 61.8526 191.005 63.9012 190.161C65.9187 189.334 67.8609 188.308 69.6877 187.106C71.5057 185.917 73.1996 184.555 74.7382 183.06C76.2858 181.557 77.6914 179.902 78.9108 178.148C80.139 176.382 81.1944 174.49 82.0502 172.521C82.9193 170.527 83.5888 168.437 84.0322 166.321C84.4934 164.133 84.7284 161.888 84.7284 159.63C84.7284 157.377 84.4934 155.128 84.0367 152.947C83.5888 150.827 82.9193 148.734 82.0502 146.734C81.1944 144.774 80.139 142.878 78.9108 141.112C77.6914 139.358 76.2858 137.703 74.7427 136.204C73.1952 134.705 71.5013 133.343 69.6922 132.158C67.8653 130.956 65.9143 129.931 63.9012 129.099C61.8437 128.259 59.6932 127.608 57.516 127.177C53.0065 126.281 48.2575 126.281 43.7524 127.177C41.5752 127.608 39.4247 128.259 37.3583 129.103C35.3497 129.931 33.4031 130.956 31.5762 132.154C29.7671 133.343 28.0732 134.705 26.5302 136.204C24.9826 137.703 23.577 139.358 22.3532 141.116C21.1294 142.878 20.0696 144.774 19.2138 146.743C18.3447 148.734 17.6796 150.827 17.2317 152.943C16.7706 155.128 16.54 157.377 16.54 159.63V200.362C16.54 204.813 12.9318 208.421 8.48094 208.421V208.421C4.03004 208.421 0.421875 204.813 0.421875 200.362V159.63C0.421875 156.321 0.763307 153.016 1.44173 149.802C2.09799 146.678 3.08237 143.593 4.36827 140.642C5.63644 137.734 7.19283 134.946 9.00196 132.343C10.8022 129.763 12.8597 127.337 15.13 125.131C17.3958 122.925 19.8967 120.917 22.5572 119.176C25.2398 117.414 28.1087 115.897 31.084 114.678C34.1303 113.429 37.3051 112.468 40.5243 111.83C47.149 110.512 54.115 110.512 60.7396 111.83C63.9588 112.468 67.1337 113.429 70.1755 114.674C73.1553 115.897 76.0286 117.414 78.7157 119.181C81.3717 120.917 83.8726 122.925 86.1429 125.131C88.4087 127.337 90.4662 129.763 92.262 132.343C94.0756 134.946 95.632 137.734 96.8957 140.633C98.1816 143.593 99.166 146.678 99.8267 149.806C100.501 153.016 100.847 156.321 100.847 159.63C100.847 162.939 100.501 166.248 99.8222 169.462C99.166 172.586 98.1816 175.671 96.9001 178.622C95.632 181.526 94.0711 184.318 92.262 186.917C90.4706 189.497 88.4087 191.923 86.1384 194.133C83.877 196.331 81.3806 198.334 78.7157 200.084C76.0242 201.85 73.1508 203.367 70.1755 204.586C67.1558 205.827 63.981 206.788 60.7485 207.43C57.4362 208.089 54.0352 208.421 50.6342 208.421Z" fill="white"/>
</svg>
