<svg width="152" height="160" viewBox="0 0 152 160" fill="none" xmlns="http://www.w3.org/2000/svg">
<rect width="152" height="160" rx="20" fill="#0070F0"/>
<path d="M100.361 77.0532C98.9287 77.0532 97.4927 76.9058 96.0923 76.6128C94.7312 76.3294 93.3907 75.9023 92.1083 75.3489C90.8483 74.8032 89.637 74.1291 88.5043 73.3459C87.3847 72.5742 86.3288 71.6837 85.3702 70.7014C84.4135 69.7247 83.5448 68.6447 82.7847 67.4957C82.0171 66.3353 81.3581 65.0944 80.8264 63.8095C80.2872 62.5035 79.8716 61.1343 79.5908 59.7364C79.3043 58.3059 79.1602 56.8372 79.1602 55.3684C79.1602 53.8996 79.3043 52.4309 79.5908 51.0023C79.8716 49.6025 80.2872 48.2314 80.8283 46.9254C81.3581 45.6424 82.0171 44.4015 82.7847 43.241C83.543 42.0921 84.4117 41.014 85.3702 40.0335C86.3269 39.055 87.381 38.1664 88.5043 37.389C89.6388 36.6038 90.852 35.9317 92.1101 35.3879C93.3832 34.8364 94.7237 34.4093 96.0904 34.124C98.8894 33.538 101.84 33.538 104.63 34.124C105.998 34.4093 107.339 34.8363 108.615 35.3898C109.872 35.9317 111.083 36.6038 112.218 37.389C113.343 38.1664 114.397 39.0569 115.352 40.0335C116.312 41.0159 117.181 42.094 117.939 43.241C118.705 44.4015 119.362 45.6405 119.895 46.9254C120.009 47.1999 120.117 47.4769 120.219 47.756C120.862 49.5114 119.657 51.3105 117.827 51.6932L117.292 51.8051C115.734 52.1309 114.236 51.1069 113.625 49.637C113.266 48.7676 112.82 47.925 112.3 47.138C111.785 46.3586 111.193 45.6232 110.54 44.9568C109.89 44.2923 109.171 43.6853 108.406 43.1549C107.638 42.6244 106.816 42.1687 105.964 41.801C105.098 41.4257 104.19 41.1365 103.265 40.9431C101.372 40.5467 99.3518 40.5467 97.4553 40.9431C96.5323 41.1365 95.6243 41.4257 94.7612 41.7991C93.9056 42.1687 93.0856 42.6244 92.3161 43.1549C91.5504 43.6853 90.8333 44.2904 90.1818 44.9568C89.5303 45.6213 88.9386 46.3567 88.4219 47.138C87.9014 47.9269 87.4559 48.7657 87.0964 49.637C86.7294 50.5236 86.4467 51.4504 86.2577 52.3983C86.0648 53.3654 85.9656 54.3669 85.9656 55.3684C85.9656 56.3699 86.0648 57.3695 86.2577 58.3404C86.4467 59.2844 86.7294 60.2132 87.0964 61.0979C87.4559 61.9711 87.9014 62.8118 88.4219 63.5988C88.9386 64.3801 89.5321 65.1155 90.1818 65.7799C90.8352 66.4463 91.5522 67.0515 92.3142 67.5781C93.0837 68.1123 93.9056 68.5681 94.7593 68.9377C95.628 69.313 96.5341 69.6003 97.4553 69.7918C99.3593 70.192 101.364 70.192 103.267 69.7918C104.186 69.6003 105.096 69.313 105.966 68.9358C106.814 68.5681 107.638 68.1123 108.408 67.58C109.17 67.0515 109.887 66.4463 110.54 65.7799C111.192 65.1135 111.785 64.3782 112.302 63.5969C112.82 62.8118 113.268 61.9692 113.627 61.096C114.236 59.6278 115.732 58.6054 117.287 58.9308L117.826 59.0434C119.656 59.4261 120.861 61.226 120.218 62.9815C120.116 63.2592 120.008 63.5347 119.895 63.8076C119.362 65.0944 118.705 66.3334 117.941 67.4938C117.179 68.6428 116.31 69.7209 115.352 70.7014C114.393 71.6818 113.339 72.5723 112.218 73.3478C111.085 74.1291 109.874 74.8032 108.617 75.347C107.329 75.9023 105.989 76.3294 104.63 76.6128C103.231 76.9058 101.795 77.0532 100.361 77.0532Z" fill="white"/>
<path d="M52.2008 77.0532C50.7667 77.0532 49.3307 76.9058 47.9321 76.6128C46.5729 76.3294 45.2324 75.9023 43.9481 75.3489C42.69 74.8051 41.4787 74.131 40.3441 73.3459C39.2227 72.5742 38.1668 71.6818 37.2082 70.7013C36.2515 69.7209 35.3828 68.6428 34.6227 67.4957C33.8588 66.3391 33.2017 65.1001 32.6681 63.8114C32.1233 62.4958 31.7077 61.1247 31.4306 59.7345C31.1442 58.3097 31 56.8391 31 55.3684C31 53.8977 31.1442 52.427 31.4306 51.0004C31.7077 49.6101 32.1233 48.239 32.6663 46.9273C33.2017 45.6366 33.8588 44.3957 34.6227 43.241C35.3809 42.094 36.2496 41.0159 37.2101 40.0335C38.163 39.0569 39.2189 38.1664 40.3441 37.389C41.4806 36.6038 42.6937 35.9298 43.9481 35.3878C45.225 34.8363 46.5654 34.4093 47.9303 34.124C50.7255 33.538 53.6761 33.5399 56.4675 34.124C57.8361 34.4093 59.1766 34.8363 60.4553 35.3897C61.7078 35.9298 62.921 36.6038 64.0574 37.389C65.1826 38.1664 66.2366 39.0569 67.1933 40.0354C68.15 41.0159 69.0206 42.094 69.7788 43.241C70.5408 44.3957 71.1998 45.6366 71.7334 46.9254C72.2763 48.239 72.692 49.6101 72.9709 51.0023C73.2555 52.427 73.4015 53.8977 73.4015 55.3684C73.4015 57.29 71.8437 58.8478 69.9221 58.8478H52.4161C50.4939 58.8478 48.9356 57.2896 48.9356 55.3674C48.9356 53.4452 50.4939 51.887 52.4161 51.887H63.8248C65.0328 51.887 65.9276 50.753 65.4653 49.6369C65.1039 48.7637 64.6584 47.9231 64.1398 47.1399C63.6249 46.3586 63.0314 45.6232 62.3799 44.9568C61.7284 44.2904 61.0132 43.6853 60.2456 43.1568C59.4742 42.6244 58.6542 42.1667 57.8042 41.801C56.9374 41.4257 56.0275 41.1365 55.1027 40.9431C53.2117 40.5486 51.1916 40.5486 49.2951 40.9431C48.3721 41.1365 47.4641 41.4257 46.5991 41.7991C45.7473 42.1667 44.9254 42.6244 44.1541 43.1568C43.3883 43.6853 42.6713 44.2904 42.0235 44.9549C41.3682 45.6232 40.7766 46.3586 40.2618 47.1379C39.7432 47.9231 39.2957 48.7637 38.9344 49.6389C38.5674 50.5255 38.2866 51.4542 38.0975 52.3964C37.9028 53.3673 37.8054 54.3649 37.8054 55.3684C37.8054 56.3699 37.9028 57.3695 38.0975 58.3385C38.2866 59.2806 38.5674 60.2113 38.9362 61.0998C39.2957 61.973 39.7432 62.8137 40.2618 63.5988C40.7766 64.3782 41.3701 65.1135 42.0216 65.7799C42.675 66.4463 43.3902 67.0515 44.1522 67.5781C44.9254 68.1123 45.7473 68.5681 46.5991 68.9377C47.4678 69.313 48.3759 69.6003 49.2951 69.7917C51.1973 70.192 53.2024 70.192 55.1064 69.7917C56.0257 69.6003 56.9337 69.313 57.8042 68.9358C58.6523 68.5681 59.4761 68.1123 60.2456 67.58C61.0113 67.0515 61.7265 66.4463 62.378 65.7799C63.0314 65.1135 63.6249 64.3782 64.1398 63.5969C65.0002 62.2974 66.639 61.6038 68.0691 62.2235L68.6514 62.4758C70.3616 63.2169 71.1841 65.2115 70.2166 66.8046C70.0749 67.038 69.9289 67.2685 69.7788 67.4957C69.0187 68.6428 68.15 69.7209 67.1914 70.7013C66.2347 71.6818 65.1788 72.5742 64.0555 73.3478C62.9228 74.131 61.7096 74.8051 60.4553 75.347C59.1672 75.9023 57.8267 76.3294 56.4675 76.6128C55.069 76.9058 53.6349 77.0532 52.2008 77.0532Z" fill="white"/>
<path d="M100.361 126.315C98.4822 126.315 96.9591 124.792 96.9591 122.914V104.695C96.9591 102.816 98.4822 101.293 100.361 101.293C102.24 101.293 103.763 102.816 103.763 104.695V116.617C103.763 117.799 104.878 118.667 105.964 118.2C107.676 117.459 109.216 116.396 110.54 115.042C111.864 113.69 112.901 112.114 113.627 110.36C114.376 108.549 114.756 106.62 114.756 104.631C114.756 102.643 114.376 100.715 113.627 98.8992C112.901 97.1489 111.864 95.5729 110.54 94.219C109.216 92.8671 107.677 91.8043 105.963 91.0613C102.418 89.5293 98.3034 89.5293 94.7593 91.0613C93.0444 91.8043 91.5054 92.8671 90.1818 94.219C88.8581 95.5729 87.8191 97.1489 87.0964 98.9011C86.3456 100.715 85.9656 102.643 85.9656 104.631C85.9656 106.62 86.3456 108.549 87.0964 110.36C87.8191 112.112 88.8581 113.688 90.1818 115.044C91.2003 116.086 92.3498 116.953 93.606 117.637C94.2308 117.979 94.5408 118.728 94.2686 119.386L93.454 121.356C92.7141 123.144 90.6316 124.003 89.008 122.949C87.6989 122.1 86.4823 121.102 85.3702 119.965C83.4231 117.972 81.8936 115.653 80.8283 113.072C79.7218 110.396 79.1602 107.557 79.1602 104.631C79.1602 101.706 79.7218 98.8666 80.8283 96.1895C81.8954 93.6082 83.4231 91.2892 85.3684 89.2976C87.3136 87.308 89.5808 85.7454 92.1064 84.652C97.3411 82.3885 103.381 82.3866 108.614 84.652C111.141 85.7454 113.406 87.308 115.352 89.2976C117.297 91.2873 118.825 93.6043 119.895 96.1876C121.002 98.8666 121.562 101.706 121.562 104.631C121.562 107.557 121.002 110.396 119.895 113.072C118.826 115.657 117.297 117.976 115.352 119.965C113.405 121.957 111.137 123.52 108.615 124.609C105.998 125.743 103.22 126.315 100.361 126.315Z" fill="white"/>
<path d="M52.2008 126.315C50.7648 126.315 49.3269 126.168 47.9321 125.877C46.5654 125.59 45.225 125.163 43.9462 124.609C43.719 124.511 43.493 124.409 43.2685 124.302C41.5712 123.495 41.1725 121.356 42.2083 119.788L42.6124 119.176C43.4583 117.896 45.1861 117.59 46.5954 118.198C47.4641 118.575 48.3721 118.862 49.297 119.056C51.1879 119.45 53.2061 119.452 55.1064 119.056C56.0275 118.862 56.9374 118.575 57.8024 118.2C58.6542 117.832 59.4742 117.376 60.2456 116.842C61.0132 116.314 61.7284 115.709 62.378 115.044C63.0314 114.376 63.6249 113.64 64.1398 112.861C64.6584 112.076 65.1039 111.235 65.4653 110.36C65.8322 109.473 66.1149 108.545 66.3021 107.605C66.4969 106.632 66.5961 105.634 66.5961 104.631C66.5961 103.629 66.4969 102.629 66.304 101.661C66.1149 100.718 65.8322 99.7877 65.4653 98.8992C65.1039 98.0279 64.6584 97.1853 64.1398 96.4002C63.6249 95.6208 63.0314 94.8854 62.3799 94.219C61.7265 93.5526 61.0113 92.9475 60.2475 92.4209C59.4761 91.8866 58.6523 91.4309 57.8024 91.0613C56.9337 90.6879 56.0257 90.3987 55.1064 90.2072C53.2024 89.8089 51.1973 89.8089 49.2951 90.2072C48.3759 90.3987 47.4678 90.6879 46.5954 91.0632C45.7473 91.4309 44.9254 91.8866 44.1541 92.419C43.3902 92.9475 42.675 93.5526 42.0235 94.219C41.3701 94.8854 40.7766 95.6208 40.2599 96.4021C39.7432 97.1853 39.2957 98.0279 38.9344 98.903C38.5674 99.7877 38.2866 100.718 38.0975 101.659C37.9028 102.629 37.8054 103.629 37.8054 104.631V122.913C37.8054 124.792 36.282 126.315 34.4027 126.315C32.5234 126.315 31 124.792 31 122.913V104.631C31 103.16 31.1442 101.691 31.4306 100.263C31.7077 98.8743 32.1233 97.5032 32.6663 96.1914C33.2017 94.8988 33.8588 93.6599 34.6227 92.5033C35.3828 91.3562 36.2515 90.2781 37.2101 89.2976C38.1668 88.3172 39.2227 87.4248 40.346 86.6512C41.4787 85.868 42.69 85.1939 43.9462 84.652C45.2324 84.0966 46.5729 83.6696 47.9321 83.3862C50.7292 82.8002 53.6704 82.8002 56.4675 83.3862C57.8267 83.6696 59.1672 84.0966 60.4515 84.6501C61.7096 85.1939 62.9228 85.868 64.0574 86.6531C65.1788 87.4248 66.2347 88.3172 67.1933 89.2976C68.15 90.2781 69.0187 91.3562 69.7769 92.5033C70.5427 93.6599 71.1998 94.8988 71.7334 96.1876C72.2763 97.5032 72.692 98.8743 72.9709 100.265C73.2555 101.691 73.4015 103.16 73.4015 104.631C73.4015 106.101 73.2555 107.572 72.969 109C72.692 110.389 72.2763 111.76 71.7353 113.072C71.1998 114.362 70.5408 115.603 69.7769 116.758C69.0206 117.905 68.15 118.983 67.1914 119.965C66.2366 120.942 65.1826 121.833 64.0574 122.61C62.921 123.395 61.7078 124.069 60.4515 124.611C59.1766 125.163 57.8361 125.59 56.4712 125.875C55.0727 126.168 53.6367 126.315 52.2008 126.315Z" fill="white"/>
</svg>
