<svg width="42" height="42" viewBox="0 0 42 42" fill="none" xmlns="http://www.w3.org/2000/svg">
<g clip-path="url(#clip0_1870_663)">
<path fill-rule="evenodd" clip-rule="evenodd" d="M21.4701 41.8798C17.3601 41.8798 15.4501 41.2798 12.1301 38.8798C10.0301 41.5798 3.38008 43.6898 3.09008 40.0798C3.09008 37.3698 2.49008 35.0798 1.81008 32.5798C1.00008 29.4998 0.0800781 26.0698 0.0800781 21.0998C0.0800781 9.22981 9.82008 0.299805 21.3601 0.299805C32.9101 0.299805 41.9601 9.6698 41.9601 21.2098C41.9787 26.6664 39.8316 31.9074 35.9902 35.7827C32.1487 39.6579 26.9266 41.8507 21.4701 41.8798ZM21.6401 10.5598C16.0201 10.2698 11.6401 14.1598 10.6701 20.2598C9.87008 25.3098 11.2901 31.4598 12.5001 31.7798C13.0801 31.9198 14.5401 30.7398 15.4501 29.8298C16.9548 30.8693 18.7071 31.4936 20.5301 31.6398C23.3293 31.7745 26.0697 30.8055 28.1622 28.9412C30.2546 27.0768 31.5321 24.466 31.7201 21.6698C31.8295 18.8678 30.8346 16.1349 28.9495 14.059C27.0643 11.9831 24.4396 10.7302 21.6401 10.5698V10.5598Z" fill="black"/>
</g>
<defs>
<clipPath id="clip0_1870_663">
<rect width="42" height="42" fill="white"/>
</clipPath>
</defs>
</svg>
