<svg width="42" height="43" viewBox="0 0 42 43" fill="none" xmlns="http://www.w3.org/2000/svg">
<g clip-path="url(#clip0_1881_214084)">
<g clip-path="url(#clip1_1881_214084)">
<path d="M6.8794 40.9418C6.8794 41.8578 6.14037 42.6003 5.22875 42.6003C4.31714 42.6003 3.57812 41.8578 3.57812 40.9418C3.57812 40.0258 4.31714 39.2832 5.22875 39.2832C6.14037 39.2832 6.8794 40.0258 6.8794 40.9418Z" fill="#7E9F78"/>
<path d="M16.7466 42.5804C16.7466 43.4964 16.0075 44.2389 15.0959 44.2389C14.1844 44.2389 13.4453 43.4964 13.4453 42.5804C13.4453 41.6644 14.1844 40.9219 15.0959 40.9219C16.0075 40.9219 16.7466 41.6644 16.7466 42.5804Z" fill="#7E9F78"/>
<path d="M26.6527 42.5804C26.6527 43.4964 25.9138 44.2389 25.0022 44.2389C24.0905 44.2389 23.3516 43.4964 23.3516 42.5804C23.3516 41.6644 24.0905 40.9219 25.0022 40.9219C25.9138 40.9219 26.6527 41.6644 26.6527 42.5804Z" fill="#7E9F78"/>
<path d="M20.9043 29.2711C20.9043 29.78 20.4938 30.1925 19.9873 30.1925C19.4809 30.1925 19.0703 29.78 19.0703 29.2711C19.0703 28.7622 19.4809 28.3496 19.9873 28.3496C20.4938 28.3496 20.9043 28.7622 20.9043 29.2711Z" fill="#7E9F78"/>
<path d="M19.9629 27.1001C19.9629 27.9483 19.2787 28.6358 18.4346 28.6358C17.5905 28.6358 16.9062 27.9483 16.9062 27.1001C16.9062 26.2519 17.5905 25.5645 18.4346 25.5645C19.2787 25.5645 19.9629 26.2519 19.9629 27.1001Z" fill="#7E9F78"/>
<path d="M23.553 26.8762C23.553 27.8036 22.8049 28.5553 21.882 28.5553C20.9591 28.5553 20.2109 27.8036 20.2109 26.8762C20.2109 25.949 20.9591 25.1973 21.882 25.1973C22.8049 25.1973 23.553 25.949 23.553 26.8762Z" fill="#7E9F78"/>
<path d="M36.7153 40.9418C36.7153 41.8578 35.9763 42.6003 35.0647 42.6003C34.153 42.6003 33.4141 41.8578 33.4141 40.9418C33.4141 40.0258 34.153 39.2832 35.0647 39.2832C35.9763 39.2832 36.7153 40.0258 36.7153 40.9418Z" fill="#7E9F78"/>
<path d="M18.5599 38.383L15.7681 41.1062L16.6443 42.601L20.1698 39.1406L23.3691 42.601L24.4287 41.1472L21.6369 38.383V36.1102L25.4884 36.0897L27.567 38.2192H31.4185L33.6396 40.6558L35.0458 39.4887L32.1113 36.4583H28.1172L25.9775 34.4107L26.059 23.4151L28.1784 19.9957H32.1724L37.3688 14.7948C39.9773 14.0668 40.0588 12.2254 39.7735 11.3957C37.5075 10.6259 36.4654 12.5219 36.2276 13.5662L31.4185 18.419H29.1565L34.0472 10.0239H37.9191L40.7924 5.76489C43.1563 4.43805 42.7012 2.63208 42.1781 1.89495C39.423 1.78028 39.1554 3.97666 39.366 5.08919L37.002 8.38584H35.0254L35.6368 7.42344C37.9028 6.30955 37.5591 4.24285 37.104 3.34873C34.5933 3.51255 34.1423 5.58744 34.2306 6.60441L24.3676 23.2104V34.4107H16.3794V23.4151L7.69836 8.93868C7.54086 6.33412 5.56771 5.9287 4.60084 6.05155C3.96504 8.57421 5.5722 9.64169 6.45526 9.86007L7.98358 12.3377H5.39559L0.2603 7.05487C-0.0820534 4.63052 -1.89298 4.2565 -2.75566 4.37253C-3.636 6.74773 -1.92695 7.8739 -0.962386 8.14014L4.78424 13.9757L8.98215 14.0576L11.3868 18.1732L7.00546 16.8833C5.3263 14.7538 3.50721 15.723 2.80757 16.4738C3.29664 18.6688 5.55182 18.6989 6.61831 18.4395L12.4668 20.139L14.6269 23.6813V34.5131H13.9544L11.9981 36.5197H8.06516L5.17143 39.3863L6.65901 40.3897L8.79875 38.1782H12.5891L14.6269 36.1102H18.5599V38.383Z" fill="#7E9F78"/>
<path d="M19.1676 18.6853C19.8197 19.6518 20.2409 19.9343 20.3699 19.9548C20.6471 19.8893 21.1918 19.2722 21.4296 18.972L30.4367 3.75836C32.6701 2.46429 32.2503 0.52999 31.7612 -0.275391C29.2181 -0.209866 28.854 1.97695 28.9898 3.06218L25.4848 8.71353L24.1806 7.36211C23.3328 4.56101 21.4499 4.59787 20.6144 4.96643C19.8482 7.22698 21.776 8.14703 22.8356 8.32453L24.6697 10.3516L20.3699 17.4362L17.0075 11.8873L18.6582 10.2492V5.39643C20.158 3.25056 18.8619 1.7176 18.0264 1.21935C15.8744 2.31685 16.4505 4.46136 17.0075 5.39643V9.63492L16.1108 10.3516L11.5462 2.85742C11.2853 0.12664 9.31814 -0.287044 8.36721 -0.152538C7.55204 2.5339 9.38612 3.56042 10.405 3.73788C13.0542 8.31765 18.5155 17.7188 19.1676 18.6853Z" fill="#7E9F78"/>
<path d="M18.4141 31.748C18.4141 31.0243 18.9979 30.4375 19.7182 30.4375H20.3296C21.0499 30.4375 21.6338 31.0243 21.6338 31.748V34.5327H18.4141V31.748Z" fill="#7E9F78"/>
<path d="M36.7578 15.7575C37.1247 16.5765 38.3269 17.8297 40.2018 16.2899C39.7806 15.4503 38.5022 14.1686 36.7578 15.7575Z" fill="#7E9F78"/>
<path d="M41.2656 6.03529C41.8258 6.73515 43.3034 7.64375 44.732 5.6793C44.114 4.97336 42.5556 4.05626 41.2656 6.03529Z" fill="#7E9F78"/>
<path d="M31.9289 3.62695C31.41 4.35825 30.9393 6.03341 33.2081 6.8836C33.7172 6.09483 34.1741 4.3392 31.9289 3.62695Z" fill="#7E9F78"/>
<path d="M25.3552 2.13281C24.4854 2.33968 23.0332 3.28872 24.183 5.42992C25.0832 5.1733 26.5778 4.15463 25.3552 2.13281Z" fill="#7E9F78"/>
<path d="M27.5651 -1.46289C26.9508 -0.810455 26.2547 0.783496 28.3851 1.93989C28.9977 1.22918 29.691 -0.446386 27.5651 -1.46289Z" fill="#7E9F78"/>
<path d="M13.439 2.40928C13.2295 3.2824 13.4155 5.01296 15.8361 4.95028C16.0152 4.02753 15.7866 2.22748 13.439 2.40928Z" fill="#7E9F78"/>
<path d="M13.3884 -1.43164C12.5126 -1.25172 11.0321 -0.347945 12.116 1.82772C13.0235 1.59902 14.5485 0.626958 13.3884 -1.43164Z" fill="#7E9F78"/>
<path d="M10.4412 5.36017C9.99178 4.58379 8.66656 3.46277 6.96094 5.18971C7.46646 5.98078 8.8703 7.12238 10.4412 5.36017Z" fill="#7E9F78"/>
<path d="M10.3957 6.57812C9.51647 6.73967 8.01756 7.61221 9.05599 9.81018C9.96808 9.60044 11.513 8.66055 10.3957 6.57812Z" fill="#7E9F78"/>
<path d="M2.40354 4.28516C1.52427 4.4467 0.0253386 5.31927 1.06383 7.51716C1.97591 7.30751 3.52077 6.3676 2.40354 4.28516Z" fill="#7E9F78"/>
<path d="M7.48243 19.3694C6.68003 18.9737 4.95854 18.7792 4.49219 21.1667C5.34947 21.5433 7.14773 21.7111 7.48243 19.3694Z" fill="#7E9F78"/>
<path d="M16.7266 29.5166V34.5537L17.8881 34.5127C17.8948 33.8643 17.9044 32.3668 17.8881 31.5642C17.8718 30.7615 18.4247 30.3288 18.7032 30.2127C18.263 29.6722 18.4655 28.9911 18.6217 28.7181C18.5741 28.7112 18.3242 28.7016 17.7047 28.7181C17.0852 28.7344 16.7944 29.2572 16.7266 29.5166Z" fill="#7E9F78"/>
<path d="M21.4368 28.7188C21.6487 29.4395 21.3485 30.0019 21.1719 30.193C21.8729 30.537 22.1025 31.0598 22.1297 31.2782V34.5134H23.8415V30.2749C23.8415 29.2429 23.1622 28.8075 22.8226 28.7188H21.4368Z" fill="#7E9F78"/>
</g>
</g>
<defs>
<clipPath id="clip0_1881_214084">
<rect width="42" height="42" fill="white" transform="translate(0 0.25)"/>
</clipPath>
<clipPath id="clip1_1881_214084">
<rect width="48" height="46" fill="white" transform="translate(-3 -1.75)"/>
</clipPath>
</defs>
</svg>
