<svg width="69" height="42" viewBox="0 0 69 42" fill="none" xmlns="http://www.w3.org/2000/svg">
<path d="M38.7476 20.0627C38.5105 20.2865 37.8627 19.9963 37.3006 19.4145C36.7386 18.8326 36.4752 18.1795 36.7123 17.9556C36.9494 17.7317 37.5972 18.0219 38.1593 18.6038C38.7213 19.1856 38.9847 19.8388 38.7476 20.0627Z" fill="#323232"/>
<path d="M32.8909 14.7991C32.2247 14.9493 31.6083 15.1404 31.0419 15.3725C30.4738 15.5975 29.9851 15.8456 29.5759 16.1168C29.1796 16.3851 28.881 16.6686 28.6804 16.9673C28.4781 17.259 28.4104 17.5501 28.4775 17.8407C28.5428 18.1242 28.725 18.359 29.024 18.5451C29.3342 18.7212 29.7275 18.8488 30.204 18.9277C30.6916 18.9968 31.2416 19.0145 31.8538 18.9808C32.4644 18.9401 33.1092 18.8432 33.7883 18.6902C34.4545 18.54 35.0716 18.3524 35.6398 18.1274C36.2062 17.8953 36.6876 17.6451 37.084 17.3768C37.4932 17.1057 37.799 16.8242 38.0013 16.5326C38.2019 16.2339 38.2687 15.9392 38.2017 15.6486C38.1364 15.3651 37.9486 15.1353 37.6384 14.9592C37.3266 14.776 36.9333 14.6484 36.4584 14.5765C35.9819 14.4975 35.4384 14.4784 34.8278 14.5191C34.2156 14.5527 33.57 14.646 32.8909 14.7991ZM34.0727 19.9234C33.163 20.1284 32.305 20.2361 31.4987 20.2464C30.6924 20.2566 29.9747 20.1836 29.3456 20.0271C28.7149 19.8636 28.1952 19.6266 27.7866 19.3161C27.3893 18.9956 27.1391 18.6121 27.0361 18.1656C26.9331 17.7191 26.9913 17.2698 27.2105 16.8177C27.4409 16.3557 27.8053 15.9194 28.3036 15.5089C28.8003 15.0912 29.4142 14.7142 30.1454 14.3779C30.8765 14.0416 31.6969 13.7709 32.6065 13.5659C33.5162 13.3608 34.3741 13.2532 35.1805 13.2429C35.9868 13.2326 36.7053 13.3092 37.336 13.4728C37.9651 13.6292 38.4784 13.8676 38.8758 14.1881C39.2843 14.4987 39.5401 14.8772 39.6431 15.3237C39.7461 15.7702 39.6823 16.2245 39.4519 16.6865C39.2327 17.1385 38.8747 17.5734 38.378 17.9911C37.8797 18.4016 37.265 18.7751 36.5338 19.1114C35.8027 19.4477 34.9823 19.7183 34.0727 19.9234Z" fill="url(#paint0_linear_1881_214108)"/>
<path d="M37.1878 16.6507C37.3176 16.9483 36.8169 17.4478 36.0695 17.7661C35.3221 18.0845 34.6111 18.1013 34.4814 17.8036C34.3516 17.5059 34.8523 17.0065 35.5997 16.6881C36.3471 16.3697 37.0581 16.353 37.1878 16.6507Z" fill="#323232"/>
<path d="M61.2579 16.2268C61.2579 16.3074 61.2579 16.4135 61.2579 16.5453C61.2653 16.6771 61.269 16.8126 61.269 16.9517C61.2764 17.0908 61.2838 17.2189 61.2912 17.336C61.306 17.4532 61.3171 17.541 61.3245 17.5996C61.3764 18.0023 61.5726 18.3025 61.9133 18.5002C62.2539 18.6905 62.676 18.7857 63.1796 18.7857C63.5128 18.7857 63.8016 18.7491 64.046 18.6759C64.2978 18.6027 64.5052 18.5038 64.6681 18.3794C64.831 18.2549 64.9495 18.1158 65.0235 17.962C65.105 17.801 65.1457 17.6399 65.1457 17.4788C65.1457 17.3251 65.105 17.175 65.0235 17.0285C64.9495 16.8821 64.831 16.7503 64.6681 16.6332C64.5126 16.5087 64.3089 16.4099 64.0571 16.3367C63.8128 16.2635 63.5239 16.2268 63.1907 16.2268H61.2579ZM61.2801 15.0627H63.1796C63.6239 15.0627 64.0201 15.125 64.3682 15.2494C64.7162 15.3739 65.0087 15.546 65.2457 15.7656C65.4901 15.9852 65.6752 16.2415 65.8011 16.5343C65.927 16.8272 65.9899 17.142 65.9899 17.4788C65.9899 17.8156 65.9233 18.1377 65.79 18.4452C65.6641 18.7454 65.479 19.009 65.2346 19.236C64.9976 19.4629 64.7051 19.6423 64.3571 19.7741C64.009 19.9059 63.6128 19.9718 63.1685 19.9718C62.813 19.9718 62.4687 19.9242 62.1354 19.829C61.8022 19.7411 61.5097 19.6057 61.2579 19.4227C61.0061 19.2323 60.8025 18.9907 60.6469 18.6978C60.4988 18.3977 60.4248 18.0462 60.4248 17.6435V13.5801H61.2801V15.0627Z" fill="black"/>
<path d="M49.251 13.5802V14.4148C49.5176 14.078 49.8434 13.8254 50.2285 13.657C50.621 13.4886 51.0283 13.4044 51.4504 13.4044C51.6947 13.4044 51.9391 13.4337 52.1835 13.4923C52.4353 13.5509 52.6686 13.6387 52.8833 13.7559C53.0981 13.8657 53.2943 14.0048 53.472 14.1732C53.6498 14.3416 53.7942 14.5356 53.9053 14.7553C54.0312 14.5356 54.183 14.3416 54.3607 14.1732C54.5384 14.0048 54.7347 13.8657 54.9494 13.7559C55.1642 13.6387 55.3938 13.5509 55.6381 13.4923C55.8825 13.4337 56.1306 13.4044 56.3824 13.4044C56.7304 13.4044 57.0674 13.4594 57.3932 13.5692C57.7265 13.679 58.0227 13.8474 58.2819 14.0744C58.5485 14.3013 58.7595 14.5869 58.915 14.931C59.0779 15.2751 59.1594 15.6778 59.1594 16.139V19.7961H58.3041V16.5234C58.3041 16.3403 58.2893 16.1866 58.2596 16.0621C58.2374 15.9377 58.1967 15.8242 58.1374 15.7217C58.0486 15.524 57.9338 15.3593 57.7931 15.2275C57.6524 15.0957 57.4969 14.9895 57.3266 14.909C57.1562 14.8285 56.9785 14.7736 56.7934 14.7443C56.6082 14.7077 56.4305 14.6894 56.2602 14.6894C55.9714 14.6894 55.7011 14.7296 55.4493 14.8102C55.1975 14.8907 54.979 15.0115 54.7939 15.1726C54.6162 15.3263 54.4718 15.5167 54.3607 15.7436C54.257 15.9706 54.2052 16.2305 54.2052 16.5234V19.7961H53.3499V16.5234C53.3499 16.3403 53.335 16.1866 53.3054 16.0621C53.2832 15.9377 53.2425 15.8242 53.1832 15.7217C53.0944 15.524 52.9796 15.3593 52.8389 15.2275C52.6982 15.0957 52.5427 14.9895 52.3723 14.909C52.202 14.8285 52.0243 14.7736 51.8392 14.7443C51.654 14.7077 51.4763 14.6894 51.306 14.6894C51.0172 14.6894 50.7469 14.7296 50.4951 14.8102C50.2433 14.8907 50.0248 15.0115 49.8397 15.1726C49.662 15.3263 49.5176 15.5167 49.4065 15.7436C49.3028 15.9706 49.251 16.2305 49.251 16.5234V19.7961H48.3956V13.5802H49.251Z" fill="black"/>
<path d="M46.63 15.6778C46.3189 15.3483 45.9635 15.0994 45.5636 14.931C45.1637 14.7626 44.7268 14.6784 44.2528 14.6784C43.8752 14.6784 43.5197 14.7296 43.1865 14.8321C42.8606 14.9273 42.5718 15.0664 42.32 15.2494C42.0756 15.4252 41.8794 15.6375 41.7313 15.8864C41.5906 16.128 41.5202 16.3953 41.5202 16.6881C41.5202 16.9883 41.5943 17.2628 41.7424 17.5118C41.8905 17.7607 42.0905 17.973 42.3422 18.1487C42.594 18.3245 42.8902 18.4599 43.2309 18.5551C43.5715 18.6503 43.9307 18.6978 44.3084 18.6978C44.7971 18.6978 45.26 18.6137 45.6969 18.4453C46.1338 18.2769 46.5115 18.017 46.8299 17.6655L47.5075 18.5002C47.1076 18.9761 46.63 19.3421 46.0746 19.5984C45.5266 19.8473 44.9378 19.9718 44.3084 19.9718C43.8048 19.9718 43.3309 19.8912 42.8865 19.7302C42.4496 19.5618 42.0682 19.3348 41.7424 19.0493C41.4166 18.7564 41.1574 18.4087 40.9648 18.006C40.7797 17.6033 40.6871 17.164 40.6871 16.6881C40.6871 16.2195 40.7797 15.7839 40.9648 15.3812C41.1574 14.9786 41.4129 14.6308 41.7313 14.3379C42.0571 14.0451 42.4385 13.8181 42.8754 13.657C43.3124 13.4886 43.7789 13.4044 44.2751 13.4044C44.8601 13.4044 45.4155 13.5289 45.9413 13.7778C46.4745 14.0194 46.941 14.3855 47.3409 14.8761L46.63 15.6778Z" fill="black"/>
<path d="M19.5267 19.7961L22.5704 13.5801H23.3479L26.3915 19.7961H25.4696L23.0702 15.2934L20.9041 19.7961H19.5267Z" fill="black"/>
<path d="M15.814 18.6979C16.2213 18.6979 16.5916 18.6466 16.9248 18.5441C17.258 18.4416 17.5431 18.3025 17.7801 18.1268C18.0245 17.9511 18.2096 17.7461 18.3355 17.5118C18.4688 17.2775 18.5355 17.0322 18.5355 16.776C18.5355 16.5124 18.4688 16.2635 18.3355 16.0292C18.2022 15.7949 18.0134 15.5936 17.769 15.4252C17.532 15.2495 17.2469 15.1104 16.9137 15.0079C16.5804 14.9054 16.2139 14.8541 15.814 14.8541C15.4067 14.8541 15.0364 14.909 14.7032 15.0188C14.3699 15.1213 14.0811 15.2605 13.8367 15.4362C13.5998 15.6119 13.4146 15.8169 13.2813 16.0512C13.148 16.2781 13.0814 16.5197 13.0814 16.776C13.0814 17.0396 13.148 17.2885 13.2813 17.5228C13.4146 17.7571 13.6035 17.9621 13.8479 18.1378C14.0922 18.3062 14.381 18.4416 14.7143 18.5441C15.0475 18.6466 15.4141 18.6979 15.814 18.6979ZM15.8917 13.701C16.4027 13.701 16.8693 13.7815 17.2914 13.9426C17.7209 14.1037 18.0874 14.3233 18.3911 14.6015C18.7021 14.8797 18.9428 15.2092 19.1131 15.5899C19.2834 15.9706 19.3686 16.377 19.3686 16.8089C19.3686 17.2482 19.2797 17.6619 19.102 18.0499C18.9243 18.4306 18.6762 18.7638 18.3577 19.0493C18.0467 19.3348 17.6727 19.5618 17.2358 19.7302C16.8063 19.8913 16.3324 19.9718 15.814 19.9718C15.3104 19.9718 14.8365 19.8949 14.3922 19.7412C13.9478 19.5874 13.559 19.3458 13.2258 19.0164C12.9 18.6869 12.6408 18.2659 12.4482 17.7534C12.2557 17.2336 12.1594 16.6113 12.1594 15.8864C12.1594 15.1104 12.2335 14.4624 12.3816 13.9426C12.5371 13.4155 12.7407 12.9835 12.9925 12.6467C13.2443 12.3026 13.5294 12.0354 13.8479 11.845C14.1737 11.6546 14.5069 11.5082 14.8476 11.4057C15.1438 11.3105 15.4326 11.2263 15.714 11.1531C15.9954 11.0726 16.2731 10.9847 16.5471 10.8896C16.8211 10.7871 17.0951 10.6663 17.3691 10.5271C17.6431 10.388 17.9208 10.2123 18.2022 10L18.8132 10.9664C18.5318 11.2154 18.2504 11.424 17.969 11.5924C17.6876 11.7608 17.4024 11.9036 17.1136 12.0207C16.8322 12.1379 16.5434 12.2404 16.2472 12.3282C15.9584 12.4088 15.6585 12.4966 15.3474 12.5918C15.1401 12.6577 14.9216 12.7382 14.6921 12.8334C14.4625 12.9286 14.2403 13.064 14.0256 13.2397C13.8182 13.4155 13.6257 13.6497 13.448 13.9426C13.2702 14.2355 13.1258 14.6162 13.0147 15.0847C13.2073 14.8285 13.4183 14.6125 13.6479 14.4368C13.8849 14.2611 14.1293 14.1183 14.381 14.0085C14.6328 13.8987 14.8846 13.8218 15.1364 13.7779C15.3956 13.7266 15.6474 13.701 15.8917 13.701Z" fill="black"/>
<path d="M7.64351 14.6784C7.25843 14.6784 6.89556 14.7296 6.55491 14.8321C6.21427 14.9273 5.91435 15.0628 5.65516 15.2385C5.40338 15.4142 5.20343 15.6265 5.05532 15.8754C4.90721 16.117 4.83316 16.3879 4.83316 16.6881C4.83316 16.981 4.90351 17.2519 5.04421 17.5008C5.19232 17.7424 5.39227 17.9547 5.64405 18.1378C5.90324 18.3135 6.20316 18.4526 6.54381 18.5551C6.88445 18.6503 7.25102 18.6978 7.64351 18.6978C8.02859 18.6978 8.39145 18.6503 8.7321 18.5551C9.07275 18.4526 9.36897 18.3135 9.62075 18.1378C9.87994 17.962 10.0836 17.7534 10.2317 17.5118C10.3798 17.2628 10.4539 16.9883 10.4539 16.6881C10.4539 16.3953 10.3798 16.128 10.2317 15.8864C10.0836 15.6375 9.88364 15.4252 9.63186 15.2494C9.38007 15.0664 9.08386 14.9273 8.74321 14.8321C8.40256 14.7296 8.03599 14.6784 7.64351 14.6784ZM7.64351 19.9718C7.11772 19.9718 6.63267 19.8876 6.18835 19.7192C5.74402 19.5508 5.35894 19.3202 5.03311 19.0273C4.70727 18.7271 4.45178 18.3794 4.26665 17.984C4.08892 17.5813 4.00005 17.1494 4.00005 16.6881C4.00005 16.2269 4.08892 15.7986 4.26665 15.4032C4.45178 15.0005 4.70727 14.6528 5.03311 14.3599C5.35894 14.0597 5.74402 13.8254 6.18835 13.657C6.63267 13.4886 7.11772 13.4044 7.64351 13.4044C8.16929 13.4044 8.65434 13.4886 9.09867 13.657C9.54299 13.8254 9.92807 14.0597 10.2539 14.3599C10.5797 14.6528 10.8315 15.0005 11.0093 15.4032C11.1944 15.7986 11.287 16.2269 11.287 16.6881C11.287 17.1494 11.1944 17.5813 11.0093 17.984C10.8315 18.3794 10.5797 18.7271 10.2539 19.0273C9.92807 19.3202 9.54299 19.5508 9.09867 19.7192C8.65434 19.8876 8.16929 19.9718 7.64351 19.9718Z" fill="black"/>
<path d="M65.1336 26.3552V24.3894H63.2119C62.9601 24.3894 62.7231 24.415 62.501 24.4662C62.2862 24.5102 62.1011 24.5761 61.9455 24.6639C61.79 24.7444 61.6678 24.8469 61.579 24.9714C61.4901 25.0886 61.4457 25.224 61.4457 25.3778C61.4457 25.5315 61.4901 25.6706 61.579 25.7951C61.6753 25.9122 61.8011 26.0147 61.9567 26.1026C62.1196 26.1831 62.3084 26.2453 62.5232 26.2893C62.7379 26.3332 62.9675 26.3552 63.2119 26.3552H65.1336ZM60.4459 29.4521L62.4121 27.091C61.8567 26.9958 61.4161 26.7835 61.0902 26.454C60.7644 26.1245 60.6015 25.7109 60.6015 25.213C60.6015 24.9202 60.6644 24.6529 60.7903 24.4113C60.9162 24.1697 61.0939 23.9611 61.3235 23.7853C61.5531 23.6096 61.8271 23.4742 62.1455 23.379C62.4713 23.2838 62.8342 23.2362 63.2341 23.2362H66V29.4521H65.1336V27.3875H63.3563L61.5012 29.4521H60.4459Z" fill="black"/>
<path d="M56.1366 29.6278C55.7812 29.6278 55.4257 29.5729 55.0702 29.4631C54.7222 29.3533 54.4112 29.1886 54.1372 28.9689C53.8632 28.742 53.641 28.4564 53.4707 28.1123C53.3004 27.7609 53.2152 27.3509 53.2152 26.8823V23.2362H54.0705V26.4869C54.0705 26.6773 54.0853 26.8384 54.115 26.9702C54.152 27.0946 54.2001 27.2081 54.2594 27.3106C54.3482 27.5156 54.4704 27.684 54.6259 27.8158C54.7888 27.9476 54.9629 28.0537 55.148 28.1343C55.3331 28.2075 55.522 28.2624 55.7145 28.299C55.9145 28.3283 56.0996 28.3429 56.2699 28.3429C56.4402 28.3429 56.6254 28.3283 56.8253 28.299C57.0253 28.2624 57.2178 28.2038 57.4029 28.1233C57.5881 28.0428 57.7584 27.9366 57.9139 27.8048C58.0768 27.673 58.2064 27.5046 58.3027 27.2996C58.3619 27.1971 58.4064 27.0836 58.436 26.9592C58.4656 26.8274 58.4804 26.67 58.4804 26.4869V23.2362H59.3469V29.4521H58.4804V28.5845C58.199 28.936 57.8473 29.1995 57.4252 29.3753C57.0105 29.5437 56.5809 29.6278 56.1366 29.6278Z" fill="black"/>
<path d="M42.0414 23.2362V24.0709C42.308 23.7341 42.6338 23.4815 43.0189 23.3131C43.4114 23.1447 43.8187 23.0605 44.2408 23.0605C44.4852 23.0605 44.7296 23.0898 44.9739 23.1484C45.2257 23.2069 45.459 23.2948 45.6738 23.4119C45.8885 23.5218 46.0847 23.6609 46.2625 23.8293C46.4402 23.9977 46.5846 24.1917 46.6957 24.4113C46.8216 24.1917 46.9734 23.9977 47.1511 23.8293C47.3289 23.6609 47.5251 23.5218 47.7399 23.4119C47.9546 23.2948 48.1842 23.2069 48.4286 23.1484C48.6729 23.0898 48.921 23.0605 49.1728 23.0605C49.5209 23.0605 49.8578 23.1154 50.1836 23.2252C50.5169 23.3351 50.8131 23.5035 51.0723 23.7304C51.3389 23.9574 51.5499 24.2429 51.7055 24.587C51.8684 24.9311 51.9498 25.3338 51.9498 25.7951V29.4521H51.0945V26.1795C51.0945 25.9964 51.0797 25.8427 51.0501 25.7182C51.0279 25.5937 50.9871 25.4803 50.9279 25.3778C50.839 25.1801 50.7242 25.0153 50.5835 24.8836C50.4428 24.7518 50.2873 24.6456 50.117 24.5651C49.9467 24.4845 49.7689 24.4296 49.5838 24.4003C49.3987 24.3637 49.2209 24.3454 49.0506 24.3454C48.7618 24.3454 48.4915 24.3857 48.2397 24.4662C47.9879 24.5468 47.7695 24.6676 47.5843 24.8286C47.4066 24.9824 47.2622 25.1728 47.1511 25.3997C47.0474 25.6267 46.9956 25.8866 46.9956 26.1795V29.4521H46.1403V26.1795C46.1403 25.9964 46.1255 25.8427 46.0959 25.7182C46.0736 25.5937 46.0329 25.4803 45.9737 25.3778C45.8848 25.1801 45.77 25.0153 45.6293 24.8836C45.4886 24.7518 45.3331 24.6456 45.1628 24.5651C44.9925 24.4845 44.8147 24.4296 44.6296 24.4003C44.4445 24.3637 44.2667 24.3454 44.0964 24.3454C43.8076 24.3454 43.5373 24.3857 43.2855 24.4662C43.0337 24.5468 42.8153 24.6676 42.6301 24.8286C42.4524 24.9824 42.308 25.1728 42.1969 25.3997C42.0932 25.6267 42.0414 25.8866 42.0414 26.1795V29.4521H41.1861V23.2362H42.0414Z" fill="black"/>
<path d="M36.6324 29.6278C36.2769 29.6278 35.9215 29.5729 35.566 29.4631C35.2179 29.3533 34.9069 29.1886 34.6329 28.9689C34.3589 28.742 34.1368 28.4564 33.9664 28.1123C33.7961 27.7609 33.7109 27.3509 33.7109 26.8823V23.2362H34.5663V26.4869C34.5663 26.6773 34.5811 26.8384 34.6107 26.9702C34.6477 27.0946 34.6959 27.2081 34.7551 27.3106C34.844 27.5156 34.9662 27.684 35.1217 27.8158C35.2846 27.9476 35.4586 28.0537 35.6438 28.1343C35.8289 28.2075 36.0177 28.2624 36.2103 28.299C36.4102 28.3283 36.5953 28.3429 36.7657 28.3429C36.936 28.3429 37.1211 28.3283 37.3211 28.299C37.521 28.2624 37.7136 28.2038 37.8987 28.1233C38.0838 28.0428 38.2541 27.9366 38.4097 27.8048C38.5726 27.673 38.7022 27.5046 38.7985 27.2996C38.8577 27.1971 38.9021 27.0836 38.9318 26.9592C38.9614 26.8274 38.9762 26.67 38.9762 26.4869V23.2362H39.8426V29.4521H38.9762V28.5845C38.6948 28.936 38.343 29.1995 37.9209 29.3753C37.5062 29.5437 37.0767 29.6278 36.6324 29.6278Z" fill="black"/>
<path d="M27.1539 25.5535C27.1687 26.4174 27.376 27.0983 27.7759 27.5961C28.1832 28.0867 28.7905 28.332 29.5977 28.332C29.8865 28.332 30.1605 28.299 30.4196 28.2331C30.6788 28.1672 30.9084 28.0757 31.1084 27.9586C31.3083 27.8341 31.4675 27.684 31.586 27.5083C31.7045 27.3326 31.7637 27.1312 31.7637 26.9043C31.7637 26.6846 31.7008 26.4906 31.5749 26.3222C31.449 26.1538 31.275 26.0147 31.0528 25.9049C30.8381 25.7878 30.5826 25.6999 30.2864 25.6413C29.9975 25.5828 29.6865 25.5535 29.3533 25.5535H27.1539ZM29.4866 24.7518C29.7309 24.7518 29.9642 24.7335 30.1864 24.6969C30.4159 24.6603 30.6159 24.6053 30.7862 24.5321C30.9565 24.4516 31.0898 24.3491 31.1861 24.2246C31.2898 24.0928 31.3416 23.9391 31.3416 23.7634C31.3416 23.5877 31.2972 23.4266 31.2083 23.2802C31.1195 23.1264 30.9973 22.9983 30.8418 22.8958C30.6862 22.7933 30.5011 22.7127 30.2864 22.6542C30.0716 22.5956 29.8383 22.5663 29.5865 22.5663C29.2681 22.5663 28.9682 22.6176 28.6868 22.7201C28.4128 22.8152 28.1684 22.958 27.9536 23.1484C27.7463 23.3314 27.576 23.5584 27.4427 23.8293C27.3094 24.1002 27.2242 24.4077 27.1872 24.7518H29.4866ZM26.3208 25.4656C26.3208 24.836 26.3985 24.2686 26.554 23.7634C26.7169 23.2509 26.9428 22.8152 27.2316 22.4565C27.5278 22.0977 27.8796 21.8195 28.2869 21.6219C28.6942 21.4242 29.1459 21.3253 29.6421 21.3253C30.0272 21.3253 30.3789 21.3839 30.6974 21.501C31.0158 21.6182 31.2861 21.7756 31.5082 21.9733C31.7378 22.171 31.9155 22.4016 32.0414 22.6652C32.1673 22.9214 32.2303 23.196 32.2303 23.4888C32.2303 23.8549 32.1229 24.188 31.9081 24.4882C31.6934 24.7884 31.3675 24.9897 30.9306 25.0922C31.1824 25.1361 31.4157 25.2203 31.6304 25.3448C31.8452 25.4619 32.0303 25.6084 32.1858 25.7841C32.3414 25.9598 32.4598 26.1611 32.5413 26.3881C32.6302 26.6151 32.6746 26.864 32.6746 27.1349C32.6746 27.5156 32.5894 27.8597 32.4191 28.1672C32.2562 28.4747 32.034 28.7383 31.7526 28.9579C31.4712 29.1703 31.1417 29.335 30.764 29.4521C30.3863 29.5693 29.9864 29.6279 29.5643 29.6279C29.0385 29.6279 28.572 29.5363 28.1647 29.3533C27.7648 29.1629 27.4279 28.8884 27.1539 28.5296C26.8799 28.1709 26.6725 27.7353 26.5318 27.2228C26.3911 26.7103 26.3208 26.1245 26.3208 25.4656Z" fill="black"/>
<path d="M20.1161 23.983C20.4345 23.7048 20.8122 23.4852 21.2491 23.3241C21.6861 23.1557 22.1489 23.0715 22.6376 23.0715C22.9783 23.0715 23.2967 23.1154 23.5929 23.2033C23.8966 23.2838 24.1595 23.401 24.3816 23.5547C24.6038 23.7085 24.7778 23.8952 24.9037 24.1148C25.037 24.3344 25.1036 24.5834 25.1036 24.8616C25.1036 25.1691 25.0185 25.4327 24.8482 25.6523C24.6852 25.872 24.4483 26.0477 24.1372 26.1795C24.5149 26.3039 24.8185 26.4943 25.0481 26.7505C25.2777 27.0068 25.3925 27.3289 25.3925 27.717C25.3925 28.0025 25.3184 28.2661 25.1703 28.5077C25.0296 28.742 24.8296 28.9433 24.5705 29.1117C24.3187 29.2728 24.0188 29.3972 23.6707 29.4851C23.3301 29.5803 22.9561 29.6279 22.5488 29.6279C22.0304 29.6279 21.5342 29.5546 21.0603 29.4082C20.5864 29.2618 20.1791 29.0678 19.8384 28.8262L20.3938 27.8268C20.7048 28.0245 21.0714 28.1819 21.4935 28.299C21.9156 28.4162 22.3377 28.4747 22.7598 28.4747C22.9672 28.4747 23.1708 28.4564 23.3708 28.4198C23.5781 28.3759 23.7633 28.3137 23.9262 28.2331C24.0891 28.1526 24.2187 28.0537 24.315 27.9366C24.4186 27.8121 24.4705 27.6694 24.4705 27.5083C24.4705 27.3179 24.4223 27.1678 24.3261 27.058C24.2298 26.9409 24.1039 26.8494 23.9484 26.7835C23.7929 26.7176 23.6152 26.6736 23.4152 26.6517C23.2227 26.6297 23.0301 26.6187 22.8376 26.6187H21.3713V25.828H22.6599C22.8302 25.828 23.0079 25.8207 23.1931 25.8061C23.3782 25.7841 23.5448 25.7475 23.6929 25.6962C23.841 25.6377 23.9632 25.5571 24.0595 25.4546C24.1558 25.3448 24.2039 25.2057 24.2039 25.0373C24.2039 24.9055 24.1632 24.7884 24.0817 24.6859C24.0076 24.5834 23.9077 24.4955 23.7818 24.4223C23.6559 24.3491 23.5078 24.2942 23.3375 24.2576C23.1671 24.221 22.9857 24.2027 22.7932 24.2027C22.4377 24.2027 22.0748 24.2612 21.7046 24.3784C21.3417 24.4955 20.9974 24.6712 20.6715 24.9055L20.1161 23.983Z" fill="black"/>
<path d="M15.4016 24.3344C15.0239 24.3344 14.6685 24.3857 14.3352 24.4882C14.0094 24.5834 13.7243 24.7188 13.4799 24.8945C13.2355 25.0703 13.043 25.2826 12.9023 25.5315C12.7616 25.7731 12.6912 26.044 12.6912 26.3442C12.6912 26.637 12.7616 26.9079 12.9023 27.1569C13.043 27.3985 13.2355 27.6108 13.4799 27.7938C13.7243 27.9695 14.0094 28.1087 14.3352 28.2112C14.6685 28.3063 15.0239 28.3539 15.4016 28.3539C15.7793 28.3539 16.131 28.3063 16.4569 28.2112C16.7827 28.1087 17.0641 27.9695 17.3011 27.7938C17.5455 27.6108 17.7343 27.3985 17.8676 27.1569C18.0083 26.9079 18.0786 26.637 18.0786 26.3442C18.0786 26.0513 18.0083 25.7841 17.8676 25.5425C17.7343 25.2936 17.5455 25.0812 17.3011 24.9055C17.0641 24.7225 16.7827 24.5834 16.4569 24.4882C16.131 24.3857 15.7793 24.3344 15.4016 24.3344ZM15.3794 23.0605C15.957 23.0605 16.4754 23.174 16.9345 23.401C17.3936 23.6279 17.7676 23.9391 18.0564 24.3344V23.2362H18.9117V29.4521H18.0564V28.3429C17.7676 28.7456 17.3936 29.0604 16.9345 29.2874C16.4754 29.5144 15.957 29.6279 15.3794 29.6279C14.8906 29.6279 14.4315 29.5473 14.002 29.3862C13.5725 29.2178 13.1985 28.9872 12.8801 28.6944C12.569 28.4015 12.3209 28.0537 12.1358 27.6511C11.9507 27.2484 11.8581 26.8128 11.8581 26.3442C11.8581 25.8683 11.9507 25.4327 12.1358 25.0373C12.3209 24.6346 12.569 24.2869 12.8801 23.994C13.1985 23.7011 13.5725 23.4742 14.002 23.3131C14.4315 23.1447 14.8906 23.0605 15.3794 23.0605Z" fill="black"/>
<path d="M7.51016 24.3344C7.13248 24.3344 6.78073 24.3857 6.45489 24.4882C6.12905 24.5834 5.84394 24.7225 5.59957 24.9055C5.36259 25.0812 5.17375 25.2936 5.03305 25.5425C4.89975 25.7841 4.83311 26.0513 4.83311 26.3442C4.83311 26.637 4.89975 26.9079 5.03305 27.1569C5.17375 27.3985 5.36259 27.6108 5.59957 27.7938C5.84394 27.9695 6.12905 28.1087 6.45489 28.2112C6.78073 28.3063 7.13248 28.3539 7.51016 28.3539C7.88783 28.3539 8.23959 28.3063 8.56543 28.2112C8.89867 28.1087 9.18748 27.9695 9.43186 27.7938C9.67624 27.6108 9.86878 27.3985 10.0095 27.1569C10.1502 26.9079 10.2205 26.637 10.2205 26.3442C10.2205 26.044 10.1502 25.7731 10.0095 25.5315C9.86878 25.2826 9.67624 25.0703 9.43186 24.8945C9.18748 24.7188 8.89867 24.5834 8.56543 24.4882C8.23959 24.3857 7.88783 24.3344 7.51016 24.3344ZM7.53238 23.0605C8.02113 23.0605 8.48027 23.1447 8.90978 23.3131C9.33929 23.4742 9.70956 23.7011 10.0206 23.994C10.339 24.2869 10.5908 24.6346 10.7759 25.0373C10.9611 25.4327 11.0536 25.8683 11.0536 26.3442C11.0536 26.8128 10.9611 27.2484 10.7759 27.6511C10.5908 28.0537 10.339 28.4015 10.0206 28.6944C9.70956 28.9872 9.33929 29.2178 8.90978 29.3862C8.48027 29.5473 8.02113 29.6279 7.53238 29.6279C6.95476 29.6279 6.43638 29.5144 5.97724 29.2874C5.51811 29.0604 5.14414 28.7456 4.85532 28.3429V32H4V23.2362H4.85532V24.3344C5.14414 23.9391 5.51811 23.6279 5.97724 23.401C6.43638 23.174 6.95476 23.0605 7.53238 23.0605Z" fill="black"/>
<defs>
<linearGradient id="paint0_linear_1881_214108" x1="-6.40269" y1="15.0658" x2="104.819" y2="43.4498" gradientUnits="userSpaceOnUse">
<stop stop-color="#56C02B"/>
<stop offset="1" stop-color="#285A14"/>
</linearGradient>
</defs>
</svg>
