<svg width="24" height="24" viewBox="0 0 24 24" fill="none" xmlns="http://www.w3.org/2000/svg">
<path d="M12 2C17.5228 2 22 6.47715 22 12C22 17.5228 17.5228 22 12 22C6.47715 22 2 17.5228 2 12C2 6.47715 6.47715 2 12 2ZM11.8037 3.89062C11.6075 3.8476 11.42 4.25247 11.0459 5.06055L8.31445 10.96C7.72284 12.2378 7.42776 12.8774 7.72266 13.3389C8.01776 13.7999 8.72191 13.7998 10.1299 13.7998H11.5C11.7356 13.7998 11.8535 13.7999 11.9268 13.873C12 13.9462 12 14.0642 12 14.2998V18.7295C12 19.6202 12.0001 20.0662 12.1963 20.1094C12.3925 20.1524 12.58 19.7475 12.9541 18.9395L15.6855 13.04C16.2772 11.7622 16.5722 11.1226 16.2773 10.6611C15.9822 10.2001 15.2781 10.2002 13.8701 10.2002H12.5C12.2644 10.2002 12.1465 10.2001 12.0732 10.127C12 10.0537 12 9.93577 12 9.7002V5.27051C12 4.37985 11.9999 3.93384 11.8037 3.89062Z" fill="#0077FF"/>
</svg>
