<svg width="24" height="24" viewBox="0 0 24 24" fill="none" xmlns="http://www.w3.org/2000/svg">
<path d="M21.8438 10.5938L20.5625 8.09375C20.2188 7.375 19.3438 7.03125 18.5625 7.4375L16.9375 8.21875C16.9375 8.21875 14.5625 8 14.5312 8C13.9375 8 13.375 8.15625 12.875 8.40625C12.6875 8.125 12.4375 7.96875 12.1562 7.84375C12.5 6.71875 11.6875 5.53125 10.4688 5.53125C10.375 4.71875 9.65625 4 8.75 4C8.34375 4 7.9375 4.15625 7.625 4.40625C6.21875 5.59375 5.3125 7.21875 5.0625 9L4.125 10.6562L2.71875 11.4688C2.0625 11.875 1.78125 12.7188 2.125 13.4375C2.15625 13.4375 3.40625 15.9375 3.40625 15.9375C3.75 16.6562 4.65625 17 5.40625 16.5938L7.03125 15.7812C9.4375 16 9.4375 16 9.46875 16C10.0625 16 10.5938 15.875 11.0938 15.625C11.2812 15.9062 11.5312 16.0625 11.8125 16.1875C11.4375 17.3438 12.3438 18.5 13.5 18.5C13.5938 19.3438 14.3125 20.0312 15.2188 20.0312C15.625 20.0312 16.0312 19.875 16.3438 19.625C17.75 18.4375 18.6562 16.8125 18.9062 15.0312L19.8438 13.375L21.25 12.5625C21.9062 12.1562 22.1875 11.3125 21.8438 10.5938ZM11.2812 9.90625C10.6562 9.59375 9.90625 9.5625 9.25 9.78125C9 9.875 9.0625 10.2812 9.34375 10.2812C10.3438 10.2812 11.125 10.7188 11.5312 11.5625C11.8125 12.125 10.9062 12.5938 10.625 11.9688C10.4062 11.5312 9.96875 11.25 9.46875 11.25C8.78125 11.25 8.21875 11.8125 8.21875 12.5C8.21875 13.2812 8.875 13.75 9.46875 13.75C9.96875 13.75 10.4062 13.5 10.625 13.0625C10.9062 12.4375 11.8125 12.875 11.5312 13.4688C11.1562 14.25 10.3438 14.75 9.5 14.75C9.34375 14.75 7.5625 14.5938 6.84375 14.5312C6.8125 14.5312 6.75 14.5312 6.71875 14.5625L4.84375 15.5C4.71875 15.5625 4.5625 15.5 4.5 15.375L3.25 12.875C3.1875 12.75 3.25 12.625 3.34375 12.5312L5 11.625C5.03125 11.5938 5.0625 11.5625 5.09375 11.5312L6.25 9.4375C6.25 9.40625 6.25 9.375 6.28125 9.34375C6.4375 7.78125 7.21875 6.375 8.4375 5.375C8.625 5.21875 8.9375 5.21875 9.125 5.4375C9.3125 5.6875 9.25 6 9.0625 6.15625C8.6875 6.46875 8.34375 6.8125 8.09375 7.1875C7.9375 7.4375 8.21875 7.71875 8.4375 7.5625C9.0625 7.125 9.71875 6.875 10.4375 6.8125C10.6875 6.78125 10.9375 6.9375 10.9688 7.25C11 7.5 10.8438 7.75 10.5625 7.78125C10.0938 7.84375 9.625 8 9.21875 8.25C8.96875 8.40625 9.125 8.78125 9.375 8.71875C10.125 8.5625 11 8.65625 11.6875 9C12.3125 9.3125 11.875 10.1875 11.2812 9.90625ZM20.625 11.5L18.9688 12.4062C18.9375 12.4375 18.9062 12.4688 18.875 12.5L17.7188 14.5938C17.7188 14.625 17.7188 14.6562 17.6875 14.6875C17.5312 16.25 16.75 17.6562 15.5625 18.6562C15.0625 19.0625 14.4062 18.3125 14.9062 17.875C15.3125 17.5625 15.625 17.1875 15.875 16.8125C16.0312 16.5938 15.75 16.3125 15.5312 16.4688C14.9375 16.875 14.25 17.1562 13.5625 17.2188C12.9062 17.3125 12.7812 16.3125 13.4375 16.25C13.9062 16.1875 14.3438 16.0312 14.7812 15.7812C15 15.625 14.875 15.25 14.5938 15.3125C13.8438 15.4688 12.9688 15.375 12.2812 15.0312C11.6875 14.7188 12.125 13.8438 12.7188 14.125C13.3438 14.4375 14.0625 14.4688 14.7188 14.25C15 14.1562 14.9062 13.75 14.625 13.75C13.625 13.75 12.8438 13.3125 12.4688 12.4688C12.1875 11.9062 13.0625 11.4375 13.3438 12.0625H13.375C13.5625 12.5 14 12.7812 14.5 12.7812C15.1875 12.7812 15.75 12.2188 15.75 11.5312C15.75 10.75 15.0938 10.2812 14.5 10.2812C14 10.2812 13.5625 10.5312 13.375 10.9688H13.3438C13.0625 11.5938 12.1875 11.1562 12.4688 10.5625C12.8438 9.75 13.625 9.28125 14.5312 9.28125L17.125 9.5C17.1562 9.5 17.2188 9.5 17.25 9.46875L19.125 8.53125C19.2812 8.46875 19.4062 8.53125 19.4688 8.65625L20.7188 11.1562C20.7812 11.2812 20.7188 11.4062 20.625 11.5Z" fill="white"/>
</svg>
