<svg width="33" height="25" viewBox="0 0 33 25" fill="none" xmlns="http://www.w3.org/2000/svg">
<path fill-rule="evenodd" clip-rule="evenodd" d="M20.7182 11.9196C20.8972 12.0228 21.0459 12.1712 21.1493 12.3501C21.2527 12.529 21.3071 12.732 21.3071 12.9386C21.3071 13.1452 21.2527 13.3482 21.1493 13.5271C21.0459 13.706 20.8972 13.8545 20.7182 13.9576L15.4242 17.0136C15.2454 17.1168 15.0427 17.1711 14.8363 17.1712C14.6299 17.1712 14.4271 17.1169 14.2483 17.0137C14.0696 16.9106 13.9211 16.7622 13.8179 16.5835C13.7146 16.4047 13.6602 16.202 13.6602 15.9956V9.88061C13.6602 8.97561 14.6402 8.40961 15.4242 8.86261L20.7182 11.9186V11.9196ZM15.4242 10.9006L18.9542 12.9386L15.4242 14.9766V10.9006Z" fill="#0077FF"/>
<path fill-rule="evenodd" clip-rule="evenodd" d="M18.6016 5.86845H14.6016C13.1706 5.86845 12.2096 5.86945 11.4706 5.93145C10.7526 5.99145 10.4096 6.09945 10.1826 6.21845C9.59456 6.52645 9.11656 7.01845 8.81756 7.62345C8.70156 7.85545 8.59756 8.20845 8.53756 8.94745C8.47756 9.70745 8.47656 9.41045 8.47656 10.8825V14.9965C8.47656 16.4685 8.47756 16.1705 8.53856 16.9315C8.59756 17.6695 8.70156 18.0225 8.81756 18.2555C9.11756 18.8605 9.59456 19.3525 10.1826 19.6605C10.4096 19.7795 10.7526 19.8865 11.4706 19.9475C12.2106 20.0095 13.1706 20.0105 14.6016 20.0105H18.6016C20.0326 20.0105 20.9936 20.0095 21.7326 19.9475C22.4506 19.8875 22.7936 19.7795 23.0206 19.6605C23.6124 19.3479 24.0902 18.8561 24.3856 18.2555C24.5016 18.0235 24.6056 17.6705 24.6656 16.9315C24.7256 16.1715 24.7266 16.4685 24.7266 14.9965V10.8825C24.7266 9.41045 24.7246 9.70845 24.6646 8.94745C24.6066 8.20845 24.5016 7.85545 24.3856 7.62345C24.0902 7.0228 23.6124 6.53099 23.0206 6.21845C22.7936 6.09945 22.4506 5.99245 21.7326 5.93145C20.9926 5.86945 20.0326 5.86845 18.6016 5.86845ZM7.14656 6.74745C6.60156 7.84745 6.60156 8.00245 6.60156 10.8825V14.9965C6.60156 17.8765 6.60156 18.0315 7.14656 19.1315C7.61952 20.0923 8.38435 20.8788 9.33156 21.3785C10.4016 21.9395 11.8016 21.9395 14.6016 21.9395H18.6016C21.4016 21.9395 22.8016 21.9395 23.8716 21.3795C24.8189 20.8795 25.5838 20.0926 26.0566 19.1315C26.6016 18.0315 26.6016 17.8765 26.6016 14.9965V10.8825C26.6016 8.00245 26.6016 7.84745 26.0566 6.74745C25.5837 5.7866 24.8188 5.00005 23.8716 4.50045C22.8016 3.93945 21.4016 3.93945 18.6016 3.93945H14.6016C11.8016 3.93945 10.4016 3.93945 9.33156 4.49945C8.3842 4.99936 7.61935 5.78627 7.14656 6.74745Z" fill="#0077FF"/>
</svg>
