<svg width="24" height="24" viewBox="0 0 24 24" fill="none" xmlns="http://www.w3.org/2000/svg">
<path d="M16.25 13.5H11.75C11.5938 13.5 11.5 13.625 11.5 13.75V14.25C11.5 14.4062 11.5938 14.5 11.75 14.5H16.25C16.375 14.5 16.5 14.4062 16.5 14.25V13.75C16.5 13.625 16.375 13.5 16.25 13.5ZM8 14.625C8.34375 14.625 8.625 14.375 8.625 14C8.625 13.6562 8.34375 13.375 8 13.375C7.625 13.375 7.375 13.6562 7.375 14C7.375 14.375 7.625 14.625 8 14.625ZM8.5 12H15.5C16.0312 12 16.5 11.5625 16.5 11V7.5C16.5 6.96875 16.0312 6.5 15.5 6.5H8.5C7.9375 6.5 7.5 6.96875 7.5 7.5V11C7.5 11.5625 7.9375 12 8.5 12ZM18 4H6C5.4375 4 5 4.46875 5 5V16C5 16.5625 5.4375 17 6 17V19C6 19.5625 6.4375 20 7 20H17C17.5312 20 18 19.5625 18 19V17C18.5312 17 19 16.5625 19 16V5C19 4.46875 18.5312 4 18 4ZM16.5 18.5H7.5V17H16.5V18.5ZM17.5 15.5H6.5V5.5H17.5V15.5Z" fill="white"/>
</svg>
