<svg width="24" height="24" viewBox="0 0 24 24" fill="none" xmlns="http://www.w3.org/2000/svg">
<path d="M18.5 5H5.5C4.65625 5 4 5.6875 4 6.5V17.5C4 18.3438 4.65625 19 5.5 19H18.5C19.3125 19 20 18.3438 20 17.5V6.5C20 5.6875 19.3125 5 18.5 5ZM16 7.5C16 6.96875 16.4375 6.5 17 6.5C17.5312 6.5 18 6.96875 18 7.5C18 8.0625 17.5312 8.5 17 8.5C16.4375 8.5 16 8.0625 16 7.5ZM13 7.5C13 6.96875 13.4375 6.5 14 6.5C14.5312 6.5 15 6.96875 15 7.5C15 8.0625 14.5312 8.5 14 8.5C13.4375 8.5 13 8.0625 13 7.5ZM10 7.5C10 6.96875 10.4375 6.5 11 6.5C11.5312 6.5 12 6.96875 12 7.5C12 8.0625 11.5312 8.5 11 8.5C10.4375 8.5 10 8.0625 10 7.5ZM18.5 17.3125C18.5 17.4375 18.4062 17.5 18.3125 17.5H5.6875C5.5625 17.5 5.5 17.4375 5.5 17.3125V10H18.5V17.3125Z" fill="white"/>
</svg>
