<svg width="24" height="24" viewBox="0 0 24 24" fill="none" xmlns="http://www.w3.org/2000/svg">
<path d="M9.5625 11.9062L10.4375 8.40625C10.625 7.75 10.1562 7.21875 9.625 7.09375C8.3125 6.78125 6.90625 7.5625 6.5625 8.875L6.03125 11.0312C5.875 11.5938 6.21875 12.2188 6.84375 12.3438L8.21875 12.6875C8.84375 12.8438 9.40625 12.4375 9.5625 11.9062ZM8.1875 11.125L7.5625 11L8.03125 9.25C8.125 8.875 8.46875 8.59375 8.875 8.53125L8.1875 11.125ZM17.5 9H17C16.7188 9 16.5 9.25 16.5 9.5V10.25H15.3125L13.75 8.46875C13.4688 8.1875 13.0625 8 12.625 8C11.9062 8 11.2812 8.5 11.0938 9.21875L10.4062 12.0312C10.25 12.625 10.4062 13.25 10.8438 13.6875L13.1562 16C13.2188 16.0625 13.25 16.125 13.25 16.1875V19.25C13.25 19.6875 13.5625 20 14 20C14.4062 20 14.75 19.6875 14.75 19.25V16.1875C14.75 15.7188 14.5625 15.2812 14.2188 14.9375L12.6562 13.375L13.4062 10.375L14.4062 11.5C14.5625 11.6875 14.7812 11.7812 15 11.7812H16.5V19.5312C16.5 19.7812 16.7188 20.0312 17 20.0312H17.5C17.75 20.0312 18 19.7812 18 19.5312V9.5C18 9.25 17.75 9 17.5 9ZM9.78125 13.9375L8.5 19.0938C8.40625 19.5 8.65625 19.9062 9.0625 20C9.125 20 9.1875 20 9.25 20C9.5625 20 9.875 19.7812 9.96875 19.4375L11 15.25L10.1562 14.4062C10 14.25 9.90625 14.0938 9.78125 13.9375ZM13.4688 7C14.3125 7 14.9688 6.34375 14.9688 5.5C14.9688 4.6875 14.3125 4 13.4688 4C12.6562 4 11.9688 4.6875 11.9688 5.5C11.9688 6.34375 12.6562 7 13.4688 7Z" fill="white"/>
</svg>
