<svg width="256" height="256" viewBox="0 0 256 256" fill="none" xmlns="http://www.w3.org/2000/svg">
<g clip-path="url(#clip0_1073_89998)">
<g clip-path="url(#clip1_1073_89998)">
<path fill-rule="evenodd" clip-rule="evenodd" d="M42.6662 96C40.4578 95.9983 38.3045 95.3112 36.5033 94.0336C34.7021 92.7559 33.3418 90.9508 32.6102 88.8672C31.8786 86.7835 31.8117 84.5242 32.4188 82.401C33.0259 80.2777 34.277 78.3953 35.9995 77.0133L89.3222 34.3467C91.2152 32.8258 93.5712 31.9978 95.9995 32H160C162.517 32 164.842 32.8747 166.688 34.3467L220 77.0133C221.722 78.3953 222.973 80.2777 223.58 82.401C224.187 84.5242 224.12 86.7835 223.389 88.8672C222.657 90.9508 221.297 92.7559 219.496 94.0336C217.695 95.3112 215.541 95.9983 213.333 96H178.389L181.087 114.88L212.789 209.963C213.231 211.292 213.408 212.695 213.308 214.093C213.208 215.491 212.834 216.855 212.207 218.108C211.58 219.361 210.713 220.478 209.654 221.396C208.595 222.313 207.366 223.013 206.037 223.456C204.708 223.899 203.304 224.075 201.906 223.975C200.509 223.876 199.145 223.502 197.892 222.875C196.639 222.248 195.522 221.38 194.604 220.321C193.686 219.262 192.986 218.033 192.544 216.704L185.866 196.672L128 152.587L70.1328 196.672L63.4555 216.704C63.0129 218.033 62.3127 219.262 61.3951 220.321C60.4774 221.38 59.3602 222.248 58.1072 222.875C56.8542 223.502 55.4901 223.876 54.0925 223.975C52.695 224.075 51.2915 223.899 49.9622 223.456C48.6328 223.013 47.4037 222.313 46.345 221.396C45.2862 220.478 44.4186 219.361 43.7916 218.108C43.1646 216.855 42.7906 215.491 42.6908 214.093C42.591 212.695 42.7675 211.292 43.2102 209.963L74.9115 114.869L77.6102 96H42.6662ZM82.1115 160.725L110.4 139.179L93.5675 126.357L82.1115 160.725ZM145.6 139.179L173.888 160.725L162.432 126.357L145.6 139.179ZM157.845 103.019L128 125.76L98.1542 103.019L99.1568 96H156.842L157.845 103.019ZM102.208 74.6667H153.792L150.752 53.3333H105.247L102.208 74.6667ZM81.6315 67.8187L80.6502 74.6667H73.0768L81.6315 67.8187ZM174.368 67.8187L175.36 74.6667H182.933L174.368 67.8187Z" fill="white"/>
</g>
</g>
<defs>
<clipPath id="clip0_1073_89998">
<rect width="256" height="256" fill="white"/>
</clipPath>
<clipPath id="clip1_1073_89998">
<rect width="256" height="256" fill="white"/>
</clipPath>
</defs>
</svg>
