<svg width="256" height="256" viewBox="0 0 256 256" fill="none" xmlns="http://www.w3.org/2000/svg">
<g clip-path="url(#clip0_1073_89994)">
<path d="M51.1968 42.1508C53.5967 39.7502 56.8519 38.4011 60.2464 38.4004H195.747C199.142 38.4011 202.397 39.7502 204.797 42.1508L238.614 75.9556C248.368 85.722 241.456 102.4 227.658 102.4H28.336C14.5376 102.4 7.63838 85.722 17.4048 75.9556L51.1968 42.1508ZM217.597 115.2H38.3968V192C38.3968 198.79 41.0939 205.301 45.8948 210.102C50.6958 214.903 57.2072 217.6 63.9968 217.6H191.997C198.786 217.6 205.298 214.903 210.099 210.102C214.9 205.301 217.597 198.79 217.597 192V115.2ZM89.5968 166.4C86.202 166.4 82.9463 165.052 80.5458 162.651C78.1454 160.251 76.7968 156.995 76.7968 153.6C76.7968 150.206 78.1454 146.95 80.5458 144.549C82.9463 142.149 86.202 140.8 89.5968 140.8C92.9916 140.8 96.2473 142.149 98.6477 144.549C101.048 146.95 102.397 150.206 102.397 153.6C102.397 156.995 101.048 160.251 98.6477 162.651C96.2473 165.052 92.9916 166.4 89.5968 166.4ZM127.997 166.4C124.602 166.4 121.346 165.052 118.946 162.651C116.545 160.251 115.197 156.995 115.197 153.6C115.197 150.206 116.545 146.95 118.946 144.549C121.346 142.149 124.602 140.8 127.997 140.8C131.392 140.8 134.647 142.149 137.048 144.549C139.448 146.95 140.797 150.206 140.797 153.6C140.797 156.995 139.448 160.251 137.048 162.651C134.647 165.052 131.392 166.4 127.997 166.4ZM166.397 166.4C163.002 166.4 159.746 165.052 157.346 162.651C154.945 160.251 153.597 156.995 153.597 153.6C153.597 150.206 154.945 146.95 157.346 144.549C159.746 142.149 163.002 140.8 166.397 140.8C169.792 140.8 173.047 142.149 175.448 144.549C177.848 146.95 179.197 150.206 179.197 153.6C179.197 156.995 177.848 160.251 175.448 162.651C173.047 165.052 169.792 166.4 166.397 166.4Z" fill="white"/>
</g>
<defs>
<clipPath id="clip0_1073_89994">
<rect width="256" height="256" fill="white"/>
</clipPath>
</defs>
</svg>
