<svg width="24" height="24" viewBox="0 0 24 24" fill="none" xmlns="http://www.w3.org/2000/svg">
<path d="M20.625 10H18.3438L14.3125 5.28125C14.0312 4.96875 13.5625 4.9375 13.25 5.1875C12.9375 5.46875 12.9062 5.9375 13.1562 6.25L16.375 10H7.59375L10.8125 6.25C11.0625 5.9375 11.0312 5.46875 10.7188 5.1875C10.4062 4.9375 9.9375 4.96875 9.65625 5.28125L5.625 10H3.375C3.15625 10 3 10.1875 3 10.375V11.125C3 11.3438 3.15625 11.5 3.375 11.5H3.9375L4.8125 17.7188C4.90625 18.4688 5.53125 19 6.28125 19H17.6875C18.4375 19 19.0625 18.4688 19.1562 17.7188L20.0312 11.5H20.625C20.8125 11.5 21 11.3438 21 11.125V10.375C21 10.1875 20.8125 10 20.625 10ZM17.6875 17.5H6.28125L5.46875 11.5H18.5L17.6875 17.5ZM12.75 13.25C12.75 12.8438 12.4062 12.5 12 12.5C11.5625 12.5 11.25 12.8438 11.25 13.25V15.75C11.25 16.1875 11.5625 16.5 12 16.5C12.4062 16.5 12.75 16.1875 12.75 15.75V13.25ZM16.25 13.25C16.25 12.8438 15.9062 12.5 15.5 12.5C15.0625 12.5 14.75 12.8438 14.75 13.25V15.75C14.75 16.1875 15.0625 16.5 15.5 16.5C15.9062 16.5 16.25 16.1875 16.25 15.75V13.25ZM9.25 13.25C9.25 12.8438 8.90625 12.5 8.5 12.5C8.0625 12.5 7.75 12.8438 7.75 13.25V15.75C7.75 16.1875 8.0625 16.5 8.5 16.5C8.90625 16.5 9.25 16.1875 9.25 15.75V13.25Z" fill="white"/>
</svg>
