<svg width="24" height="24" viewBox="0 0 24 24" fill="none" xmlns="http://www.w3.org/2000/svg">
<path d="M12 4C16.4183 4 20 7.58172 20 12C20 16.4183 16.4183 20 12 20C8.82996 20 6.09073 18.1561 4.7959 15.4824L11.4219 13.708C11.6085 13.658 11.8954 13.5841 12.1367 13.4834C12.4184 13.3658 12.8385 13.1343 13.1201 12.6465C13.4015 12.1587 13.3925 11.6796 13.3535 11.377C13.32 11.1176 13.2404 10.8321 13.1904 10.6455L11.415 4.02344C11.6083 4.00947 11.8032 4 12 4ZM10.1621 10.9385L4.02344 12.583C4.00956 12.3904 4 12.1961 4 12C4 8.83059 5.84279 6.09104 8.51562 4.7959L10.1621 10.9385Z" fill="white"/>
<path d="M9.92945 4.27259C9.67849 3.33602 9.55302 2.86773 9.12083 2.67286C8.68865 2.47799 8.30723 2.66782 7.54439 3.04748C6.97028 3.33321 6.42361 3.67419 5.91239 4.06647C4.87054 4.8659 3.99636 5.86272 3.33975 7C2.68314 8.13728 2.25696 9.39275 2.08555 10.6947C2.00144 11.3336 1.97948 11.9775 2.01909 12.6176C2.07171 13.4681 2.09803 13.8933 2.48288 14.1701C2.86773 14.447 3.33602 14.3215 4.27259 14.0706L10.0681 12.5176C10.9788 12.2736 11.4342 12.1516 11.6413 11.7929C11.8484 11.4342 11.7264 10.9788 11.4824 10.0681L9.92945 4.27259Z" fill="white"/>
</svg>
