<svg width="69" height="213" viewBox="0 0 69 213" fill="none" xmlns="http://www.w3.org/2000/svg">
<g clip-path="url(#clip0_1673_431)">
<path d="M21.844 38.687C20.5671 38.687 19.2886 38.5579 18.0484 38.3044C16.8417 38.0573 15.6509 37.6875 14.5079 37.2045C13.392 36.7326 12.3128 36.1476 11.3053 35.4669C10.309 34.7942 9.37167 34.021 8.51882 33.1682C7.66597 32.3137 6.89282 31.378 6.22011 30.3817C5.53783 29.3726 4.95438 28.295 4.48093 27.1775C3.99951 26.0377 3.62968 24.8469 3.38099 23.6386C3.12753 22.3936 3 21.1183 3 19.843C3 18.5661 3.12753 17.2908 3.38099 16.049C3.62968 14.8391 3.99951 13.6467 4.48093 12.5069C4.95438 11.3894 5.53783 10.3118 6.22011 9.30433C6.89282 8.30801 7.66597 7.37067 8.51882 6.51782C9.37167 5.66497 10.309 4.89023 11.3053 4.21752C12.3128 3.53683 13.392 2.95179 14.5079 2.47993C15.6509 1.99692 16.8417 1.62708 18.0516 1.38159C20.5289 0.873065 23.1623 0.873065 25.638 1.38159C26.8447 1.62708 28.0371 1.99692 29.1785 2.47993C30.2992 2.95338 31.3784 3.54002 32.3843 4.21911C33.3758 4.88864 34.3147 5.66337 35.1692 6.51782C36.0204 7.36907 36.7936 8.30641 37.4679 9.30433C38.1518 10.3166 38.7352 11.3942 39.2071 12.5069C39.6901 13.6483 40.0583 14.8407 40.307 16.049L34.3785 17.2589C34.2111 16.4428 33.9624 15.6361 33.6341 14.863C33.3168 14.109 32.9199 13.3773 32.4544 12.6886C31.9985 12.0127 31.4724 11.3751 30.8922 10.7964C30.3087 10.213 29.6727 9.68691 28.9968 9.231C28.3129 8.7687 27.5828 8.37177 26.8256 8.05135C26.0509 7.72456 25.2427 7.47429 24.4281 7.30691C22.7399 6.96258 20.9481 6.96258 19.2631 7.30691C18.4438 7.47429 17.6371 7.72456 16.864 8.05135C16.1068 8.37177 15.3751 8.7687 14.6912 9.231C14.0137 9.68851 13.3761 10.2146 12.7958 10.7948C12.2156 11.3751 11.6895 12.0127 11.232 12.6902C10.7697 13.3741 10.3728 14.1058 10.0539 14.863C9.72556 15.6361 9.47529 16.4428 9.3079 17.2621C9.13574 18.1022 9.04966 18.9726 9.04966 19.843C9.04966 20.7134 9.13574 21.5822 9.3079 22.4255C9.47529 23.2432 9.72556 24.0499 10.0539 24.823C10.3728 25.5802 10.7697 26.3103 11.232 26.9958C11.6895 27.6717 12.2156 28.3093 12.7958 28.8896C13.3761 29.4699 14.0137 29.9959 14.6912 30.4534C15.3751 30.9157 16.1068 31.3142 16.864 31.6331C17.6371 31.9599 18.4438 32.2117 19.2599 32.3775C20.9497 32.7234 22.7431 32.7234 24.4249 32.3775C25.2427 32.2117 26.0509 31.9599 26.8256 31.6331C27.5828 31.3126 28.3129 30.9157 28.9936 30.455C29.6727 29.9975 30.3087 29.4714 30.8906 28.8896C31.4724 28.3093 31.9985 27.6733 32.456 26.9958C32.9199 26.3087 33.3168 25.577 33.6341 24.823C33.9624 24.0483 34.2111 23.2432 34.3785 22.4255L40.307 23.6354C40.0583 24.8437 39.6901 26.0361 39.2071 27.1775C38.7352 28.2918 38.1518 29.3678 37.4695 30.3801C36.7936 31.378 36.0205 32.3153 35.1676 33.1682C34.3147 34.0226 33.3758 34.7974 32.3811 35.4669C31.3784 36.146 30.2992 36.731 29.1785 37.2045C28.0371 37.6875 26.8447 38.0573 25.6348 38.3044C24.3994 38.5579 23.1225 38.687 21.844 38.687Z" fill="#005EFF"/>
<path d="M21.844 179.766C20.5671 179.766 19.2886 179.637 18.0484 179.384C16.8417 179.136 15.6509 178.767 14.5079 178.284C13.392 177.812 12.3128 177.227 11.3053 176.546C10.309 175.873 9.37167 175.1 8.51882 174.247C7.66597 173.393 6.89282 172.457 6.22011 171.461C5.53783 170.452 4.95438 169.374 4.48093 168.257C3.99951 167.117 3.62968 165.926 3.38099 164.718C3.12753 163.473 3 162.197 3 160.922C3 159.645 3.12753 158.37 3.38099 157.128C3.62968 155.918 3.99951 154.726 4.48093 153.586C4.95438 152.469 5.53783 151.391 6.22011 150.383C6.89282 149.387 7.66597 148.45 8.51882 147.597C9.37167 146.744 10.309 145.969 11.3053 145.297C12.3128 144.616 13.392 144.031 14.5079 143.559C15.6509 143.076 16.8417 142.706 18.0516 142.461C20.5289 141.952 23.1623 141.952 25.638 142.461C26.8447 142.706 28.0371 143.076 29.1785 143.559C30.2992 144.032 31.3784 144.619 32.3843 145.298C33.3758 145.968 34.3147 146.742 35.1692 147.597C36.0204 148.448 36.7936 149.386 37.4679 150.383C38.1518 151.396 38.7352 152.473 39.2071 153.586C39.6901 154.727 40.0583 155.92 40.307 157.128L34.3785 158.338C34.2111 157.522 33.9624 156.715 33.6341 155.942C33.3168 155.188 32.9199 154.456 32.4544 153.768C31.9985 153.092 31.4724 152.454 30.8922 151.876C30.3087 151.292 29.6727 150.766 28.9968 150.31C28.3129 149.848 27.5828 149.451 26.8256 149.13C26.0509 148.804 25.2427 148.553 24.4281 148.386C22.7399 148.042 20.9481 148.042 19.2631 148.386C18.4438 148.553 17.6371 148.804 16.864 149.13C16.1068 149.451 15.3751 149.848 14.6912 150.31C14.0137 150.768 13.3761 151.294 12.7958 151.874C12.2156 152.454 11.6895 153.092 11.232 153.769C10.7697 154.453 10.3728 155.185 10.0539 155.942C9.72556 156.715 9.47529 157.522 9.3079 158.341C9.13574 159.181 9.04966 160.052 9.04966 160.922C9.04966 161.792 9.13574 162.661 9.3079 163.505C9.47529 164.322 9.72556 165.129 10.0539 165.902C10.3728 166.659 10.7697 167.389 11.232 168.075C11.6895 168.751 12.2156 169.388 12.7958 169.969C13.3761 170.549 14.0137 171.075 14.6912 171.533C15.3751 171.995 16.1068 172.393 16.864 172.712C17.6371 173.039 18.4438 173.291 19.2599 173.457C20.9497 173.803 22.7431 173.803 24.4249 173.457C25.2427 173.291 26.0509 173.039 26.8256 172.712C27.5828 172.392 28.3129 171.995 28.9936 171.534C29.6727 171.077 30.3087 170.551 30.8906 169.969C31.4724 169.388 31.9985 168.752 32.456 168.075C32.9199 167.388 33.3168 166.656 33.6341 165.902C33.9624 165.127 34.2111 164.322 34.3785 163.505L40.307 164.715C40.0583 165.923 39.6901 167.115 39.2071 168.257C38.7352 169.371 38.1518 170.447 37.4695 171.459C36.7936 172.457 36.0205 173.394 35.1676 174.247C34.3147 175.102 33.3758 175.876 32.3811 176.546C31.3784 177.225 30.2992 177.81 29.1785 178.284C28.0371 178.767 26.8447 179.136 25.6348 179.384C24.3994 179.637 23.1225 179.766 21.844 179.766Z" fill="#005EFF"/>
<path d="M21.844 109.227C20.5671 109.227 19.2886 109.097 18.0484 108.844C16.8417 108.597 15.6509 108.227 14.5079 107.744C13.392 107.272 12.3128 106.687 11.3053 106.006C10.309 105.334 9.37167 104.561 8.51882 103.708C7.66597 102.853 6.89282 101.918 6.22011 100.921C5.53783 99.9122 4.95438 98.8345 4.48093 97.7171C3.99951 96.5773 3.62968 95.3865 3.38099 94.1781C3.12753 92.9331 3 91.6578 3 90.3826C3 89.1057 3.12753 87.8304 3.38099 86.5886C3.62968 85.3786 3.99951 84.1862 4.48093 83.0465C4.95438 81.929 5.53783 80.8514 6.22011 79.8439C6.89282 78.8476 7.66597 77.9102 8.51882 77.0574C9.37167 76.2045 10.309 75.4298 11.3053 74.7571C12.3128 74.0764 13.392 73.4913 14.5079 73.0195C15.6509 72.5365 16.8417 72.1666 18.0516 71.9211C20.5289 71.4126 23.1623 71.4126 25.638 71.9211C26.8447 72.1666 28.0371 72.5365 29.1785 73.0195C30.2992 73.4929 31.3784 74.0796 32.3843 74.7587C33.3758 75.4282 34.3147 76.2029 35.1692 77.0574C36.0204 77.9086 36.7936 78.846 37.4679 79.8439C38.1518 80.8561 38.7352 81.9338 39.2071 83.0465C39.6901 84.1878 40.0583 85.3802 40.307 86.5886L34.3785 87.7985C34.2111 86.9823 33.9624 86.1757 33.6341 85.4025C33.3168 84.6485 32.9199 83.9168 32.4544 83.2282C31.9985 82.5523 31.4724 81.9146 30.8922 81.336C30.3087 80.7525 29.6727 80.2265 28.9968 79.7705C28.3129 79.3083 27.5828 78.9113 26.8256 78.5909C26.0509 78.2641 25.2427 78.0138 24.4281 77.8465C22.7399 77.5021 20.9481 77.5021 19.2631 77.8465C18.4438 78.0138 17.6371 78.2641 16.864 78.5909C16.1068 78.9113 15.3751 79.3083 14.6912 79.7705C14.0137 80.2281 13.3761 80.7541 12.7958 81.3344C12.2156 81.9146 11.6895 82.5523 11.232 83.2298C10.7697 83.9136 10.3728 84.6453 10.0539 85.4025C9.72556 86.1757 9.47529 86.9823 9.3079 87.8017C9.13574 88.6418 9.04966 89.5122 9.04966 90.3826C9.04966 91.2529 9.13574 92.1217 9.3079 92.965C9.47529 93.7828 9.72556 94.5894 10.0539 95.3626C10.3728 96.1198 10.7697 96.8499 11.232 97.5353C11.6895 98.2112 12.2156 98.8489 12.7958 99.4291C13.3761 100.009 14.0137 100.535 14.6912 100.993C15.3751 101.455 16.1068 101.854 16.864 102.173C17.6371 102.499 18.4438 102.751 19.2599 102.917C20.9497 103.263 22.7431 103.263 24.4249 102.917C25.2427 102.751 26.0509 102.499 26.8256 102.173C27.5828 101.852 28.3129 101.455 28.9936 100.995C29.6727 100.537 30.3087 100.011 30.8906 99.4291C31.4724 98.8489 31.9985 98.2128 32.456 97.5353C32.9199 96.8483 33.3168 96.1166 33.6341 95.3626C33.9624 94.5878 34.2111 93.7828 34.3785 92.965L40.307 94.175C40.0583 95.3833 39.6901 96.5757 39.2071 97.7171C38.7352 98.8314 38.1518 99.9074 37.4695 100.92C36.7936 101.918 36.0205 102.855 35.1676 103.708C34.3147 104.562 33.3758 105.337 32.3811 106.006C31.3784 106.686 30.2992 107.271 29.1785 107.744C28.0371 108.227 26.8447 108.597 25.6348 108.844C24.3994 109.097 23.1225 109.227 21.844 109.227Z" fill="#005EFF"/>
<path d="M50.156 70.9678C51.4329 70.9678 52.7114 70.8387 53.9516 70.5852C55.1583 70.3381 56.3491 69.9683 57.4921 69.4852C58.608 69.0134 59.6872 68.4284 60.6947 67.7477C61.691 67.075 62.6283 66.3018 63.4812 65.449C64.334 64.5945 65.1072 63.6588 65.7799 62.6624C66.4622 61.6534 67.0456 60.5758 67.5191 59.4583C68.0005 58.3185 68.3703 57.1277 68.619 55.9194C68.8725 54.6743 69 53.3991 69 52.1238C69 50.8469 68.8725 49.5716 68.619 48.3298C68.3703 47.1198 68.0005 45.9275 67.5191 44.7877C67.0456 43.6702 66.4622 42.5926 65.7799 41.5851C65.1072 40.5888 64.334 39.6514 63.4812 38.7986C62.6283 37.9457 61.691 37.171 60.6947 36.4983C59.6872 35.8176 58.608 35.2326 57.4921 34.7607C56.3491 34.2777 55.1583 33.9078 53.9484 33.6623C51.4711 33.1538 48.8377 33.1538 46.362 33.6623C45.1553 33.9078 43.9629 34.2777 42.8215 34.7607C41.7008 35.2341 40.6216 35.8208 39.6157 36.4999C38.6242 37.1694 37.6853 37.9441 36.8308 38.7986C35.9796 39.6498 35.2064 40.5872 34.5321 41.5851C33.8482 42.5974 33.2648 43.675 32.7929 44.7877C32.3099 45.929 31.9417 47.1214 31.693 48.3298L37.6215 49.5397C37.7889 48.7235 38.0376 47.9169 38.3659 47.1438C38.6832 46.3897 39.0801 45.658 39.5456 44.9694C40.0015 44.2935 40.5276 43.6558 41.1078 43.0772C41.6913 42.4937 42.3273 41.9677 43.0032 41.5118C43.6871 41.0495 44.4172 40.6525 45.1744 40.3321C45.9491 40.0053 46.7573 39.755 47.5719 39.5877C49.2601 39.2433 51.0519 39.2433 52.7369 39.5877C53.5562 39.755 54.3629 40.0053 55.136 40.3321C55.8932 40.6525 56.6249 41.0495 57.3088 41.5118C57.9863 41.9693 58.6239 42.4953 59.2042 43.0756C59.7844 43.6558 60.3105 44.2935 60.768 44.971C61.2303 45.6549 61.6272 46.3866 61.9461 47.1438C62.2744 47.9169 62.5247 48.7235 62.6921 49.5429C62.8643 50.383 62.9503 51.2534 62.9503 52.1238C62.9503 52.9942 62.8643 53.8629 62.6921 54.7062C62.5247 55.524 62.2744 56.3306 61.9461 57.1038C61.6272 57.861 61.2303 58.5911 60.768 59.2766C60.3105 59.9525 59.7844 60.5901 59.2042 61.1704C58.6239 61.7506 57.9863 62.2767 57.3088 62.7342C56.6249 63.1965 55.8932 63.595 55.136 63.9138C54.3629 64.2406 53.5562 64.4925 52.7401 64.6583C51.0503 65.0042 49.2569 65.0042 47.5751 64.6583C46.7573 64.4925 45.9491 64.2406 45.1744 63.9138C44.4172 63.5934 43.6871 63.1965 43.0064 62.7358C42.3273 62.2783 41.6913 61.7522 41.1094 61.1704C40.5276 60.5901 40.0015 59.954 39.544 59.2766C39.0801 58.5895 38.6832 57.8578 38.3659 57.1038C38.0376 56.329 37.7889 55.524 37.6215 54.7062L31.693 55.9162C31.9417 57.1245 32.3099 58.3169 32.7929 59.4583C33.2648 60.5726 33.8482 61.6486 34.5305 62.6609C35.2064 63.6588 35.9795 64.5961 36.8324 65.449C37.6853 66.3034 38.6242 67.0781 39.6189 67.7477C40.6216 68.4268 41.7008 69.0118 42.8215 69.4852C43.9629 69.9683 45.1553 70.3381 46.3652 70.5852C47.6006 70.8387 48.8775 70.9678 50.156 70.9678Z" fill="#005EFF"/>
<path d="M50.156 212.047C51.4329 212.047 52.7114 211.918 53.9516 211.664C55.1583 211.417 56.3491 211.047 57.4921 210.564C58.608 210.092 59.6872 209.507 60.6947 208.827C61.691 208.154 62.6283 207.381 63.4812 206.528C64.334 205.674 65.1072 204.738 65.7799 203.742C66.4622 202.732 67.0456 201.655 67.5191 200.537C68.0005 199.398 68.3703 198.207 68.619 196.998C68.8725 195.753 69 194.478 69 193.203C69 191.926 68.8725 190.651 68.619 189.409C68.3703 188.199 68.0005 187.007 67.5191 185.867C67.0456 184.749 66.4622 183.672 65.7799 182.664C65.1072 181.668 64.334 180.731 63.4812 179.878C62.6283 179.025 61.691 178.25 60.6947 177.577C59.6872 176.897 58.608 176.312 57.4921 175.84C56.3491 175.357 55.1583 174.987 53.9484 174.741C51.4711 174.233 48.8377 174.233 46.362 174.741C45.1553 174.987 43.9629 175.357 42.8215 175.84C41.7008 176.313 40.6216 176.9 39.6157 177.579C38.6242 178.248 37.6853 179.023 36.8308 179.878C35.9796 180.729 35.2064 181.666 34.5321 182.664C33.8482 183.676 33.2648 184.754 32.7929 185.867C32.3099 187.008 31.9417 188.201 31.693 189.409L37.6215 190.619C37.7889 189.803 38.0376 188.996 38.3659 188.223C38.6832 187.469 39.0801 186.737 39.5456 186.048C40.0015 185.373 40.5276 184.735 41.1078 184.156C41.6913 183.573 42.3273 183.047 43.0032 182.591C43.6871 182.129 44.4172 181.732 45.1744 181.411C45.9491 181.084 46.7573 180.834 47.5719 180.667C49.2601 180.322 51.0519 180.322 52.7369 180.667C53.5562 180.834 54.3629 181.084 55.136 181.411C55.8932 181.732 56.6249 182.129 57.3088 182.591C57.9863 183.048 58.6239 183.574 59.2042 184.155C59.7844 184.735 60.3105 185.373 60.768 186.05C61.2303 186.734 61.6272 187.466 61.9461 188.223C62.2744 188.996 62.5247 189.803 62.6921 190.622C62.8643 191.462 62.9503 192.332 62.9503 193.203C62.9503 194.073 62.8643 194.942 62.6921 195.785C62.5247 196.603 62.2744 197.41 61.9461 198.183C61.6272 198.94 61.2303 199.67 60.768 200.356C60.3105 201.032 59.7844 201.669 59.2042 202.249C58.6239 202.83 57.9863 203.356 57.3088 203.813C56.6249 204.276 55.8932 204.674 55.136 204.993C54.3629 205.32 53.5562 205.572 52.7401 205.737C51.0503 206.083 49.2569 206.083 47.5751 205.737C46.7573 205.572 45.9491 205.32 45.1744 204.993C44.4172 204.673 43.6871 204.276 43.0064 203.815C42.3273 203.357 41.6913 202.831 41.1094 202.249C40.5276 201.669 40.0015 201.033 39.544 200.356C39.0801 199.669 38.6832 198.937 38.3659 198.183C38.0376 197.408 37.7889 196.603 37.6215 195.785L31.693 196.995C31.9417 198.204 32.3099 199.396 32.7929 200.537C33.2648 201.652 33.8482 202.728 34.5305 203.74C35.2064 204.738 35.9795 205.675 36.8324 206.528C37.6853 207.383 38.6242 208.157 39.6189 208.827C40.6216 209.506 41.7008 210.091 42.8215 210.564C43.9629 211.047 45.1553 211.417 46.3652 211.664C47.6006 211.918 48.8775 212.047 50.156 212.047Z" fill="#005EFF"/>
<path d="M50.156 141.507C51.4329 141.507 52.7114 141.378 53.9516 141.125C55.1583 140.878 56.3491 140.508 57.4921 140.025C58.608 139.553 59.6872 138.968 60.6947 138.287C61.691 137.615 62.6283 136.841 63.4812 135.989C64.334 135.134 65.1072 134.198 65.7799 133.202C66.4622 132.193 67.0456 131.115 67.5191 129.998C68.0005 128.858 68.3703 127.667 68.619 126.459C68.8725 125.214 69 123.939 69 122.663C69 121.386 68.8725 120.111 68.619 118.869C68.3703 117.659 68.0005 116.467 67.5191 115.327C67.0456 114.21 66.4622 113.132 65.7799 112.125C65.1072 111.128 64.334 110.191 63.4812 109.338C62.6283 108.485 61.691 107.711 60.6947 107.038C59.6872 106.357 58.608 105.772 57.4921 105.3C56.3491 104.817 55.1583 104.447 53.9484 104.202C51.4711 103.693 48.8377 103.693 46.362 104.202C45.1553 104.447 43.9629 104.817 42.8215 105.3C41.7008 105.774 40.6216 106.36 39.6157 107.039C38.6242 107.709 37.6853 108.484 36.8308 109.338C35.9796 110.189 35.2064 111.127 34.5321 112.125C33.8482 113.137 33.2648 114.215 32.7929 115.327C32.3099 116.469 31.9417 117.661 31.693 118.869L37.6215 120.079C37.7889 119.263 38.0376 118.456 38.3659 117.683C38.6832 116.929 39.0801 116.198 39.5456 115.509C40.0015 114.833 40.5276 114.195 41.1078 113.617C41.6913 113.033 42.3273 112.507 43.0032 112.051C43.6871 111.589 44.4172 111.192 45.1744 110.872C45.9491 110.545 46.7573 110.295 47.5719 110.127C49.2601 109.783 51.0519 109.783 52.7369 110.127C53.5562 110.295 54.3629 110.545 55.136 110.872C55.8932 111.192 56.6249 111.589 57.3088 112.051C57.9863 112.509 58.6239 113.035 59.2042 113.615C59.7844 114.195 60.3105 114.833 60.768 115.511C61.2303 116.194 61.6272 116.926 61.9461 117.683C62.2744 118.456 62.5247 119.263 62.6921 120.082C62.8643 120.923 62.9503 121.793 62.9503 122.663C62.9503 123.534 62.8643 124.402 62.6921 125.246C62.5247 126.064 62.2744 126.87 61.9461 127.643C61.6272 128.401 61.2303 129.131 60.768 129.816C60.3105 130.492 59.7844 131.13 59.2042 131.71C58.6239 132.29 57.9863 132.816 57.3088 133.274C56.6249 133.736 55.8932 134.135 55.136 134.453C54.3629 134.78 53.5562 135.032 52.7401 135.198C51.0503 135.544 49.2569 135.544 47.5751 135.198C46.7573 135.032 45.9491 134.78 45.1744 134.453C44.4172 134.133 43.6871 133.736 43.0064 133.275C42.3273 132.818 41.6913 132.292 41.1094 131.71C40.5276 131.13 40.0015 130.494 39.544 129.816C39.0801 129.129 38.6832 128.397 38.3659 127.643C38.0376 126.869 37.7889 126.064 37.6215 125.246L31.693 126.456C31.9417 127.664 32.3099 128.856 32.7929 129.998C33.2648 131.112 33.8482 132.188 34.5305 133.2C35.2064 134.198 35.9795 135.136 36.8324 135.989C37.6853 136.843 38.6242 137.618 39.6189 138.287C40.6216 138.966 41.7008 139.551 42.8215 140.025C43.9629 140.508 45.1553 140.878 46.3652 141.125C47.6006 141.378 48.8775 141.507 50.156 141.507Z" fill="#005EFF"/>
</g>
<defs>
<clipPath id="clip0_1673_431">
<rect width="69" height="213" fill="white"/>
</clipPath>
</defs>
</svg>
