<svg width="256" height="256" viewBox="0 0 256 256" fill="none" xmlns="http://www.w3.org/2000/svg">
<g clip-path="url(#clip0_1073_89981)">
<path d="M43.3779 91.0464L57.4707 230.669C58.2515 236.57 86.7443 255.974 127.999 256C169.279 255.974 197.772 236.57 198.54 230.669L212.645 91.0464C191.09 103.104 158.872 108.8 127.999 108.8C97.1507 108.8 64.9203 103.104 43.3779 91.0464ZM168.549 19.328L157.554 7.1552C153.304 1.1008 148.696 0 139.724 0H116.287C107.327 0 102.706 1.1008 98.4691 7.1552L87.474 19.328C54.578 25.0752 30.7188 40.32 30.7188 51.5712V53.7472C30.7188 73.5488 74.2771 89.6 127.999 89.6C181.733 89.6 225.292 73.5488 225.292 53.7472V51.5712C225.292 40.32 201.445 25.0752 168.549 19.328ZM154.495 55.552L140.799 38.4H115.199L101.528 55.552H79.7683C79.7683 55.552 103.602 27.1232 106.789 23.2704C109.221 20.3264 111.704 19.2 114.93 19.2H141.08C144.319 19.2 146.802 20.3264 149.234 23.2704C152.408 27.1232 176.255 55.552 176.255 55.552H154.495Z" fill="white"/>
</g>
<defs>
<clipPath id="clip0_1073_89981">
<rect width="256" height="256" fill="white"/>
</clipPath>
</defs>
</svg>
