<svg width="256" height="256" viewBox="0 0 256 256" fill="none" xmlns="http://www.w3.org/2000/svg">
<g clip-path="url(#clip0_1073_89977)">
<path d="M128.003 25.5996C118.096 25.5982 108.467 28.8798 100.623 34.9313C92.7793 40.9828 87.1618 49.463 84.6489 59.046C73.7962 61.8896 64.4048 68.7005 58.3306 78.133C52.2564 87.5654 49.9412 98.9332 51.8425 109.99C43.8642 115.34 37.8165 123.112 34.5919 132.16C31.3673 141.209 31.1364 151.054 33.9333 160.244C36.7302 169.434 42.4068 177.481 50.1256 183.199C57.8444 188.916 67.1967 192.002 76.8025 192H102.403V214.4C102.403 223.232 109.571 230.4 118.403 230.4H137.603C146.435 230.4 153.603 223.232 153.603 214.4V192H179.203C188.808 192.002 198.161 188.916 205.879 183.199C213.598 177.481 219.275 169.434 222.072 160.244C224.869 151.054 224.638 141.209 221.413 132.16C218.189 123.112 212.141 115.34 204.163 109.99C206.064 98.9332 203.749 87.5654 197.674 78.133C191.6 68.7005 182.209 61.8896 171.356 59.046C168.843 49.463 163.226 40.9828 155.382 34.9313C147.538 28.8798 137.91 25.5982 128.003 25.5996ZM115.203 192H140.803V214.4C140.803 215.248 140.465 216.062 139.865 216.662C139.265 217.262 138.451 217.6 137.603 217.6H118.403C117.554 217.6 116.74 217.262 116.14 216.662C115.54 216.062 115.203 215.248 115.203 214.4V192Z" fill="white"/>
</g>
<defs>
<clipPath id="clip0_1073_89977">
<rect width="256" height="256" fill="white"/>
</clipPath>
</defs>
</svg>
