<svg width="22" height="22" viewBox="0 0 22 22" fill="none" xmlns="http://www.w3.org/2000/svg">
<g clip-path="url(#clip0_830_60033)">
<g clip-path="url(#clip1_830_60033)">
<g clip-path="url(#clip2_830_60033)">
<path fill-rule="evenodd" clip-rule="evenodd" d="M1.54648 1.54648C0 3.09295 0 5.58197 0 10.56V11.44C0 16.418 0 18.907 1.54648 20.4535C3.09295 22 5.58197 22 10.56 22H11.44C16.418 22 18.907 22 20.4535 20.4535C22 18.907 22 16.418 22 11.44V10.56C22 5.58197 22 3.09295 20.4535 1.54648C18.907 0 16.418 0 11.44 0H10.56C5.58197 0 3.09295 0 1.54648 1.54648ZM3.71232 6.69059C3.83149 12.4106 6.69146 15.8481 11.7056 15.8481H11.9898V12.5756C13.8323 12.7589 15.2256 14.1064 15.7847 15.8481H18.3882C17.6732 13.2448 15.7939 11.8056 14.6206 11.2556C15.7939 10.5772 17.4439 8.92726 17.8381 6.69059H15.473C14.9597 8.50559 13.4382 10.1556 11.9898 10.3114V6.69059H9.62478V13.0339C8.15811 12.6672 6.30648 10.8889 6.22398 6.69059H3.71232Z" fill="black"/>
</g>
</g>
</g>
<defs>
<clipPath id="clip0_830_60033">
<rect width="22" height="22" fill="white"/>
</clipPath>
<clipPath id="clip1_830_60033">
<rect width="22" height="22" fill="white"/>
</clipPath>
<clipPath id="clip2_830_60033">
<rect width="22" height="22" fill="white"/>
</clipPath>
</defs>
</svg>
