<svg width="22" height="22" viewBox="0 0 22 22" fill="none" xmlns="http://www.w3.org/2000/svg">
<g clip-path="url(#clip0_830_60040)">
<g clip-path="url(#clip1_830_60040)">
<g clip-path="url(#clip2_830_60040)">
<path d="M0.328125 8.04328C0.328125 6.39492 0.416879 5.09285 0.645575 4.0638C0.873439 3.03851 1.23581 2.3046 1.76923 1.77118C2.30265 1.23777 3.03656 0.875392 4.06185 0.647528C5.0909 0.418832 6.39296 0.330078 8.04132 0.330078H13.9549C15.6033 0.330078 16.9053 0.418832 17.9344 0.647528C18.9597 0.875392 19.6936 1.23777 20.227 1.77118C20.7604 2.3046 21.1228 3.03851 21.3507 4.0638C21.5793 5.09285 21.6681 6.39492 21.6681 8.04328V13.9569C21.6681 15.6053 21.5793 16.9073 21.3507 17.9364C21.1228 18.9617 20.7604 19.6956 20.227 20.229C19.6936 20.7624 18.9597 21.1248 17.9344 21.3527C16.9053 21.5813 15.6033 21.6701 13.9549 21.6701H8.04132C6.39296 21.6701 5.0909 21.5813 4.06185 21.3527C3.03656 21.1248 2.30265 20.7624 1.76923 20.229C1.23581 19.6956 0.873439 18.9617 0.645575 17.9364C0.416879 16.9073 0.328125 15.6053 0.328125 13.9569V8.04328Z" stroke="black" stroke-width="0.66"/>
<path fill-rule="evenodd" clip-rule="evenodd" d="M11.8027 22H13.934C20.575 22 21.9983 20.5804 21.9983 13.9568V8.0432C21.9983 1.41962 20.575 0 13.934 0H11.8027C5.16164 0 3.73828 1.41962 3.73828 8.0432V13.9568C3.73828 20.5804 5.16164 22 11.8027 22ZM15.5007 9.11627C16.6047 9.75197 17.1566 10.0698 17.3419 10.4848C17.5035 10.8467 17.5035 11.2601 17.3419 11.622C17.1566 12.037 16.6047 12.3549 15.5007 12.9906L12.3771 14.7893C11.2731 15.425 10.7211 15.7428 10.2682 15.6953C9.87306 15.6539 9.51416 15.4473 9.28066 15.1267C9.01296 14.7592 9.01296 14.1235 9.01296 12.8521V9.2547C9.01296 7.9833 9.01296 7.3476 9.28066 6.98011C9.51416 6.65957 9.87306 6.4529 10.2682 6.41149C10.7211 6.36401 11.2731 6.68186 12.3771 7.31756L15.5007 9.11627Z" fill="black"/>
</g>
</g>
</g>
<defs>
<clipPath id="clip0_830_60040">
<rect width="22" height="22" fill="white"/>
</clipPath>
<clipPath id="clip1_830_60040">
<rect width="22" height="22" fill="white"/>
</clipPath>
<clipPath id="clip2_830_60040">
<rect width="22" height="22" fill="white"/>
</clipPath>
</defs>
</svg>
