<svg width="24" height="26" viewBox="0 0 24 26" fill="none" xmlns="http://www.w3.org/2000/svg">
<path d="M12.0498 0.942284C15.2465 0.943663 18.2468 2.18844 20.5029 4.44717C22.7589 6.7057 24.0011 9.70755 24 12.9003C23.9974 19.4875 18.6384 24.8478 12.0498 24.8505H12.0449C10.0452 24.8497 8.08017 24.3483 6.33496 23.3964L0 25.0575L1.69531 18.8651C0.649682 17.053 0.0997157 14.9975 0.100586 12.8915C0.103207 6.30295 5.46332 0.942459 12.0498 0.942284ZM7.81934 7.37295C7.62029 7.37306 7.29689 7.44741 7.02344 7.74599C6.74976 8.04492 5.97854 8.76766 5.97852 10.2372C5.97852 11.7065 7.04744 13.1261 7.19727 13.3261C7.34655 13.5254 9.30355 16.5415 12.2988 17.8349C13.011 18.1424 13.5674 18.3262 14.001 18.4638C14.7159 18.6909 15.3666 18.6588 15.8809 18.5819C16.4546 18.4962 17.6476 17.8595 17.8965 17.162C18.1452 16.4645 18.1449 15.8666 18.0703 15.7421C17.9956 15.6178 17.7971 15.5427 17.499 15.3935C17.2004 15.244 15.7318 14.5215 15.458 14.4218C15.1845 14.3222 14.9851 14.2725 14.7861 14.5712C14.5871 14.8701 14.015 15.5428 13.8408 15.7421C13.6667 15.9412 13.4927 15.9667 13.1943 15.8173C12.8958 15.6678 11.9335 15.3521 10.793 14.3349C9.90537 13.5431 9.306 12.5654 9.13184 12.2665C8.95776 11.9677 9.11325 11.806 9.2627 11.6571C9.39703 11.5233 9.56166 11.308 9.71094 11.1337C9.86001 10.9596 9.91029 10.8347 10.0098 10.6356C10.1089 10.4366 10.0589 10.2625 9.98438 10.1132C9.90973 9.96372 9.31229 8.49327 9.06348 7.89541C8.82116 7.31372 8.57482 7.39289 8.3916 7.38369C8.21773 7.37497 8.01821 7.37295 7.81934 7.37295Z" fill="#029cda"/>
</svg>
