<svg width="24" height="24" viewBox="0 0 24 24" fill="none" xmlns="http://www.w3.org/2000/svg">
<rect x="3" y="5" width="18" height="14" rx="1.5" stroke="white" stroke-linecap="round"/>
<path d="M6 8V7.5H5.5V8H6ZM9.64645 12.3536C9.84171 12.5488 10.1583 12.5488 10.3536 12.3536C10.5488 12.1583 10.5488 11.8417 10.3536 11.6464L10 12L9.64645 12.3536ZM6 12H6.5V8H6H5.5V12H6ZM6 8V8.5H10V8V7.5H6V8ZM6 8L5.64645 8.35355L9.64645 12.3536L10 12L10.3536 11.6464L6.35355 7.64645L6 8Z" fill="white"/>
<path d="M18 16V16.5H18.5V16H18ZM14.3536 11.6464C14.1583 11.4512 13.8417 11.4512 13.6464 11.6464C13.4512 11.8417 13.4512 12.1583 13.6464 12.3536L14 12L14.3536 11.6464ZM18 12H17.5V16H18H18.5V12H18ZM18 16V15.5H14V16V16.5H18V16ZM18 16L18.3536 15.6464L14.3536 11.6464L14 12L13.6464 12.3536L17.6464 16.3536L18 16Z" fill="white"/>
</svg>
