<svg width="256" height="256" viewBox="0 0 256 256" fill="none" xmlns="http://www.w3.org/2000/svg">
<path d="M115.397 37.3994C123.447 33.9496 132.559 33.9496 140.608 37.3994L196.205 61.2266C200.127 62.9075 202.67 66.7644 202.67 71.0312V127.062C202.67 147.73 192.688 167.127 175.869 179.141L140.402 204.474C132.985 209.772 123.021 209.772 115.604 204.474L80.1367 179.141C63.3179 167.127 53.3359 147.73 53.3359 127.062V71.0312C53.3359 66.7644 55.879 62.9075 59.8008 61.2266L115.397 37.3994ZM163.126 92.0957C160.97 90.3709 157.824 90.7207 156.099 92.877L116.922 141.848L99.5381 124.465C97.5855 122.512 94.4204 122.512 92.4678 124.465C90.5153 126.417 90.5152 129.583 92.4678 131.535L113.405 152.474C115.723 154.791 119.542 154.58 121.59 152.021L163.907 99.123C165.632 96.9668 165.282 93.8207 163.126 92.0957Z" fill="white"/>
</svg>
