<svg width="256" height="256" viewBox="0 0 256 256" fill="none" xmlns="http://www.w3.org/2000/svg">
<path d="M21.3359 77.333C21.3359 66.0193 21.3359 60.3624 24.8507 56.8477C28.3654 53.333 34.0222 53.333 45.3359 53.333H210.669C221.983 53.333 227.64 53.333 231.155 56.8477C234.669 60.3624 234.669 66.0193 234.669 77.333V82.6664C234.669 93.9801 234.669 99.6369 231.155 103.152C227.64 106.666 221.983 106.666 210.669 106.666H45.3359C34.0222 106.666 28.3654 106.666 24.8507 103.152C21.3359 99.6369 21.3359 93.98 21.3359 82.6663V77.333Z" fill="white"/>
<path d="M74.6641 32L74.6641 64" stroke="white" stroke-width="10" stroke-linecap="round"/>
<path d="M181.336 32L181.336 64" stroke="white" stroke-width="10" stroke-linecap="round"/>
<path d="M210.67 128C221.983 128 227.641 128 231.155 131.515C234.67 135.029 234.67 140.686 234.67 152V210.667C234.67 221.98 234.67 227.638 231.155 231.152C227.641 234.667 221.983 234.667 210.67 234.667H45.3359C34.0224 234.667 28.3653 234.667 24.8506 231.152C21.3359 227.638 21.3359 221.98 21.3359 210.667V152C21.3359 140.686 21.336 135.029 24.8506 131.515C28.3653 128 34.0224 128 45.3359 128H210.67ZM116.161 159.363V180.329H109.491V185.912H116.161V189.577H109.491V195.181H116.161V203H122.724V195.181H132.333V189.577H122.724V185.912H132.013C135.294 185.912 138.043 185.337 140.259 184.187C142.489 183.022 144.165 181.445 145.287 179.456C146.423 177.453 146.991 175.202 146.991 172.702C146.991 170.231 146.431 167.986 145.309 165.969C144.201 163.952 142.532 162.346 140.302 161.153C138.086 159.96 135.322 159.363 132.013 159.363H116.161ZM132.013 164.988C133.916 164.988 135.493 165.33 136.743 166.012C137.993 166.679 138.923 167.595 139.534 168.76C140.145 169.924 140.45 171.246 140.45 172.723C140.45 174.214 140.145 175.536 139.534 176.687C138.923 177.823 137.986 178.718 136.722 179.371C135.458 180.01 133.859 180.329 131.928 180.329H122.724V164.988H132.013Z" fill="white"/>
</svg>
