<svg width="256" height="256" viewBox="0 0 256 256" fill="none" xmlns="http://www.w3.org/2000/svg">
<path d="M133.664 94C133.664 94.3302 133.653 95.081 133.745 95.7637C133.856 96.5905 134.192 98.0131 135.422 99.2432C136.652 100.473 138.074 100.808 138.9 100.919C139.583 101.011 140.334 101 140.664 101H213.33V170.667C213.33 200.836 213.33 215.921 203.958 225.294C194.585 234.667 179.5 234.667 149.33 234.667H106.664C76.4942 234.667 61.4087 234.667 52.0361 225.294C42.6637 215.921 42.6641 200.836 42.6641 170.667V85.333C42.6641 55.1635 42.6637 40.0786 52.0361 30.7061C61.4087 21.3335 76.4942 21.333 106.664 21.333H133.664V94ZM95.9971 176.333C93.2358 176.333 90.9972 178.572 90.9971 181.333C90.9971 184.094 93.2356 186.333 95.9971 186.333H138.664L138.921 186.326C141.563 186.192 143.664 184.008 143.664 181.333C143.664 178.658 141.563 176.474 138.921 176.34L138.664 176.333H95.9971ZM95.9971 133.667C93.2356 133.667 90.9971 135.906 90.9971 138.667C90.9972 141.428 93.2358 143.667 95.9971 143.667H159.997C162.758 143.667 164.997 141.428 164.997 138.667C164.997 135.906 162.758 133.667 159.997 133.667H95.9971ZM143.664 21.334C151.501 21.3382 155.61 21.4186 159.324 22.957C163.245 24.5809 166.328 27.6641 172.494 33.8301L200.834 62.1699C207 68.3355 210.082 71.4187 211.706 75.3389C213.245 79.0532 213.325 83.1625 213.329 91H143.664V21.334Z" fill="white"/>
</svg>
