<svg width="256" height="256" viewBox="0 0 256 256" fill="none" xmlns="http://www.w3.org/2000/svg">
<path fill-rule="evenodd" clip-rule="evenodd" d="M69.3307 170.667H170.664C190.777 170.667 200.834 170.667 207.082 164.418C213.331 158.17 213.331 148.113 213.331 128V74.6667C213.331 54.5534 213.331 44.4968 207.082 38.2484C200.834 32 190.777 32 170.664 32H85.3307C65.2175 32 55.1608 32 48.9125 38.2484C42.6641 44.4968 42.6641 54.5534 42.6641 74.6667V197.333C42.6641 182.606 54.6031 170.667 69.3307 170.667ZM167.069 78.2621C163.163 74.3568 156.831 74.3568 152.926 78.2621L117.33 113.858L103.069 99.596L102.696 99.2406C98.7701 95.6938 92.7093 95.8128 88.9261 99.596C85.1432 103.379 85.025 109.439 88.5716 113.365L88.9261 113.738L109.552 134.364C113.848 138.659 120.813 138.659 125.109 134.364L167.069 92.4046C170.974 88.4994 170.974 82.1673 167.069 78.2621Z" fill="white"/>
<path d="M207.082 164.418L206.375 163.711L206.375 163.711L207.082 164.418ZM207.082 38.2484L206.375 38.9555L206.375 38.9555L207.082 38.2484ZM152.926 78.2621L153.633 78.9692L153.633 78.9692L152.926 78.2621ZM167.069 78.2621L167.776 77.5549L167.776 77.5549L167.069 78.2621ZM117.33 113.858L116.623 114.565L117.33 115.272L118.038 114.565L117.33 113.858ZM103.069 99.596L103.776 98.8889L103.767 98.8804L103.759 98.8721L103.069 99.596ZM102.696 99.2406L103.385 98.5166L103.376 98.5075L103.366 98.4986L102.696 99.2406ZM88.9261 99.596L88.219 98.8889L88.219 98.889L88.9261 99.596ZM88.5716 113.365L87.8296 114.035L87.838 114.044L87.8467 114.053L88.5716 113.365ZM88.9261 113.738L88.2012 114.426L88.21 114.436L88.219 114.445L88.9261 113.738ZM125.109 134.364L124.402 133.656L124.402 133.657L125.109 134.364ZM167.069 92.4046L167.776 93.1117L167.776 93.1117L167.069 92.4046ZM170.664 170.667V169.667H69.3307V170.667V171.667H170.664V170.667ZM207.082 164.418L206.375 163.711C203.468 166.619 199.638 168.128 193.939 168.895C188.212 169.665 180.749 169.667 170.664 169.667V170.667V171.667C180.692 171.667 188.314 171.669 194.206 170.877C200.126 170.081 204.448 168.466 207.789 165.125L207.082 164.418ZM213.331 128H212.331C212.331 138.085 212.329 145.548 211.559 151.275C210.792 156.974 209.283 160.804 206.375 163.711L207.082 164.418L207.789 165.125C211.13 161.784 212.745 157.462 213.541 151.542C214.333 145.65 214.331 138.028 214.331 128H213.331ZM213.331 74.6667H212.331V128H213.331H214.331V74.6667H213.331ZM207.082 38.2484L206.375 38.9555C209.283 41.8629 210.792 45.693 211.559 51.3914C212.329 57.1187 212.331 64.5818 212.331 74.6667H213.331H214.331C214.331 64.6383 214.333 57.0164 213.541 51.125C212.745 45.2047 211.13 40.8822 207.789 37.5413L207.082 38.2484ZM170.664 32V33C180.749 33 188.212 33.0021 193.939 33.7721C199.638 34.5383 203.468 36.0481 206.375 38.9555L207.082 38.2484L207.789 37.5413C204.448 34.2003 200.126 32.5859 194.206 31.79C188.314 30.9979 180.692 31 170.664 31V32ZM85.3307 32V33H170.664V32V31H85.3307V32ZM48.9125 38.2484L49.6196 38.9555C52.527 36.0481 56.357 34.5383 62.0555 33.7721C67.7828 33.0021 75.2458 33 85.3307 33V32V31C75.3024 31 67.6805 30.9979 61.789 31.79C55.8688 32.5859 51.5463 34.2003 48.2053 37.5413L48.9125 38.2484ZM42.6641 74.6667H43.6641C43.6641 64.5818 43.6662 57.1187 44.4362 51.3914C45.2023 45.693 46.7121 41.8629 49.6196 38.9555L48.9125 38.2484L48.2053 37.5413C44.8644 40.8822 43.25 45.2047 42.454 51.125C41.6619 57.0164 41.6641 64.6383 41.6641 74.6667H42.6641ZM42.6641 197.333H43.6641V74.6667H42.6641H41.6641V197.333H42.6641ZM69.3307 170.667V169.667C54.0509 169.667 41.6641 182.053 41.6641 197.333H42.6641H43.6641C43.6641 183.158 55.1554 171.667 69.3307 171.667V170.667ZM152.926 78.2621L153.633 78.9692C157.148 75.4544 162.847 75.4544 166.362 78.9692L167.069 78.2621L167.776 77.5549C163.48 73.2592 156.515 73.2592 152.219 77.5549L152.926 78.2621ZM117.33 113.858L118.038 114.565L153.633 78.9692L152.926 78.2621L152.219 77.5549L116.623 113.151L117.33 113.858ZM103.069 99.596L102.362 100.303L116.623 114.565L117.33 113.858L118.038 113.151L103.776 98.8889L103.069 99.596ZM102.696 99.2406L102.006 99.9645L102.379 100.32L103.069 99.596L103.759 98.8721L103.385 98.5166L102.696 99.2406ZM88.9261 99.596L89.6332 100.303C93.038 96.8984 98.493 96.7912 102.025 99.9826L102.696 99.2406L103.366 98.4986C99.0472 94.5965 92.3806 94.7273 88.219 98.8889L88.9261 99.596ZM88.5716 113.365L89.3136 112.694C86.1222 109.162 86.2289 103.708 89.6332 100.303L88.9261 99.596L88.219 98.889C84.0576 103.051 83.9278 109.716 87.8296 114.035L88.5716 113.365ZM88.9261 113.738L89.651 113.049L89.2965 112.676L88.5716 113.365L87.8467 114.053L88.2012 114.426L88.9261 113.738ZM109.552 134.364L110.259 133.657L89.6332 113.031L88.9261 113.738L88.219 114.445L108.845 135.071L109.552 134.364ZM125.109 134.364L124.402 133.657C120.496 137.562 114.164 137.562 110.259 133.657L109.552 134.364L108.845 135.071C113.531 139.757 121.13 139.757 125.816 135.071L125.109 134.364ZM167.069 92.4046L166.362 91.6975L124.402 133.656L125.109 134.364L125.816 135.071L167.776 93.1117L167.069 92.4046ZM167.069 78.2621L166.362 78.9692C169.876 82.4839 169.876 88.1828 166.362 91.6975L167.069 92.4046L167.776 93.1117C172.072 88.816 172.072 81.8507 167.776 77.5549L167.069 78.2621ZM117.331 224V223H69.3307V224V225H117.331V224ZM42.6641 197.333H41.6641C41.6641 212.613 54.0509 225 69.3307 225V224V223C55.1554 223 43.6641 211.509 43.6641 197.333H42.6641Z" fill="white"/>
<path d="M213.331 224H106.664" stroke="white" stroke-width="2" stroke-linecap="round"/>
</svg>
