<svg width="256" height="256" viewBox="0 0 256 256" fill="none" xmlns="http://www.w3.org/2000/svg">
<path d="M109.947 77.0119C116.795 59.9379 120.22 51.4009 125.783 50.2177C127.246 49.9066 128.758 49.9066 130.221 50.2177C135.784 51.4009 139.209 59.9379 146.058 77.0119C149.952 86.7215 151.9 91.5764 155.544 94.8784C156.566 95.8046 157.675 96.6295 158.856 97.3415C163.068 99.8799 168.326 100.351 178.841 101.292C196.641 102.887 205.541 103.684 208.259 108.758C208.822 109.809 209.204 110.947 209.391 112.125C210.292 117.81 203.749 123.763 190.663 135.668L187.03 138.974C180.912 144.54 177.853 147.323 176.083 150.796C175.022 152.88 174.311 155.123 173.977 157.438C173.421 161.296 174.317 165.333 176.108 173.407L176.749 176.292C179.961 190.773 181.568 198.013 179.562 201.572C177.761 204.768 174.443 206.815 170.778 206.99C166.698 207.185 160.949 202.5 149.45 193.13C141.875 186.957 138.087 183.871 133.882 182.665C130.04 181.563 125.965 181.563 122.122 182.665C117.917 183.871 114.129 186.957 106.554 193.13C95.0553 202.5 89.3061 207.185 85.2259 206.99C81.5608 206.815 78.243 204.768 76.4418 201.572C74.4365 198.013 76.0429 190.773 79.2557 176.292L79.8957 173.407C81.6872 165.333 82.583 161.296 82.0271 157.438C81.6937 155.123 80.982 152.88 79.9207 150.796C78.1514 147.323 75.0925 144.54 68.9747 138.974L65.3408 135.668C52.2551 123.763 45.7122 117.81 46.6133 112.125C46.7999 110.947 47.1826 109.809 47.7455 108.758C50.4633 103.684 59.3634 102.887 77.1635 101.292C87.6786 100.351 92.9361 99.8799 97.1477 97.3415C98.329 96.6295 99.4385 95.8046 100.461 94.8784C104.104 91.5764 106.052 86.7215 109.947 77.0119Z" fill="white" stroke="white" stroke-width="2"/>
</svg>
