<svg width="25" height="25" viewBox="0 0 25 25" fill="none" xmlns="http://www.w3.org/2000/svg">
<path d="M2.3437 1.95312V7.25625L0.848781 10.6203C0.795948 10.7392 0.773658 10.8695 0.783934 10.9992C0.79421 11.1289 0.836728 11.254 0.907625 11.3631C0.978523 11.4723 1.07555 11.5619 1.18991 11.624C1.30427 11.6861 1.43232 11.7187 1.56245 11.7188H12.8906C13.0267 11.7188 13.1604 11.6832 13.2785 11.6157C13.3966 11.5481 13.495 11.4509 13.564 11.3336C13.633 11.2163 13.6702 11.083 13.6718 10.9469C13.6734 10.8109 13.6395 10.6767 13.5734 10.5578L11.7187 7.21953V1.95312C11.7187 1.74592 11.6364 1.54721 11.4899 1.4007C11.3434 1.25419 11.1447 1.17188 10.9375 1.17188H3.12495C2.91775 1.17188 2.71904 1.25419 2.57253 1.4007C2.42601 1.54721 2.3437 1.74592 2.3437 1.95312ZM2.76441 10.1562L3.63277 8.20312H10.4777L11.5625 10.1562H2.76441ZM3.9062 2.73438H10.1562V6.64062H3.9062V2.73438Z" fill="white"/>
<path d="M3.9062 2.73438H10.1562V6.64062H3.9062V2.73438Z" fill="white"/>
<path d="M23.4375 13.2812H14.8438C14.6365 13.2812 14.4378 13.3636 14.2913 13.5101C14.1448 13.6566 14.0625 13.8553 14.0625 14.0625V20.3125C14.0625 20.5197 14.1448 20.7184 14.2913 20.8649C14.4378 21.0114 14.6365 21.0938 14.8438 21.0938H18.3594V22.6562H16.4062V24.2188H21.875V22.6562H19.9219V21.0938H23.4375C23.6447 21.0938 23.8434 21.0114 23.9899 20.8649C24.1364 20.7184 24.2188 20.5197 24.2188 20.3125V14.0625C24.2188 13.8553 24.1364 13.6566 23.9899 13.5101C23.8434 13.3636 23.6447 13.2812 23.4375 13.2812ZM22.6562 19.5312H15.625V14.8438H22.6562V19.5312Z" fill="white"/>
<path d="M22.6562 19.5312H15.625V14.8438H22.6562V19.5312Z" fill="white"/>
<path d="M12.2297 21.3403L12.4965 19.8005C12.0267 19.719 11.5651 19.5964 11.1168 19.4341L10.5859 20.9028C11.12 21.0966 11.67 21.243 12.2297 21.3403Z" fill="white"/>
<path d="M9.04111 20.1846L9.82236 18.8311C9.4086 18.5923 9.01648 18.3178 8.65049 18.0107L7.64697 19.2088C8.08273 19.5736 8.54918 19.9001 9.04111 20.1846Z" fill="white"/>
<path d="M7.63711 17.0021C7.32945 16.637 7.05406 16.2458 6.81406 15.833L5.46289 16.6182C5.74788 17.1089 6.07461 17.5741 6.43945 18.0088L7.63711 17.0021Z" fill="white"/>
<path d="M4.29688 13.4343C4.39644 13.994 4.54466 14.544 4.73984 15.078L6.20703 14.5409C6.04317 14.0929 5.91886 13.6314 5.83555 13.1616L4.29688 13.4343Z" fill="white"/>
<path d="M22.1112 10.7646C22.0108 10.2058 21.8615 9.6568 21.6651 9.12402L20.1987 9.66387C20.3637 10.1115 20.4891 10.5728 20.5733 11.0424L22.1112 10.7646Z" fill="white"/>
<path d="M18.7644 7.20371C19.0726 7.56819 19.3487 7.95871 19.5894 8.3709L20.9375 7.58262C20.6509 7.09232 20.3223 6.62782 19.9554 6.19434L18.7644 7.20371Z" fill="white"/>
<path d="M17.7493 6.19609L18.7501 4.99609C18.3139 4.63188 17.8468 4.30643 17.354 4.02344L16.5767 5.37812C16.9905 5.61637 17.3828 5.89005 17.7493 6.19609Z" fill="white"/>
<path d="M15.2788 4.77988L15.8085 3.30996C15.2736 3.11756 14.723 2.97235 14.1628 2.87598L13.8979 4.41426C14.368 4.49561 14.8301 4.61795 15.2788 4.77988Z" fill="white"/>
</svg>
