<svg width="25" height="25" viewBox="0 0 25 25" fill="none" xmlns="http://www.w3.org/2000/svg">
<path d="M3.97661 5.71162C5.10972 5.71162 6.02773 4.79282 6.02773 3.66045C6.02773 2.5269 5.10972 1.60889 3.97661 1.60889C2.84302 1.60889 1.92505 2.5269 1.92505 3.66045C1.92505 4.79282 2.84302 5.71162 3.97661 5.71162Z" fill="white"/>
<path d="M10.9456 11.965C10.9456 11.9232 10.9387 11.8833 10.9333 11.8431L13.9972 9.61938C14.1897 9.47939 14.2331 9.20869 14.0931 9.01577C14.0118 8.9042 13.8811 8.83745 13.743 8.83745C13.6513 8.83745 13.5639 8.86621 13.4895 8.91992L10.4195 11.1482C10.3052 11.0961 10.1798 11.065 10.046 11.065H8.37715L7.97217 8.75928C7.74976 7.59663 7.28311 6.68359 6.28916 6.68359H2.07529C1.08135 6.68359 0 7.76494 0 8.75928V15.654C0 16.1509 0.402637 16.554 0.899609 16.554C1.14429 16.554 0.899609 16.554 1.52773 16.554L1.86978 22.434C1.86978 22.9628 2.29888 23.3916 2.82769 23.3916C3.22417 23.3916 4.21431 23.3916 4.74307 23.3916C5.27187 23.3916 5.70059 22.9628 5.70059 22.434L6.15 10.7871H6.17261L6.42993 11.9232C6.51504 12.4651 6.98135 12.8646 7.52974 12.8646H10.046C10.543 12.8646 10.9456 12.462 10.9456 11.965Z" fill="white"/>
<path d="M9.29321 2.31787V9.80806H10.4712V3.49585H23.8219V14.7525H10.4712V13.3356H9.29321V15.9305H25V2.31787H9.29321Z" fill="white"/>
<path d="M15.074 7.10298L18.075 8.1625V4.97705C16.6875 4.97705 15.5107 5.86592 15.074 7.10298Z" fill="white"/>
<path d="M16.1147 10.0406C16.1147 11.8 17.5408 13.2257 19.2998 13.2257C21.0592 13.2257 22.4849 11.8 22.4849 10.0406C22.4849 8.28208 21.0592 6.85596 19.2998 6.85596V10.0406L16.2984 8.98188C16.1818 9.31318 16.1147 9.66865 16.1147 10.0406Z" fill="white"/>
</svg>
