<svg width="25" height="25" viewBox="0 0 25 25" fill="none" xmlns="http://www.w3.org/2000/svg">
<path fill-rule="evenodd" clip-rule="evenodd" d="M20.625 10.6043C20.3021 7.29183 18.3437 2.0835 12.2916 2.0835C6.23955 2.0835 4.28122 7.29183 3.9583 10.6043C2.8255 11.0343 2.07829 12.1219 2.08328 13.3335V14.7918C2.08328 16.4027 3.38914 17.7085 4.99997 17.7085C6.6108 17.7085 7.91664 16.4027 7.91664 14.7918V13.3335C7.9114 12.148 7.19163 11.0828 6.09372 10.6356C6.30205 8.71891 7.32289 4.16683 12.2916 4.16683C17.2604 4.16683 18.2708 8.71891 18.4791 10.6356C17.3834 11.0837 16.6673 12.1497 16.6666 13.3335V14.7918C16.6712 15.9116 17.3141 16.9307 18.3229 17.4168C17.8854 18.2397 16.7708 19.3543 14.0312 19.6877C13.4836 18.8561 12.4241 18.5283 11.5025 18.9053C10.5809 19.2822 10.055 20.2586 10.2471 21.2356C10.4393 22.2126 11.2959 22.9168 12.2916 22.9168C13.0784 22.9125 13.7957 22.4652 14.1458 21.7606C18.6146 21.2502 20.0416 18.9481 20.4896 17.5939C21.7013 17.2014 22.5163 16.0655 22.5 14.7918V13.3335C22.505 12.1219 21.7578 11.0343 20.625 10.6043ZM5.8333 14.7918C5.8333 15.2521 5.46021 15.6252 4.99997 15.6252C4.53973 15.6252 4.16664 15.2521 4.16664 14.7918V13.3335C4.16664 13.0358 4.32547 12.7607 4.5833 12.6118C4.84114 12.4629 5.1588 12.4629 5.41664 12.6118C5.67447 12.7607 5.8333 13.0358 5.8333 13.3335V14.7918ZM18.75 13.3335C18.75 12.8733 19.1231 12.5002 19.5833 12.5002C20.0435 12.5002 20.4166 12.8733 20.4166 13.3335V14.7918C20.4166 15.2521 20.0435 15.6252 19.5833 15.6252C19.1231 15.6252 18.75 15.2521 18.75 14.7918V13.3335Z" fill="white"/>
<path d="M18.75 13.3335C18.75 12.8733 19.1231 12.5002 19.5833 12.5002C20.0435 12.5002 20.4166 12.8733 20.4166 13.3335V14.7918C20.4166 15.2521 20.0435 15.6252 19.5833 15.6252C19.1231 15.6252 18.75 15.2521 18.75 14.7918V13.3335Z" fill="white"/>
<path d="M5.8333 14.7918C5.8333 15.2521 5.46021 15.6252 4.99997 15.6252C4.53973 15.6252 4.16664 15.2521 4.16664 14.7918V13.3335C4.16664 13.0358 4.32547 12.7607 4.5833 12.6118C4.84114 12.4629 5.1588 12.4629 5.41664 12.6118C5.67447 12.7607 5.8333 13.0358 5.8333 13.3335V14.7918Z" fill="white"/>
</svg>
