<svg width="25" height="25" viewBox="0 0 25 25" fill="none" xmlns="http://www.w3.org/2000/svg">
<path d="M13.0125 24H4.25C3.9739 24 3.75 23.7761 3.75 23.5V1.5C3.75 1.2239 3.9739 1 4.25 1H19.25C19.5261 1 19.75 1.2239 19.75 1.5V9.48125C19.75 9.7574 19.9739 9.98125 20.25 9.98125C20.5261 9.98125 20.75 9.7574 20.75 9.48125V1.5C20.75 0.671606 20.0784 0 19.25 0H4.25C3.42161 0 2.75 0.671606 2.75 1.5V23.5C2.75 24.3284 3.42161 25 4.25 25H13.0125C13.2886 25 13.5125 24.7761 13.5125 24.5C13.5125 24.2239 13.2886 24 13.0125 24Z" fill="white"/>
<path d="M6.28748 4H17.2375C17.5136 4 17.7375 3.77615 17.7375 3.5C17.7375 3.22385 17.5136 3 17.2375 3H6.28748C6.01133 3 5.78748 3.22385 5.78748 3.5C5.78748 3.77615 6.01133 4 6.28748 4ZM6.28748 7H17.2375C17.5136 7 17.7375 6.77615 17.7375 6.5C17.7375 6.22385 17.5136 6 17.2375 6H6.28748C6.01133 6 5.78748 6.22385 5.78748 6.5C5.78748 6.77615 6.01133 7 6.28748 7ZM6.28748 10H17.2375C17.5136 10 17.7375 9.77615 17.7375 9.5C17.7375 9.22385 17.5136 9 17.2375 9H6.28748C6.01133 9 5.78748 9.22385 5.78748 9.5C5.78748 9.77615 6.01133 10 6.28748 10ZM6.28748 13H12.4875C12.7636 13 12.9875 12.7761 12.9875 12.5C12.9875 12.2239 12.7636 12 12.4875 12H6.28748C6.01133 12 5.78748 12.2239 5.78748 12.5C5.78748 12.7761 6.01133 13 6.28748 13ZM6.28748 16H12.4875C12.7636 16 12.9875 15.7761 12.9875 15.5C12.9875 15.2239 12.7636 15 12.4875 15H6.28748C6.01133 15 5.78748 15.2239 5.78748 15.5C5.78748 15.7761 6.01133 16 6.28748 16ZM14 15.1875C14 12.8404 15.9029 10.9375 18.25 10.9375C20.5971 10.9375 22.5 12.8404 22.5 15.1875C22.5 17.5346 20.5971 19.4375 18.25 19.4375C15.9029 19.4375 14 17.5346 14 15.1875ZM15 15.1875C15 16.9823 16.4552 18.4375 18.25 18.4375C20.0448 18.4375 21.5 16.9823 21.5 15.1875C21.5 13.3927 20.0448 11.9375 18.25 11.9375C16.4552 11.9375 15 13.3927 15 15.1875Z" fill="white"/>
<path d="M15 15.1875C15 16.9823 16.4552 18.4375 18.25 18.4375C20.0448 18.4375 21.5 16.9823 21.5 15.1875C21.5 13.3927 20.0448 11.9375 18.25 11.9375C16.4552 11.9375 15 13.3927 15 15.1875Z" fill="white"/>
<path d="M20.9249 24.8494C21.4246 25.1511 22.0625 24.7912 22.0625 24.2074V16.9531C22.0625 16.677 21.8387 16.4531 21.5625 16.4531C21.2864 16.4531 21.0625 16.677 21.0625 16.9531V23.7644L18.6387 22.3011C18.3995 22.1561 18.0987 22.1571 17.8595 22.3033L15.4978 23.7559V17.0781C15.4978 16.802 15.2739 16.5782 14.9978 16.5782C14.7217 16.5782 14.4978 16.802 14.4978 17.0781V24.2032C14.4978 24.7897 15.1409 25.149 15.6405 24.8422L18.2521 23.2358L20.9249 24.8494Z" fill="white"/>
</svg>
