<svg width="472" height="168" viewBox="0 0 472 168" fill="none" xmlns="http://www.w3.org/2000/svg">
<rect width="472" height="168" rx="20" fill="#F5F7F9"/>
<path d="M30.0378 64.6448H27.9257C27.8445 64.1935 27.6933 63.7963 27.4722 63.4533C27.2511 63.1104 26.9803 62.8193 26.6599 62.5801C26.3395 62.3409 25.9807 62.1604 25.5835 62.0386C25.1909 61.9167 24.7735 61.8558 24.3312 61.8558C23.5324 61.8558 22.8171 62.0566 22.1853 62.4583C21.558 62.8599 21.0616 63.4488 20.6961 64.2251C20.335 65.0013 20.1545 65.949 20.1545 67.0682C20.1545 68.1964 20.335 69.1486 20.6961 69.9248C21.0616 70.7011 21.5603 71.2877 22.1921 71.6849C22.8239 72.082 23.5347 72.2806 24.3244 72.2806C24.7622 72.2806 25.1774 72.2219 25.57 72.1046C25.9671 71.9827 26.3259 71.8045 26.6463 71.5698C26.9667 71.3351 27.2375 71.0486 27.4587 70.7101C27.6843 70.3671 27.84 69.9745 27.9257 69.5322L30.0378 69.539C29.925 70.2204 29.7061 70.8477 29.3811 71.4209C29.0607 71.9895 28.6478 72.4814 28.1424 72.8966C27.6414 73.3073 27.0683 73.6254 26.4229 73.8511C25.7776 74.0767 25.0736 74.1895 24.3109 74.1895C23.1105 74.1895 22.0409 73.9052 21.1022 73.3366C20.1635 72.7635 19.4234 71.9444 18.8819 70.8793C18.3448 69.8143 18.0763 68.5439 18.0763 67.0682C18.0763 65.5879 18.3471 64.3176 18.8886 63.257C19.4302 62.192 20.1703 61.3752 21.109 60.8065C22.0477 60.2334 23.115 59.9468 24.3109 59.9468C25.0465 59.9468 25.7325 60.0529 26.3688 60.265C27.0096 60.4726 27.585 60.7795 28.095 61.1856C28.6049 61.5873 29.0269 62.0792 29.3608 62.6613C29.6948 63.239 29.9204 63.9001 30.0378 64.6448ZM32.5407 60.1364H34.6122V70.3175H34.7408L41.7945 60.1364H43.7305V74H41.6388V63.8324H41.5101L34.47 74H32.5407V60.1364ZM45.7325 74V72.1858L46.1387 72.1723C46.6893 72.1587 47.1225 71.9715 47.4384 71.6104C47.7588 71.2494 47.9912 70.6672 48.1356 69.8639C48.2846 69.0606 48.3839 67.9888 48.4335 66.6485L48.6704 60.1364H57.4367V74H55.3721V61.9099H50.6403L50.4237 67.2036C50.365 68.6883 50.2161 69.9361 49.9769 70.947C49.7377 71.9534 49.3316 72.7138 48.7584 73.2283C48.1898 73.7428 47.3797 74 46.3282 74H45.7325ZM61.9519 65.7278H65.6886C66.7175 65.7278 67.593 65.8948 68.3151 66.2288C69.0372 66.5627 69.5877 67.0343 69.9668 67.6436C70.3504 68.2528 70.5399 68.9704 70.5354 69.7962C70.5399 70.6221 70.3504 71.3509 69.9668 71.9827C69.5877 72.6145 69.0372 73.1087 68.3151 73.4652C67.593 73.8217 66.7175 74 65.6886 74H60.4965V60.1364H62.595V72.24H65.6886C66.2888 72.24 66.7942 72.1226 67.2049 71.888C67.6201 71.6533 67.9337 71.3487 68.1459 70.9741C68.3625 70.5995 68.4708 70.1979 68.4708 69.7692C68.4708 69.1464 68.2316 68.6116 67.7532 68.1648C67.2749 67.7135 66.5866 67.4879 65.6886 67.4879H61.9519V65.7278ZM73.0858 74V60.1364H75.1775V66.1611H82.089V60.1364H84.1875V74H82.089V67.955H75.1775V74H73.0858ZM88.7027 65.7278H92.4394C93.4683 65.7278 94.3438 65.8948 95.0659 66.2288C95.7879 66.5627 96.3385 67.0343 96.7176 67.6436C97.1012 68.2528 97.2907 68.9704 97.2862 69.7962C97.2907 70.6221 97.1012 71.3509 96.7176 71.9827C96.3385 72.6145 95.7879 73.1087 95.0659 73.4652C94.3438 73.8217 93.4683 74 92.4394 74H87.2473V60.1364H89.3458V72.24H92.4394C93.0396 72.24 93.545 72.1226 93.9557 71.888C94.3709 71.6533 94.6845 71.3487 94.8966 70.9741C95.1133 70.5995 95.2216 70.1979 95.2216 69.7692C95.2216 69.1464 94.9824 68.6116 94.504 68.1648C94.0257 67.7135 93.3374 67.4879 92.4394 67.4879H88.7027V65.7278ZM100.664 60.1364V74H98.5656V60.1364H100.664ZM103.709 74V60.1364H112.401V61.937H105.8V66.1611H111.947V67.955H105.8V72.1994H112.482V74H103.709ZM120.239 60.1364H122.311V70.3175H122.439L129.493 60.1364H131.429V74H129.337V63.8324H129.209L122.169 74H120.239V60.1364ZM133.431 77.3508V72.2264H134.345C134.656 71.9647 134.948 71.5924 135.218 71.1095C135.489 70.6266 135.719 69.9745 135.909 69.1531C136.098 68.3318 136.229 67.278 136.301 65.9919L136.626 60.1364H145.176V72.2264H146.747V77.3305H144.743V74H135.435V77.3508H133.431ZM136.809 72.2264H143.172V61.937H138.522L138.305 65.9919C138.246 66.9712 138.149 67.8512 138.014 68.6319C137.883 69.4126 137.714 70.1031 137.506 70.7033C137.303 71.299 137.071 71.8067 136.809 72.2264ZM149.038 74V60.1364H157.73V61.937H151.13V66.1611H157.276V67.955H151.13V72.1994H157.811V74H149.038ZM160.524 60.1364H162.595V70.3175H162.724L169.778 60.1364H171.714V74H169.622V63.8324H169.493L162.453 74H160.524V60.1364Z" fill="#29CADB"/>
<path d="M51.4739 114.351V109.226H52.3877C52.6991 108.965 52.9902 108.592 53.261 108.109C53.5317 107.627 53.7619 106.974 53.9514 106.153C54.141 105.332 54.2719 104.278 54.3441 102.992L54.669 97.1364H63.2187V109.226H64.7892V114.331H62.7854V111H53.4776V114.351H51.4739ZM54.8518 109.226H61.215V98.937H56.5644L56.3478 102.992C56.2891 103.971 56.1921 104.851 56.0567 105.632C55.9258 106.413 55.7566 107.103 55.549 107.703C55.3459 108.299 55.1135 108.807 54.8518 109.226ZM66.0313 111V109.186L66.4375 109.172C66.9881 109.159 67.4213 108.971 67.7372 108.61C68.0576 108.249 68.2901 107.667 68.4345 106.864C68.5834 106.061 68.6827 104.989 68.7323 103.648L68.9692 97.1364H77.7356V111H75.6709V98.9099H70.9391L70.7225 104.204C70.6638 105.688 70.5149 106.936 70.2757 107.947C70.0366 108.953 69.6304 109.714 69.0573 110.228C68.4886 110.743 67.6786 111 66.6271 111H66.0313ZM90.6109 111H88.5124V98.9302H85.8859C85.1999 98.9302 84.6426 99.034 84.2138 99.2416C83.7851 99.4447 83.4715 99.7381 83.2729 100.122C83.0743 100.505 82.975 100.959 82.975 101.482C82.975 102.001 83.0743 102.446 83.2729 102.816C83.4715 103.186 83.7829 103.468 84.2071 103.662C84.6313 103.856 85.1841 103.953 85.8656 103.953H89.4195V105.754H85.6692C84.5997 105.754 83.7084 105.575 82.9954 105.219C82.2868 104.862 81.7543 104.364 81.3978 103.723C81.0458 103.078 80.8698 102.331 80.8698 101.482C80.8698 100.629 81.0458 99.878 81.3978 99.2281C81.7498 98.5737 82.2801 98.0615 82.9886 97.6915C83.7016 97.3214 84.5929 97.1364 85.6625 97.1364H90.6109V111ZM83.7671 104.745H86.0822L82.7178 111H80.3418L83.7671 104.745ZM98.7087 111V97.1364H100.8V103.161H107.712V97.1364H109.81V111H107.712V104.955H100.8V111H98.7087ZM124.899 104.068C124.899 105.548 124.629 106.821 124.087 107.886C123.545 108.947 122.803 109.763 121.86 110.337C120.921 110.905 119.854 111.19 118.658 111.19C117.458 111.19 116.386 110.905 115.443 110.337C114.504 109.763 113.764 108.944 113.222 107.879C112.681 106.814 112.41 105.544 112.41 104.068C112.41 102.588 112.681 101.318 113.222 100.257C113.764 99.192 114.504 98.3752 115.443 97.8065C116.386 97.2334 117.458 96.9468 118.658 96.9468C119.854 96.9468 120.921 97.2334 121.86 97.8065C122.803 98.3752 123.545 99.192 124.087 100.257C124.629 101.318 124.899 102.588 124.899 104.068ZM122.828 104.068C122.828 102.94 122.645 101.99 122.28 101.218C121.919 100.442 121.422 99.8554 120.79 99.4583C120.163 99.0566 119.452 98.8558 118.658 98.8558C117.859 98.8558 117.146 99.0566 116.519 99.4583C115.892 99.8554 115.395 100.442 115.03 101.218C114.669 101.99 114.488 102.94 114.488 104.068C114.488 105.196 114.669 106.149 115.03 106.925C115.395 107.697 115.892 108.283 116.519 108.685C117.146 109.082 117.859 109.281 118.658 109.281C119.452 109.281 120.163 109.082 120.79 108.685C121.422 108.283 121.919 107.697 122.28 106.925C122.645 106.149 122.828 105.196 122.828 104.068ZM127.507 111V97.1364H132.584C133.568 97.1364 134.383 97.2988 135.028 97.6238C135.673 97.9442 136.156 98.3797 136.477 98.9302C136.797 99.4763 136.957 100.092 136.957 100.778C136.957 101.356 136.851 101.843 136.639 102.24C136.427 102.633 136.143 102.949 135.786 103.188C135.434 103.423 135.046 103.594 134.622 103.703V103.838C135.082 103.861 135.531 104.01 135.969 104.285C136.411 104.556 136.777 104.941 137.066 105.442C137.354 105.943 137.499 106.553 137.499 107.27C137.499 107.979 137.332 108.615 136.998 109.179C136.668 109.739 136.158 110.183 135.468 110.513C134.778 110.838 133.895 111 132.821 111H127.507ZM129.599 109.206H132.618C133.62 109.206 134.338 109.012 134.771 108.624C135.204 108.236 135.421 107.751 135.421 107.169C135.421 106.731 135.31 106.329 135.089 105.964C134.868 105.598 134.552 105.307 134.141 105.09C133.735 104.874 133.252 104.765 132.693 104.765H129.599V109.206ZM129.599 103.134H132.401C132.871 103.134 133.293 103.044 133.667 102.863C134.046 102.683 134.347 102.43 134.568 102.105C134.793 101.776 134.906 101.388 134.906 100.941C134.906 100.368 134.705 99.887 134.304 99.4989C133.902 99.1108 133.286 98.9167 132.456 98.9167H129.599V103.134ZM152.022 104.068C152.022 105.548 151.752 106.821 151.21 107.886C150.669 108.947 149.926 109.763 148.983 110.337C148.044 110.905 146.977 111.19 145.781 111.19C144.581 111.19 143.509 110.905 142.566 110.337C141.627 109.763 140.887 108.944 140.345 107.879C139.804 106.814 139.533 105.544 139.533 104.068C139.533 102.588 139.804 101.318 140.345 100.257C140.887 99.192 141.627 98.3752 142.566 97.8065C143.509 97.2334 144.581 96.9468 145.781 96.9468C146.977 96.9468 148.044 97.2334 148.983 97.8065C149.926 98.3752 150.669 99.192 151.21 100.257C151.752 101.318 152.022 102.588 152.022 104.068ZM149.951 104.068C149.951 102.94 149.768 101.99 149.403 101.218C149.042 100.442 148.545 99.8554 147.913 99.4583C147.286 99.0566 146.575 98.8558 145.781 98.8558C144.982 98.8558 144.269 99.0566 143.642 99.4583C143.015 99.8554 142.518 100.442 142.153 101.218C141.792 101.99 141.611 102.94 141.611 104.068C141.611 105.196 141.792 106.149 142.153 106.925C142.518 107.697 143.015 108.283 143.642 108.685C144.269 109.082 144.982 109.281 145.781 109.281C146.575 109.281 147.286 109.082 147.913 108.685C148.545 108.283 149.042 107.697 149.403 106.925C149.768 106.149 149.951 105.196 149.951 104.068ZM163.275 97.1364V98.937H156.722V111H154.63V97.1364H163.275ZM177.079 104.068C177.079 105.548 176.808 106.821 176.267 107.886C175.725 108.947 174.983 109.763 174.04 110.337C173.101 110.905 172.034 111.19 170.838 111.19C169.637 111.19 168.566 110.905 167.622 110.337C166.684 109.763 165.944 108.944 165.402 107.879C164.861 106.814 164.59 105.544 164.59 104.068C164.59 102.588 164.861 101.318 165.402 100.257C165.944 99.192 166.684 98.3752 167.622 97.8065C168.566 97.2334 169.637 96.9468 170.838 96.9468C172.034 96.9468 173.101 97.2334 174.04 97.8065C174.983 98.3752 175.725 99.192 176.267 100.257C176.808 101.318 177.079 102.588 177.079 104.068ZM175.008 104.068C175.008 102.94 174.825 101.99 174.459 101.218C174.098 100.442 173.602 99.8554 172.97 99.4583C172.343 99.0566 171.632 98.8558 170.838 98.8558C170.039 98.8558 169.326 99.0566 168.699 99.4583C168.071 99.8554 167.575 100.442 167.209 101.218C166.848 101.99 166.668 102.94 166.668 104.068C166.668 105.196 166.848 106.149 167.209 106.925C167.575 107.697 168.071 108.283 168.699 108.685C169.326 109.082 170.039 109.281 170.838 109.281C171.632 109.281 172.343 109.082 172.97 108.685C173.602 108.283 174.098 107.697 174.459 106.925C174.825 106.149 175.008 105.196 175.008 104.068ZM184.732 111V97.1364H189.809C190.793 97.1364 191.607 97.2988 192.253 97.6238C192.898 97.9442 193.381 98.3797 193.701 98.9302C194.022 99.4763 194.182 100.092 194.182 100.778C194.182 101.356 194.076 101.843 193.864 102.24C193.652 102.633 193.367 102.949 193.011 103.188C192.659 103.423 192.271 103.594 191.847 103.703V103.838C192.307 103.861 192.756 104.01 193.194 104.285C193.636 104.556 194.001 104.941 194.29 105.442C194.579 105.943 194.724 106.553 194.724 107.27C194.724 107.979 194.557 108.615 194.223 109.179C193.893 109.739 193.383 110.183 192.693 110.513C192.002 110.838 191.12 111 190.046 111H184.732ZM186.824 109.206H189.843C190.845 109.206 191.562 109.012 191.995 108.624C192.429 108.236 192.645 107.751 192.645 107.169C192.645 106.731 192.535 106.329 192.314 105.964C192.093 105.598 191.777 105.307 191.366 105.09C190.96 104.874 190.477 104.765 189.917 104.765H186.824V109.206ZM186.824 103.134H189.626C190.096 103.134 190.518 103.044 190.892 102.863C191.271 102.683 191.571 102.43 191.792 102.105C192.018 101.776 192.131 101.388 192.131 100.941C192.131 100.368 191.93 99.887 191.528 99.4989C191.127 99.1108 190.511 98.9167 189.68 98.9167H186.824V103.134ZM197.205 111V97.1364H202.146C203.225 97.1364 204.118 97.3327 204.827 97.7253C205.535 98.1179 206.066 98.655 206.418 99.3364C206.77 100.013 206.946 100.776 206.946 101.624C206.946 102.477 206.767 103.245 206.411 103.926C206.059 104.603 205.526 105.14 204.813 105.537C204.105 105.93 203.213 106.126 202.139 106.126H198.741V104.352H201.95C202.631 104.352 203.184 104.235 203.608 104C204.033 103.761 204.344 103.436 204.542 103.026C204.741 102.615 204.84 102.148 204.84 101.624C204.84 101.101 204.741 100.636 204.542 100.23C204.344 99.8238 204.03 99.5056 203.602 99.2755C203.177 99.0453 202.618 98.9302 201.923 98.9302H199.296V111H197.205ZM209.398 111V97.1364H218.09V98.937H211.49V103.161H217.636V104.955H211.49V109.199H218.171V111H209.398ZM220.884 97.1364H223.422L227.836 107.913H227.998L232.412 97.1364H234.95V111H232.96V100.968H232.832L228.743 110.98H227.091L223.003 100.961H222.874V111H220.884V97.1364ZM237.992 111V97.1364H246.683V98.937H240.083V103.161H246.23V104.955H240.083V109.199H246.765V111H237.992ZM249.477 111V97.1364H251.569V103.161H258.481V97.1364H260.579V111H258.481V104.955H251.569V111H249.477ZM263.625 97.1364H265.697V107.317H265.825L272.879 97.1364H274.815V111H272.723V100.832H272.595L265.555 111H263.625V97.1364Z" fill="#29CADB"/>
<g opacity="0.4">
<path d="M299.531 120.591C309.629 130.711 332.558 124.14 350.745 105.913C368.932 87.6869 375.488 64.7074 365.391 54.5876C355.293 44.4677 332.364 51.0392 314.177 69.2656C295.991 87.4918 289.434 110.471 299.531 120.591Z" stroke="#292727" stroke-opacity="0.22" stroke-miterlimit="10"/>
<path d="M369.539 107.656C379.637 117.776 402.566 111.205 420.753 92.9787C438.94 74.7524 445.497 51.7728 435.398 41.6533C425.301 31.533 402.372 38.1047 384.185 56.331C365.999 74.5572 359.441 97.536 369.539 107.656Z" stroke="#292727" stroke-opacity="0.22" stroke-miterlimit="10"/>
<path d="M318.881 133.93C338.88 128.197 359.73 107.302 365.45 87.259C371.169 67.2155 359.593 55.6134 339.593 61.3454C319.593 67.0775 298.743 87.9726 293.024 108.016C287.305 128.059 298.881 139.661 318.881 133.93Z" stroke="#292727" stroke-opacity="0.22" stroke-miterlimit="10"/>
<path d="M371.391 98.032C381.489 108.152 404.418 101.581 422.605 83.3544C440.791 65.1281 447.348 42.1493 437.25 32.029C427.152 21.9093 404.223 28.4804 386.036 46.7067C367.85 64.9329 361.293 87.9125 371.391 98.032Z" stroke="#292727" stroke-opacity="0.22" stroke-miterlimit="10"/>
<path d="M318.435 142.939C338.435 137.207 359.285 116.312 365.005 96.269C370.724 76.2252 359.147 64.6232 339.148 70.3552C319.148 76.0872 298.298 96.9825 292.579 117.026C286.859 137.07 298.436 148.672 318.435 142.939Z" stroke="#292727" stroke-opacity="0.22" stroke-miterlimit="10"/>
<path d="M393.006 93.0938C413.006 87.3618 433.856 66.4665 439.575 46.423C445.294 26.3793 433.717 14.7772 413.718 20.5097C393.718 26.2414 372.868 47.1367 367.149 67.1805C361.429 87.2236 373.006 98.8257 393.006 93.0938Z" stroke="#292727" stroke-opacity="0.22" stroke-miterlimit="10"/>
<path d="M320.787 150.246C340.787 144.514 361.637 123.619 367.356 103.575C373.075 83.5315 361.499 71.93 341.499 77.6618C321.499 83.3938 300.65 104.289 294.93 124.332C289.21 144.377 300.787 155.978 320.787 150.246Z" stroke="#292727" stroke-opacity="0.22" stroke-miterlimit="10"/>
<path d="M389.295 86.8549C409.295 81.1229 430.145 60.2276 435.864 40.1839C441.583 20.1403 430.007 8.53812 410.007 14.2703C390.007 20.0023 369.158 40.8976 363.438 60.9413C357.718 80.9845 369.295 92.5868 389.295 86.8549Z" stroke="#292727" stroke-opacity="0.22" stroke-miterlimit="10"/>
<path d="M325.764 155.299C345.763 149.568 366.613 128.673 372.333 108.629C378.052 88.5853 366.476 76.9837 346.476 82.7155C326.476 88.4476 305.626 109.343 299.907 129.386C294.187 149.43 305.763 161.032 325.764 155.299Z" stroke="#292727" stroke-opacity="0.22" stroke-miterlimit="10"/>
<path d="M383.131 83.0813C403.131 77.3493 423.98 56.4542 429.699 36.4105C435.42 16.3667 423.842 4.76482 403.843 10.4968C383.843 16.2289 362.993 37.124 357.274 57.1677C351.554 77.2113 363.131 88.8132 383.131 83.0813Z" stroke="#292727" stroke-opacity="0.22" stroke-miterlimit="10"/>
<path d="M310.43 154.438C320.528 164.557 343.456 157.986 361.643 139.759C379.829 121.533 386.387 98.5542 376.289 88.4345C366.191 78.3143 343.262 84.8859 325.075 103.112C306.889 121.338 300.332 144.317 310.43 154.438Z" stroke="#292727" stroke-opacity="0.22" stroke-miterlimit="10"/>
<path d="M374.959 82.0488C394.959 76.3169 415.809 55.4217 421.528 35.378C427.247 15.3343 415.671 3.73262 395.671 9.46461C375.671 15.1966 354.822 36.0918 349.102 56.1355C343.383 76.1791 354.959 87.7808 374.959 82.0488Z" stroke="#292727" stroke-opacity="0.22" stroke-miterlimit="10"/>
<path d="M319.391 154.055C329.489 164.175 352.417 157.604 370.604 139.378C388.79 121.152 395.348 98.1727 385.25 88.0524C375.152 77.9327 352.223 84.5039 334.036 102.73C315.85 120.956 309.293 143.935 319.391 154.055Z" stroke="#292727" stroke-opacity="0.22" stroke-miterlimit="10"/>
<path d="M342.813 80.543C352.91 90.6629 375.839 84.0911 394.026 65.8649C412.212 47.6386 418.77 24.6597 408.672 14.5398C398.574 4.41985 375.645 10.9913 357.459 29.2176C339.272 47.4439 332.715 70.423 342.813 80.543Z" stroke="#292727" stroke-opacity="0.22" stroke-miterlimit="10"/>
<path d="M329.399 150.899C339.497 161.02 362.425 154.448 380.612 136.222C398.798 117.995 405.356 95.0163 395.258 84.8962C385.16 74.7765 362.231 81.3476 344.044 99.5738C325.857 117.8 319.301 140.779 329.399 150.899Z" stroke="#292727" stroke-opacity="0.22" stroke-miterlimit="10"/>
<path d="M355.131 88.2987C375.131 82.5669 395.98 61.6716 401.7 41.6279C407.419 21.5844 395.843 9.98255 375.843 15.7146C355.843 21.4467 334.993 42.3418 329.274 62.3853C323.554 82.4289 335.131 94.0308 355.131 88.2987Z" stroke="#292727" stroke-opacity="0.22" stroke-miterlimit="10"/>
<path d="M362.295 148.487C382.295 142.755 403.144 121.86 408.864 101.816C414.583 81.7727 403.007 70.1711 383.007 75.9031C363.007 81.635 342.157 102.53 336.438 122.574C330.718 142.617 342.295 154.219 362.295 148.487Z" stroke="#292727" stroke-opacity="0.22" stroke-miterlimit="10"/>
<path d="M344.943 95.1286C364.943 89.3968 385.793 68.5014 391.512 48.4578C397.232 28.4144 385.656 16.8127 365.656 22.5447C345.656 28.2766 324.806 49.172 319.086 69.2155C313.367 89.2591 324.943 100.861 344.943 95.1286Z" stroke="#292727" stroke-opacity="0.22" stroke-miterlimit="10"/>
<path d="M372.147 140.666C392.146 134.933 412.996 114.038 418.716 93.9947C424.435 73.951 412.859 62.3488 392.859 68.0808C372.859 73.8126 352.009 94.7079 346.289 114.752C340.57 134.795 352.147 146.397 372.147 140.666Z" stroke="#292727" stroke-opacity="0.22" stroke-miterlimit="10"/>
<path d="M313.008 100.508C323.106 110.628 346.035 104.057 364.222 85.8303C382.408 67.604 388.965 44.6244 378.867 34.5046C368.769 24.3847 345.84 30.9563 327.654 49.1825C309.467 67.4088 302.91 90.3879 313.008 100.508Z" stroke="#292727" stroke-opacity="0.22" stroke-miterlimit="10"/>
<path d="M358.25 128.016C368.348 138.136 391.277 131.565 409.464 113.339C427.651 95.1124 434.208 72.133 424.109 62.0133C414.012 51.8937 391.082 58.4647 372.896 76.6911C354.709 94.9174 348.152 117.897 358.25 128.016Z" stroke="#292727" stroke-opacity="0.22" stroke-miterlimit="10"/>
<path d="M327.772 113.667C347.772 107.935 368.621 87.0401 374.341 66.9964C380.06 46.9526 368.483 35.3507 348.483 41.0828C328.484 46.8148 307.634 67.7099 301.915 87.7536C296.195 107.797 307.772 119.399 327.772 113.667Z" stroke="#292727" stroke-opacity="0.22" stroke-miterlimit="10"/>
<path d="M387.663 121.107C407.662 115.375 428.512 94.4797 434.231 74.436C439.951 54.3925 428.373 42.7903 408.374 48.5221C388.375 54.2548 367.525 75.15 361.805 95.1931C356.086 115.237 367.663 126.839 387.663 121.107Z" stroke="#292727" stroke-opacity="0.22" stroke-miterlimit="10"/>
<path d="M299.477 120.723C309.574 130.842 332.504 124.271 350.69 106.045C368.877 87.8186 375.434 64.8391 365.336 54.7194C355.238 44.5996 332.309 51.171 314.122 69.3973C295.936 87.6235 289.379 110.603 299.477 120.723Z" stroke="#292727" stroke-opacity="0.22" stroke-miterlimit="10"/>
<path d="M369.578 107.531C379.676 117.652 402.605 111.08 420.792 92.8535C438.978 74.6271 445.535 51.6483 435.438 41.528C425.339 31.4083 402.41 37.9794 384.224 56.2058C366.037 74.4319 359.481 97.4115 369.578 107.531Z" stroke="#292727" stroke-opacity="0.22" stroke-miterlimit="10"/>
<path d="M318.857 134.052C338.857 128.32 359.707 107.425 365.426 87.381C371.146 67.3374 359.569 55.7355 339.57 61.4675C319.569 67.1995 298.72 88.0948 293 108.138C287.281 128.182 298.858 139.783 318.857 134.052Z" stroke="#292727" stroke-opacity="0.22" stroke-miterlimit="10"/>
<path d="M393.967 101.212C413.966 95.4798 434.817 74.5846 440.536 54.5409C446.256 34.4978 434.678 22.8957 414.679 28.6276C394.679 34.3598 373.829 55.255 368.11 75.2984C362.39 95.3422 373.967 106.944 393.967 101.212Z" stroke="#292727" stroke-opacity="0.22" stroke-miterlimit="10"/>
<path d="M295.867 139.754C305.965 149.874 328.894 143.302 347.081 125.076C365.268 106.85 371.824 83.8703 361.727 73.7508C351.629 63.6308 328.7 70.2022 310.513 88.4286C292.327 106.655 285.769 129.634 295.867 139.754Z" stroke="#292727" stroke-opacity="0.22" stroke-miterlimit="10"/>
<path d="M392.974 93.0008C412.974 87.2689 433.824 66.3737 439.543 46.33C445.262 26.2864 433.686 14.6848 413.687 20.4167C393.687 26.1486 372.837 47.0438 367.118 67.0875C361.398 87.1313 372.974 98.7327 392.974 93.0008Z" stroke="#292727" stroke-opacity="0.22" stroke-miterlimit="10"/>
<path d="M320.834 150.325C340.834 144.592 361.684 123.697 367.403 103.653C373.122 83.6096 361.546 72.0082 341.546 77.7399C321.546 83.4719 300.696 104.367 294.977 124.411C289.258 144.454 300.834 156.056 320.834 150.325Z" stroke="#292727" stroke-opacity="0.22" stroke-miterlimit="10"/>
<path d="M366.664 83.5022C376.762 93.6218 399.691 87.0502 417.877 68.8238C436.063 50.5975 442.622 27.6187 432.523 17.499C422.426 7.37871 399.497 13.9503 381.31 32.1765C363.123 50.4028 356.566 73.3819 366.664 83.5022Z" stroke="#292727" stroke-opacity="0.22" stroke-miterlimit="10"/>
<path d="M302.453 114.768C312.551 124.887 335.48 118.316 353.667 100.09C371.853 81.8635 378.41 58.8841 368.313 48.7644C358.215 38.6445 335.286 45.2159 317.099 63.4422C298.913 81.6686 292.355 104.648 302.453 114.768Z" stroke="#292727" stroke-opacity="0.22" stroke-miterlimit="10"/>
<path d="M367.305 113.374C377.403 123.494 400.332 116.922 418.518 98.6961C436.705 80.4698 443.262 57.491 433.165 47.3707C423.066 37.2512 400.137 43.8221 381.95 62.0485C363.764 80.2748 357.207 103.254 367.305 113.374Z" stroke="#292727" stroke-opacity="0.22" stroke-miterlimit="10"/>
<path d="M320.342 128.368C340.342 122.636 361.191 101.741 366.911 81.6974C372.63 61.6537 361.054 50.0519 341.054 55.7839C321.054 61.516 300.204 82.4112 294.485 102.455C288.766 122.498 300.342 134.1 320.342 128.368Z" stroke="#292727" stroke-opacity="0.22" stroke-miterlimit="10"/>
<path d="M370.68 103.288C380.778 113.408 403.707 106.836 421.894 88.6101C440.079 70.3839 446.638 47.4051 436.539 37.2847C426.442 27.1652 403.512 33.7363 385.325 51.9624C367.139 70.1888 360.582 93.1683 370.68 103.288Z" stroke="#292727" stroke-opacity="0.22" stroke-miterlimit="10"/>
<path d="M295.758 134.759C305.856 144.879 328.785 138.307 346.971 120.081C365.158 101.855 371.715 78.8756 361.617 68.7555C351.52 58.6358 328.591 65.2072 310.404 83.4336C292.218 101.66 285.66 124.639 295.758 134.759Z" stroke="#292727" stroke-opacity="0.22" stroke-miterlimit="10"/>
<path d="M393.873 97.4863C413.873 91.7543 434.722 70.859 440.441 50.8153C446.162 30.7718 434.586 19.1702 414.585 24.9021C394.585 30.6342 373.736 51.5295 368.016 71.573C362.297 91.6166 373.873 103.218 393.873 97.4863Z" stroke="#292727" stroke-opacity="0.22" stroke-miterlimit="10"/>
<path d="M319.123 146.384C339.123 140.653 359.972 119.758 365.692 99.7138C371.411 79.6701 359.835 68.0685 339.835 73.8006C319.835 79.5326 298.985 100.428 293.266 120.471C287.546 140.515 299.123 152.117 319.123 146.384Z" stroke="#292727" stroke-opacity="0.22" stroke-miterlimit="10"/>
<path d="M391.686 90.0616C411.686 84.3298 432.535 63.4343 438.254 43.3908C443.975 23.3471 432.397 11.745 412.398 17.4775C392.398 23.2092 371.548 44.1045 365.829 64.1483C360.109 84.1914 371.686 95.7935 391.686 90.0616Z" stroke="#292727" stroke-opacity="0.22" stroke-miterlimit="10"/>
<path d="M322.655 152.753C342.654 147.021 363.504 126.126 369.223 106.082C374.943 86.0386 363.366 74.4366 343.366 80.1688C323.366 85.9008 302.516 106.796 296.798 126.839C291.077 146.883 302.654 158.485 322.655 152.753Z" stroke="#292727" stroke-opacity="0.22" stroke-miterlimit="10"/>
<path d="M386.858 84.8577C406.857 79.1258 427.707 58.2306 433.426 38.1868C439.147 18.1431 427.569 6.54103 407.57 12.2733C387.57 18.0053 366.72 38.9007 361.001 58.9441C355.281 78.9875 366.858 90.5895 386.858 84.8577Z" stroke="#292727" stroke-opacity="0.22" stroke-miterlimit="10"/>
<path d="M328.685 156.69C348.686 150.958 369.535 130.063 375.255 110.019C380.974 89.9753 369.397 78.3733 349.398 84.1051C329.398 89.8375 308.548 110.733 302.829 130.777C297.109 150.82 308.686 162.422 328.685 156.69Z" stroke="#292727" stroke-opacity="0.22" stroke-miterlimit="10"/>
<path d="M379.74 82.2678C399.74 76.5353 420.589 55.6401 426.31 35.597C432.029 15.5534 420.452 3.95133 400.452 9.68332C380.452 15.4153 359.603 36.3105 353.883 56.3542C348.164 76.3978 359.741 87.9998 379.74 82.2678Z" stroke="#292727" stroke-opacity="0.22" stroke-miterlimit="10"/>
<path d="M314.18 154.608C324.278 164.728 347.207 158.156 365.394 139.93C383.58 121.704 390.137 98.724 380.039 88.6044C369.941 78.4841 347.012 85.0559 328.826 103.282C310.639 121.509 304.082 144.488 314.18 154.608Z" stroke="#292727" stroke-opacity="0.22" stroke-miterlimit="10"/>
<path d="M348.297 79.1845C358.395 89.3044 381.324 82.7333 399.511 64.507C417.697 46.2808 424.254 23.3012 414.156 13.1813C404.059 3.06149 381.129 9.63301 362.943 27.8591C344.756 46.0856 338.199 69.0647 348.297 79.1845Z" stroke="#292727" stroke-opacity="0.22" stroke-miterlimit="10"/>
<path d="M323.688 152.988C333.785 163.107 356.715 156.536 374.902 138.31C393.088 120.084 399.645 97.1039 389.547 86.9842C379.449 76.8641 356.52 83.4358 338.334 101.662C320.147 119.888 313.59 142.867 323.688 152.988Z" stroke="#292727" stroke-opacity="0.22" stroke-miterlimit="10"/>
<path d="M360.904 85.4678C380.904 79.7359 401.754 58.8408 407.473 38.7971C413.193 18.7534 401.616 7.15151 381.616 12.8836C361.616 18.6155 340.767 39.5108 335.047 59.5543C329.328 79.5979 340.904 91.1998 360.904 85.4678Z" stroke="#292727" stroke-opacity="0.22" stroke-miterlimit="10"/>
<path d="M356.498 151.961C376.498 146.229 397.348 125.334 403.067 105.29C408.787 85.2469 397.21 73.6447 377.21 79.3767C357.211 85.1092 336.361 106.004 330.641 126.047C324.922 146.091 336.498 157.694 356.498 151.961Z" stroke="#292727" stroke-opacity="0.22" stroke-miterlimit="10"/>
<path d="M350.584 91.0215C370.584 85.2897 391.434 64.3943 397.153 44.3507C402.873 24.307 391.296 12.7052 371.296 18.4373C351.296 24.1693 330.447 45.0646 324.727 65.1081C319.008 85.1517 330.584 96.7536 350.584 91.0215Z" stroke="#292727" stroke-opacity="0.22" stroke-miterlimit="10"/>
<path d="M344.133 141.977C354.231 152.098 377.16 145.526 395.346 127.3C413.533 109.073 420.09 86.0944 409.992 75.974C399.894 65.8545 376.966 72.4262 358.779 90.6525C340.593 108.879 334.035 131.858 344.133 141.977Z" stroke="#292727" stroke-opacity="0.22" stroke-miterlimit="10"/>
<path d="M318.102 95.4432C328.199 105.563 351.129 98.9918 369.315 80.7655C387.502 62.5393 394.058 39.5598 383.961 29.4401C373.863 19.3203 350.934 25.8917 332.748 44.118C314.561 62.3442 308.004 85.3234 318.102 95.4432Z" stroke="#292727" stroke-opacity="0.22" stroke-miterlimit="10"/>
<path d="M353.57 133.401C363.668 143.522 386.597 136.95 404.784 118.724C422.97 100.497 429.528 77.5183 419.43 67.3981C409.332 57.2784 386.403 63.8495 368.216 82.0758C350.03 100.302 343.473 123.282 353.57 133.401Z" stroke="#292727" stroke-opacity="0.22" stroke-miterlimit="10"/>
<path d="M331.912 108.018C351.912 102.287 372.762 81.3912 378.481 61.3476C384.201 41.3042 372.624 29.7023 352.624 35.4343C332.624 41.1663 311.775 62.0616 306.055 82.1052C300.336 102.149 311.912 113.751 331.912 108.018Z" stroke="#292727" stroke-opacity="0.22" stroke-miterlimit="10"/>
<path d="M384.076 126.872C404.076 121.14 424.926 100.245 430.645 80.2011C436.365 60.1574 424.788 48.5558 404.788 54.2879C384.788 60.0197 363.939 80.915 358.219 100.959C352.5 121.002 364.076 132.604 384.076 126.872Z" stroke="#292727" stroke-opacity="0.22" stroke-miterlimit="10"/>
<path d="M302.375 114.902C312.473 125.022 335.402 118.451 353.589 100.225C371.775 81.9983 378.332 59.0188 368.234 48.8991C358.136 38.7793 335.207 45.3507 317.021 63.5771C298.834 81.8032 292.277 104.782 302.375 114.902Z" stroke="#292727" stroke-opacity="0.22" stroke-miterlimit="10"/>
<path d="M367.36 113.244C377.457 123.364 400.387 116.793 418.573 98.5665C436.76 80.3404 443.317 57.3608 433.218 47.2411C423.121 37.1209 400.192 43.6926 382.005 61.9189C363.819 80.1452 357.262 103.124 367.36 113.244Z" stroke="#292727" stroke-opacity="0.22" stroke-miterlimit="10"/>
<path d="M320.303 128.493C340.303 122.761 361.152 101.866 366.872 81.8222C372.591 61.7785 361.015 50.1769 341.015 55.909C321.015 61.641 300.165 82.5361 294.446 102.58C288.726 122.623 300.303 134.225 320.303 128.493Z" stroke="#292727" stroke-opacity="0.22" stroke-miterlimit="10"/>
<path d="M393.28 106.457C413.28 100.725 434.13 79.8294 439.849 59.7856C445.568 39.7421 433.991 28.1399 413.991 33.8717C393.992 39.6044 373.142 60.4995 367.422 80.5426C361.703 100.586 373.28 112.188 393.28 106.457Z" stroke="#292727" stroke-opacity="0.22" stroke-miterlimit="10"/>
<path d="M295.742 134.874C305.84 144.993 328.769 138.422 346.956 120.196C365.142 101.97 371.699 78.9905 361.601 68.8708C351.504 58.751 328.575 65.3224 310.388 83.5486C292.201 101.775 285.645 124.754 295.742 134.874Z" stroke="#292727" stroke-opacity="0.22" stroke-miterlimit="10"/>
<path d="M393.866 97.3822C413.866 91.6504 434.715 70.7551 440.434 50.7114C446.153 30.6679 434.577 19.0657 414.577 24.7975C394.578 30.5298 373.728 51.4251 368.008 71.4683C362.289 91.5121 373.866 103.114 393.866 97.3822Z" stroke="#292727" stroke-opacity="0.22" stroke-miterlimit="10"/>
<path d="M319.147 146.476C339.146 140.745 359.996 119.849 365.715 99.8059C371.435 79.7622 359.858 68.1603 339.858 73.8923C319.859 79.6244 299.009 100.52 293.29 120.563C287.57 140.607 299.146 152.209 319.147 146.476Z" stroke="#292727" stroke-opacity="0.22" stroke-miterlimit="10"/>
<path d="M369.07 86.6873C379.168 96.807 402.097 90.2358 420.284 72.0096C438.47 53.7833 445.027 30.8039 434.93 20.6842C424.831 10.5645 401.903 17.1358 383.716 35.362C365.53 53.5883 358.973 76.5677 369.07 86.6873Z" stroke="#292727" stroke-opacity="0.22" stroke-miterlimit="10"/>
</g>
</svg>
