<svg width="33" height="34" viewBox="0 0 33 34" fill="none" xmlns="http://www.w3.org/2000/svg">
<g clip-path="url(#clip0_1144_90339)">
<path d="M25.1101 15.4751C24.6007 15.4751 24.09 15.4239 23.592 15.3223C23.108 15.2239 22.6312 15.0758 22.1751 14.8837C21.727 14.6944 21.2963 14.4605 20.8934 14.1888C20.4953 13.921 20.1197 13.6121 19.7788 13.2712C19.4386 12.9324 19.1297 12.5576 18.8593 12.159C18.5864 11.7563 18.352 11.3258 18.1629 10.88C17.9711 10.4268 17.8233 9.95184 17.7235 9.46684C17.6216 8.97044 17.5703 8.46084 17.5703 7.95124C17.5703 7.44164 17.6216 6.93204 17.7235 6.43644C17.8233 5.95074 17.9711 5.47494 18.1636 5.02184C18.352 4.57664 18.5864 4.14614 18.8593 3.74351C19.129 3.34486 19.4379 2.97079 19.7788 2.63061C20.1191 2.29109 20.4939 1.98281 20.8934 1.71305C21.2969 1.44064 21.7284 1.20743 22.1758 1.01874C22.6286 0.827387 23.1053 0.679217 23.5913 0.580217C24.5868 0.376907 25.6361 0.376907 26.6282 0.580217C27.1149 0.679217 27.5916 0.827387 28.0457 1.0194C28.4925 1.20743 28.9233 1.44064 29.3267 1.71305C29.7269 1.98281 30.1018 2.29176 30.4413 2.63061C30.7829 2.97146 31.0918 3.34552 31.3615 3.74351C31.6338 4.14614 31.8675 4.57604 32.0573 5.02184C32.2504 5.47764 32.3982 5.95334 32.4967 6.43644L30.1257 6.92004C30.0585 6.59324 29.9586 6.27094 29.8274 5.96264C29.6996 5.66104 29.5411 5.36864 29.356 5.09564C29.1729 4.82514 28.9625 4.57004 28.7302 4.33884C28.4991 4.10824 28.2434 3.89765 27.9711 3.71361C27.6981 3.52957 27.4058 3.37144 27.1029 3.24387C26.7946 3.11364 26.4717 3.01332 26.1428 2.94621C25.4696 2.80868 24.7512 2.80868 24.0767 2.94621C23.7485 3.01332 23.4256 3.11364 23.1186 3.2432C22.8143 3.37144 22.5227 3.52957 22.249 3.71361C21.9767 3.89765 21.7217 4.10764 21.49 4.33884C21.2583 4.56934 21.0479 4.82454 20.8641 5.09564C20.679 5.36934 20.5206 5.66034 20.3927 5.96264C20.2622 6.27024 20.1617 6.59184 20.0944 6.92074C20.0259 7.25624 19.9906 7.60374 19.9906 7.95124C19.9906 8.29874 20.0259 8.64554 20.0944 8.98244C20.1617 9.31004 20.2622 9.63224 20.3927 9.93924C20.5206 10.2421 20.679 10.5338 20.8641 10.8069C21.0479 11.078 21.259 11.3331 21.49 11.5637C21.7224 11.7949 21.9774 12.0048 22.2484 12.1875C22.522 12.3729 22.8143 12.531 23.1179 12.6593C23.4269 12.7895 23.7491 12.8892 24.0767 12.9556C24.7539 13.0945 25.467 13.0945 26.1434 12.9556C26.4704 12.8892 26.794 12.7895 27.1036 12.6586C27.4052 12.531 27.6981 12.3729 27.9718 12.1882C28.2428 12.0048 28.4978 11.7949 28.7302 11.5637C28.9619 11.3324 29.1729 11.0773 29.3567 10.8062C29.5411 10.5338 29.7003 10.2415 29.8281 9.93854C29.9586 9.63154 30.0585 9.30864 30.1257 8.98244L32.4967 9.46614C32.3982 9.94854 32.2504 10.4242 32.0573 10.8793C31.8675 11.3258 31.6338 11.7557 31.3622 12.1583C31.0912 12.557 30.7822 12.931 30.4413 13.2712C30.1004 13.6114 29.7256 13.9203 29.3267 14.1894C28.9239 14.4605 28.4931 14.6944 28.0464 14.8831C27.5883 15.0758 27.1115 15.2239 26.6282 15.3223C26.1308 15.4239 25.6201 15.4751 25.1101 15.4751Z" fill="black"/>
<path d="M7.9851 15.4768C7.4751 15.4768 6.9644 15.4257 6.467 15.324C5.9836 15.2257 5.5069 15.0775 5.0501 14.8855C4.6027 14.6968 4.1719 14.4629 3.76843 14.1905C3.3696 13.9228 2.99408 13.6132 2.65317 13.273C2.31294 12.9328 2.004 12.5587 1.73367 12.1607C1.46202 11.7594 1.22831 11.3296 1.03855 10.8824C0.844802 10.4259 0.696993 9.95017 0.598453 9.46787C0.496573 8.97347 0.445312 8.46327 0.445312 7.95297C0.445312 7.44267 0.496573 6.93237 0.598453 6.43747C0.696993 5.95507 0.844802 5.47937 1.03789 5.02417C1.22831 4.57637 1.46202 4.14587 1.73367 3.74521C2.00333 3.34722 2.31227 2.97315 2.65384 2.63231C2.99274 2.29346 3.36827 1.9845 3.76843 1.71475C4.1726 1.44234 4.604 1.20847 5.0501 1.02044C5.5042 0.829083 5.981 0.680923 6.4663 0.581923C7.4604 0.378613 8.5098 0.379273 9.5025 0.581923C9.9892 0.680923 10.4659 0.829082 10.9207 1.0211C11.3661 1.20846 11.7976 1.44234 12.2017 1.71475C12.6019 1.9845 12.9768 2.29346 13.317 2.63297C13.6572 2.97316 13.9668 3.34722 14.2365 3.74521C14.5075 4.14587 14.7418 4.57637 14.9316 5.02357C15.1247 5.47937 15.2725 5.95507 15.3717 6.43807C15.4729 6.93237 15.5249 7.44267 15.5249 7.95297V9.16017H6.8239V6.74507H12.9608C12.8962 6.47927 12.8096 6.21687 12.7024 5.96437C12.5739 5.66137 12.4155 5.36967 12.231 5.09797C12.0479 4.82687 11.8369 4.57177 11.6052 4.34057C11.3735 4.10927 11.1191 3.89935 10.8461 3.71597C10.5718 3.53126 10.2802 3.37247 9.9779 3.24557C9.6696 3.11534 9.346 3.01501 9.0171 2.94791C8.3446 2.81104 7.6262 2.81104 6.9517 2.94791C6.6235 3.01501 6.3006 3.11534 5.9929 3.2449C5.69 3.37247 5.3977 3.53126 5.1234 3.71597C4.8511 3.89935 4.596 4.10927 4.3657 4.33987C4.1326 4.57177 3.92223 4.82687 3.73913 5.09727C3.5547 5.36967 3.39557 5.66137 3.26706 5.96507C3.13656 6.27267 3.03669 6.59487 2.96944 6.92177C2.90019 7.25867 2.86557 7.60477 2.86557 7.95297C2.86557 8.30047 2.90019 8.64727 2.96944 8.98347C3.03669 9.31037 3.13656 9.63327 3.26773 9.94157C3.39557 10.2446 3.5547 10.5362 3.73913 10.8086C3.92223 11.0791 4.1333 11.3342 4.365 11.5654C4.5974 11.7966 4.8517 12.0066 5.1227 12.1893C5.3977 12.3747 5.69 12.5328 5.9929 12.661C6.3019 12.7913 6.6248 12.8909 6.9517 12.9574C7.6282 13.0962 8.3413 13.0962 9.0184 12.9574C9.3454 12.8909 9.6683 12.7913 9.9779 12.6604C10.2795 12.5328 10.5725 12.3747 10.8461 12.19C11.1184 12.0066 11.3728 11.7966 11.6045 11.5654C11.8369 11.3342 12.0479 11.0791 12.231 10.808C12.4155 10.5362 12.5739 10.2446 12.7031 9.94027L14.9316 10.8824C14.7418 11.3296 14.5081 11.7594 14.2365 12.1607C13.9662 12.5587 13.6572 12.9328 13.3163 13.273C12.9761 13.6132 12.6006 13.9228 12.2011 14.1912C11.7982 14.4629 11.3668 14.6968 10.9207 14.8848C10.4626 15.0775 9.9859 15.2257 9.5025 15.324C9.0051 15.4257 8.4951 15.4768 7.9851 15.4768Z" fill="black"/>
<path d="M25.1101 32.5801H23.9003V23.8981H26.3199V30.0221C26.5869 29.9576 26.8479 29.8713 27.1029 29.7643C27.7115 29.5072 28.2594 29.1384 28.7302 28.6687C29.2009 28.1996 29.5698 27.6528 29.8281 27.0442C30.0944 26.4156 30.2296 25.7466 30.2296 25.0562C30.2296 24.3666 30.0944 23.6975 29.8281 23.0676C29.5698 22.4604 29.2009 21.9135 28.7302 21.4438C28.2594 20.9747 27.7121 20.606 27.1022 20.3482C25.8418 19.8166 24.3784 19.8166 23.118 20.3482C22.5081 20.606 21.9608 20.9747 21.49 21.4438C21.0193 21.9135 20.6497 22.4604 20.3927 23.0683C20.1257 23.6975 19.9906 24.3666 19.9906 25.0562C19.9906 25.7466 20.1257 26.4156 20.3927 27.0442C20.6497 27.6521 21.0193 28.1989 21.49 28.6693C21.8522 29.0308 22.261 29.3317 22.7078 29.5689C22.841 29.64 22.9775 29.7051 23.118 29.7643L22.1751 31.9881C21.2776 31.61 20.4713 31.0672 19.7789 30.3769C19.0864 29.6852 18.5424 28.8806 18.1636 27.985C17.7701 27.0568 17.5703 26.0715 17.5703 25.0562C17.5703 24.0417 17.7701 23.0563 18.1636 22.1275C18.5431 21.2318 19.0864 20.4272 19.7782 19.7362C20.47 19.0459 21.2763 18.5038 22.1745 18.1244C24.0361 17.339 26.1841 17.3384 28.045 18.1244C28.9439 18.5038 29.7495 19.0459 30.4413 19.7362C31.1331 20.4266 31.6764 21.2305 32.0573 22.1268C32.4508 23.0563 32.6499 24.0417 32.6499 25.0562C32.6499 26.0715 32.4508 27.0568 32.0573 27.985C31.6771 28.8819 31.1331 29.6865 30.4413 30.3769C29.7489 31.0679 28.9426 31.61 28.0457 31.9881C27.1149 32.3814 26.1268 32.5801 25.1101 32.5801Z" fill="black"/>
<path d="M7.9851 32.5806C7.4744 32.5806 6.963 32.5294 6.467 32.4284C5.981 32.3288 5.5042 32.1806 5.0495 31.9886C4.604 31.8012 4.1726 31.5673 3.76843 31.2949L5.1234 29.2937C5.3977 29.4791 5.69 29.6372 5.9916 29.7641C6.3006 29.895 6.6235 29.9947 6.9524 30.0618C7.6249 30.1986 8.3426 30.1993 9.0184 30.0618C9.346 29.9947 9.6696 29.895 9.9772 29.7648C10.2802 29.6372 10.5718 29.4791 10.8461 29.2937C11.1191 29.1103 11.3735 28.9004 11.6045 28.6698C11.8369 28.4379 12.0479 28.1828 12.231 27.9124C12.4155 27.64 12.5739 27.3483 12.7024 27.0447C12.8329 26.737 12.9335 26.4148 13.0001 26.0886C13.0693 25.751 13.1046 25.4049 13.1046 25.0567C13.1046 24.7092 13.0693 24.3624 13.0007 24.0262C12.9335 23.6993 12.8329 23.3764 12.7024 23.0681C12.5739 22.7658 12.4155 22.4735 12.231 22.2011C12.0479 21.9306 11.8369 21.6755 11.6052 21.4443C11.3728 21.2131 11.1184 21.0031 10.8468 20.8204C10.5725 20.635 10.2795 20.4769 9.9772 20.3487C9.6683 20.2191 9.3454 20.1188 9.0184 20.0523C8.3413 19.9141 7.6282 19.9141 6.9517 20.0523C6.6248 20.1188 6.3019 20.2191 5.9916 20.3493C5.69 20.4769 5.3977 20.635 5.1234 20.8197C4.8517 21.0031 4.5974 21.2131 4.3657 21.4443C4.1333 21.6755 3.92223 21.9306 3.73847 22.2017C3.5547 22.4735 3.39557 22.7658 3.26706 23.0695C3.13656 23.3764 3.03669 23.6993 2.96944 24.0256C2.90019 24.3624 2.86557 24.7092 2.86557 25.0567V32.5806H0.445312V25.0567C0.445312 24.5465 0.496573 24.0368 0.598453 23.5412C0.696993 23.0595 0.844802 22.5838 1.03789 22.1286C1.22831 21.6802 1.46202 21.2503 1.73367 20.849C2.004 20.451 2.31294 20.0769 2.65384 19.7367C2.99408 19.3966 3.3696 19.0869 3.76909 18.8185C4.1719 18.5468 4.6027 18.3129 5.0495 18.1249C5.5069 17.9322 5.9836 17.784 6.467 17.6857C7.4617 17.4824 8.5078 17.4824 9.5025 17.6857C9.9859 17.784 10.4626 17.9322 10.9194 18.1242C11.3668 18.3129 11.7982 18.5468 12.2017 18.8192C12.6006 19.0869 12.9761 19.3966 13.317 19.7367C13.6572 20.0769 13.9662 20.451 14.2358 20.849C14.5081 21.2503 14.7418 21.6802 14.9316 22.1273C15.1247 22.5838 15.2725 23.0595 15.3717 23.5419C15.4729 24.0368 15.5249 24.5465 15.5249 25.0567C15.5249 25.567 15.4729 26.0773 15.3711 26.5729C15.2725 27.0546 15.1247 27.5303 14.9323 27.9855C14.7418 28.4333 14.5075 28.8638 14.2358 29.2645C13.9668 29.6625 13.6572 30.0365 13.3163 30.3774C12.9768 30.7162 12.6019 31.0252 12.2017 31.2949C11.7976 31.5673 11.3661 31.8012 10.9194 31.9892C10.4659 32.1806 9.9892 32.3288 9.5038 32.4278C9.0065 32.5294 8.4958 32.5806 7.9851 32.5806Z" fill="black"/>
</g>
<defs>
<clipPath id="clip0_1144_90339">
<rect width="33" height="34" fill="white"/>
</clipPath>
</defs>
</svg>
