<svg width="166" height="45" viewBox="0 0 166 45" fill="none" xmlns="http://www.w3.org/2000/svg">
<path d="M54.5508 11.715C54.6034 10.9392 54.8235 10.2546 55.2111 9.66102C55.5987 9.06638 56.0958 8.60031 56.7035 8.26495C57.3113 7.92852 57.9759 7.76031 58.6985 7.76031C59.4382 7.76031 60.1115 7.92852 60.7192 8.26495C61.3269 8.60031 61.8294 9.06638 62.2245 9.66102C62.6218 10.2546 62.8462 10.9392 62.8988 11.715H54.5508ZM62.4628 6.60424C61.4149 5.95174 60.1684 5.62495 58.7253 5.62495C57.2801 5.62495 56.0207 5.95174 54.947 6.60317C53.8722 7.2546 53.0358 8.11495 52.4367 9.18424C51.8386 10.2535 51.5391 11.431 51.5391 12.7167C51.5391 13.6767 51.7109 14.5789 52.0544 15.4253C52.398 16.2707 52.8866 17.0217 53.52 17.6753C54.1546 18.33 54.9072 18.8442 55.7791 19.2192C56.6509 19.5942 57.6237 19.7817 58.6985 19.7817C59.6669 19.7817 60.5656 19.6275 61.3934 19.321C62.2202 19.0135 62.9385 18.5914 63.5462 18.0546C64.1539 17.5189 64.607 16.9167 64.9066 16.2492L62.4231 15.5378C62.1762 16.17 61.7059 16.68 61.0101 17.0667C60.3144 17.4535 59.5789 17.6464 58.8037 17.6464C58.0993 17.6464 57.439 17.4771 56.8227 17.1385C56.2064 16.801 55.6996 16.3328 55.3034 15.7339C54.9072 15.136 54.6828 14.4385 54.6302 13.6392H65.699C65.7162 13.5171 65.7344 13.366 65.7527 13.1828C65.7688 13.0007 65.7784 12.8046 65.7784 12.5957C65.7784 11.3775 65.4885 10.2375 64.9066 9.17567C64.3257 8.11388 63.5108 7.25674 62.4628 6.60424Z" fill="black"/>
<path d="M88.262 15.6727V5.86271H85.3555V19.5181H88.0773L94.9983 9.91699V19.5181H97.9048V5.83592H95.2635L88.262 15.6727Z" fill="black"/>
<path d="M111.217 11.2674H104.797V5.83739H101.891V19.5195H104.797V13.7724H111.217V19.5195H114.123V5.83739H111.217V11.2674Z" fill="black"/>
<path d="M126.644 15.0792C126.644 15.2528 126.582 15.451 126.459 15.676C126.336 15.901 126.168 16.125 125.957 16.35C125.605 16.7303 125.139 17.041 124.557 17.2832C123.976 17.5253 123.368 17.6464 122.734 17.6464C122.117 17.6464 121.602 17.5339 121.189 17.3089C120.774 17.085 120.457 16.7903 120.237 16.4271C120.017 16.0639 119.908 15.6846 119.908 15.2871C119.908 14.5617 120.237 13.9907 120.898 13.576C121.559 13.1603 122.417 12.9535 123.473 12.9535C124.003 12.9535 124.54 13.0017 125.085 13.096C125.632 13.1914 126.151 13.3339 126.644 13.5235V15.0792ZM129.551 16.26V11.176C129.551 9.40495 129.017 8.03567 127.952 7.07138C126.887 6.1071 125.429 5.62495 123.58 5.62495C122.558 5.62495 121.585 5.77388 120.66 6.07281C119.736 6.37174 118.815 6.82817 117.899 7.44424L118.877 9.39424C119.652 8.90245 120.383 8.51995 121.069 8.24781C121.757 7.97567 122.487 7.8396 123.263 7.8396C124.354 7.8396 125.191 8.10745 125.772 8.64317C126.353 9.17995 126.644 9.92353 126.644 10.876V11.7407C126.151 11.5478 125.583 11.4075 124.94 11.3185C124.297 11.2317 123.668 11.1867 123.052 11.1867C121.889 11.1867 120.868 11.3657 119.986 11.7225C119.106 12.0803 118.414 12.585 117.913 13.2375C117.41 13.891 117.16 14.6528 117.16 15.5239C117.16 16.3242 117.362 17.0475 117.768 17.6914C118.173 18.3364 118.736 18.8453 119.459 19.2192C120.18 19.5942 121 19.7817 121.916 19.7817C122.866 19.7817 123.808 19.5696 124.743 19.1485C125.676 18.7264 126.442 18.1296 127.04 17.356L127.12 18.1467C127.172 18.5517 127.358 18.9021 127.674 19.201C127.992 19.5 128.458 19.65 129.075 19.65C129.216 19.65 129.392 19.6403 129.603 19.6232C129.815 19.605 130.052 19.5696 130.316 19.5182V17.1985C130.035 17.1803 129.836 17.1032 129.722 16.9639C129.608 16.8235 129.551 16.59 129.551 16.26" fill="black"/>
<path d="M141.995 8.07823V12.4807H138.663C137.941 12.4807 137.39 12.2654 137.011 11.8336C136.633 11.4018 136.444 10.8672 136.444 10.2275C136.444 9.58895 136.659 9.07038 137.092 8.67395C137.522 8.27752 138.109 8.07823 138.848 8.07823H141.995ZM135.863 6.38538C135.141 6.75181 134.582 7.25645 134.185 7.90038C133.789 8.54538 133.591 9.29323 133.591 10.1461C133.591 11.2604 133.846 12.1475 134.357 12.8097C134.867 13.4707 135.554 13.9057 136.418 14.1157L132.719 19.52H135.889L139.27 14.5904H141.995V19.52H144.902V5.83788H138.373C137.422 5.83788 136.585 6.02109 135.863 6.38538Z" fill="black"/>
<path d="M61.2345 36.0747C60.8995 36.3651 60.5076 36.5933 60.0588 36.7604C59.609 36.9276 59.1473 37.0111 58.6716 37.0111C57.8964 37.0111 57.1964 36.8076 56.5715 36.3994C55.9466 35.9922 55.4484 35.4383 55.079 34.7365C54.7086 34.0347 54.5239 33.2515 54.5239 32.3847C54.5239 31.4836 54.7043 30.6908 55.0651 30.0061C55.4258 29.3215 55.9197 28.7847 56.5446 28.3947C57.1695 28.0047 57.8706 27.8097 58.6448 27.8097C59.333 27.8097 59.9611 27.9726 60.5345 28.2972C61.1057 28.6229 61.5513 29.0751 61.868 29.6558L64.6951 28.759C64.2022 27.7229 63.4313 26.8915 62.3834 26.2679C61.3355 25.6444 60.1072 25.3315 58.6985 25.3315C57.2361 25.3315 55.9724 25.654 54.9072 26.2979C53.8411 26.9429 53.0143 27.7958 52.4238 28.8576C51.8333 29.9204 51.5391 31.0958 51.5391 32.3847C51.5391 33.3426 51.7109 34.2469 52.0544 35.0997C52.398 35.9536 52.8866 36.7111 53.52 37.3733C54.1546 38.0344 54.9072 38.5529 55.7791 38.9269C56.6509 39.3008 57.6237 39.4883 58.6985 39.4883C59.6841 39.4883 60.5785 39.334 61.3795 39.0265C62.1805 38.7201 62.8762 38.3022 63.4668 37.7751C64.0562 37.2479 64.5007 36.6415 64.8003 35.9558L61.9475 35.1126C61.8068 35.464 61.5695 35.7844 61.2345 36.0747Z" fill="black"/>
<path d="M85.3086 31.4215C85.3612 30.6458 85.5813 29.9611 85.9689 29.3665C86.3565 28.7719 86.8536 28.3069 87.4614 27.9715C88.0691 27.6351 88.7337 27.4669 89.4563 27.4669C90.1961 27.4669 90.8693 27.6351 91.477 27.9715C92.0858 28.3069 92.5872 28.7719 92.9834 29.3665C93.3796 29.9611 93.604 30.6458 93.6566 31.4215H85.3086ZM93.2207 26.3108C92.1727 25.6583 90.9262 25.3315 89.4831 25.3315C88.0379 25.3315 86.7796 25.6583 85.7048 26.3097C84.63 26.9611 83.7936 27.8215 83.1956 28.8908C82.5964 29.959 82.2969 31.1365 82.2969 32.4233C82.2969 33.3833 82.4687 34.2854 82.8122 35.1308C83.1558 35.9772 83.6444 36.7283 84.2789 37.3819C84.9124 38.0354 85.6661 38.5508 86.5369 38.9258C87.4087 39.3008 88.3815 39.4883 89.4563 39.4883C90.4248 39.4883 91.3234 39.334 92.1513 39.0265C92.9791 38.7201 93.6963 38.2979 94.304 37.7611C94.9117 37.2254 95.3648 36.6233 95.6644 35.9558L93.182 35.2444C92.9351 35.8765 92.4637 36.3865 91.7679 36.7733C91.0722 37.159 90.3367 37.3529 89.5615 37.3529C88.8572 37.3529 88.1968 37.1836 87.5805 36.8451C86.9642 36.5076 86.4574 36.0394 86.0613 35.4404C85.6661 34.8426 85.4407 34.144 85.388 33.3458H96.4568C96.474 33.2236 96.4922 33.0726 96.5105 32.8894C96.5276 32.7061 96.5362 32.5111 96.5362 32.3011C96.5362 31.084 96.2463 29.944 95.6644 28.8822C95.0835 27.8204 94.2686 26.9633 93.2207 26.3108" fill="black"/>
<path d="M108.319 36.6685H102.269C102.568 36.391 102.828 35.9818 103.048 35.4439C103.268 34.906 103.444 34.186 103.577 33.2828C103.71 32.3796 103.801 31.2685 103.855 29.9496L103.934 27.7843H108.319V36.6685ZM111.226 25.5428H101.371L101.212 29.6689C101.177 31.0628 101.08 32.2157 100.921 33.1296C100.763 34.0435 100.561 34.7582 100.315 35.2714C100.068 35.7846 99.7864 36.1457 99.4686 36.3557C99.1518 36.5635 98.8083 36.6685 98.4389 36.6685H98.1211V41.3164H100.658V39.0471H110.564V41.3164H113.127V36.6685H111.226V25.5428Z" fill="black"/>
<path d="M77.5612 16.961H71.511C71.8105 16.6835 72.0704 16.2753 72.2905 15.7364C72.5106 15.1985 72.6867 14.4785 72.8187 13.5753C72.9508 12.6732 73.0431 11.561 73.0957 10.2421L73.1763 8.07675H77.5612V16.961ZM80.4677 5.83639H70.6134L70.4545 9.96246C70.419 11.3553 70.3224 12.5082 70.1635 13.4232C70.0056 14.336 69.8027 15.0507 69.5558 15.5639C69.3088 16.0771 69.0275 16.4382 68.7108 16.6482C68.394 16.8571 68.0504 16.961 67.68 16.961H67.3633V21.6089H69.8994V19.3396H79.8063V21.6089H82.3693V16.961H80.4677V5.83639Z" fill="black"/>
<path d="M124.589 34.7869C124.589 34.9594 124.527 35.1586 124.405 35.3836C124.281 35.6086 124.114 35.8326 123.902 36.0576C123.55 36.4379 123.084 36.7486 122.502 36.9908C121.921 37.2329 121.314 37.3529 120.679 37.3529C120.063 37.3529 119.547 37.2415 119.134 37.0165C118.72 36.7926 118.403 36.4979 118.183 36.1347C117.963 35.7715 117.853 35.3911 117.853 34.9936C117.853 34.2683 118.183 33.6972 118.843 33.2836C119.503 32.8679 120.362 32.6611 121.419 32.6611C121.947 32.6611 122.485 32.7083 123.03 32.8026C123.577 32.8979 124.097 33.0415 124.589 33.2311V34.7869ZM127.496 35.9676V30.8836C127.496 29.1115 126.962 27.7433 125.897 26.779C124.831 25.8136 123.374 25.3315 121.525 25.3315C120.503 25.3315 119.53 25.4815 118.606 25.7804C117.68 26.0794 116.76 26.5358 115.844 27.1508L116.822 29.1019C117.598 28.6101 118.328 28.2276 119.015 27.9554C119.702 27.6833 120.432 27.5461 121.208 27.5461C122.299 27.5461 123.136 27.8151 123.718 28.3508C124.298 28.8876 124.589 29.6311 124.589 30.5836V31.4483C124.097 31.2554 123.529 31.114 122.885 31.0261C122.242 30.9383 121.613 30.8944 120.997 30.8944C119.834 30.8944 118.812 31.0733 117.931 31.4301C117.051 31.7869 116.36 32.2915 115.858 32.9451C115.356 33.5986 115.105 34.3604 115.105 35.2304C115.105 36.0319 115.307 36.7551 115.712 37.399C116.117 38.044 116.681 38.5529 117.403 38.9269C118.125 39.3008 118.945 39.4883 119.861 39.4883C120.811 39.4883 121.754 39.2772 122.687 38.8561C123.621 38.434 124.387 37.8372 124.986 37.0636L125.065 37.8544C125.118 38.2583 125.302 38.6097 125.619 38.9086C125.936 39.2076 126.403 39.3565 127.02 39.3565C127.161 39.3565 127.337 39.3479 127.547 39.3308C127.76 39.3126 127.997 39.2772 128.261 39.2247V36.9051C127.98 36.8879 127.782 36.8097 127.667 36.6704C127.552 36.5311 127.496 36.2976 127.496 35.9676" fill="black"/>
<path d="M162.98 34.3118C162.669 34.9268 162.243 35.4068 161.701 35.7539C161.16 36.1 160.531 36.2735 159.814 36.2735H159.384V28.1425H159.814C160.531 28.1425 161.16 28.3246 161.701 28.6868C162.243 29.0489 162.669 29.5364 162.98 30.1514C163.291 30.7664 163.446 31.4596 163.446 32.2321C163.446 33.0035 163.291 33.6968 162.98 34.3118ZM156.756 36.2735H156.325C155.608 36.2735 154.979 36.1 154.438 35.7539C153.897 35.4068 153.474 34.9268 153.171 34.3118C152.869 33.6968 152.717 33.0035 152.717 32.2321C152.717 31.4596 152.872 30.7664 153.183 30.1514C153.494 29.5364 153.92 29.0489 154.462 28.6868C155.003 28.3246 155.624 28.1425 156.325 28.1425H156.756V36.2735ZM165.25 29.1378C164.749 28.1971 164.035 27.4428 163.111 26.8739C162.188 26.305 161.088 26.02 159.814 26.02H159.384V24.2596H156.756V26.02H156.325C155.051 26.02 153.952 26.305 153.028 26.8739C152.104 27.4428 151.392 28.1971 150.889 29.1378C150.388 30.0785 150.137 31.1018 150.137 32.2085C150.137 33.3143 150.384 34.3375 150.878 35.2782C151.37 36.2178 152.08 36.9732 153.003 37.5421C153.928 38.111 155.035 38.396 156.325 38.396H156.756V40.2871H159.384V38.396H159.814C161.105 38.396 162.211 38.111 163.136 37.5421C164.059 36.9732 164.768 36.2178 165.262 35.2782C165.756 34.3375 166.003 33.3143 166.003 32.2085C166.003 31.1018 165.753 30.0785 165.25 29.1378" fill="black"/>
<path d="M132.372 36.1122C131.438 36.1122 130.68 36.8686 130.68 37.8008C130.68 38.7329 131.438 39.4883 132.372 39.4883C133.307 39.4883 134.064 38.7329 134.064 37.8008C134.064 36.8686 133.307 36.1122 132.372 36.1122Z" fill="black"/>
<path d="M76.7491 31.6721C76.5462 32.0503 76.2649 32.3493 75.9041 32.5678C75.5423 32.7885 75.1246 32.8978 74.649 32.8978H70.5013V27.8632H74.5169C74.9743 27.8632 75.393 27.9682 75.7721 28.1793C76.15 28.3903 76.4582 28.6807 76.6965 29.0493C76.9338 29.4178 77.053 29.8582 77.053 30.3671C77.053 30.8589 76.951 31.2939 76.7491 31.6721ZM77.2774 26.2678C76.5108 25.7846 75.6443 25.5425 74.6747 25.5425H67.7344V39.2246H70.5013V35.1918H74.8068C75.7935 35.1918 76.6568 34.9635 77.3966 34.506C78.1363 34.0496 78.7086 33.4518 79.1134 32.7135C79.5193 31.9753 79.7211 31.1932 79.7211 30.3671C79.7211 29.5764 79.5053 28.8157 79.0748 28.0871C78.6421 27.3575 78.044 26.751 77.2774 26.2678" fill="black"/>
<path d="M145.644 31.6721C145.441 32.0503 145.158 32.3493 144.798 32.5678C144.437 32.7885 144.019 32.8978 143.544 32.8978H139.396V27.8632H143.411C143.869 27.8632 144.288 27.9682 144.666 28.1793C145.045 28.3903 145.353 28.6807 145.591 29.0493C145.828 29.4178 145.948 29.8582 145.948 30.3671C145.948 30.8589 145.846 31.2939 145.644 31.6721ZM146.172 26.2678C145.405 25.7846 144.538 25.5425 143.569 25.5425H136.629V39.2246H139.396V35.1918H143.701C144.688 35.1918 145.551 34.9635 146.291 34.506C147.031 34.0496 147.603 33.4518 148.008 32.7135C148.413 31.9753 148.616 31.1932 148.616 30.3671C148.616 29.5764 148.4 28.8157 147.968 28.0871C147.537 27.3575 146.939 26.751 146.172 26.2678Z" fill="black"/>
<path d="M31.1101 21.4761C30.6007 21.4761 30.09 21.4249 29.592 21.3233C29.108 21.2249 28.6312 21.0768 28.1751 20.8847C27.727 20.6954 27.2963 20.4615 26.8934 20.1898C26.4953 19.922 26.1197 19.6131 25.7788 19.2722C25.4386 18.9334 25.1297 18.5586 24.8593 18.16C24.5864 17.7573 24.352 17.3268 24.1629 16.881C23.9711 16.4278 23.8233 15.9528 23.7235 15.4678C23.6216 14.9714 23.5703 14.4618 23.5703 13.9522C23.5703 13.4426 23.6216 12.933 23.7235 12.4374C23.8233 11.9517 23.9711 11.4759 24.1636 11.0228C24.352 10.5776 24.5864 10.1471 24.8593 9.74447C25.129 9.34582 25.4379 8.97175 25.7788 8.63157C26.1191 8.29205 26.4939 7.98377 26.8934 7.71401C27.2969 7.4416 27.7284 7.20839 28.1758 7.0197C28.6286 6.82835 29.1053 6.68018 29.5913 6.58118C30.5868 6.37787 31.6361 6.37787 32.6282 6.58118C33.1149 6.68018 33.5916 6.82835 34.0457 7.02036C34.4925 7.20839 34.9233 7.4416 35.3267 7.71401C35.7269 7.98377 36.1018 8.29272 36.4413 8.63157C36.7829 8.97242 37.0918 9.34648 37.3615 9.74447C37.6338 10.1471 37.8675 10.577 38.0573 11.0228C38.2504 11.4786 38.3982 11.9543 38.4967 12.4374L36.1257 12.921C36.0585 12.5942 35.9586 12.2719 35.8274 11.9636C35.6996 11.662 35.5411 11.3696 35.356 11.0966C35.1729 10.8261 34.9625 10.571 34.7302 10.3398C34.4991 10.1092 34.2434 9.89861 33.9711 9.71457C33.6981 9.53053 33.4058 9.3724 33.1029 9.24483C32.7946 9.1146 32.4717 9.01428 32.1428 8.94717C31.4696 8.80964 30.7512 8.80964 30.0767 8.94717C29.7485 9.01428 29.4256 9.1146 29.1186 9.24416C28.8143 9.3724 28.5227 9.53053 28.249 9.71457C27.9767 9.89861 27.7217 10.1086 27.49 10.3398C27.2583 10.5703 27.0479 10.8255 26.8641 11.0966C26.679 11.3703 26.5206 11.6613 26.3927 11.9636C26.2622 12.2712 26.1617 12.5928 26.0944 12.9217C26.0259 13.2572 25.9906 13.6047 25.9906 13.9522C25.9906 14.2997 26.0259 14.6465 26.0944 14.9834C26.1617 15.311 26.2622 15.6332 26.3927 15.9402C26.5206 16.2431 26.679 16.5348 26.8641 16.8079C27.0479 17.079 27.259 17.3341 27.49 17.5647C27.7224 17.7959 27.9774 18.0058 28.2484 18.1885C28.522 18.3739 28.8143 18.532 29.1179 18.6603C29.4269 18.7905 29.7491 18.8902 30.0767 18.9566C30.7539 19.0955 31.467 19.0955 32.1434 18.9566C32.4704 18.8902 32.794 18.7905 33.1036 18.6596C33.4052 18.532 33.6981 18.3739 33.9718 18.1892C34.2428 18.0058 34.4978 17.7959 34.7302 17.5647C34.9619 17.3334 35.1729 17.0783 35.3567 16.8072C35.5411 16.5348 35.7003 16.2425 35.8281 15.9395C35.9586 15.6325 36.0585 15.3096 36.1257 14.9834L38.4967 15.4671C38.3982 15.9495 38.2504 16.4252 38.0573 16.8803C37.8675 17.3268 37.6338 17.7567 37.3622 18.1593C37.0912 18.558 36.7822 18.932 36.4413 19.2722C36.1004 19.6124 35.7256 19.9213 35.3267 20.1904C34.9239 20.4615 34.4931 20.6954 34.0464 20.8841C33.5883 21.0768 33.1115 21.2249 32.6282 21.3233C32.1308 21.4249 31.6201 21.4761 31.1101 21.4761Z" fill="black"/>
<path d="M13.9812 21.4775C13.4712 21.4775 12.9605 21.4264 12.4631 21.3247C11.9797 21.2264 11.503 21.0782 11.0462 20.8862C10.5988 20.6975 10.168 20.4636 9.76453 20.1912C9.3657 19.9235 8.99018 19.6139 8.64927 19.2737C8.30904 18.9335 8.0001 18.5594 7.72977 18.1614C7.45812 17.7601 7.22441 17.3303 7.03465 16.8831C6.8409 16.4266 6.69309 15.9509 6.59455 15.4686C6.49267 14.9742 6.44141 14.464 6.44141 13.9537C6.44141 13.4434 6.49267 12.9331 6.59455 12.4382C6.69309 11.9558 6.8409 11.4801 7.03399 11.0249C7.22441 10.5771 7.45812 10.1466 7.72977 9.74594C7.99943 9.34795 8.30837 8.97388 8.64994 8.63304C8.98884 8.29419 9.36437 7.98523 9.76453 7.71548C10.1687 7.44307 10.6001 7.2092 11.0462 7.02117C11.5003 6.82981 11.9771 6.68165 12.4624 6.58265C13.4565 6.37934 14.5059 6.38 15.4986 6.58265C15.9853 6.68165 16.462 6.82981 16.9168 7.02183C17.3622 7.20919 17.7937 7.44307 18.1978 7.71548C18.598 7.98523 18.9729 8.29419 19.3131 8.6337C19.6533 8.97389 19.9629 9.34795 20.2326 9.74594C20.5036 10.1466 20.7379 10.5771 20.9277 11.0243C21.1208 11.4801 21.2686 11.9558 21.3678 12.4388C21.469 12.9331 21.521 13.4434 21.521 13.9537V15.1609H12.82V12.7458H18.9569C18.8923 12.48 18.8057 12.2176 18.6985 11.9651C18.57 11.6621 18.4116 11.3704 18.2271 11.0987C18.044 10.8276 17.833 10.5725 17.6013 10.3413C17.3696 10.11 17.1152 9.90008 16.8422 9.7167C16.5679 9.53199 16.2763 9.3732 15.974 9.2463C15.6657 9.11607 15.3421 9.01574 15.0132 8.94864C14.3407 8.81177 13.6223 8.81177 12.9478 8.94864C12.6196 9.01574 12.2967 9.11607 11.989 9.24563C11.6861 9.3732 11.3938 9.53199 11.1195 9.7167C10.8472 9.90008 10.5921 10.11 10.3618 10.3406C10.1287 10.5725 9.91833 10.8276 9.73523 11.098C9.5508 11.3704 9.39167 11.6621 9.26316 11.9658C9.13266 12.2734 9.03279 12.5956 8.96554 12.9225C8.89629 13.2594 8.86167 13.6055 8.86167 13.9537C8.86167 14.3012 8.89629 14.648 8.96554 14.9842C9.03279 15.3111 9.13266 15.634 9.26383 15.9423C9.39167 16.2453 9.5508 16.5369 9.73523 16.8093C9.91833 17.0798 10.1294 17.3349 10.3611 17.5661C10.5935 17.7973 10.8478 18.0073 11.1188 18.19C11.3938 18.3754 11.6861 18.5335 11.989 18.6617C12.298 18.792 12.6209 18.8916 12.9478 18.9581C13.6243 19.0969 14.3374 19.0969 15.0145 18.9581C15.3415 18.8916 15.6644 18.792 15.974 18.6611C16.2756 18.5335 16.5686 18.3754 16.8422 18.1907C17.1145 18.0073 17.3689 17.7973 17.6006 17.5661C17.833 17.3349 18.044 17.0798 18.2271 16.8087C18.4116 16.5369 18.57 16.2453 18.6992 15.941L20.9277 16.8831C20.7379 17.3303 20.5042 17.7601 20.2326 18.1614C19.9623 18.5594 19.6533 18.9335 19.3124 19.2737C18.9722 19.6139 18.5967 19.9235 18.1972 20.1919C17.7943 20.4636 17.3629 20.6975 16.9168 20.8855C16.4587 21.0782 15.982 21.2264 15.4986 21.3247C15.0012 21.4264 14.4912 21.4775 13.9812 21.4775Z" fill="black"/>
<path d="M31.114 38.5801H29.9042V29.8981H32.3238V36.0221C32.5908 35.9576 32.8518 35.8713 33.1068 35.7643C33.7154 35.5072 34.2633 35.1384 34.7341 34.6687C35.2048 34.1996 35.5737 33.6528 35.832 33.0442C36.0983 32.4156 36.2335 31.7466 36.2335 31.0562C36.2335 30.3666 36.0983 29.6975 35.832 29.0676C35.5737 28.4604 35.2048 27.9135 34.7341 27.4438C34.2633 26.9747 33.716 26.606 33.1061 26.3482C31.8457 25.8166 30.3823 25.8166 29.1219 26.3482C28.512 26.606 27.9647 26.9747 27.4939 27.4438C27.0232 27.9135 26.6536 28.4604 26.3966 29.0683C26.1296 29.6975 25.9945 30.3666 25.9945 31.0562C25.9945 31.7466 26.1296 32.4156 26.3966 33.0442C26.6536 33.6521 27.0232 34.1989 27.4939 34.6693C27.8561 35.0308 28.2649 35.3317 28.7117 35.5689C28.8449 35.64 28.9814 35.7051 29.1219 35.7643L28.179 37.9881C27.2815 37.61 26.4752 37.0672 25.7828 36.3769C25.0903 35.6852 24.5463 34.8806 24.1675 33.985C23.774 33.0568 23.5742 32.0715 23.5742 31.0562C23.5742 30.0417 23.774 29.0563 24.1675 28.1275C24.547 27.2318 25.0903 26.4272 25.7821 25.7362C26.4739 25.0459 27.2802 24.5038 28.1784 24.1244C30.04 23.339 32.188 23.3384 34.0489 24.1244C34.9478 24.5038 35.7534 25.0459 36.4452 25.7362C37.137 26.4266 37.6803 27.2305 38.0612 28.1268C38.4547 29.0563 38.6538 30.0417 38.6538 31.0562C38.6538 32.0715 38.4547 33.0568 38.0612 33.985C37.681 34.8819 37.137 35.6865 36.4452 36.3769C35.7528 37.0679 34.9465 37.61 34.0496 37.9881C33.1188 38.3814 32.1307 38.5801 31.114 38.5801Z" fill="black"/>
<path d="M13.9812 38.5801C13.4705 38.5801 12.9591 38.5289 12.4631 38.4279C11.9771 38.3283 11.5003 38.1801 11.0456 37.9881C10.6001 37.8007 10.1687 37.5668 9.76453 37.2944L11.1195 35.2932C11.3938 35.4786 11.6861 35.6367 11.9877 35.7636C12.2967 35.8945 12.6196 35.9942 12.9485 36.0613C13.621 36.1981 14.3387 36.1988 15.0145 36.0613C15.3421 35.9942 15.6657 35.8945 15.9733 35.7643C16.2763 35.6367 16.5679 35.4786 16.8422 35.2932C17.1152 35.1098 17.3696 34.8999 17.6006 34.6693C17.833 34.4374 18.044 34.1823 18.2271 33.9119C18.4116 33.6395 18.57 33.3478 18.6985 33.0442C18.829 32.7365 18.9296 32.4143 18.9962 32.0881C19.0654 31.7505 19.1007 31.4044 19.1007 31.0562C19.1007 30.7087 19.0654 30.3619 18.9968 30.0257C18.9296 29.6988 18.829 29.3759 18.6985 29.0676C18.57 28.7653 18.4116 28.473 18.2271 28.2006C18.044 27.9301 17.833 27.675 17.6013 27.4438C17.3689 27.2126 17.1145 27.0026 16.8429 26.8199C16.5686 26.6345 16.2756 26.4764 15.9733 26.3482C15.6644 26.2186 15.3415 26.1183 15.0145 26.0518C14.3374 25.9136 13.6243 25.9136 12.9478 26.0518C12.6209 26.1183 12.298 26.2186 11.9877 26.3488C11.6861 26.4764 11.3938 26.6345 11.1195 26.8192C10.8478 27.0026 10.5935 27.2126 10.3618 27.4438C10.1294 27.675 9.91833 27.9301 9.73457 28.2012C9.5508 28.473 9.39167 28.7653 9.26316 29.069C9.13266 29.3759 9.03279 29.6988 8.96554 30.0251C8.89629 30.3619 8.86167 30.7087 8.86167 31.0562V38.5801H6.44141V31.0562C6.44141 30.546 6.49267 30.0363 6.59455 29.5407C6.69309 29.059 6.8409 28.5833 7.03399 28.1281C7.22441 27.6797 7.45812 27.2498 7.72977 26.8485C8.0001 26.4505 8.30904 26.0764 8.64994 25.7362C8.99018 25.3961 9.3657 25.0864 9.76519 24.818C10.168 24.5463 10.5988 24.3124 11.0456 24.1244C11.503 23.9317 11.9797 23.7835 12.4631 23.6852C13.4578 23.4819 14.5039 23.4819 15.4986 23.6852C15.982 23.7835 16.4587 23.9317 16.9155 24.1237C17.3629 24.3124 17.7943 24.5463 18.1978 24.8187C18.5967 25.0864 18.9722 25.3961 19.3131 25.7362C19.6533 26.0764 19.9623 26.4505 20.2319 26.8485C20.5042 27.2498 20.7379 27.6797 20.9277 28.1268C21.1208 28.5833 21.2686 29.059 21.3678 29.5414C21.469 30.0363 21.521 30.546 21.521 31.0562C21.521 31.5665 21.469 32.0768 21.3672 32.5724C21.2686 33.0541 21.1208 33.5298 20.9284 33.985C20.7379 34.4328 20.5036 34.8633 20.2319 35.264C19.9629 35.662 19.6533 36.036 19.3124 36.3769C18.9729 36.7157 18.598 37.0247 18.1978 37.2944C17.7937 37.5668 17.3622 37.8007 16.9155 37.9887C16.462 38.1801 15.9853 38.3283 15.4999 38.4273C15.0026 38.5289 14.4919 38.5801 13.9812 38.5801Z" fill="black"/>
</svg>
