<svg width="167" height="41" viewBox="0 0 167 41" fill="none" xmlns="http://www.w3.org/2000/svg">
<path d="M54.8242 11.775C54.8768 10.9993 55.0969 10.3147 55.4845 9.72108C55.8721 9.12644 56.3693 8.66037 56.977 8.32501C57.5847 7.98858 58.2493 7.82037 58.9719 7.82037C59.7117 7.82037 60.3849 7.98858 60.9926 8.32501C61.6003 8.66037 62.1028 9.12644 62.4979 9.72108C62.8952 10.3147 63.1196 10.9993 63.1722 11.775H54.8242ZM62.7363 6.6643C61.6884 6.0118 60.4418 5.68501 58.9987 5.68501C57.5536 5.68501 56.2941 6.0118 55.2204 6.66323C54.1456 7.31466 53.3092 8.17501 52.7101 9.2443C52.1121 10.3136 51.8125 11.4911 51.8125 12.7768C51.8125 13.7368 51.9843 14.6389 52.3279 15.4854C52.6715 16.3307 53.16 17.0818 53.7935 17.7354C54.428 18.39 55.1807 18.9043 56.0525 19.2793C56.9244 19.6543 57.8971 19.8418 58.9719 19.8418C59.9404 19.8418 60.8391 19.6875 61.6669 19.3811C62.4936 19.0736 63.2119 18.6514 63.8196 18.1147C64.4274 17.5789 64.8805 16.9768 65.18 16.3093L62.6966 15.5979C62.4496 16.23 61.9793 16.74 61.2836 17.1268C60.5878 17.5136 59.8523 17.7064 59.0771 17.7064C58.3728 17.7064 57.7125 17.5372 57.0962 17.1986C56.4799 16.8611 55.9731 16.3929 55.5769 15.7939C55.1807 15.1961 54.9563 14.4986 54.9037 13.6993H65.9724C65.9896 13.5772 66.0078 13.4261 66.0261 13.2429C66.0422 13.0607 66.0519 12.8647 66.0519 12.6557C66.0519 11.4375 65.762 10.2975 65.18 9.23573C64.5992 8.17394 63.7842 7.3168 62.7363 6.6643Z" fill="black"/>
<path d="M88.5354 15.7328V5.92277H85.6289V19.5781H88.3507L95.2718 9.97705V19.5781H98.1783V5.89598H95.537L88.5354 15.7328Z" fill="black"/>
<path d="M111.49 11.326H105.071V5.89598H102.164V19.5781H105.071V13.831H111.49V19.5781H114.397V5.89598H111.49V11.326Z" fill="black"/>
<path d="M126.918 15.1393C126.918 15.3129 126.855 15.5111 126.733 15.7361C126.609 15.9611 126.442 16.185 126.23 16.41C125.878 16.7904 125.412 17.1011 124.83 17.3432C124.249 17.5854 123.642 17.7064 123.007 17.7064C122.391 17.7064 121.875 17.5939 121.462 17.3689C121.048 17.145 120.731 16.8504 120.511 16.4872C120.291 16.1239 120.181 15.7447 120.181 15.3472C120.181 14.6218 120.511 14.0507 121.171 13.6361C121.833 13.2204 122.69 13.0136 123.747 13.0136C124.276 13.0136 124.813 13.0618 125.359 13.1561C125.905 13.2514 126.425 13.3939 126.918 13.5836V15.1393ZM129.824 16.32V11.2361C129.824 9.46501 129.29 8.09573 128.225 7.13144C127.16 6.16716 125.702 5.68501 123.853 5.68501C122.831 5.68501 121.858 5.83394 120.934 6.13287C120.009 6.4318 119.088 6.88823 118.172 7.5043L119.15 9.4543C119.926 8.96251 120.657 8.58001 121.343 8.30787C122.03 8.03573 122.76 7.89966 123.536 7.89966C124.627 7.89966 125.465 8.16751 126.046 8.70323C126.627 9.24001 126.918 9.98358 126.918 10.9361V11.8007C126.425 11.6079 125.857 11.4675 125.214 11.3786C124.57 11.2918 123.941 11.2468 123.325 11.2468C122.162 11.2468 121.141 11.4257 120.26 11.7825C119.379 12.1404 118.688 12.645 118.186 13.2975C117.684 13.9511 117.434 14.7129 117.434 15.5839C117.434 16.3843 117.635 17.1075 118.041 17.7514C118.446 18.3964 119.01 18.9054 119.732 19.2793C120.454 19.6543 121.273 19.8418 122.189 19.8418C123.139 19.8418 124.082 19.6297 125.016 19.2086C125.949 18.7864 126.716 18.1897 127.314 17.4161L127.393 18.2068C127.446 18.6118 127.632 18.9622 127.947 19.2611C128.265 19.56 128.731 19.71 129.348 19.71C129.489 19.71 129.665 19.7004 129.877 19.6832C130.088 19.665 130.325 19.6297 130.59 19.5782V17.2586C130.308 17.2404 130.11 17.1632 129.996 17.0239C129.881 16.8836 129.824 16.65 129.824 16.32" fill="black"/>
<path d="M142.269 8.13634V12.5388H138.936C138.215 12.5388 137.664 12.3235 137.285 11.8917C136.907 11.4599 136.718 10.9253 136.718 10.2856C136.718 9.64705 136.933 9.12848 137.365 8.73205C137.796 8.33563 138.382 8.13634 139.122 8.13634H142.269ZM136.136 6.44348C135.414 6.80991 134.855 7.31455 134.459 7.95848C134.063 8.60348 133.864 9.35134 133.864 10.2042C133.864 11.3185 134.12 12.2056 134.631 12.8678C135.141 13.5288 135.828 13.9638 136.691 14.1738L132.992 19.5781H136.163L139.544 14.6485H142.269V19.5781H145.175V5.89598H138.646C137.695 5.89598 136.859 6.0792 136.136 6.44348Z" fill="black"/>
<path d="M61.508 36.1333C61.173 36.4237 60.7811 36.6519 60.3323 36.819C59.8824 36.9862 59.4207 37.0697 58.9451 37.0697C58.1699 37.0697 57.4698 36.8662 56.8449 36.4579C56.22 36.0508 55.7218 35.4969 55.3525 34.7951C54.9821 34.0933 54.7974 33.3101 54.7974 32.4433C54.7974 31.5422 54.9778 30.7494 55.3385 30.0647C55.6993 29.3801 56.1932 28.8433 56.8181 28.4533C57.443 28.0633 58.1441 27.8683 58.9182 27.8683C59.6065 27.8683 60.2346 28.0312 60.8079 28.3558C61.3791 28.6815 61.8247 29.1337 62.1415 29.7144L64.9685 28.8176C64.4757 27.7815 63.7048 26.9501 62.6568 26.3265C61.6089 25.7029 60.3806 25.3901 58.9719 25.3901C57.5095 25.3901 56.2458 25.7126 55.1807 26.3565C54.1145 27.0015 53.2878 27.8544 52.6972 28.9162C52.1067 29.979 51.8125 31.1544 51.8125 32.4433C51.8125 33.4012 51.9843 34.3054 52.3279 35.1583C52.6715 36.0122 53.16 36.7697 53.7935 37.4319C54.428 38.0929 55.1807 38.6115 56.0525 38.9854C56.9244 39.3594 57.8971 39.5469 58.9719 39.5469C59.9576 39.5469 60.8519 39.3926 61.6529 39.0851C62.4539 38.7787 63.1497 38.3608 63.7402 37.8337C64.3296 37.3065 64.7742 36.7001 65.0737 36.0144L62.2209 35.1712C62.0803 35.5226 61.843 35.8429 61.508 36.1333Z" fill="black"/>
<path d="M85.582 31.4801C85.6346 30.7044 85.8547 30.0197 86.2424 29.4251C86.63 28.8304 87.1271 28.3654 87.7348 28.0301C88.3425 27.6937 89.0071 27.5254 89.7297 27.5254C90.4695 27.5254 91.1427 27.6937 91.7504 28.0301C92.3592 28.3654 92.8606 28.8304 93.2568 29.4251C93.653 30.0197 93.8774 30.7044 93.93 31.4801H85.582ZM93.4941 26.3694C92.4462 25.7169 91.1996 25.3901 89.7566 25.3901C88.3114 25.3901 87.053 25.7169 85.9782 26.3683C84.9035 27.0197 84.067 27.8801 83.469 28.9494C82.8699 30.0176 82.5703 31.1951 82.5703 32.4819C82.5703 33.4419 82.7421 34.344 83.0857 35.1894C83.4293 36.0358 83.9178 36.7869 84.5524 37.4404C85.1858 38.094 85.9396 38.6094 86.8103 38.9844C87.6822 39.3594 88.6549 39.5469 89.7297 39.5469C90.6982 39.5469 91.5969 39.3926 92.4247 39.0851C93.2525 38.7787 93.9697 38.3565 94.5775 37.8197C95.1852 37.284 95.6383 36.6819 95.9378 36.0144L93.4554 35.3029C93.2085 35.9351 92.7371 36.4451 92.0414 36.8319C91.3456 37.2176 90.6101 37.4115 89.8349 37.4115C89.1306 37.4115 88.4703 37.2422 87.854 36.9037C87.2377 36.5662 86.7309 36.0979 86.3347 35.499C85.9396 34.9012 85.7141 34.2026 85.6615 33.4044H96.7302C96.7474 33.2822 96.7656 33.1312 96.7839 32.9479C96.8011 32.7647 96.8097 32.5697 96.8097 32.3597C96.8097 31.1426 96.5198 30.0026 95.9378 28.9408C95.357 27.879 94.542 27.0219 93.4941 26.3694" fill="black"/>
<path d="M108.592 36.7271H102.542C102.842 36.4496 103.102 36.0404 103.322 35.5025C103.542 34.9646 103.718 34.2446 103.85 33.3414C103.983 32.4382 104.074 31.3271 104.128 30.0082L104.208 27.8429H108.592V36.7271ZM111.499 25.6014H101.645L101.486 29.7275C101.45 31.1214 101.354 32.2743 101.195 33.1882C101.037 34.1021 100.834 34.8168 100.588 35.33C100.341 35.8432 100.06 36.2043 99.742 36.4143C99.4253 36.6221 99.0817 36.7271 98.7123 36.7271H98.3945V41.375H100.932V39.1057H110.838V41.375H113.401V36.7271H111.499V25.6014Z" fill="black"/>
<path d="M77.8347 17.0201H71.7844C72.084 16.7426 72.3438 16.3344 72.5639 15.7955C72.784 15.2576 72.9601 14.5376 73.0922 13.6344C73.2242 12.7323 73.3166 11.6201 73.3692 10.3012L73.4497 8.13583H77.8347V17.0201ZM80.7412 5.89547H70.8868L70.7279 10.0215C70.6925 11.4144 70.5958 12.5673 70.4369 13.4823C70.2791 14.3951 70.0762 15.1098 69.8292 15.623C69.5823 16.1362 69.3009 16.4973 68.9842 16.7073C68.6675 16.9162 68.3239 17.0201 67.9535 17.0201H67.6367V21.668H70.1728V19.3987H80.0798V21.668H82.6427V17.0201H80.7412V5.89547Z" fill="black"/>
<path d="M124.863 34.8454C124.863 35.0179 124.801 35.2172 124.678 35.4422C124.555 35.6672 124.387 35.8912 124.176 36.1162C123.824 36.4965 123.358 36.8072 122.776 37.0494C122.195 37.2915 121.587 37.4115 120.952 37.4115C120.336 37.4115 119.821 37.3001 119.407 37.0751C118.993 36.8512 118.676 36.5565 118.456 36.1933C118.236 35.8301 118.126 35.4497 118.126 35.0522C118.126 34.3269 118.456 33.7558 119.116 33.3422C119.777 32.9265 120.636 32.7197 121.692 32.7197C122.221 32.7197 122.758 32.7669 123.304 32.8612C123.85 32.9565 124.37 33.1001 124.863 33.2897V34.8454ZM127.769 36.0262V30.9422C127.769 29.1701 127.236 27.8019 126.171 26.8376C125.104 25.8722 123.647 25.3901 121.799 25.3901C120.776 25.3901 119.804 25.5401 118.879 25.839C117.954 26.1379 117.033 26.5944 116.118 27.2094L117.096 29.1604C117.871 28.6687 118.601 28.2862 119.288 28.014C119.975 27.7419 120.706 27.6047 121.482 27.6047C122.573 27.6047 123.409 27.8737 123.991 28.4094C124.572 28.9462 124.863 29.6897 124.863 30.6422V31.5069C124.37 31.314 123.802 31.1726 123.159 31.0847C122.516 30.9969 121.887 30.9529 121.27 30.9529C120.107 30.9529 119.085 31.1319 118.205 31.4887C117.324 31.8454 116.633 32.3501 116.132 33.0037C115.629 33.6572 115.379 34.419 115.379 35.289C115.379 36.0904 115.581 36.8137 115.986 37.4576C116.39 38.1026 116.954 38.6115 117.677 38.9854C118.398 39.3594 119.218 39.5469 120.134 39.5469C121.085 39.5469 122.027 39.3358 122.96 38.9147C123.894 38.4926 124.66 37.8958 125.259 37.1222L125.339 37.9129C125.391 38.3169 125.576 38.6683 125.893 38.9672C126.209 39.2662 126.676 39.4151 127.294 39.4151C127.434 39.4151 127.61 39.4065 127.821 39.3894C128.033 39.3712 128.271 39.3358 128.535 39.2833V36.9637C128.254 36.9465 128.055 36.8683 127.94 36.729C127.825 36.5897 127.769 36.3562 127.769 36.0262" fill="black"/>
<path d="M163.254 34.3703C162.942 34.9853 162.516 35.4653 161.975 35.8125C161.434 36.1586 160.805 36.3321 160.087 36.3321H159.658V28.2011H160.087C160.805 28.2011 161.434 28.3832 161.975 28.7453C162.516 29.1075 162.942 29.595 163.254 30.21C163.564 30.825 163.72 31.5182 163.72 32.2907C163.72 33.0621 163.564 33.7553 163.254 34.3703ZM157.029 36.3321H156.599C155.882 36.3321 155.253 36.1586 154.711 35.8125C154.17 35.4653 153.747 34.9853 153.444 34.3703C153.143 33.7553 152.99 33.0621 152.99 32.2907C152.99 31.5182 153.146 30.825 153.456 30.21C153.768 29.595 154.194 29.1075 154.735 28.7453C155.276 28.3832 155.898 28.2011 156.599 28.2011H157.029V36.3321ZM165.523 29.1964C165.022 28.2557 164.308 27.5014 163.385 26.9325C162.461 26.3636 161.362 26.0786 160.087 26.0786H159.658V24.3182H157.029V26.0786H156.599C155.324 26.0786 154.225 26.3636 153.302 26.9325C152.377 27.5014 151.665 28.2557 151.163 29.1964C150.661 30.1371 150.41 31.1603 150.41 32.2671C150.41 33.3728 150.657 34.3961 151.151 35.3368C151.644 36.2764 152.354 37.0318 153.277 37.6007C154.201 38.1696 155.308 38.4546 156.599 38.4546H157.029V40.3457H159.658V38.4546H160.087C161.378 38.4546 162.485 38.1696 163.409 37.6007C164.333 37.0318 165.041 36.2764 165.535 35.3368C166.029 34.3961 166.276 33.3728 166.276 32.2671C166.276 31.1603 166.026 30.1371 165.523 29.1964" fill="black"/>
<path d="M132.645 36.1708C131.711 36.1708 130.953 36.9272 130.953 37.8594C130.953 38.7915 131.711 39.5469 132.645 39.5469C133.58 39.5469 134.337 38.7915 134.337 37.8594C134.337 36.9272 133.58 36.1708 132.645 36.1708Z" fill="black"/>
<path d="M77.0226 31.7307C76.8196 32.1089 76.5383 32.4078 76.1776 32.6264C75.8157 32.8471 75.3981 32.9564 74.9224 32.9564H70.7747V27.9218H74.7903C75.2477 27.9218 75.6665 28.0268 76.0455 28.2378C76.4234 28.4489 76.7316 28.7393 76.97 29.1078C77.2072 29.4764 77.3264 29.9168 77.3264 30.4257C77.3264 30.9175 77.2244 31.3525 77.0226 31.7307ZM77.5508 26.3264C76.7842 25.8432 75.9177 25.6011 74.9482 25.6011H68.0078V39.2832H70.7747V35.2503H75.0802C76.067 35.2503 76.9302 35.0221 77.67 34.5646C78.4098 34.1082 78.9821 33.5103 79.3868 32.7721C79.7927 32.0339 79.9946 31.2518 79.9946 30.4257C79.9946 29.635 79.7787 28.8743 79.3482 28.1457C78.9155 27.4161 78.3174 26.8096 77.5508 26.3264" fill="black"/>
<path d="M145.917 31.7307C145.714 32.1089 145.432 32.4078 145.071 32.6264C144.71 32.8471 144.293 32.9564 143.817 32.9564H139.669V27.9218H143.685C144.142 27.9218 144.561 28.0268 144.939 28.2378C145.318 28.4489 145.626 28.7393 145.864 29.1078C146.102 29.4764 146.221 29.9168 146.221 30.4257C146.221 30.9175 146.119 31.3525 145.917 31.7307ZM146.445 26.3264C145.679 25.8432 144.811 25.6011 143.843 25.6011H136.902V39.2832H139.669V35.2503H143.975C144.962 35.2503 145.825 35.0221 146.565 34.5646C147.304 34.1082 147.877 33.5103 148.281 32.7721C148.686 32.0339 148.889 31.2518 148.889 30.4257C148.889 29.635 148.673 28.8743 148.242 28.1457C147.81 27.4161 147.212 26.8096 146.445 26.3264Z" fill="black"/>
<path d="M31.3835 21.5352C30.8742 21.5352 30.3635 21.484 29.8654 21.3823C29.3814 21.284 28.9047 21.1358 28.4486 20.9438C28.0005 20.7545 27.5697 20.5206 27.1669 20.2488C26.7687 19.9811 26.3932 19.6721 26.0523 19.3313C25.712 18.9924 25.4031 18.6177 25.1328 18.2191C24.8598 17.8164 24.6254 17.3859 24.4363 16.9401C24.2446 16.4869 24.0968 16.0119 23.9969 15.5268C23.895 15.0305 23.8438 14.5209 23.8438 14.0113C23.8438 13.5017 23.895 12.9921 23.9969 12.4964C24.0968 12.0107 24.2446 11.535 24.437 11.0819C24.6254 10.6367 24.8598 10.2062 25.1328 9.80355C25.4024 9.4049 25.7114 9.03084 26.0523 8.69065C26.3925 8.35114 26.7674 8.04285 27.1669 7.7731C27.5704 7.50068 28.0018 7.26747 28.4492 7.07878C28.902 6.88743 29.3787 6.73926 29.8648 6.64027C30.8602 6.43695 31.9095 6.43695 32.9016 6.64027C33.3883 6.73926 33.865 6.88743 34.3191 7.07944C34.7659 7.26747 35.1967 7.50068 35.6002 7.7731C36.0003 8.04285 36.3752 8.3518 36.7148 8.69065C37.0563 9.0315 37.3653 9.40557 37.6349 9.80355C37.9073 10.2062 38.141 10.6361 38.3307 11.0819C38.5238 11.5377 38.6716 12.0134 38.7702 12.4964L36.3992 12.9801C36.3319 12.6532 36.232 12.331 36.1009 12.0227C35.973 11.7211 35.8146 11.4287 35.6295 11.1556C35.4464 10.8852 35.236 10.6301 35.0036 10.3989C34.7726 10.1683 34.5169 9.9577 34.2446 9.77365C33.9716 9.58961 33.6793 9.43148 33.3763 9.30391C33.0681 9.17368 32.7451 9.07336 32.4162 9.00625C31.7431 8.86872 31.0246 8.86872 30.3502 9.00625C30.0219 9.07336 29.699 9.17369 29.392 9.30325C29.0878 9.43148 28.7961 9.58961 28.5225 9.77365C28.2502 9.9577 27.9952 10.1677 27.7634 10.3989C27.5317 10.6294 27.3213 10.8846 27.1376 11.1556C26.9525 11.4294 26.794 11.7204 26.6662 12.0227C26.5357 12.3303 26.4351 12.6519 26.3679 12.9808C26.2993 13.3163 26.264 13.6638 26.264 14.0113C26.264 14.3588 26.2993 14.7056 26.3679 15.0425C26.4351 15.37 26.5357 15.6923 26.6662 15.9992C26.794 16.3022 26.9525 16.5939 27.1376 16.867C27.3213 17.138 27.5324 17.3932 27.7634 17.6237C27.9958 17.855 28.2508 18.0649 28.5218 18.2476C28.7955 18.433 29.0878 18.5911 29.3914 18.7194C29.7003 18.8496 30.0226 18.9492 30.3502 19.0157C31.0273 19.1546 31.7404 19.1546 32.4169 19.0157C32.7438 18.9492 33.0674 18.8496 33.377 18.7187C33.6786 18.5911 33.9716 18.433 34.2452 18.2483C34.5162 18.0649 34.7712 17.855 35.0036 17.6237C35.2353 17.3925 35.4464 17.1374 35.6301 16.8663C35.8146 16.5939 35.9737 16.3015 36.1015 15.9986C36.232 15.6916 36.3319 15.3687 36.3992 15.0425L38.7702 15.5262C38.6716 16.0085 38.5238 16.4843 38.3307 16.9394C38.141 17.3859 37.9073 17.8158 37.6356 18.2184C37.3646 18.617 37.0557 18.9911 36.7148 19.3313C36.3739 19.6715 35.999 19.9804 35.6002 20.2495C35.1974 20.5206 34.7666 20.7545 34.3198 20.9432C33.8617 21.1358 33.385 21.284 32.9016 21.3823C32.4042 21.484 31.8935 21.5352 31.3835 21.5352Z" fill="black"/>
<path d="M14.2546 21.5352C13.7446 21.5352 13.2339 21.484 12.7365 21.3823C12.2532 21.284 11.7764 21.1358 11.3197 20.9438C10.8722 20.7551 10.4415 20.5213 10.038 20.2488C9.63914 19.9811 9.26361 19.6715 8.92271 19.3313C8.58248 18.9911 8.27353 18.617 8.00321 18.2191C7.73156 17.8177 7.49785 17.3879 7.30809 16.9407C7.11434 16.4843 6.96653 16.0085 6.86798 15.5262C6.76611 15.0318 6.71484 14.5216 6.71484 14.0113C6.71484 13.501 6.76611 12.9908 6.86798 12.4958C6.96653 12.0134 7.11434 11.5377 7.30743 11.0826C7.49785 10.6347 7.73156 10.2042 8.00321 9.80355C8.27287 9.40557 8.58181 9.0315 8.92338 8.69066C9.26228 8.3518 9.63781 8.04285 10.038 7.7731C10.4421 7.50069 10.8736 7.26681 11.3197 7.07878C11.7738 6.88743 12.2505 6.73927 12.7359 6.64027C13.73 6.43696 14.7793 6.43762 15.772 6.64027C16.2587 6.73927 16.7355 6.88743 17.1902 7.07945C17.6357 7.26681 18.0671 7.50069 18.4713 7.7731C18.8714 8.04285 19.2463 8.3518 19.5865 8.69132C19.9268 9.0315 20.2364 9.40557 20.506 9.80355C20.777 10.2042 21.0114 10.6347 21.2011 11.0819C21.3942 11.5377 21.542 12.0134 21.6413 12.4964C21.7425 12.9908 21.7944 13.501 21.7944 14.0113V15.2185H13.0934V12.8034H19.2303C19.1657 12.5376 19.0792 12.2752 18.972 12.0227C18.8435 11.7197 18.685 11.4281 18.5006 11.1563C18.3175 10.8852 18.1064 10.6301 17.8747 10.3989C17.643 10.1677 17.3886 9.9577 17.1157 9.77432C16.8413 9.58961 16.5497 9.43082 16.2474 9.30391C15.9392 9.17369 15.6156 9.07336 15.2866 9.00625C14.6142 8.86938 13.8957 8.86938 13.2213 9.00625C12.893 9.07336 12.5701 9.17369 12.2625 9.30325C11.9595 9.43082 11.6672 9.58961 11.3929 9.77432C11.1206 9.9577 10.8656 10.1677 10.6352 10.3982C10.4022 10.6301 10.1918 10.8852 10.0087 11.1556C9.82424 11.4281 9.6651 11.7197 9.5366 12.0234C9.4061 12.331 9.30623 12.6532 9.23898 12.9801C9.16973 13.317 9.13511 13.6631 9.13511 14.0113C9.13511 14.3588 9.16973 14.7056 9.23898 15.0418C9.30623 15.3687 9.4061 15.6916 9.53727 15.9999C9.6651 16.3029 9.82424 16.5946 10.0087 16.867C10.1918 17.1374 10.4028 17.3925 10.6345 17.6237C10.8669 17.855 11.1213 18.0649 11.3922 18.2476C11.6672 18.433 11.9595 18.5911 12.2625 18.7194C12.5714 18.8496 12.8943 18.9492 13.2213 19.0157C13.8977 19.1546 14.6108 19.1546 15.288 19.0157C15.6149 18.9492 15.9378 18.8496 16.2474 18.7187C16.549 18.5911 16.842 18.433 17.1157 18.2483C17.388 18.0649 17.6423 17.855 17.874 17.6237C18.1064 17.3925 18.3175 17.1374 18.5006 16.8663C18.685 16.5946 18.8435 16.3029 18.9726 15.9986L21.2011 16.9407C21.0114 17.3879 20.7777 17.8177 20.506 18.2191C20.2357 18.617 19.9268 18.9911 19.5859 19.3313C19.2456 19.6715 18.8701 19.9811 18.4706 20.2495C18.0678 20.5213 17.6363 20.7551 17.1902 20.9432C16.7321 21.1358 16.2554 21.284 15.772 21.3823C15.2747 21.484 14.7646 21.5352 14.2546 21.5352Z" fill="black"/>
<path d="M31.3874 38.6387H30.1776V29.9567H32.5972V36.0807C32.8642 36.0162 33.1252 35.9298 33.3802 35.8229C33.9888 35.5657 34.5368 35.197 35.0075 34.7273C35.4782 34.2582 35.8471 33.7114 36.1054 33.1028C36.3718 32.4742 36.5069 31.8051 36.5069 31.1148C36.5069 30.4252 36.3718 29.7561 36.1054 29.1262C35.8471 28.5189 35.4782 27.9721 35.0075 27.5024C34.5368 27.0333 33.9895 26.6646 33.3796 26.4068C32.1192 25.8752 30.6557 25.8752 29.3953 26.4068C28.7854 26.6646 28.2381 27.0333 27.7674 27.5024C27.2966 27.9721 26.9271 28.5189 26.6701 29.1269C26.4031 29.7561 26.2679 30.4252 26.2679 31.1148C26.2679 31.8051 26.4031 32.4742 26.6701 33.1028C26.9271 33.7107 27.2966 34.2575 27.7674 34.7279C28.1296 35.0894 28.5384 35.3903 28.9851 35.6275C29.1183 35.6986 29.2548 35.7637 29.3953 35.8229L28.4525 38.0467C27.555 37.6686 26.7486 37.1258 26.0562 36.4355C25.3637 35.7438 24.8198 34.9392 24.4409 34.0436C24.0474 33.1154 23.8477 32.13 23.8477 31.1148C23.8477 30.1003 24.0474 29.1149 24.4409 28.1861C24.8204 27.2904 25.3637 26.4858 26.0555 25.7948C26.7473 25.1045 27.5536 24.5623 28.4518 24.183C30.3135 23.3976 32.4614 23.397 34.3224 24.183C35.2212 24.5623 36.0269 25.1045 36.7187 25.7948C37.4105 26.4852 37.9538 27.2891 38.3346 28.1854C38.7281 29.1149 38.9272 30.1003 38.9272 31.1148C38.9272 32.13 38.7281 33.1154 38.3346 34.0436C37.9544 34.9405 37.4105 35.7451 36.7187 36.4355C36.0262 37.1265 35.2199 37.6686 34.323 38.0467C33.3922 38.44 32.4041 38.6387 31.3874 38.6387Z" fill="black"/>
<path d="M14.2546 38.6387C13.7439 38.6387 13.2326 38.5875 12.7365 38.4865C12.2505 38.3869 11.7738 38.2387 11.319 38.0467C10.8736 37.8593 10.4421 37.6254 10.038 37.353L11.3929 35.3518C11.6672 35.5372 11.9595 35.6953 12.2611 35.8222C12.5701 35.9531 12.893 36.0528 13.2219 36.1199C13.8944 36.2567 14.6122 36.2574 15.288 36.1199C15.6156 36.0528 15.9392 35.9531 16.2468 35.8229C16.5497 35.6953 16.8413 35.5372 17.1157 35.3518C17.3886 35.1684 17.643 34.9585 17.874 34.7279C18.1064 34.496 18.3175 34.2409 18.5006 33.9705C18.685 33.6981 18.8435 33.4064 18.972 33.1028C19.1025 32.7951 19.203 32.4729 19.2696 32.1467C19.3388 31.8091 19.3741 31.463 19.3741 31.1148C19.3741 30.7673 19.3388 30.4205 19.2703 30.0843C19.203 29.7574 19.1025 29.4345 18.972 29.1262C18.8435 28.8239 18.685 28.5316 18.5006 28.2592C18.3175 27.9887 18.1064 27.7336 17.8747 27.5024C17.6423 27.2712 17.388 27.0612 17.1163 26.8785C16.842 26.6931 16.549 26.535 16.2468 26.4068C15.9378 26.2772 15.6149 26.1769 15.288 26.1104C14.6108 25.9722 13.8977 25.9722 13.2213 26.1104C12.8943 26.1769 12.5714 26.2772 12.2611 26.4074C11.9595 26.535 11.6672 26.6931 11.3929 26.8778C11.1213 27.0612 10.8669 27.2712 10.6352 27.5024C10.4028 27.7336 10.1918 27.9887 10.008 28.2598C9.82424 28.5316 9.6651 28.8239 9.5366 29.1275C9.4061 29.4345 9.30623 29.7574 9.23898 30.0836C9.16973 30.4205 9.13511 30.7673 9.13511 31.1148V38.6387H6.71484V31.1148C6.71484 30.6045 6.76611 30.0949 6.86798 29.5993C6.96653 29.1176 7.11434 28.6419 7.30743 28.1867C7.49785 27.7383 7.73156 27.3084 8.00321 26.9071C8.27353 26.5091 8.58248 26.135 8.92338 25.7948C9.26361 25.4547 9.63914 25.145 10.0386 24.8766C10.4415 24.6049 10.8722 24.371 11.319 24.183C11.7764 23.9903 12.2532 23.8421 12.7365 23.7438C13.7313 23.5405 14.7773 23.5405 15.772 23.7438C16.2554 23.8421 16.7321 23.9903 17.1889 24.1823C17.6363 24.371 18.0678 24.6049 18.4713 24.8773C18.8701 25.145 19.2456 25.4547 19.5865 25.7948C19.9268 26.135 20.2357 26.5091 20.5054 26.9071C20.7777 27.3084 21.0114 27.7383 21.2011 28.1854C21.3942 28.6419 21.542 29.1176 21.6413 29.5999C21.7425 30.0949 21.7944 30.6045 21.7944 31.1148C21.7944 31.6251 21.7425 32.1354 21.6406 32.631C21.542 33.1127 21.3942 33.5884 21.2018 34.0436C21.0114 34.4914 20.777 34.9219 20.5054 35.3226C20.2364 35.7206 19.9268 36.0946 19.5859 36.4355C19.2463 36.7743 18.8714 37.0833 18.4713 37.353C18.0671 37.6254 17.6357 37.8593 17.1889 38.0473C16.7355 38.2387 16.2587 38.3869 15.7734 38.4859C15.276 38.5875 14.7653 38.6387 14.2546 38.6387Z" fill="black"/>
</svg>
