<svg width="386" height="302" viewBox="0 0 386 302" fill="none" xmlns="http://www.w3.org/2000/svg">
<g clip-path="url(#clip0_977_80941)">
<g clip-path="url(#clip1_977_80941)">
<g clip-path="url(#clip2_977_80941)">
<path d="M89.0703 166.324C134.718 166.324 171.723 129.32 171.723 83.6719C171.723 38.0243 134.718 1.01953 89.0703 1.01953C43.4227 1.01953 6.41797 38.0243 6.41797 83.6719C6.41797 129.32 43.4227 166.324 89.0703 166.324Z" stroke="#D7DDE8" stroke-width="2.08507" stroke-linecap="round" stroke-dasharray="8.11 8.11"/>
<path d="M341.383 63.5898H98.2118C80.2987 63.5898 65.7773 78.1112 65.7773 96.0243V226.392C65.7773 244.305 80.2987 258.827 98.2118 258.827H341.383C359.296 258.827 373.818 244.305 373.818 226.392V96.0243C373.818 78.1112 359.296 63.5898 341.383 63.5898Z" fill="#F6F7F9"/>
<path d="M341.383 63.5898H98.2118C80.2987 63.5898 65.7773 78.1112 65.7773 96.0243V226.392C65.7773 244.305 80.2987 258.827 98.2118 258.827H341.383C359.296 258.827 373.818 244.305 373.818 226.392V96.0243C373.818 78.1112 359.296 63.5898 341.383 63.5898Z" stroke="black" stroke-width="2.31675"/>
<path d="M143.149 90.3027H134.408C129.866 90.3027 126.184 93.9849 126.184 98.5272V107.268C126.184 111.81 129.866 115.492 134.408 115.492H143.149C147.691 115.492 151.373 111.81 151.373 107.268V98.5272C151.373 93.9849 147.691 90.3027 143.149 90.3027Z" stroke="#B5DCFF" stroke-width="2.08507"/>
<path d="M107.856 90.3027H99.1151C94.5728 90.3027 90.8906 93.9849 90.8906 98.5272V107.268C90.8906 111.81 94.5728 115.492 99.1151 115.492H107.856C112.398 115.492 116.08 111.81 116.08 107.268V98.5272C116.08 93.9849 112.398 90.3027 107.856 90.3027Z" stroke="#B5DCFF" stroke-width="2.08507"/>
<path d="M175.763 90.3027H334.516C341.472 90.3027 347.111 95.9416 347.111 102.897V102.897C347.111 109.853 341.472 115.492 334.516 115.492H175.763C168.807 115.492 163.168 109.853 163.168 102.897V102.897C163.168 95.9416 168.807 90.3027 175.763 90.3027Z" stroke="#B5DCFF" stroke-width="2.08507"/>
<path d="M148.324 141.643H108.382C98.7218 141.643 90.8906 149.474 90.8906 159.134V197.472C90.8906 207.132 98.7218 214.963 108.382 214.963H148.324C157.985 214.963 165.816 207.132 165.816 197.472V159.134C165.816 149.474 157.985 141.643 148.324 141.643Z" stroke="#B5DCFF" stroke-width="2.08507"/>
<path d="M329.616 141.643H201.433C191.773 141.643 183.941 149.474 183.941 159.134V197.472C183.941 207.132 191.773 214.963 201.433 214.963H329.616C339.276 214.963 347.108 207.132 347.108 197.472V159.134C347.108 149.474 339.276 141.643 329.616 141.643Z" stroke="#B5DCFF" stroke-width="2.08507"/>
<path d="M65.7797 171.969C70.2101 171.969 73.8016 168.343 73.8016 163.869C73.8016 159.396 70.2101 155.77 65.7797 155.77C61.3493 155.77 57.7578 159.396 57.7578 163.869C57.7578 168.343 61.3493 171.969 65.7797 171.969Z" fill="#F6F7F9" stroke="#0077FF" stroke-width="2.08507"/>
<path d="M71.4909 207.984H23.1675C10.3724 207.984 0 218.357 0 231.152V277.871C0 290.666 10.3724 301.038 23.1675 301.038H71.4909C84.2859 301.038 94.6583 290.666 94.6583 277.871V231.152C94.6583 218.357 84.2859 207.984 71.4909 207.984Z" fill="#0077FF"/>
<path d="M67.758 257.094V281.244C67.758 282.095 67.0746 282.785 66.2313 282.785H28.5735C27.7304 282.785 27.0469 282.095 27.0469 281.244V257.094" stroke="white" stroke-width="1.73756" stroke-linecap="round" stroke-linejoin="round"/>
<path d="M71.3232 244.248H23.4877C22.6445 244.248 21.9609 244.937 21.9609 245.789V255.551C21.9609 256.403 22.6445 257.093 23.4877 257.093H71.3232C72.1663 257.093 72.8498 256.403 72.8498 255.551V245.789C72.8498 244.937 72.1663 244.248 71.3232 244.248Z" stroke="white" stroke-width="1.73756" stroke-linecap="round" stroke-linejoin="round"/>
<path d="M47.4023 282.785V244.248" stroke="white" stroke-width="1.73756" stroke-linecap="round" stroke-linejoin="round"/>
<path d="M47.4048 244.249H35.9548C34.2678 244.249 32.6498 243.571 31.4569 242.368C30.2639 241.163 29.5938 239.528 29.5938 237.826C29.5938 236.122 30.2639 234.488 31.4569 233.284C32.6498 232.079 34.2678 231.402 35.9548 231.402C44.8604 231.402 47.4048 244.249 47.4048 244.249Z" stroke="white" stroke-width="1.73756" stroke-linecap="round" stroke-linejoin="round"/>
<path d="M47.4023 244.249H58.8523C60.5392 244.249 62.1572 243.571 63.3504 242.368C64.5433 241.163 65.2134 239.528 65.2134 237.826C65.2134 236.122 64.5433 234.488 63.3504 233.284C62.1572 232.079 60.5392 231.402 58.8523 231.402C49.9467 231.402 47.4023 244.249 47.4023 244.249Z" stroke="white" stroke-width="1.73756" stroke-linecap="round" stroke-linejoin="round"/>
</g>
</g>
</g>
<defs>
<clipPath id="clip0_977_80941">
<rect width="386" height="301.177" fill="white"/>
</clipPath>
<clipPath id="clip1_977_80941">
<rect width="434.39" height="301.177" fill="white"/>
</clipPath>
<clipPath id="clip2_977_80941">
<rect width="434.39" height="301.177" fill="white"/>
</clipPath>
</defs>
</svg>
