<svg width="605" height="438" viewBox="0 0 605 438" fill="none" xmlns="http://www.w3.org/2000/svg">
<path opacity="0.901" fill-rule="evenodd" clip-rule="evenodd" d="M427.742 6.06429C443.128 5.29903 454.73 11.3652 462.548 24.2633C463.158 25.4107 463.537 26.6242 463.685 27.9031C478.815 26.1314 488.597 32.5011 493.031 47.012C495.121 61.1085 489.737 71.1935 476.879 77.2678C475.235 77.6978 473.567 78.0013 471.875 78.1778C445.033 78.7024 418.189 78.8543 391.344 78.6328C383.916 77.6901 378.381 73.9743 374.738 67.4859C369.938 55.0414 373.198 45.411 384.52 38.595C388.194 37.2592 391.986 36.4252 395.894 36.0926C398.502 23.8015 405.326 14.7775 416.368 9.02163C420.089 7.52294 423.881 6.53747 427.742 6.06429Z" fill="#020409"/>
<path fill-rule="evenodd" clip-rule="evenodd" d="M435.473 9.25216C427.172 8.86315 419.437 10.8346 412.27 15.1668C419.139 10.0293 426.873 8.05739 435.473 9.25216Z" fill="#0695E1"/>
<path fill-rule="evenodd" clip-rule="evenodd" d="M435.477 9.25121C436.205 9.12927 436.811 9.28123 437.297 9.70618C436.311 9.76578 436.235 9.91729 437.07 10.1612C439.929 10.7776 442.734 11.5356 445.487 12.436C448.122 13.2618 450.397 14.6267 452.311 16.5308C453.356 18.3493 454.873 20.0173 456.861 21.5355C458.79 24.6025 460.458 27.7873 461.866 31.09C462.169 31.2415 462.472 31.3935 462.776 31.545C462.803 31.792 462.954 31.9435 463.231 31.9999C467.619 30.8502 472.017 30.8502 476.425 31.9999C488.974 38.9151 492.917 49.228 488.254 62.9382C486.485 67.1336 483.604 70.3184 479.61 72.4927C477.417 73.4368 475.142 74.1192 472.785 74.5401C472.532 74.7144 472.381 74.9418 472.33 75.2226C472.174 75.6038 471.871 75.7558 471.42 75.6775C444.198 75.2985 416.9 75.0711 389.525 74.9951C385.41 73.7011 381.922 71.5018 379.06 68.3979C378.229 67.6486 377.623 66.7386 377.24 65.6681C377.487 65.6408 377.639 65.4893 377.695 65.2131C376.81 63.3432 376.28 61.3713 376.103 59.2984C376.066 57.0886 375.99 54.9657 375.875 52.9288C375.797 52.4775 375.949 52.1744 376.33 52.0188C377.058 51.1753 377.665 49.9624 378.15 48.379C379.819 46.4076 381.639 44.5877 383.61 42.9193C388.147 40.5148 393 39.5293 398.169 39.962C398.716 39.5512 399.095 39.0207 399.307 38.3696C399.633 35.0951 400.315 31.9103 401.354 28.8151C402.213 27.7737 402.819 26.5607 403.174 25.1753C404.497 23.5916 405.71 21.9232 406.814 20.1706C408.652 18.4981 410.472 16.8297 412.273 15.1659C419.441 10.8336 427.176 8.8622 435.477 9.25121Z" fill="#0089FE"/>
<path fill-rule="evenodd" clip-rule="evenodd" d="M437.293 9.70312C440.274 9.98885 443.004 10.8988 445.483 12.433C442.73 11.5326 439.925 10.7746 437.066 10.1581C436.231 9.91423 436.307 9.76273 437.293 9.70312Z" fill="#079BEC"/>
<path opacity="0.891" fill-rule="evenodd" clip-rule="evenodd" d="M260.307 11.5252C273.735 10.7882 286.474 13.3665 298.525 19.2598C306.379 24.3246 314.569 28.7988 323.094 32.6816C327.02 33.6757 330.963 34.5856 334.923 35.4114C337.279 38.3806 337.279 41.4139 334.923 44.5109C341.643 44.6001 343.539 47.5574 340.61 53.3829C338.171 56.4285 335.442 59.1584 332.421 61.5725C333.583 68.4508 333.28 75.2754 331.511 82.0463C330.769 83.6656 329.859 85.182 328.781 86.5961C328.374 105.216 326.707 123.718 323.776 142.103C321.635 156.149 316.175 168.585 307.397 179.411C305.428 181.234 303.38 182.977 301.255 184.643C299.082 186.182 296.807 187.471 294.43 188.51C295.956 190.652 297.245 192.927 298.297 195.335C298.828 197.68 299.663 199.879 300.8 201.932C309.625 205.324 318.346 208.888 326.961 212.624C332.669 197.822 342.299 186.372 355.852 178.274C358.509 177.401 359.419 178.235 358.582 180.776C350.131 188.111 344.293 197.21 341.065 208.074C340.288 210.858 339.606 213.664 339.018 216.491C339.169 216.87 339.321 217.25 339.473 217.629C344.37 219.577 348.996 222.003 353.349 224.908C356.272 217.771 360.594 211.629 366.316 206.482C371.326 202.219 376.786 198.731 382.695 196.018C384.743 195.639 385.577 196.473 385.198 198.52C376.567 206.224 370.577 215.626 367.226 226.728C381.2 227.154 395.152 227.76 409.084 228.548C409.834 228.026 410.517 227.419 411.131 226.728C414.623 219.447 419.021 212.775 424.325 206.709C426.515 204.66 428.866 202.764 431.378 201.022C432.907 200.434 433.817 200.889 434.107 202.387C431.595 205.811 429.245 209.375 427.055 213.079C424.661 218.244 422.462 223.477 420.458 228.776C424.851 230.206 426.444 233.163 425.235 237.648C419.764 250.184 414.228 262.696 408.629 275.183C409.218 276.485 410.052 277.623 411.131 278.595C411.738 280.112 412.345 281.629 412.951 283.145C414.094 290.39 414.7 297.669 414.771 304.984C413.255 307.714 411.738 310.444 410.221 313.174C409.864 315.321 409.409 317.444 408.856 319.543C406.437 322.191 403.934 324.769 401.349 327.278C399.75 329.418 398.536 331.769 397.709 334.33C407.176 350.451 410.892 367.815 408.856 386.425C407.868 392.275 405.896 397.735 402.942 402.804C398.468 409.551 392.326 414.023 384.515 416.225C372.92 418.227 362.759 415.347 354.032 407.581C352.34 405.793 350.595 404.05 348.8 402.349C348.393 407.831 347.786 413.291 346.98 418.728C346.3 419.665 345.467 419.815 344.477 419.183C344.215 418.45 344.063 417.695 344.022 416.908C345.18 405.247 346.166 393.568 346.98 381.875C347.603 363.955 348.437 346.059 349.482 328.188C342.511 327.809 335.534 327.581 328.553 327.505C325.275 326.573 323.607 324.373 323.549 320.908C323.631 319.668 323.859 318.454 324.231 317.268C329.85 304.55 335.386 291.811 340.838 279.05C339.734 278.302 338.521 277.772 337.198 277.458C331.146 276.231 325.08 276.08 318.999 277.003C324.195 278.32 328.517 280.975 331.966 284.965C333.207 289.747 332.6 294.297 330.146 298.614C327.059 303.422 324.329 308.427 321.956 313.629C320.449 315.064 318.781 316.278 316.951 317.268C315.899 322.113 312.942 324.918 308.079 325.685C305.035 325.762 302.002 325.99 298.98 326.368C297.652 330.843 295.605 334.938 292.838 338.652C291.48 340.232 289.887 341.521 288.061 342.519C285.289 343.525 282.559 344.587 279.871 345.704C280.937 348.166 281.013 350.668 280.098 353.211C266.943 369.093 252.915 384.031 238.013 398.026C226.594 408.09 214.31 416.885 201.16 424.415C194.014 428.1 186.431 430.525 178.412 431.695C164.722 433.342 153.726 428.714 145.426 417.818C140.371 410.438 136.276 402.549 133.142 394.159C122.667 364.391 115.843 333.756 112.668 302.254C111.971 291.496 111.82 280.728 112.213 269.951C112.974 258.711 115.856 248.095 120.857 238.103C125.148 231.537 130.532 226.001 137.009 221.496C145.404 217.421 153.745 213.251 162.032 208.984C158.45 201.359 153.445 194.837 147.018 189.42C146.334 188.058 146.714 187.148 148.156 186.691C149.017 187.007 149.851 187.387 150.658 187.828C152.263 189.433 153.855 191.025 155.435 192.605C156.692 194.357 158.056 196.025 159.53 197.61C161.392 201.185 163.364 204.673 165.445 208.074C168.324 206.879 171.13 205.514 173.862 203.98C173.748 193.941 170.791 184.842 164.99 176.681C163.446 174.984 161.778 173.467 159.985 172.131C159.536 170.309 160.219 169.475 162.032 169.629C166.582 172.056 170.601 175.165 174.089 178.956C178.864 185.014 182.579 191.687 185.236 198.975C185.804 198.729 186.335 198.426 186.829 198.065C187.132 194.274 187.132 190.482 186.829 186.691C186.102 182.948 185.268 179.233 184.326 175.544C184.681 173.431 185.667 173.052 187.284 174.406C189.7 181.628 190.838 189.059 190.696 196.7C192.481 195.429 194.452 194.519 196.611 193.97C199.002 186.86 201.96 180.036 205.483 173.496C207.76 171.111 210.565 170.049 213.9 170.311C215.583 158.507 215.887 146.677 214.81 134.823C206.635 133.435 200.493 129.189 196.383 122.084C191.698 113.553 191.395 104.908 195.473 96.1506C196.334 95.4435 197.016 94.6091 197.521 93.6482C192.332 81.3698 191.649 68.858 195.473 56.1128C198.216 50.1822 202.159 45.1775 207.302 41.0986C209.546 33.5474 214.02 27.7087 220.724 23.5821C228.386 19.1483 236.576 15.9635 245.293 14.0276C250.344 13.0849 255.348 12.2505 260.307 11.5252ZM242.108 57.4777C246.526 57.8162 250.924 58.3472 255.302 59.0701C264.869 61.7272 274.423 64.457 283.966 67.2597C292.168 69.4686 300.509 70.3785 308.989 69.9895C313.481 69.3594 317.879 68.3734 322.184 67.0322C324.241 74.6826 325.302 82.4931 325.368 90.4634C324.871 108.889 322.976 127.164 319.681 145.288C317.551 155.908 313.456 165.614 307.397 174.406C297.718 185.621 285.509 189.791 270.771 186.918C259.55 183.735 249.692 178.2 241.198 170.311C238.536 167.574 235.958 164.768 233.464 161.894C231.416 161.515 230.582 162.349 230.961 164.397C237.627 172.154 245.287 178.675 253.937 183.961C262.975 189.014 272.681 191.289 283.056 190.785C282.857 197.031 282.326 203.249 281.463 209.439C277.714 216.583 273.544 223.408 268.952 229.913C264.11 223.319 258.802 217.025 253.027 211.032C239.78 204.915 228.178 196.498 218.222 185.781C217.18 184.379 216.194 182.938 215.265 181.458C218.623 165.109 219.533 148.654 217.994 132.094C205.098 130.192 197.743 122.761 195.928 109.8C195.144 103.654 197.039 98.5738 201.615 94.5581C202.976 94.15 204.341 93.7706 205.71 93.4207C207.052 93.8702 208.417 94.2492 209.805 94.5581C211.876 95.9699 213.848 97.4864 215.72 99.1079C217.796 102.7 220.222 106.037 222.999 109.117C224.218 109.27 225.28 108.89 226.184 107.98C232.638 99.1789 238.022 89.7759 242.336 79.7715C243.276 72.3285 243.2 64.8974 242.108 57.4777ZM275.321 227.183C275.321 228.093 275.321 229.003 275.321 229.913C276.243 229.987 277.153 229.911 278.051 229.686C282.265 225.438 286.814 221.57 291.7 218.084C296.313 222.01 301.015 225.877 305.805 229.686C307.194 230.173 308.104 229.718 308.534 228.321C306.444 220.943 304.321 213.588 302.165 206.254C319.47 212.352 336.304 219.555 352.667 227.866C355.301 229.438 357.5 231.485 359.264 234.008C359.568 234.614 359.568 235.221 359.264 235.828C354.477 245.094 350.458 254.649 347.207 264.491C342.575 263.694 338.025 262.556 333.558 261.079C329.954 260.315 326.314 259.784 322.639 259.487C317.622 259.905 312.617 260.436 307.624 261.079C304.905 261.38 302.327 262.138 299.89 263.354C297.236 265.401 294.885 267.752 292.838 270.406C290.365 273.992 287.787 277.481 285.103 280.87C277.977 291.482 270.849 302.098 263.719 312.719C261.078 315.057 258.575 317.56 256.212 320.226C254.835 319.843 253.47 319.995 252.118 320.681C234.453 331.182 216.102 340.509 197.066 348.662C195.099 325.787 190.928 303.342 184.554 281.325C182.538 275.374 180.111 269.611 177.274 264.036C176.552 262.913 175.717 262.838 174.772 263.809C174.282 264.594 174.206 265.428 174.544 266.311C180.177 278.205 184.272 290.64 186.829 303.619C190.088 318.398 192.286 333.336 193.426 348.434C193.274 349.117 193.122 349.799 192.971 350.481C184.076 348.382 175.431 349.216 167.037 352.984C166.267 354.549 166.722 355.534 168.402 355.941C174.7 353.471 181.221 352.334 187.966 352.529C179.988 357.006 172.784 362.542 166.355 369.135C165.19 371.435 165.872 372.421 168.402 372.093C173.666 365.921 179.884 360.916 187.056 357.079C201.78 350.515 216.415 343.614 230.961 336.377C230.762 340.952 231.521 345.35 233.236 349.572C235.803 355.304 239.215 360.385 243.473 364.813C248.019 368.509 253.175 371.087 258.942 372.548C244.474 388.376 228.398 402.481 210.715 414.86C201.269 421.248 190.956 425.648 179.777 428.055C167.696 430.339 157.687 426.926 149.748 417.818C148.379 415.984 147.014 414.164 145.653 412.358C141.557 404.856 137.993 397.121 134.961 389.154C124.363 357.697 117.842 325.394 115.398 292.245C114.291 276.9 115.959 261.886 120.402 247.202C123.928 238.079 129.615 230.723 137.464 225.136C156.998 215.341 176.866 206.014 197.066 197.155C204.863 211.718 214.721 224.836 226.639 236.51C227.763 236.832 228.825 236.68 229.824 236.055C235.078 230.273 240.234 224.433 245.293 218.539C247.055 217.328 249.026 216.873 251.208 217.174C251.827 214.777 250.917 213.564 248.478 213.534C246.356 213.834 244.536 214.744 243.018 216.264C238.011 221.802 232.93 227.262 227.776 232.643C217.816 222.331 209.02 210.957 201.388 198.52C200.568 196.613 200.265 194.641 200.478 192.605C202.936 186.975 205.438 181.364 207.985 175.771C209.577 174.482 211.397 173.723 213.445 173.496C213.145 174.841 212.993 176.206 212.99 177.591C210.845 177.576 210.163 178.638 210.942 180.776C211.721 181.893 212.327 183.107 212.762 184.416C223.009 197.032 235.672 206.662 250.753 213.307C256.649 219.665 262.26 226.338 267.587 233.325C267.272 233.811 267.045 234.342 266.904 234.918C266.601 237.951 266.601 240.984 266.904 244.017C268.421 255.846 269.937 267.675 271.454 279.505C271.521 280.903 271.9 282.192 272.591 283.373C274.325 283.532 275.083 282.698 274.866 280.87C273.075 266.854 271.407 252.826 269.862 238.785C269.938 237.496 270.013 236.207 270.089 234.918C271.618 232.153 273.363 229.574 275.321 227.183ZM173.407 184.416C177.098 189.215 179.979 194.523 182.051 200.34C180.744 201.069 179.379 201.676 177.957 202.16C177.015 196.081 175.498 190.166 173.407 184.416ZM275.321 227.183C278.511 221.789 281.62 216.329 284.648 210.804C285.764 204.023 286.295 197.199 286.241 190.33C287.75 190.002 289.267 189.926 290.79 190.103C292.36 191.206 293.497 192.647 294.203 194.425C297.952 203.829 300.909 213.384 303.075 223.089C300.15 220.851 297.268 218.501 294.43 216.036C292.256 214.554 290.133 214.705 288.061 216.491C284.034 220.389 279.787 223.953 275.321 227.183ZM344.477 191.24C344.724 191.268 344.876 191.419 344.932 191.695C340.205 198.898 337.171 206.784 335.833 215.354C335.605 215.505 335.378 215.657 335.15 215.809C333.544 215.149 331.952 214.542 330.373 213.989C333.222 205.232 337.923 197.65 344.477 191.24ZM374.051 204.89C369.023 213.277 364.853 222.073 361.539 231.278C360.21 229.758 358.77 228.393 357.217 227.183C356.732 226.113 356.808 225.051 357.444 223.998C361.043 215.944 366.578 209.574 374.051 204.89ZM421.823 215.809C420.396 219.882 418.956 223.977 417.501 228.093C416.256 228.598 414.966 228.674 413.634 228.321C415.271 225.927 416.711 223.424 417.956 220.814C419.034 218.95 420.323 217.281 421.823 215.809ZM385.88 259.487C387.586 259.442 389.103 259.973 390.43 261.079C396.298 266.643 401.833 272.482 407.036 278.595C407.679 280.034 408.438 281.399 409.311 282.69C410.39 288.949 411.224 295.243 411.814 301.572C411.694 302.731 411.467 303.868 411.131 304.984C410.084 306.91 408.87 308.73 407.491 310.444C407.151 313.44 406.392 316.322 405.217 319.088C402.961 321.207 400.686 323.33 398.392 325.458C396.152 330.374 393.573 335.076 390.657 339.562C388.724 341.801 386.524 343.697 384.06 345.249C380.926 346.142 377.817 347.128 374.733 348.207C374.099 349.891 374.63 350.801 376.326 350.936C383.544 350.401 389.231 347.216 393.387 341.382C393.475 344.302 392.565 346.881 390.657 349.117C381.651 356.575 372.779 356.347 364.041 348.434C360.334 342.022 358.818 335.122 359.492 327.733C363.633 330.406 367.576 333.364 371.321 336.605C373.368 336.984 374.202 336.15 373.823 334.102C366.424 328.365 358.917 322.829 351.302 317.496C349.099 315.773 347.961 313.574 347.89 310.899C349.179 308.8 350.923 308.269 353.122 309.306C358.681 312.313 364.292 315.195 369.956 317.951C374.647 320.753 379.197 323.786 383.605 327.05C384.503 327.276 385.413 327.351 386.335 327.278C386.717 324.503 385.503 322.91 382.695 322.501C379.673 320.392 376.64 318.269 373.596 316.131C366.004 312.688 358.572 308.896 351.302 304.757C349.023 303.464 347.507 301.569 346.752 299.069C347.05 298.335 347.277 297.576 347.435 296.794C349.795 294.795 352.449 294.416 355.397 295.657C368.473 300.982 381.061 307.276 393.16 314.538C394.522 313.708 394.826 312.571 394.07 311.126C389.255 308.286 384.554 305.253 379.965 302.027C372.468 298.277 364.885 294.789 357.217 291.562C355.083 290.415 353.718 288.671 353.122 286.33C354.139 282.809 356.414 281.52 359.947 282.463C369.459 286.493 379.014 290.437 388.61 294.292C393.836 296.987 398.765 300.096 403.397 303.619C404.855 303.019 405.31 301.957 404.762 300.434C402.932 299.444 401.264 298.23 399.757 296.794C399.873 291.93 398.811 287.381 396.572 283.145C391.999 277.512 387.601 271.749 383.378 265.856C382.32 262.968 383.155 260.846 385.88 259.487ZM318.999 311.354C319.942 308.639 319.487 306.213 317.634 304.074C312.633 301.725 307.629 299.375 302.62 297.022C301.447 296.453 300.234 296.301 298.98 296.567C298.285 297.878 298.588 298.939 299.89 299.752C304.833 301.995 309.837 304.118 314.904 306.121C315.599 306.871 315.903 307.781 315.814 308.851C315.077 311.821 314.243 314.778 313.312 317.723C312.526 320.632 310.63 322.224 307.624 322.501C305.051 322.728 302.472 322.804 299.89 322.728C300.175 320.616 300.327 318.494 300.345 316.358C303.181 316.791 305.987 316.791 308.762 316.358C309.137 315.357 308.91 314.523 308.079 313.856C304.158 313.19 300.214 313.038 296.25 313.401C295.996 313.731 295.844 314.11 295.795 314.538C297.363 316.783 297.591 319.209 296.478 321.818C295.146 328.42 292.189 334.107 287.606 338.88C284.924 340.481 282.043 341.543 278.961 342.064C276.418 343.253 274.219 344.845 272.364 346.842C272.144 347.273 272.069 347.728 272.136 348.207C268.179 346.756 264.918 344.329 262.354 340.927C258.83 336.007 256.859 330.547 256.44 324.548C260.372 320.767 264.163 316.824 267.814 312.719C273.425 304.226 279.037 295.733 284.648 287.24C289.313 280.752 294.166 274.382 299.207 268.131C300.327 267.468 301.313 266.634 302.165 265.629C310.842 263.457 319.638 262.699 328.553 263.354C334.25 264.657 339.861 266.249 345.387 268.131C344.385 270.533 343.475 272.96 342.657 275.411C337.07 273.936 331.383 273.026 325.596 272.681C321.581 272.718 317.713 273.476 313.994 274.956C312.326 274.273 310.658 273.591 308.989 272.908C305.95 272.148 305.192 273.058 306.714 275.638C312.436 278.001 318.199 280.276 324.004 282.463C325.217 283.221 326.43 283.979 327.643 284.738C329.346 286.775 329.877 289.126 329.236 291.79C328.76 293.98 327.85 295.952 326.506 297.704C326.354 296.946 326.202 296.188 326.051 295.43C324.309 293.458 322.262 291.865 319.909 290.652C314.888 288.374 309.883 286.099 304.895 283.828C302.542 283.418 301.783 284.328 302.62 286.558C308.286 289.011 313.897 291.59 319.454 294.292C320.89 295.273 322.179 296.411 323.321 297.704C323.281 302.727 321.84 307.277 318.999 311.354ZM252.118 324.548C252.612 324.603 252.915 324.906 253.027 325.458C254.482 338.032 260.852 346.904 272.136 352.074C273.501 352.225 274.866 352.377 276.231 352.529C271.13 358.159 266.125 363.846 261.217 369.59C254.165 368.054 248.174 364.718 243.245 359.581C239.807 354.828 237.077 349.672 235.056 344.112C234.429 341.101 234.277 338.068 234.601 335.012C236.834 333.251 239.184 331.659 241.653 330.235C245.194 328.377 248.682 326.482 252.118 324.548ZM352.667 327.733C353.77 327.593 354.831 327.745 355.852 328.188C355.403 330.91 355.478 333.64 356.079 336.377C356.823 338.292 357.354 340.264 357.672 342.292C353.421 357.664 352.208 373.285 354.032 389.154C354.98 389.496 355.89 389.496 356.762 389.154C356.824 382.342 356.9 375.517 356.989 368.68C363.532 376.478 371.949 379.738 382.24 378.462C393.338 376.453 400.694 370.159 404.307 359.581C407.926 373.556 406.713 387.052 400.667 400.074C393.124 411.507 382.583 415.679 369.046 412.586C360.946 409.255 354.349 404.023 349.255 396.889C350.627 373.86 351.764 350.808 352.667 327.733ZM397.254 340.927C398.606 343.71 399.896 346.591 401.122 349.572C401.936 353.285 401.632 356.924 400.212 360.491C398.333 365.703 394.996 369.646 390.202 372.32C388.232 373.343 386.185 374.177 384.06 374.823C374.543 376.729 366.505 374.227 359.947 367.316C358.731 365.567 357.821 363.671 357.217 361.628C357.83 357.113 358.664 352.639 359.719 348.207C369.385 359.337 380.304 360.702 392.477 352.301C395.328 349.027 396.921 345.236 397.254 340.927Z" fill="#010101"/>
<path fill-rule="evenodd" clip-rule="evenodd" d="M452.305 16.5293C454.155 17.9229 455.671 19.5908 456.854 21.534C454.867 20.0158 453.35 18.3478 452.305 16.5293Z" fill="#039CE8"/>
<path fill-rule="evenodd" clip-rule="evenodd" d="M412.272 15.1641C410.471 16.8279 408.651 18.4963 406.812 20.1688C408.058 17.8771 409.878 16.2087 412.272 15.1641Z" fill="#0698E4"/>
<path fill-rule="evenodd" clip-rule="evenodd" d="M406.812 20.1699C405.708 21.9225 404.495 23.5909 403.172 25.1746C403.83 23.0995 405.043 21.4311 406.812 20.1699Z" fill="#059BE9"/>
<path fill-rule="evenodd" clip-rule="evenodd" d="M403.168 25.1719C402.813 26.5573 402.206 27.7702 401.348 28.8117C401.481 27.3312 402.088 26.1178 403.168 25.1719Z" fill="#0795DB"/>
<path fill-rule="evenodd" clip-rule="evenodd" d="M456.859 21.5352C459.595 24.1226 461.263 27.3074 461.864 31.0896C460.457 27.787 458.789 24.6021 456.859 21.5352Z" fill="#0794E0"/>
<path fill-rule="evenodd" clip-rule="evenodd" d="M476.419 31.9981C472.011 30.8483 467.613 30.8483 463.225 31.9981C462.948 31.9416 462.797 31.7901 462.77 31.5431C467.419 29.705 471.969 29.8565 476.419 31.9981Z" fill="#0896E4"/>
<path fill-rule="evenodd" clip-rule="evenodd" d="M401.349 28.8125C400.311 31.9077 399.628 35.0925 399.302 38.367C399.091 39.018 398.711 39.5485 398.165 39.9594C392.995 39.5267 388.142 40.5122 383.605 42.9167C387.9 39.7947 392.753 38.5057 398.165 39.0494C398.641 35.4224 399.703 32.0101 401.349 28.8125Z" fill="#0792E8"/>
<path fill-rule="evenodd" clip-rule="evenodd" d="M476.422 31.998C484.401 35.0527 489.178 40.8159 490.754 49.2871C491.4 54.1653 490.566 58.7151 488.251 62.9363C492.914 49.2261 488.971 38.9132 476.422 31.998Z" fill="#0694E4"/>
<path fill-rule="evenodd" clip-rule="evenodd" d="M383.604 42.9199C381.633 44.5883 379.813 46.4082 378.145 48.3796C379.206 45.8013 381.026 43.9814 383.604 42.9199Z" fill="#0594DE"/>
<path fill-rule="evenodd" clip-rule="evenodd" d="M378.148 48.377C377.663 49.9603 377.056 51.1732 376.328 52.0168C376.462 50.5363 377.068 49.3228 378.148 48.377Z" fill="#0AA0E9"/>
<path fill-rule="evenodd" clip-rule="evenodd" d="M375.874 52.9277C375.989 54.9647 376.065 57.0876 376.102 59.2974C376.279 61.3702 376.809 63.3421 377.694 65.2121C377.638 65.4882 377.486 65.6397 377.239 65.667C375.429 61.5836 374.974 57.3374 375.874 52.9277Z" fill="#049FED"/>
<path fill-rule="evenodd" clip-rule="evenodd" d="M479.608 72.4922C477.506 74.1451 475.079 75.0551 472.328 75.222C472.379 74.9413 472.53 74.7138 472.783 74.5396C475.14 74.1187 477.415 73.4363 479.608 72.4922Z" fill="#079AE7"/>
<path fill-rule="evenodd" clip-rule="evenodd" d="M379.059 68.3965C381.92 71.5003 385.408 73.6997 389.523 74.9936C416.898 75.0696 444.196 75.2971 471.418 75.6761C444.585 76.1998 417.741 76.2757 390.888 75.9036C385.791 75.1055 381.848 72.6032 379.059 68.3965Z" fill="#0980D6"/>
<path opacity="0.778" fill-rule="evenodd" clip-rule="evenodd" d="M261.219 89.78C265.488 89.6363 269.735 89.8638 273.958 90.4625C275.377 90.9443 276.742 91.5508 278.053 92.2824C280.673 94.5254 280.446 96.2693 277.371 97.5146C275.627 96.8321 273.882 96.1497 272.138 95.4672C266.205 95.2734 260.291 95.4249 254.394 95.9222C253.746 94.6888 253.897 93.5513 254.849 92.5099C256.829 91.1463 258.952 90.2364 261.219 89.78Z" fill="black"/>
<path opacity="0.792" fill-rule="evenodd" clip-rule="evenodd" d="M312.172 90.6921C315.877 90.4905 319.138 91.552 321.954 93.8769C323.154 95.9261 322.699 97.443 320.589 98.4267C319.211 98.0695 317.922 97.539 316.722 96.8343C315.281 96.7583 313.84 96.6827 312.399 96.6068C309.359 96.6163 306.402 96.9953 303.527 97.7442C302.298 96.1363 302.45 94.6199 303.982 93.1945C306.617 91.8341 309.347 91.0001 312.172 90.6921Z" fill="black"/>
<path opacity="0.804" fill-rule="evenodd" clip-rule="evenodd" d="M428.645 90.6886C443.257 90.1594 455.769 94.8612 466.18 104.793C466.84 107.243 466.006 108.001 463.678 107.068C455.022 98.3868 444.481 94.14 432.057 94.3284C419.347 94.0845 408.655 98.4828 399.982 107.523C397.725 108.07 396.891 107.16 397.479 104.793C406.206 96.4486 416.595 91.7473 428.645 90.6886Z" fill="#000103"/>
<path opacity="0.702" fill-rule="evenodd" clip-rule="evenodd" d="M203.89 100.244C213.085 101.495 216.118 106.5 212.989 115.258C213.764 117.616 214.825 119.816 216.174 121.855C215.102 123.844 213.813 123.92 212.307 122.083C211.364 120.678 210.606 119.162 210.032 117.533C209.728 115.865 209.728 114.197 210.032 112.528C210.763 111.231 211.066 109.866 210.942 108.434C209.287 105.563 206.86 103.743 203.662 102.974C203.354 102.019 203.43 101.11 203.89 100.244Z" fill="#010101"/>
<path opacity="0.85" fill-rule="evenodd" clip-rule="evenodd" d="M427.284 104.339C437.776 103.616 447.027 106.573 455.038 113.211C457.197 115.556 456.743 116.769 453.673 116.851C442.283 106.452 429.696 104.935 415.91 112.301C414.104 113.801 412.284 115.317 410.45 116.851C408.251 117.381 407.417 116.547 407.948 114.349C413.557 109.383 420.003 106.046 427.284 104.339Z" fill="#010306"/>
<path opacity="0.821" fill-rule="evenodd" clip-rule="evenodd" d="M266.223 107.525C270.035 107.532 271.855 109.427 271.683 113.213C271.886 116.677 270.294 118.724 266.905 119.355C262.346 117.154 261.361 113.818 263.948 109.345C264.726 108.714 265.484 108.107 266.223 107.525Z" fill="black"/>
<path opacity="0.732" fill-rule="evenodd" clip-rule="evenodd" d="M294.433 108.435C295.083 108.399 295.69 108.55 296.253 108.89C297.299 117.107 299.497 124.993 302.85 132.549C304.098 140.208 300.837 143.848 293.068 143.468C291.065 143.475 289.094 143.247 287.153 142.785C286.733 141.857 286.582 140.871 286.698 139.828C289.587 139.974 292.468 140.05 295.343 140.056C297.342 140.083 298.783 139.248 299.665 137.553C299.942 135.853 299.791 134.185 299.21 132.549C297.292 127.799 295.624 122.946 294.205 117.989C293.313 114.7 293.389 111.515 294.433 108.435Z" fill="#010101"/>
<path opacity="0.836" fill-rule="evenodd" clip-rule="evenodd" d="M307.625 108.889C312.714 108.597 314.914 111.023 314.223 116.168C313.456 119.516 311.408 120.805 308.08 120.036C305.436 117.851 304.603 115.045 305.578 111.619C306.184 110.636 306.866 109.726 307.625 108.889Z" fill="black"/>
<path opacity="0.852" fill-rule="evenodd" clip-rule="evenodd" d="M427.736 118.443C434.701 117.327 440.692 119.147 445.707 123.903C446.086 125.95 445.252 126.784 443.205 126.405C437.92 121.361 431.853 120.299 425.006 123.221C423.554 124.445 422.037 125.583 420.456 126.633C419.092 126.176 418.561 125.266 418.864 123.903C421.386 121.318 424.343 119.498 427.736 118.443Z" fill="#010205"/>
<path opacity="0.934" fill-rule="evenodd" clip-rule="evenodd" d="M430.471 130.726C436.841 130.65 439.192 133.684 437.523 139.825C433.739 144.152 430.099 144 426.603 139.371C425.415 135.378 426.704 132.496 430.471 130.726Z" fill="#03070F"/>
<path fill-rule="evenodd" clip-rule="evenodd" d="M434.564 134.368C430.155 133.09 428.563 134.607 429.786 138.918C430.357 139.241 430.888 139.62 431.379 140.055C432.439 139.984 433.501 139.756 434.564 139.373C432.874 141.18 431.13 141.18 429.331 139.373C427.535 135.268 428.824 133.221 433.199 133.231C433.855 133.402 434.31 133.781 434.564 134.368Z" fill="#0798E9"/>
<path fill-rule="evenodd" clip-rule="evenodd" d="M434.563 134.368C434.772 135.301 435.076 136.211 435.473 137.098C435.038 137.814 434.734 138.573 434.563 139.373C433.5 139.756 432.438 139.984 431.378 140.055C430.887 139.62 430.356 139.241 429.785 138.918C428.562 134.607 430.154 133.09 434.563 134.368Z" fill="#0087FD"/>
<path fill-rule="evenodd" clip-rule="evenodd" d="M434.562 134.369C435.57 134.775 436.025 135.533 435.927 136.644C435.942 137.828 435.487 138.738 434.562 139.374C434.734 138.574 435.037 137.816 435.472 137.099C435.076 136.212 434.772 135.302 434.562 134.369Z" fill="#0598EB"/>
<path opacity="0.736" fill-rule="evenodd" clip-rule="evenodd" d="M270.316 150.29C271.089 150.218 271.847 150.293 272.591 150.518C280.557 154.31 288.898 155.296 297.614 153.475C299.333 153.476 299.788 154.235 298.979 155.75C298.449 156.243 297.843 156.622 297.159 156.888C287.966 158.666 279.17 157.529 270.771 153.475C269.749 152.535 269.597 151.473 270.316 150.29Z" fill="#020202"/>
<path opacity="0.741" fill-rule="evenodd" clip-rule="evenodd" d="M466.408 211.715C468.46 211.883 469.143 212.944 468.455 214.9C466.943 215.957 465.578 217.17 464.36 218.539C451.432 235.319 443.545 254.276 440.702 275.411C449.099 259.279 461.308 246.919 477.327 238.331C479.678 237.648 480.512 238.482 479.829 240.833C476.374 243.225 473.341 246.107 470.73 249.478C459.731 264.316 453.21 280.998 451.166 299.525C454.284 291.265 458.53 283.683 463.905 276.776C467.025 273.905 470.135 271.099 473.232 268.359C474.573 267.992 475.786 267.386 476.872 266.539C477.923 266.313 478.985 266.238 480.057 266.312C480.131 267.234 480.055 268.144 479.829 269.042C476.254 270.565 472.993 272.613 470.047 275.184C460.065 286.352 453.544 299.394 450.484 314.312C449.792 315.427 448.882 315.655 447.754 314.994C446.352 291.301 452.419 269.765 465.953 250.388C465.877 250.236 465.801 250.084 465.725 249.933C461.85 252.858 458.362 256.194 455.261 259.942C448.243 268.521 442.632 277.924 438.427 288.151C437.517 288.757 436.607 288.757 435.697 288.151C436.746 267.107 442.509 247.543 452.986 229.459C453.289 229.004 453.289 228.549 452.986 228.094C439.062 246.088 429.356 266.258 423.867 288.606C422.564 289.328 421.578 289.024 420.91 287.696C421.993 281.393 423.434 275.175 425.232 269.042C426.661 250.119 431.817 232.375 440.702 215.81C441.67 214.464 442.883 214.161 444.341 214.9C444.645 215.658 444.645 216.416 444.341 217.175C439.965 223.914 436.629 231.194 434.332 239.013C432.822 244.578 431.457 250.189 430.237 255.847C429.934 257.212 429.934 258.577 430.237 259.942C436.531 244.106 445.706 230.23 457.763 218.312C460.495 215.888 463.376 213.689 466.408 211.715Z" fill="#010101"/>
</svg>
