<?xml version="1.0" encoding="utf-8" ?><svg xmlns="http://www.w3.org/2000/svg" xmlns:xlink="http://www.w3.org/1999/xlink" width="605" height="436" viewBox="0 0 605 436"><path d="M412.435 42.612C412.979 42.57 413.525 42.5479 414.071 42.5459L472.526 42.477L489.863 42.4746C495.82 42.4744 501.786 42.145 507.629 43.519C510.489 44.1916 513.967 46.7642 516.008 48.7957C521.322 54.0831 522.817 60.343 522.857 67.5673L522.857 111.83C522.853 118.309 523.53 129.061 522.314 134.989C521.518 138.876 519.007 143.038 516.216 145.82C510.456 151.561 504.114 152.474 496.367 152.416C496.626 152.991 496.734 153.563 496.767 154.191C497.097 160.522 496.713 167.055 496.682 173.41L496.644 210.023L496.686 273.202C496.674 282.23 496.887 291.313 496.675 300.335C496.631 302.173 496.426 303.823 495.862 305.574C494.405 310.098 490.892 315.754 486.558 317.998C491.559 319.403 497.3 323.36 501.128 326.844C508.477 333.533 513.318 342.589 513.738 352.615C513.827 354.755 513.754 356.898 513.518 359.027C513.161 362.222 510.65 375.935 509.247 377.462C513.855 377.524 520.667 376.8 524.979 377.613C526.093 377.824 526.731 378.079 527.372 379.004C527.294 379.765 527.263 379.782 526.734 380.34C522.623 381.587 513.238 380.771 508.575 380.798C508.984 382.271 501.823 416.83 500.697 419.972C496.076 420.848 490.877 420.416 486.166 420.397C475.673 420.354 465.185 420.004 454.691 420.093L353.716 420.095L318.925 420.121C312.071 420.137 305.1 420.435 298.261 419.982L297.825 419.357C297.459 416.895 298.628 413.31 299.12 410.815C301.747 397.768 304.515 384.749 307.424 371.761C309.184 363.785 310.215 354.983 313.698 347.569C317.673 339.107 324.411 331.183 332.2 325.99C338.4 321.856 345.67 318.52 353.069 317.331C361.821 315.924 371.125 316.527 379.98 316.523L421.907 316.517L458.647 316.511C466.908 316.509 475.734 315.814 483.86 317.418C484.415 315.751 479.281 298.778 478.419 296.269C477.8 294.51 477.072 292.791 476.239 291.122C467.008 272.592 450.016 263.302 431.006 256.933C425.959 255.242 420.682 253.828 415.397 253.136C408.064 252.176 400.477 252.486 393.089 252.491C383.131 252.498 373.13 252.421 363.192 253.081C341.425 254.527 319.765 257.183 299.975 267.004C276.521 278.643 270.564 289.208 256.401 310.033L234.423 342.251C231.31 346.751 226.107 356.004 222.207 359.07C220.729 360.232 218.724 360.965 217.045 361.809C208.937 365.885 202.855 373.76 200.049 382.277C198.975 386.193 198.805 390.302 199.553 394.294C201.041 401.732 205.452 408.262 211.798 412.419C216.552 415.556 221.883 416.835 227.544 416.835C243.201 416.835 250.789 407.412 259.329 396.167C262.339 392.203 265.468 388.327 268.492 384.371L291.13 354.812C292.785 352.661 296.718 346.42 299.333 345.889C300.126 346.023 300.082 346.008 300.559 346.659C300.622 347.357 300.629 348.017 300.311 348.661C299.477 350.354 297.631 352.121 296.434 353.644C293.342 357.577 281.927 371.426 280.34 375.112C279.259 377.62 279.546 381.213 279.394 383.911C279.194 387.475 278.854 391.029 278.692 394.596C278.496 398.927 278.615 416.122 277.17 419.242C276.841 419.954 276.603 420.112 275.877 420.343C275.548 420.197 275.212 420.067 274.969 419.79C274.641 419.416 274.488 418.893 274.454 418.406C274.169 414.347 274.91 409.804 275.1 405.683C275.497 397.042 275.549 388.455 276.316 379.825L264.287 395.521C256.827 405.22 249.296 416.058 236.676 419.221C228.736 421.211 218.077 420.461 211.081 416.143C203.86 411.685 197.936 403.469 195.984 395.263C189.352 390.729 183.097 385.864 176.702 381.012L112.36 380.983L91.0669 380.989C88.1976 380.993 85.088 381.337 82.2531 381.073C81.1842 380.974 79.6908 380.629 79.0283 379.696C78.6407 379.151 78.7031 379.04 78.8303 378.43C79.3778 377.949 79.8509 377.728 80.5799 377.626C84.5189 377.077 88.9789 377.448 92.9678 377.447L118.159 377.487L118.191 357.283C124.306 357.006 130.71 357.584 136.852 357.685C139 357.721 141.316 357.923 143.436 357.632C145.216 357.387 145.801 354.1 146.944 352.638C149.637 349.195 153.252 348.398 157.342 347.865C160.915 344.881 163.582 344.344 167.706 342.606C169.494 341.853 171.176 340.85 173.009 340.202C174.581 339.647 176.308 339.431 177.847 338.806C178.832 338.406 179.721 337.472 180.762 337.309C185.279 336.6 196.562 336.778 201.459 336.987C206.844 337.216 210.495 341.421 213.971 345.158C214.954 336.926 216.712 326.525 218.521 318.427L217.526 318.444C192.511 318.826 167.441 318.449 142.42 318.464L118.828 318.496C114.371 318.501 109.625 318.85 105.216 318.205C101.438 317.651 97.6452 315.933 94.9111 313.246C90.7296 309.138 89.2474 304.559 89.2039 298.803L89.241 153.293L89.2388 108.251C89.2248 100.887 88.5905 91.7066 89.4707 84.5042C89.9427 80.6427 91.5219 77.1624 94.2834 74.3929C96.6593 72.01 100.342 69.7604 103.723 69.3277C106.89 68.9224 110.283 69.1438 113.479 69.138L130.696 69.1182L189.201 69.1081L392.547 69.0546C392.348 62.7275 392.956 56.599 396.836 51.3381C400.62 46.2085 406.26 43.5426 412.435 42.612ZM92.4753 295.082C106.357 294.697 120.324 295.092 134.214 295.074L204.718 295.003C216.416 295.119 228.115 295.152 239.813 295.101C247.484 295.096 255.513 295.479 263.104 294.37C273.301 275.477 295.799 262.988 315.673 257.086C316.952 256.706 318.254 256.334 319.566 256.091C320.939 250.335 323.562 245.932 328.683 242.764C330.573 241.594 332.686 240.618 334.786 239.886C334.515 234.604 334.35 229.318 334.292 224.029C327.498 225.239 319.284 226.403 312.918 223.138C308.277 220.334 305.507 216.424 304.191 211.159C302.136 202.942 302.845 194.228 301.804 185.889C299.716 184.396 296.471 182.556 296.024 179.814C295.059 173.895 301.348 168.839 303.234 163.66C304.309 160.709 304.807 157.403 305.456 154.333C307.041 146.84 308.292 139.039 310.257 131.645C306.657 128.608 304.613 125.053 304.214 120.305C303.789 115.252 305.655 110.34 308.908 106.503C313.855 100.669 321.167 98.145 328.601 97.5867C343.835 96.4425 379.228 95.9938 392.563 101.945C392.463 92.092 392.461 82.2386 392.558 72.386L192.329 72.3872L135.261 72.3808C125.064 72.3791 114.722 72.0029 104.547 72.4954C100.359 73.6731 96.5137 76.0849 94.3474 79.9695C93.1445 82.1267 92.7496 84.4946 92.5955 86.9346C92.1869 93.4068 92.5024 100.084 92.5056 106.576L92.5247 143.884L92.5267 242.959C92.5271 260.303 92.9064 277.747 92.4753 295.082ZM423.011 152.482C423.038 166.25 414.558 188.275 405.434 198.717C400.905 203.9 394.828 208.7 391.338 214.649C391.485 220.154 391.749 225.655 392.131 231.148C399.323 231.374 404.841 231.561 410.112 237.106C413.582 240.757 415.607 245.167 417.443 249.782C438.894 254.511 463.185 263.54 475.554 282.925C479.532 289.159 481.949 295.619 483.928 302.73C484.184 303.65 484.92 305.571 484.726 306.484C484.706 306.579 484.679 306.672 484.655 306.766C485.607 307.923 486.409 311.017 486.325 312.565C486.304 312.961 486.16 313.345 485.998 313.702C489.483 311.668 491.854 307.485 492.862 303.675C494.021 299.297 493.335 291.762 493.336 287.025L493.336 257.808L493.343 191.222C493.348 178.955 493.61 166.592 493.263 154.335C493.242 153.602 493.188 153.061 492.829 152.417C487.218 152.479 472.897 151.72 468.325 152.707C465.115 153.4 461.669 155.891 458.792 157.493C451.342 161.64 443.753 166.496 435.96 169.912C435.836 164.1 435.792 158.286 435.825 152.473C431.558 152.451 427.276 152.356 423.011 152.482ZM337.981 238.812C352.391 234.189 373.716 230.846 388.835 231.294C388.541 228.224 388.459 225.16 388.234 222.089C388.12 219.862 388.082 217.599 387.781 215.388C379.617 215.427 365.307 216.436 359.112 210.365C355.781 207.1 353.217 202.819 350.606 198.974L341.314 185.204C339.826 186.996 337.993 188.494 335.593 188.789C334.101 188.972 332.517 188.646 331.381 187.613C330.655 186.953 330.587 186.448 330.568 185.54C331.035 185.011 331.3 184.735 332.054 184.75C332.942 184.769 334.075 185.482 334.859 185.894C339.949 183.028 341.832 177.832 343.325 172.447C344.617 167.784 345.9 159.401 343.481 154.939C342.717 153.528 341.499 152.499 339.944 152.075C338.816 151.767 337.621 151.786 336.607 152.421C332.901 154.741 331.733 161.076 329.986 164.813C327.895 164.54 323.999 164.5 322.387 163.094C320.294 159.131 321.174 139.213 321.446 133.828C318.688 133.758 315.931 133.732 313.19 133.396C312.171 140.356 308.265 160.406 305.865 166.057C304.897 168.338 303.233 170.566 301.926 172.687C300.717 174.649 298.509 178.024 300.297 180.219C301.729 181.979 304.093 182.75 305.065 184.922C305.929 186.854 305.51 190.039 305.567 192.144C305.663 195.641 305.993 199.132 306.346 202.611C307.357 212.564 309.915 221.098 321.398 221.722C325.749 221.958 330.223 220.564 334.076 220.794C334.941 220.846 336.05 221.029 336.642 221.737C338.798 224.315 337.936 235.213 337.981 238.812ZM413.827 249.633C411.159 243.812 407.97 237.944 401.577 235.621C396.973 233.949 386.532 234.639 381.473 234.957C368.662 235.967 335 239.124 326.698 248.898C325.09 250.792 324.088 252.995 323.058 255.23C332.578 252.643 342.09 251.258 351.905 250.404C365.058 249.187 378.213 248.953 391.413 248.867C398.726 248.82 406.6 248.443 413.827 249.633ZM230.218 342.23C233.992 336.794 237.718 331.326 241.397 325.825C243.049 323.371 244.572 320.681 246.423 318.385C241.418 318.579 236.398 318.495 231.39 318.478C228.178 318.468 224.814 318.646 221.626 318.299C221.592 321.735 220.716 325.308 220.128 328.695C219.037 334.983 217.87 341.27 216.944 347.584C218.927 349.36 221.062 351.244 222.676 353.367L230.218 342.23ZM172.35 377.49C171.104 375.625 157.992 364.249 155.753 362.763C154.705 362.068 153.66 361.65 152.432 361.397C147.856 360.452 130.763 360.755 125.473 361.05C128.411 363.244 150.344 376.973 152.479 377.295C158.897 378.261 165.839 376.935 172.35 377.49ZM121.855 377.462C129.314 377.434 136.921 377.109 144.367 377.522L144.567 377.119C143.104 376.005 122.44 363.559 121.716 363.381C122.145 367.97 121.88 372.834 121.855 377.462ZM184.043 340.459C183.325 340.502 182.186 340.367 181.68 340.863C183.204 342.807 187.652 344.573 187.619 347.282C186.966 347.818 186.365 348.091 185.48 347.952C180.97 347.245 181.313 339.933 171.096 344.386C172.963 345.404 178.999 349.599 179.729 351.625C180.006 352.394 179.755 352.735 179.422 353.399C178.929 353.697 178.816 353.86 178.225 353.694C172.163 351.984 171.377 343.983 163.006 348.079C162.345 348.406 161.694 348.751 161.051 349.112C162.823 349.95 172.614 357.402 173.11 359.051C173.239 359.48 173.058 359.816 172.94 360.233C172.391 360.712 172.144 360.969 171.38 360.872C166.54 360.258 160.503 347.457 151.979 352.994C150.746 353.795 149.674 354.942 148.597 355.942C155.656 355.956 158.717 360.995 163.843 364.805C170.636 371.097 177.653 377.142 184.881 382.929C188.449 385.756 192.498 388.279 195.865 391.319C195.702 381.484 198.66 373.493 205.551 366.369C210.02 361.75 215.173 359.081 220.577 355.785C215.016 350.661 209.509 345.201 203.515 340.588C197.175 339.971 190.384 339.853 184.043 340.459ZM221.888 298.428C212.993 298.845 203.937 298.47 195.021 298.469L142.07 298.471L109.285 298.497C103.768 298.503 97.8437 298.957 92.3898 298.29C93.0532 303.724 94.0701 308.216 98.6354 311.762C101.202 313.756 103.872 314.519 107.073 314.841C113.36 315.473 119.968 315.062 126.293 315.046L159.028 315.043L200.015 314.97C206.173 314.94 212.563 315.383 218.682 314.876C219.312 314.311 219.246 313.947 219.395 313.131C220.216 308.231 220.995 303.316 221.888 298.428Z"/><path d="M277.198 89.3554C280.101 89.3329 282.939 89.7141 285.091 91.8505C286.733 93.4812 287.454 95.6198 287.753 97.8694C288.155 100.892 287.882 104.187 287.861 107.238C287.849 111.641 287.869 116.044 287.921 120.447L288.046 181.019C288.052 185.893 289.123 193.368 285.391 197.031C283.908 198.486 282.203 199.481 280.117 199.725C274.371 200.398 268.187 199.982 262.389 199.98L230.142 199.964L121.044 199.975C118.035 200.04 115.153 199.52 112.875 197.401C110.798 195.469 109.936 192.729 109.869 189.952C109.722 183.93 109.931 177.836 109.933 171.805L109.942 131.236L109.942 109.681C109.938 105.679 109.657 101.424 110.146 97.4502C110.431 95.1388 110.984 93.7608 112.633 92.0776C114.046 90.6355 115.71 89.7765 117.723 89.5465C123.158 88.9256 129.024 89.3623 134.509 89.3669L166.764 89.397L277.198 89.3554ZM280.105 196.432C281.926 195.714 283.13 194.915 283.938 193.034C284.545 191.621 284.784 190.17 284.841 188.641C285.031 183.512 284.706 178.302 284.672 173.163L284.713 145.257C284.724 138.009 284.676 130.753 284.79 123.506C284.899 116.532 285.2 109.508 284.932 102.537C284.848 100.343 284.637 97.8316 283.758 95.7902C283.276 94.6708 282.106 93.5184 280.982 93.0513C279.552 92.4576 277.346 92.6462 275.789 92.6305C241.781 92.2885 207.72 92.6749 173.707 92.6867L137.206 92.6918C130.726 92.6849 124.035 92.3408 117.577 92.7738C115.74 93.789 114.136 94.8413 113.514 96.9781C112.337 101.022 113.02 107.394 113.031 111.721L113.059 132.758L113.009 164.072C112.955 171.768 112.685 179.502 112.991 187.193C113.076 189.347 113.145 192.217 114.159 194.171C114.686 195.186 116.251 196.065 117.328 196.315C121.316 197.24 132.203 196.658 136.887 196.653L180.574 196.623L246.849 196.623L267.295 196.638C271.535 196.64 275.881 196.811 280.105 196.432Z"/><path d="M159.532 110.294C161.39 110.179 163.306 110.015 165.164 110.195C176.258 111.267 173.783 126.287 176.175 134.045C177.082 136.988 178.512 139.123 180.427 141.479C179.105 143.862 177.827 145.034 175.45 146.361C175.538 149.945 175.494 153.811 172.947 156.639C170.959 158.845 168.344 159.596 165.475 159.769C165.491 161.175 165.456 162.586 165.443 163.992C166.312 164.146 167.173 164.341 168.024 164.578C173.293 166.059 177.977 169.99 180.581 174.779C181.825 177.065 183.269 180.829 182.484 183.442C181.997 183.987 181.919 184.022 181.212 184.215C179.146 183.178 178.98 179.844 178.15 177.799C176.028 172.57 171.784 169.773 166.806 167.616C160.694 168.434 155.92 168.512 149.897 166.836C148.338 166.439 146.771 165.981 145.193 165.673C140.95 164.844 137.251 166.052 133.769 168.51C129.741 171.354 127.268 175.056 126.409 179.88C126.143 181.373 125.96 183.382 124.627 184.312C124.077 184.284 123.921 184.32 123.482 183.991C122.898 183.552 122.647 183.16 122.567 182.427C122.151 178.585 124.805 173.092 127.107 170.177C131.238 164.945 136.782 162.53 143.261 161.787L144.016 157.074C140.429 150.33 134.9 145.162 133.837 137.186C133.016 131.428 134.566 125.583 138.131 120.987C143.204 114.561 151.586 111.202 159.532 110.294ZM146.355 162.085C150.486 163.865 154.487 164.634 158.935 165.069C159.967 165.104 160.999 165.285 161.877 164.658C162.689 163.432 162.366 161.334 162.382 159.871C159.355 159.15 156.641 157.599 154.892 154.919C154.575 154.432 154.409 154.047 154.43 153.453C154.813 152.962 155.262 152.637 155.928 152.59C157.339 152.49 163.938 160.228 169.378 155.262C171.619 153.216 172.133 150.118 172.167 147.23C172.177 146.094 172.177 144.959 172.167 143.824C173.682 143.242 175.21 142.688 176.657 141.947C172.707 137.367 172.136 132.026 171.101 126.304C168.5 125.615 166.378 125.4 163.701 125.564C162.769 125.948 161.9 126.314 161.181 127.051C158.124 130.187 156.164 137.593 153.761 141.673C152.99 139.526 152.178 136.446 149.948 135.409C149.429 135.168 149.107 135.253 148.551 135.296C147.801 135.782 147.435 136.237 147.254 137.134C146.987 138.456 147.377 139.927 148.155 141.014C149.08 142.304 150.449 143.189 152.028 143.397C152.488 143.457 152.954 143.472 153.417 143.482C151.47 149.845 148.116 155.717 146.355 162.085ZM146.181 153.742C146.816 151.099 148.26 148.784 148.982 146.213C146.525 144.464 144.713 142.595 144.177 139.514C143.82 137.47 144.184 135.166 145.446 133.479C146.172 132.507 147.19 131.799 148.416 131.671C150.425 131.461 152.036 132.688 153.482 133.901C157.514 131.785 152.589 120.187 170.969 122.446C170.473 119.691 170.075 116.056 167.522 114.375C165.481 113.031 162.341 113.295 159.99 113.527C152.751 114.437 145.216 117.582 140.648 123.461C137.738 127.137 136.48 131.855 137.174 136.493C138.108 143.165 142.583 148.321 146.181 153.742Z"/><path d="M205.65 153.725C215.813 153.318 226.106 153.638 236.286 153.624C243.141 153.614 250.529 153.069 257.325 153.824C259.23 154.035 261.184 154.423 262.752 155.587C264.778 157.092 265.991 159.568 266.289 162.043C266.605 164.663 265.999 167.325 264.324 169.393C262.748 171.339 260.763 172.574 258.262 172.859C248.359 173.418 238.218 172.932 228.29 172.931C221.163 172.93 212.251 173.493 205.324 172.799C203.881 172.654 202.783 172.267 201.568 171.483C199.361 170.061 197.814 167.816 197.271 165.247C196.756 162.749 197.15 159.97 198.597 157.84C200.268 155.38 202.822 154.257 205.65 153.725ZM232.223 169.808C238.374 169.605 252.848 170.488 257.887 169.314C259.001 169.054 260.059 168.444 260.886 167.658C262.085 166.52 262.665 165.18 262.706 163.532C262.75 161.763 262.119 160.061 260.827 158.831C260.046 158.079 259.077 157.55 258.023 157.296C254.659 156.459 250.365 156.936 246.907 156.951C242.033 156.97 237.16 156.965 232.286 156.934C226.625 156.927 209.894 156.28 205.242 157.302C204.009 157.574 202.941 158.153 202.072 159.074C200.999 160.21 200.299 161.834 200.339 163.409C200.385 165.192 201.323 166.979 202.625 168.169C203.62 169.078 204.785 169.436 206.08 169.653C209.354 170.2 212.997 169.908 216.318 169.894L232.223 169.808Z"/><path fill="#0882FE" fill-opacity="0.98823529" d="M232.223 169.808L216.318 169.894C212.997 169.908 209.354 170.2 206.08 169.653C204.785 169.436 203.62 169.078 202.625 168.169C201.323 166.979 200.385 165.192 200.339 163.409C200.299 161.834 200.999 160.21 202.072 159.074C202.941 158.153 204.009 157.574 205.242 157.302C209.894 156.28 226.625 156.927 232.286 156.934C232.269 161.216 232.351 165.53 232.223 169.808Z"/><path d="M197.645 115.28C201.481 114.69 205.821 115.111 209.715 115.115L233.202 115.093L254.754 115.078C258.078 115.077 261.848 114.739 265.133 115.195C265.887 115.3 266.025 115.487 266.455 116.096C266.533 116.96 266.382 117.444 266.004 118.219C265.659 118.283 265.333 118.339 264.983 118.368C261.553 118.66 257.996 118.474 254.55 118.467L236.711 118.461L212.013 118.478C207.918 118.479 203.736 118.657 199.65 118.463C198.848 118.425 198.382 118.311 197.776 117.782C197.381 116.859 197.49 116.256 197.645 115.28Z"/><path d="M198.709 130.993C204.461 130.759 244.238 130.482 246.542 131.269C246.961 131.792 247.204 132.103 247.113 132.809C246.998 133.702 246.689 133.912 246.017 134.4L215.162 134.371C210.649 134.372 206.049 134.698 201.548 134.497C200.594 134.454 199.165 134.394 198.331 133.928C197.7 133.576 197.62 133.218 197.461 132.557C197.778 131.564 197.822 131.552 198.709 130.993Z"/><path fill="#0882FE" d="M411.714 46.186C412.993 46.1022 414.288 46.0798 415.57 46.0607C435.037 45.7714 454.549 46.0536 474.021 46.0413L492.057 46.0364C496.081 46.0376 500.483 45.7519 504.444 46.495C507.99 47.16 511.422 49.1046 513.975 51.6274C518.499 56.0982 519.542 61.139 519.586 67.3009L519.575 112.356C519.572 117.884 520.207 129.145 519.165 133.992C518.4 137.549 516.403 140.964 513.842 143.522C506.818 150.538 497.014 149.205 487.944 149.165C482.154 149.178 473.209 148.459 467.821 149.389C461.274 150.519 446.24 161.9 438.717 164.818L438.439 164.923C438.606 164.661 438.764 164.415 438.866 164.119C439.47 162.371 439.398 150.365 438.725 149.136L423.406 149.143C423.391 143.063 422.775 137.457 420.828 131.675C416.592 119.1 407.653 109.329 395.82 103.467L395.783 77.3531C395.76 72.1677 395.277 66.5029 396.11 61.3815C396.535 58.6069 397.589 55.9661 399.19 53.6608C402.217 49.3438 406.599 47.0483 411.714 46.186Z"/><path fill="#FCFBFD" d="M484.352 74.5854C484.571 74.553 484.791 74.5185 485.012 74.498C486.444 74.3652 487.509 74.866 488.593 75.7633C489.328 76.3714 489.744 76.978 489.782 77.9545C489.854 79.7896 488.487 81.6299 487.315 82.937C481.121 89.8474 474.561 96.501 468.257 103.324C463.94 107.997 459.408 113.758 454.581 117.766C453.33 118.806 451.659 119.877 449.978 119.866C447.533 119.85 434.618 106.041 431.954 103.462C430.586 102.165 428.898 100.804 427.829 99.254C427.206 98.3507 426.683 97.3077 426.922 96.1817C427.143 95.1368 428.068 94.1299 428.942 93.5717C429.734 93.066 430.776 92.7743 431.698 93.0786C433.15 93.5583 448.87 108.571 449.979 110.517C452.498 109.02 455.107 105.4 457.125 103.224L472.846 86.3301C476.442 82.4285 480.058 77.7159 484.352 74.5854Z"/><path d="M336.844 162.019C337.46 162.03 337.932 162.114 338.528 162.273C339.352 162.977 339.561 163.654 339.692 164.72C340.121 168.203 338.478 172.083 336.32 174.721C335.57 174.613 335.168 174.492 334.553 174.043C333.682 171.794 335.952 169.958 336.245 167.763C336.502 165.838 336.221 163.893 336.844 162.019Z"/></svg>