<svg width="605" height="438" viewBox="0 0 605 438" fill="none" xmlns="http://www.w3.org/2000/svg">
<path opacity="0.876" fill-rule="evenodd" clip-rule="evenodd" d="M143.142 13.3822C163.713 11.6669 183.005 15.7252 201.018 25.5569C210.887 31.4917 218.91 39.3376 225.088 49.0947C236.328 71.6926 234.525 93.1558 219.679 113.485C215.565 117.916 211.329 122.154 206.968 126.201C210.009 134.81 212.894 143.468 215.622 152.174C215.544 152.592 215.364 152.953 215.081 153.256C213.999 153.617 212.918 153.617 211.836 153.256C202.303 148.098 192.747 143.048 183.169 138.105C181.726 137.745 180.284 137.745 178.841 138.105C153.562 144.896 129.582 142.011 106.903 129.448C89.6146 119.317 78.7064 104.437 74.1786 84.8072C73.1725 70.7089 76.4179 57.7225 83.9146 45.8481C98.8368 26.3431 118.579 15.5212 143.142 13.3822ZM176.137 55.0468C178.329 64.6394 175.625 72.4853 168.024 78.5846C165.026 80.7658 162.052 83.02 159.099 85.3483C157.529 88.0203 156.628 90.906 156.394 94.0059C154.051 96.8916 151.706 96.8916 149.363 94.0059C148.534 88.741 149.795 84.0513 153.149 79.9373C157.304 76.5084 161.451 73.0811 165.59 69.6565C170.801 60.7218 168.908 53.7774 159.91 48.8242C149.484 46.1944 142.272 49.7116 138.274 59.3756C137.858 62.2196 136.145 63.6622 133.136 63.7044C131.111 63.2634 130.12 62.001 130.161 59.9167C130.402 57.0873 131.124 54.3818 132.325 51.8002C133.271 51.1731 133.812 50.2711 133.947 49.0947C135.446 47.868 136.889 46.5153 138.274 45.0365C139.949 44.0235 141.572 43.0317 143.142 42.0604C143.742 42.0296 144.283 41.8494 144.765 41.5193C159.1 37.1483 169.557 41.6573 176.137 55.0468ZM154.501 115.65C150.044 115.97 147.971 113.805 148.281 109.157C148.689 107.215 149.861 106.132 151.797 105.91C155.466 105.146 157.629 106.679 158.287 110.509C158.138 113.088 156.876 114.801 154.501 115.65Z" fill="#010207"/>
<path fill-rule="evenodd" clip-rule="evenodd" d="M139.356 17.7131C139.74 17.224 140.281 17.0438 140.979 17.172C163.34 15.3247 184.074 20.1946 203.182 31.7817C206.468 33.609 209.353 35.9541 211.836 38.816C215.652 43.3542 219.259 48.0439 222.654 52.8846C228.882 66.8065 229.693 81.0552 225.088 95.6314C223.54 99.0863 222.007 102.514 220.49 105.912C220.036 107.185 219.314 108.268 218.327 109.159C214.704 112.781 211.279 116.569 208.05 120.522C207.87 120.522 207.689 120.522 207.509 120.522C205.332 121.338 203.529 122.691 202.1 124.58C203.758 129.473 205.561 134.253 207.509 138.919C208.25 140.237 208.791 141.68 209.131 143.248C209.174 144.737 209.264 146.18 209.402 147.577C207.221 146.26 204.967 145.178 202.641 144.33C200.794 142.685 198.631 141.603 196.15 141.084C194.303 139.439 192.14 138.357 189.659 137.837C187.284 135.741 184.489 134.298 181.275 133.508C177.449 134.623 173.573 135.525 169.646 136.214C168.99 136.347 168.629 136.708 168.564 137.296C168.384 137.296 168.204 137.296 168.024 137.296C167.417 136.941 166.696 136.761 165.86 136.755C159.65 137.338 153.52 137.879 147.47 138.378C146.261 138.538 145.179 138.357 144.224 137.837C144.793 137.918 145.334 137.828 145.847 137.567C140.363 137.106 134.954 136.205 129.62 134.861C125.103 133.385 120.596 131.852 116.098 130.262C112.506 128.934 109.08 127.22 105.821 125.121C103.879 123.707 102.076 122.173 100.412 120.522C98.7551 118.322 96.7722 116.518 94.4621 115.111C93.7411 114.75 93.2002 114.209 92.8394 113.488C88.9114 108.394 85.3053 102.803 82.0215 96.7136C81.2475 96.021 80.8867 95.1189 80.9397 94.0081C76.6413 80.2587 77.6333 66.9115 83.9147 53.9668C85.7688 51.1579 87.4819 48.2722 89.0531 45.3092C92.0594 41.8526 95.3951 38.606 99.0597 35.5694C99.3106 35.248 99.401 34.8871 99.3301 34.4872C99.7423 33.5338 100.464 32.9927 101.494 32.8639C105.015 30.8332 108.441 28.6688 111.771 26.3707C112.309 26.3242 112.76 26.5049 113.123 26.9118C115.25 25.0797 117.684 23.7269 120.425 22.8536C126.998 20.7157 133.308 19.002 139.356 17.7131ZM176.137 55.049C178.329 64.6416 175.625 72.4875 168.024 78.5868C165.026 80.7679 162.052 83.0221 159.099 85.3505C157.529 88.0224 156.628 90.9081 156.394 94.0081C154.051 96.8937 151.706 96.8937 149.363 94.0081C148.534 88.7432 149.795 84.0535 153.149 79.9395C157.304 76.5106 161.451 73.0832 165.59 69.6586C170.801 60.724 168.908 53.7795 159.91 48.8263C149.484 46.1966 142.272 49.7137 138.274 59.3777C137.858 62.2218 136.145 63.6643 133.136 63.7065C131.111 63.2655 130.12 62.0032 130.161 59.9188C130.402 57.0894 131.124 54.3839 132.325 51.8024C133.271 51.1752 133.812 50.2732 133.947 49.0969C135.446 47.8702 136.889 46.5175 138.274 45.0386C139.949 44.0257 141.572 43.0339 143.142 42.0626C143.742 42.0317 144.283 41.8516 144.765 41.5215C159.1 37.1505 169.557 41.6595 176.137 55.049ZM154.501 115.652C150.044 115.972 147.971 113.807 148.281 109.159C148.689 107.217 149.861 106.135 151.797 105.912C155.466 105.148 157.629 106.681 158.287 110.512C158.138 113.09 156.876 114.804 154.501 115.652Z" fill="#0080FE"/>
<path fill-rule="evenodd" clip-rule="evenodd" d="M203.179 31.778C184.072 20.1909 163.338 15.321 140.977 17.1684C162.19 14.6127 182.023 18.671 200.475 29.3431C201.62 29.9107 202.522 30.7223 203.179 31.778Z" fill="#048DE8"/>
<path fill-rule="evenodd" clip-rule="evenodd" d="M139.351 17.707C133.303 18.9959 126.993 20.7096 120.42 22.8475C117.679 23.7208 115.245 25.0736 113.118 26.9057C112.755 26.4988 112.304 26.3181 111.766 26.3646C120.281 21.5423 129.476 18.6567 139.351 17.707Z" fill="#048EE8"/>
<path opacity="0.875" fill-rule="evenodd" clip-rule="evenodd" d="M338.944 266.073C338.405 266.027 337.955 266.207 337.592 266.614C332.085 275.834 326.316 284.852 320.283 293.669C319.636 295.07 319.095 296.513 318.66 297.998C315.072 316.258 312.367 334.656 310.547 353.19C309.225 370.68 307.963 388.175 306.761 405.677C305.313 408.551 303.961 408.371 302.704 405.135C304.39 371.404 307.905 337.856 313.252 304.491C314.128 300.667 315.12 296.879 316.226 293.128C311.364 285.207 306.766 277.091 302.434 268.779C302.254 269.5 302.073 270.222 301.893 270.943C299.934 271.826 298.312 273.088 297.025 274.731C291.7 281.523 286.471 288.377 281.339 295.292C280.405 295.875 279.414 295.965 278.364 295.563C275.572 282.411 275.572 269.244 278.364 256.063C256.887 263.225 235.432 270.62 213.998 278.248C209.622 280.49 205.295 282.835 201.016 285.282C192.571 292.293 186.17 300.86 181.815 310.984C168.544 342.611 155.653 374.356 143.141 406.218C140.129 406.622 139.138 405.359 140.166 402.43C152.466 371.469 165.087 340.626 178.028 309.902C181.401 302.222 185.818 295.188 191.28 288.799C197.481 282.469 204.694 277.689 212.916 274.46C234.391 266.998 255.847 259.422 277.282 251.734C277.912 251.147 278.633 250.697 279.446 250.381C280.565 243.255 283.63 237.213 288.641 232.254C271.904 225.79 261.537 213.796 257.54 196.271C254.278 180.941 252.835 165.429 253.212 149.737C248.224 147.077 245.159 142.929 244.017 137.292C242.802 130.109 243.343 123.074 245.64 116.189C248.36 112.911 251.875 111.468 256.187 111.86C255.57 102.215 255.029 92.5655 254.565 82.9112C252.814 68.3167 257.773 56.6831 269.439 48.0104C271.4 44.1815 273.834 40.6644 276.741 37.4589C291.547 25.2014 308.675 19.3397 328.126 19.8732C341.258 20.4262 354.239 22.1399 367.07 25.0137C382.781 28.8533 395.852 36.8794 406.285 49.0926C412.796 59.0645 416.583 70.0666 417.644 82.0996C418.485 95.6443 417.674 109.081 415.21 122.411C421.07 126.276 424.406 131.777 425.216 138.915C426.013 148.747 424.75 158.306 421.43 167.593C416.65 179.408 407.906 184.999 395.197 184.367C392.323 188.235 388.987 191.662 385.19 194.648C384.213 201.662 383.672 208.697 383.568 215.751C386.377 216.847 388.63 218.65 390.329 221.162C394.408 228.93 397.833 236.956 400.606 245.241C425.157 252.581 448.956 261.6 472.004 272.296C478.3 275.988 484.43 279.956 490.394 284.2C502.049 295.512 509.892 309.13 513.923 325.053C521.394 351.772 527.163 378.827 531.232 406.218C530.005 406.994 528.924 406.814 527.986 405.677C523.748 383.578 519.06 361.573 513.923 339.663C511.671 331.283 509.146 322.986 506.35 314.772C502.241 303.469 495.66 294 486.608 286.364C476.745 279.022 466.107 273.07 454.695 268.508C445.789 265.225 436.955 261.797 428.191 258.227C418.753 255.212 409.288 252.236 399.794 249.299C398.649 250.128 397.748 251.21 397.09 252.546C389.429 268.483 379.693 282.912 367.882 295.834C366.392 297.599 364.679 299.042 362.743 300.162C362.173 300.065 361.632 299.885 361.121 299.621C353.941 289.104 346.459 278.824 338.674 268.779C338.327 267.824 338.418 266.922 338.944 266.073ZM377.347 32.8596C395.74 39.9897 407.369 53.1567 412.235 72.3598C413.502 78.9758 414.133 85.6492 414.128 92.3804C413.855 100.883 413.224 109.361 412.235 117.812C412.109 119.046 411.658 120.128 410.883 121.059C408.44 120.218 405.916 119.767 403.31 119.706C402.761 119.425 402.4 118.974 402.228 118.353C404.957 101.767 405.048 85.1736 402.499 68.5721C398.535 53.443 390.151 41.5388 377.347 32.8596ZM277.823 60.4556C289.407 65.2741 301.488 68.4309 314.063 69.9249C324.951 70.8582 335.859 71.4897 346.787 71.8187C354.489 71.6125 362.152 71.0714 369.775 70.1954C369.955 71.5481 370.136 72.9009 370.316 74.2536C368.832 83.3019 368.381 92.4102 368.964 101.579C370.893 110.617 373.688 119.364 377.347 127.822C372.058 127.726 366.739 127.455 361.391 127.011C360.94 126.831 360.489 126.65 360.039 126.47C358.883 123.6 356.9 121.526 354.089 120.247C341.593 117.731 328.972 116.649 316.226 117C311.982 118.271 309.278 121.066 308.113 125.387C303.881 123.855 299.554 123.494 295.132 124.305C294.578 119.063 291.693 115.907 286.477 114.836C277.704 113.381 268.87 112.569 259.974 112.401C260.774 93.165 266.723 75.8499 277.823 60.4556ZM251.319 116.189C252.762 116.189 254.204 116.189 255.646 116.189C254.925 125.924 254.204 135.663 253.483 145.408C249.903 142.54 248.01 138.752 247.803 134.045C247.15 128.493 247.69 123.082 249.426 117.812C250.247 117.453 250.878 116.912 251.319 116.189ZM259.433 116.189C268.901 116.432 278.276 117.425 287.559 119.165C290.722 121.167 291.984 124.053 291.345 127.822C291.092 133.982 289.38 139.664 286.207 144.867C281.962 148.207 277.094 149.83 271.603 149.737C266.931 149.454 262.333 148.733 257.81 147.573C258.077 137.095 258.618 126.634 259.433 116.189ZM317.849 120.518C326.328 120.836 334.802 121.288 343.271 121.87C346.972 122.43 350.578 123.332 354.089 124.576C355.628 125.941 356.53 127.655 356.793 129.716C356.036 135.812 354.684 141.764 352.737 147.573C348.503 153.013 342.913 155.178 335.969 154.066C328.992 154.698 322.591 153.165 316.767 149.466C312.802 144.843 311.179 139.432 311.899 133.233C311.332 129.021 312.234 125.233 314.604 121.87C315.746 121.413 316.827 120.962 317.849 120.518ZM397.36 123.764C400.971 123.674 404.577 123.764 408.178 124.035C409.44 124.576 410.703 125.117 411.965 125.658C407.595 127.885 404.079 131.041 401.417 135.127C394.228 148.04 392.244 161.748 395.467 176.251C396.365 176.963 396.996 177.865 397.36 178.956C388.253 179.682 382.754 175.534 380.863 166.511C379.246 152.236 382.762 139.43 391.411 128.093C393.335 126.506 395.318 125.063 397.36 123.764ZM287.018 149.737C284.644 154.351 282.84 159.221 281.609 164.347C282.468 168.083 284.812 170.338 288.641 171.11C293.131 171.808 297.639 171.989 302.163 171.651C304.076 170.663 304.257 169.4 302.704 167.864C298.55 168.325 294.403 168.145 290.264 167.323C288.282 166.865 286.66 165.874 285.396 164.347C288.541 156.607 291.696 148.851 294.861 141.079C296.438 136.891 297.07 132.562 296.754 128.093C300.417 128.283 304.023 128.824 307.572 129.716C306.929 137.328 308.552 144.362 312.44 150.819C315.584 154.016 319.37 156.09 323.799 157.042C331.378 158.763 338.95 158.763 346.516 157.042C352.413 154.931 356.289 150.873 358.146 144.867C359.388 140.438 360.019 135.929 360.039 131.34C366.711 131.501 373.382 131.682 380.052 131.881C379.773 134.439 379.773 136.965 380.052 139.456C377.02 147.859 375.848 156.517 376.536 165.429C377.135 170.866 379.389 175.466 383.297 179.227C382.165 183.183 381.534 187.242 381.404 191.402C370.102 199.759 357.391 204.538 343.271 205.741C341.984 203.911 340.361 202.469 338.403 201.412C332.806 199.637 327.217 199.637 321.635 201.412C316.207 204.355 314.674 208.774 317.038 214.669C318.051 215.864 319.223 216.856 320.554 217.645C325.199 218.498 329.887 218.678 334.617 218.186C339.128 217.203 342.373 214.677 344.353 210.611C357.234 208.992 369.134 204.753 380.052 197.895C379.711 207.551 379.08 217.291 378.159 227.114C376.02 231.3 373.405 235.179 370.316 238.748C359.571 247.632 348.213 255.569 336.24 262.556C335.428 263.368 334.617 264.179 333.805 264.991C328.629 272.999 323.58 281.115 318.66 289.34C311.233 277.004 304.382 264.378 298.107 251.463C297.818 245.871 297.548 240.279 297.295 234.689C322.719 238.084 344.626 231.05 363.014 213.587C363.519 211.107 362.527 210.295 360.039 211.152C339.865 229.634 316.426 235.406 289.723 228.467C278.003 224.136 269.619 216.29 264.571 204.929C258.624 187.585 256.37 169.729 257.81 151.36C267.818 154.665 277.554 154.124 287.018 149.737ZM386.543 181.121C388.285 181.451 389.907 182.083 391.411 183.014C389.671 184.918 387.777 186.631 385.731 188.155C385.878 185.823 386.148 183.479 386.543 181.121ZM338.944 266.073C344.991 262.011 351.121 257.953 357.334 253.898C365.657 248.459 372.959 241.875 379.241 234.148C380.185 232.078 381.267 230.094 382.486 228.196C382.578 225.473 382.849 222.767 383.297 220.08C383.972 220.372 384.603 220.733 385.19 221.162C389.718 228.616 393.414 236.462 396.279 244.7C388.099 263.591 376.921 280.455 362.743 295.292C356.286 285.127 349.074 275.477 341.108 266.344C340.408 266.079 339.687 265.988 338.944 266.073ZM292.968 235.23C293.336 241.107 293.786 247.059 294.32 253.087C296.601 257.998 299.035 262.868 301.622 267.696C301.037 267.831 300.316 267.921 299.459 267.967C298.034 268.676 296.771 269.578 295.673 270.672C290.87 276.643 286.002 282.506 281.068 288.258C279.447 273.285 280.979 258.675 285.666 244.429C287.089 240.47 289.523 237.404 292.968 235.23ZM435.223 373.752C433.917 374.515 433.016 375.597 432.519 376.998C430.216 379.425 427.872 381.86 425.487 384.303C424.237 384.572 422.976 384.662 421.701 384.574C419.656 383.003 417.853 381.199 416.292 379.163C415.581 375.551 417.024 373.747 420.619 373.752C421.16 373.752 421.701 373.752 422.242 373.752C422.369 374.075 422.639 374.255 423.053 374.293C423.787 373.379 424.689 372.658 425.757 372.128C431.193 365.524 436.692 359.031 442.255 352.649C442.795 352.469 443.156 352.108 443.336 351.567C448.84 344.891 454.61 338.487 460.645 332.358C464.814 332.02 466.527 333.913 465.783 338.039C455.67 350.047 445.483 361.951 435.223 373.752Z" fill="black"/>
<path fill-rule="evenodd" clip-rule="evenodd" d="M111.769 26.3672C108.439 28.6652 105.013 30.8296 101.492 32.8604C104.457 30.0218 107.882 27.8574 111.769 26.3672Z" fill="#028CE8"/>
<path fill-rule="evenodd" clip-rule="evenodd" d="M99.3317 34.4844C99.4025 34.8842 99.3122 35.2452 99.0612 35.5666C95.3967 38.6032 92.061 41.8498 89.0547 45.3063C91.7235 41.0127 95.1489 37.4052 99.3317 34.4844Z" fill="#038AEB"/>
<path opacity="0.588" fill-rule="evenodd" clip-rule="evenodd" d="M177.759 58.8331C177.286 57.8689 176.745 56.6065 176.136 55.0454C169.556 41.6559 159.099 37.147 144.764 41.5179C144.166 40.544 144.527 39.9125 145.846 39.6241C158.619 36.6048 168.626 40.4828 175.865 51.2577C176.887 53.6905 177.518 56.2158 177.759 58.8331Z" fill="#045FFD"/>
<path fill-rule="evenodd" clip-rule="evenodd" d="M211.836 38.8145C216.474 42.7298 220.08 47.4195 222.654 52.883C219.259 48.0424 215.652 43.3526 211.836 38.8145Z" fill="#038EE8"/>
<path opacity="0.702" fill-rule="evenodd" clip-rule="evenodd" d="M143.137 42.0577C141.566 43.029 139.944 44.0208 138.269 45.0338C136.883 46.5126 135.441 47.8654 133.942 49.092C133.388 48.8772 133.297 48.5168 133.671 48.0098C136.336 44.5722 139.672 42.3175 143.678 41.2461C143.317 41.4263 142.957 41.607 142.596 41.7872C142.72 42.0031 142.9 42.0929 143.137 42.0577Z" fill="#0461FE"/>
<path opacity="0.137" fill-rule="evenodd" clip-rule="evenodd" d="M132.318 51.7982C131.117 54.3797 130.396 57.0852 130.154 59.9146C129.681 59.8438 129.32 60.0239 129.073 60.4557C131.15 65.3381 134.215 66.0594 138.268 62.6201C135.654 66.7114 132.679 66.8916 129.343 63.1612C128.603 61.4092 128.423 59.6051 128.802 57.7502C129.636 55.3391 130.627 52.9945 131.777 50.716C132.049 50.1635 132.409 50.0731 132.859 50.4454C132.452 50.8085 132.271 51.2592 132.318 51.7982Z" fill="#056BFE"/>
<path opacity="0.243" fill-rule="evenodd" clip-rule="evenodd" d="M138.273 59.377C138.701 60.3558 138.701 61.438 138.273 62.6235C134.22 66.0628 131.156 65.3415 129.078 60.4592C129.325 60.0274 129.686 59.8472 130.16 59.9181C130.119 62.0024 131.11 63.2647 133.135 63.7057C136.144 63.6635 137.857 62.221 138.273 59.377Z" fill="#4695FE"/>
<path fill-rule="evenodd" clip-rule="evenodd" d="M89.0518 45.3047C87.4805 48.2677 85.7675 51.1534 83.9133 53.9623C77.6319 66.907 76.6399 80.2543 80.9384 94.0036C78.7835 90.0119 77.6114 85.6831 77.4226 81.0172C76.8492 67.579 80.7258 55.6748 89.0518 45.3047Z" fill="#0684DF"/>
<path opacity="0.983" fill-rule="evenodd" clip-rule="evenodd" d="M176.136 55.0469C176.745 56.608 177.286 57.8703 177.759 58.8346C178.318 66.786 175.614 73.5498 169.645 79.1258C165.512 81.4119 161.996 84.388 159.098 88.0539C158.557 90.3985 158.016 92.7436 157.475 95.0882C155.203 97.3684 152.589 97.8197 149.632 96.4409C147.67 94.3891 147.039 91.9542 147.739 89.1361C148.349 85.4972 149.791 82.2506 152.066 79.3963C155.091 76.3683 158.427 73.7527 162.073 71.5504C169.428 64.4571 169.248 57.603 161.532 50.9886C149.697 46.8076 141.944 50.6856 138.273 62.6223C138.701 61.4367 138.701 60.3545 138.273 59.3757C142.271 49.7117 149.483 46.1945 159.909 48.8243C168.907 53.7775 170.8 60.7219 165.589 69.6566C161.45 73.0812 157.303 76.5085 153.148 79.9374C149.794 84.0514 148.533 88.7411 149.362 94.006C151.705 96.8917 154.05 96.8917 156.393 94.006C156.627 90.906 157.528 88.0204 159.098 85.3484C162.051 83.0201 165.025 80.7659 168.023 78.5847C175.624 72.4854 178.328 64.6395 176.136 55.0469Z" fill="#0568FE"/>
<path opacity="0.801" fill-rule="evenodd" clip-rule="evenodd" d="M274.038 97.7918C280.037 97.4033 285.716 98.4855 291.076 101.038C293.258 104.248 292.447 106.232 288.642 106.99C285.99 106.189 283.285 105.558 280.529 105.097C275.286 104.831 270.058 104.831 264.843 105.097C263.511 103.621 263.511 102.088 264.843 100.497C267.768 98.8616 270.833 97.9601 274.038 97.7918Z" fill="black"/>
<path opacity="0.801" fill-rule="evenodd" clip-rule="evenodd" d="M329.21 99.4167C337.692 98.6575 345.535 100.462 352.739 104.828C354.144 107.351 353.513 108.974 350.846 109.698C346.907 108.493 342.94 107.321 338.946 106.18C335.881 105.82 332.816 105.82 329.751 106.18C327.982 106.895 326.179 107.256 324.342 107.263C320.855 105.184 320.855 103.019 324.342 100.769C326.034 100.314 327.657 99.8631 329.21 99.4167Z" fill="black"/>
<path fill-rule="evenodd" clip-rule="evenodd" d="M222.648 52.8828C229.76 65.5548 231.112 78.9021 226.705 92.9241C225.334 97.6484 223.261 101.977 220.484 105.91C222.001 102.512 223.534 99.0845 225.082 95.6296C229.688 81.0535 228.876 66.8047 222.648 52.8828Z" fill="#058EEC"/>
<path fill-rule="evenodd" clip-rule="evenodd" d="M82.0234 96.7129C85.3072 102.802 88.9133 108.393 92.8413 113.487C88.0149 108.704 84.4088 103.113 82.0234 96.7129Z" fill="#0688E1"/>
<path opacity="0.898" fill-rule="evenodd" clip-rule="evenodd" d="M151.801 105.908C149.865 106.13 148.693 107.212 148.285 109.154C147.975 113.803 150.048 115.967 154.505 115.647C154.435 116.047 154.525 116.408 154.776 116.73C155.771 116.008 156.042 116.099 155.587 117C148.594 118.101 145.8 115.125 147.203 108.072C148.718 105.376 150.971 104.204 153.964 104.555C152.917 104.621 152.196 105.072 151.801 105.908Z" fill="#106DFD"/>
<path fill-rule="evenodd" clip-rule="evenodd" d="M94.4531 115.107C96.7633 116.515 98.7462 118.318 100.403 120.518C98.0928 119.111 96.1099 117.308 94.4531 115.107Z" fill="#0390E9"/>
<path fill-rule="evenodd" clip-rule="evenodd" d="M218.324 109.158C215.495 113.434 212.069 117.222 208.047 120.521C211.276 116.569 214.701 112.781 218.324 109.158Z" fill="#038DE8"/>
<path opacity="0.811" fill-rule="evenodd" clip-rule="evenodd" d="M276.744 124.846C281.314 125.026 283.477 127.461 283.235 132.151C283.449 134.335 282.818 136.229 281.342 137.832C277.407 140.537 274.521 139.636 272.688 135.127C271.578 130.594 272.93 127.167 276.744 124.846Z" fill="black"/>
<path opacity="0.812" fill-rule="evenodd" clip-rule="evenodd" d="M331.367 128.096C335.284 127.485 337.718 129.109 338.669 132.966C339.531 137.839 337.729 141.085 333.26 142.705C328.319 140.74 326.697 137.133 328.392 131.883C329.133 130.387 330.125 129.124 331.367 128.096Z" fill="black"/>
<path fill-rule="evenodd" clip-rule="evenodd" d="M116.094 130.258C120.592 131.848 125.099 133.381 129.616 134.857C134.95 136.201 140.359 137.102 145.843 137.563C145.33 137.824 144.789 137.914 144.22 137.833C134.241 137.322 124.866 134.798 116.094 130.258Z" fill="#058AE0"/>
<path fill-rule="evenodd" clip-rule="evenodd" d="M189.657 137.835C186.843 136.653 184.048 135.39 181.273 134.047C177.082 135.343 172.845 136.426 168.562 137.294C168.627 136.706 168.988 136.345 169.644 136.211C173.571 135.523 177.447 134.621 181.273 133.506C184.487 134.295 187.282 135.738 189.657 137.835Z" fill="#0588DF"/>
<path fill-rule="evenodd" clip-rule="evenodd" d="M207.503 120.518C205.993 121.757 204.55 123.109 203.176 124.576C204.746 129.332 206.189 134.112 207.503 138.915C205.555 134.249 203.752 129.469 202.094 124.576C203.523 122.686 205.326 121.334 207.503 120.518Z" fill="#048BE5"/>
<path fill-rule="evenodd" clip-rule="evenodd" d="M168.015 137.291C161.207 138.184 154.356 138.545 147.461 138.373C153.511 137.874 159.641 137.333 165.851 136.75C166.687 136.756 167.408 136.936 168.015 137.291Z" fill="#048AE1"/>
<path fill-rule="evenodd" clip-rule="evenodd" d="M189.656 137.834C192.137 138.353 194.3 139.436 196.147 141.081C193.811 140.273 191.648 139.191 189.656 137.834Z" fill="#038DE7"/>
<path fill-rule="evenodd" clip-rule="evenodd" d="M196.148 141.082C198.629 141.601 200.793 142.684 202.639 144.329C200.32 143.529 198.157 142.447 196.148 141.082Z" fill="#0690EB"/>
<path fill-rule="evenodd" clip-rule="evenodd" d="M209.131 143.246C210.185 144.933 210.545 146.737 210.213 148.657C207.479 147.473 204.955 146.03 202.641 144.328C204.967 145.176 207.221 146.258 209.402 147.575C209.264 146.178 209.174 144.735 209.131 143.246Z" fill="#0587D9"/>
<path opacity="0.701" fill-rule="evenodd" clip-rule="evenodd" d="M324.341 181.122C327.038 181.016 327.939 182.189 327.045 184.639C312.177 191.497 297.032 192.128 281.61 186.533C280.709 184.729 281.249 183.647 283.233 183.286C294.122 186.752 305.12 187.203 316.227 184.639C319.16 183.869 321.864 182.696 324.341 181.122Z" fill="black"/>
<path opacity="0.89" fill-rule="evenodd" clip-rule="evenodd" d="M424.948 292.589C452.12 291.374 473.306 301.835 488.503 323.973C502.033 349.354 500.861 374.064 484.987 398.103C466.331 420.708 442.532 428.735 413.589 422.182C380.188 410.291 364.232 386.572 365.72 351.028C369.638 324.213 384.152 305.905 409.262 296.106C414.461 294.473 419.69 293.3 424.948 292.589ZM435.225 373.754C433.919 374.517 433.018 375.6 432.521 377C430.219 379.427 427.874 381.862 425.489 384.305C424.24 384.574 422.978 384.664 421.703 384.576C419.658 383.005 417.855 381.201 416.294 379.165C415.583 375.553 417.026 373.749 420.621 373.754C421.162 373.754 421.703 373.754 422.244 373.754C422.371 374.077 422.641 374.257 423.055 374.295C423.789 373.381 424.691 372.66 425.759 372.131C431.195 365.526 436.694 359.033 442.257 352.651C442.798 352.471 443.158 352.11 443.338 351.569C448.842 344.893 454.612 338.489 460.647 332.36C464.816 332.022 466.529 333.915 465.786 338.041C455.672 350.049 445.485 361.954 435.225 373.754Z" fill="#020308"/>
<path fill-rule="evenodd" clip-rule="evenodd" d="M454.698 300.163C456.313 300.61 457.755 301.331 459.025 302.328C461.545 303.771 463.889 305.485 466.057 307.468C467.001 307.723 467.903 308.084 468.761 308.55C470.474 309.542 471.827 310.895 472.818 312.608C473.025 312.308 473.296 312.127 473.63 312.067C476.339 314.976 479.043 317.861 481.743 320.725C485.264 326.161 488.238 331.933 490.668 338.04C492.431 342.934 493.513 347.984 493.913 353.191C494.12 353.492 494.391 353.672 494.724 353.732C494.724 354.273 494.724 354.814 494.724 355.355C494.295 359.259 493.754 363.227 493.102 367.259C493.108 368.095 493.288 368.817 493.643 369.424C493.44 370.613 493.079 371.695 492.561 372.67C490.472 379.381 487.767 385.874 484.447 392.15C482.039 397.089 478.613 401.238 474.17 404.595C472.027 406.018 470.044 407.641 468.221 409.465C466.166 411.333 463.822 412.776 461.189 413.794C458.737 414.67 456.393 415.753 454.157 417.04C450.781 417.568 447.896 418.47 445.503 419.746C444.149 420.217 442.707 420.578 441.176 420.828C426.5 421.806 412.617 418.83 399.527 411.9C396.618 409.547 393.553 407.473 390.332 405.677C385.581 400.749 381.254 395.518 377.351 389.986C375.992 386.358 374.459 382.751 372.753 379.164C371.368 374.447 370.197 369.758 369.237 365.095C368.748 364.711 368.568 364.17 368.696 363.472C368.719 351.828 371.153 340.646 375.998 329.924C377.885 327.408 379.418 324.703 380.596 321.807C382.2 318.763 384.363 316.238 387.087 314.232C389.791 312.246 392.315 310.082 394.659 307.739C395.55 306.75 396.632 306.029 397.904 305.574C401.203 304.195 404.449 302.662 407.641 300.975C409.047 300.477 410.49 300.116 411.968 299.893C412.637 299.519 412.637 299.249 411.968 299.081C412.153 298.628 412.513 298.447 413.049 298.54C413.275 298.878 413.636 299.058 414.131 299.081C424.861 296.491 435.679 296.221 446.585 298.269C449.131 298.909 451.656 299.721 454.157 300.704C454.486 300.637 454.666 300.457 454.698 300.163ZM435.226 373.753C433.92 374.516 433.019 375.598 432.522 376.999C430.22 379.426 427.875 381.861 425.49 384.304C424.241 384.573 422.979 384.663 421.704 384.575C419.659 383.004 417.856 381.2 416.295 379.164C415.584 375.552 417.027 373.748 420.622 373.753C421.163 373.753 421.704 373.753 422.245 373.753C422.372 374.076 422.642 374.256 423.056 374.294C423.791 373.38 424.692 372.658 425.76 372.129C431.196 365.525 436.695 359.031 442.258 352.65C442.799 352.47 443.159 352.109 443.339 351.568C448.843 344.891 454.613 338.488 460.648 332.359C464.817 332.02 466.53 333.914 465.787 338.04C455.673 350.048 445.486 361.952 435.226 373.753Z" fill="#0080FE"/>
<path fill-rule="evenodd" clip-rule="evenodd" d="M454.688 300.164C454.655 300.458 454.475 300.638 454.147 300.706C451.645 299.722 449.121 298.91 446.574 298.271C435.669 296.222 424.851 296.493 414.121 299.082C413.625 299.059 413.265 298.879 413.039 298.541C427.098 294.588 440.981 295.13 454.688 300.164Z" fill="#048DED"/>
<path fill-rule="evenodd" clip-rule="evenodd" d="M411.962 299.084C412.631 299.252 412.631 299.522 411.962 299.896C410.484 300.119 409.041 300.48 407.635 300.978C404.443 302.665 401.197 304.198 397.898 305.577C402.101 302.486 406.789 300.322 411.962 299.084Z" fill="#038DE8"/>
<path fill-rule="evenodd" clip-rule="evenodd" d="M459.023 302.328C462.744 303.649 466.17 305.543 469.3 308.01C471.013 309.092 472.455 310.445 473.628 312.068C473.294 312.128 473.023 312.308 472.816 312.609C471.825 310.895 470.473 309.543 468.76 308.551C467.901 308.084 466.999 307.723 466.055 307.469C463.887 305.485 461.543 303.772 459.023 302.328Z" fill="#048BE9"/>
<path fill-rule="evenodd" clip-rule="evenodd" d="M394.658 307.74C392.314 310.083 389.79 312.248 387.086 314.233C388.556 312.489 390.179 310.775 391.954 309.093C392.808 308.501 393.709 308.05 394.658 307.74Z" fill="#0586DB"/>
<path fill-rule="evenodd" clip-rule="evenodd" d="M473.625 312.068C477.067 314.267 479.771 317.153 481.738 320.726C479.039 317.862 476.334 314.977 473.625 312.068Z" fill="#057FD5"/>
<path opacity="0.767" fill-rule="evenodd" clip-rule="evenodd" d="M322.72 314.775C327.132 314.409 329.025 316.393 328.399 320.727C327.114 323.285 325.041 324.097 322.179 323.162C319.218 320.14 319.399 317.344 322.72 314.775Z" fill="#000001"/>
<path opacity="0.892" fill-rule="evenodd" clip-rule="evenodd" d="M204.265 324.515C205.926 324.203 207.008 324.834 207.51 326.408C203.733 352.888 201.118 379.491 199.667 406.22C198.585 407.664 197.504 407.664 196.422 406.22C197.303 379.228 199.647 352.354 203.453 325.597C203.841 325.302 204.112 324.941 204.265 324.515Z" fill="#030509"/>
<path fill-rule="evenodd" clip-rule="evenodd" d="M380.59 321.811C379.412 324.706 377.879 327.411 375.992 329.927C371.147 340.649 368.713 351.832 368.69 363.475C367.426 347.984 371.393 334.096 380.59 321.811Z" fill="#048BE3"/>
<path fill-rule="evenodd" clip-rule="evenodd" d="M481.734 320.727C489.482 330.292 493.809 341.294 494.716 353.734C494.382 353.674 494.112 353.493 493.904 353.192C493.504 347.985 492.422 342.935 490.659 338.042C488.23 331.935 485.255 326.163 481.734 320.727Z" fill="#0583DC"/>
<path fill-rule="evenodd" clip-rule="evenodd" d="M494.716 355.355C494.81 360.087 494.449 364.777 493.635 369.424C493.28 368.817 493.1 368.096 493.094 367.26C493.746 363.227 494.287 359.259 494.716 355.355Z" fill="#028AE6"/>
<path opacity="0.854" fill-rule="evenodd" clip-rule="evenodd" d="M317.305 365.095C320.968 364.08 323.132 365.343 323.795 368.883C323.636 370.22 323.095 371.392 322.173 372.4C320.23 372.827 318.337 372.736 316.493 372.129C315.238 369.572 315.508 367.227 317.305 365.095Z" fill="#000102"/>
<path opacity="0.584" fill-rule="evenodd" clip-rule="evenodd" d="M442.256 352.652C436.694 359.034 431.194 365.527 425.759 372.132C424.691 372.661 423.789 373.382 423.054 374.296C422.641 374.258 422.37 374.078 422.243 373.755C422.114 372.725 421.573 372.003 420.62 371.591C419.33 370.301 418.249 368.858 417.375 367.262C419.299 368.914 421.193 370.718 423.054 372.673C429.184 365.819 435.315 358.965 441.445 352.111C441.652 352.412 441.922 352.592 442.256 352.652Z" fill="#0E62FE"/>
<path opacity="0.337" fill-rule="evenodd" clip-rule="evenodd" d="M420.617 371.588C421.57 372 422.111 372.722 422.24 373.752C421.699 373.752 421.158 373.752 420.617 373.752C420.617 373.031 420.617 372.309 420.617 371.588Z" fill="#97C3FD"/>
<path fill-rule="evenodd" clip-rule="evenodd" d="M492.559 372.672C491.509 378.796 489.436 384.567 486.338 389.987C485.825 390.849 485.194 391.57 484.445 392.151C487.765 385.875 490.47 379.382 492.559 372.672Z" fill="#038EE8"/>
<path fill-rule="evenodd" clip-rule="evenodd" d="M369.234 365.094C370.194 369.756 371.365 374.446 372.75 379.162C374.456 382.749 375.989 386.357 377.348 389.984C372.495 382.452 369.79 374.156 369.234 365.094Z" fill="#048EE9"/>
<path opacity="0.345" fill-rule="evenodd" clip-rule="evenodd" d="M421.695 384.578C422.97 384.666 424.232 384.576 425.481 384.307C427.866 381.864 430.211 379.429 432.513 377.002C433.394 376.394 434.205 375.672 434.947 374.838C435.307 375.199 435.307 375.559 434.947 375.92C432.391 378.969 429.776 381.945 427.104 384.848C424.596 386.605 422.072 386.605 419.531 384.848C420.353 385.027 421.074 384.937 421.695 384.578Z" fill="#046AFD"/>
<path fill-rule="evenodd" clip-rule="evenodd" d="M377.352 389.984C381.255 395.517 385.582 400.748 390.333 405.676C388.041 404.2 385.967 402.397 384.113 400.265C381.31 397.178 379.056 393.751 377.352 389.984Z" fill="#0484D9"/>
<path fill-rule="evenodd" clip-rule="evenodd" d="M474.161 404.594C472.652 406.827 470.668 408.451 468.211 409.464C470.034 407.64 472.017 406.016 474.161 404.594Z" fill="#0487DD"/>
<path fill-rule="evenodd" clip-rule="evenodd" d="M461.188 413.797C459.174 415.495 456.83 416.578 454.156 417.043C456.392 415.756 458.735 414.673 461.188 413.797Z" fill="#058BE1"/>
<path fill-rule="evenodd" clip-rule="evenodd" d="M390.328 405.676C393.549 407.471 396.614 409.545 399.523 411.898C412.613 418.828 426.497 421.804 441.172 420.827C421.874 423.309 404.926 418.259 390.328 405.676Z" fill="#0588E0"/>
<path fill-rule="evenodd" clip-rule="evenodd" d="M454.154 417.041C451.522 418.579 448.637 419.481 445.5 419.747C447.893 418.471 450.777 417.569 454.154 417.041Z" fill="#0590EA"/>
<path d="M430.898 294.5C465.972 294.5 494.398 322.71 494.398 357.5C494.398 392.29 465.972 420.5 430.898 420.5C395.825 420.5 367.398 392.29 367.398 357.5C367.398 322.71 395.825 294.5 430.898 294.5Z" fill="#0080FE" stroke="black"/>
<path d="M412.285 366.553L423.438 375.03C423.868 375.358 424.481 375.283 424.821 374.862L451.043 342.381" stroke="white" stroke-width="10" stroke-linecap="round"/>
</svg>
