<svg width="11" height="11" viewBox="0 0 11 11" fill="none" xmlns="http://www.w3.org/2000/svg">
<g clip-path="url(#clip0_146_44)">
<path d="M7.39062 0.377734C7.2875 0.308984 7.15 0.308984 7.04688 0.377734L6.35938 0.721484C5.74063 1.03086 5.01875 1.20273 4.29688 1.20273C3.60938 1.20273 3.09375 1.75273 3.09375 2.44023C3.09375 2.81836 3.26562 3.12773 3.50625 3.36836L4.29688 4.94961C4.36563 5.05273 4.46875 5.15586 4.60625 5.15586H5.46562C5.67187 5.15586 5.80937 5.01836 5.80937 4.81211V3.95273C5.98125 4.02148 6.1875 4.09023 6.35938 4.19336L7.04688 4.53711C7.08125 4.57148 7.15 4.57148 7.21875 4.57148C7.2875 4.57148 7.35625 4.57148 7.39062 4.53711C7.49375 4.46836 7.5625 4.36523 7.5625 4.22773V0.687109C7.5625 0.583984 7.49375 0.446484 7.39062 0.377734ZM6.875 3.67773L6.66875 3.57461C6.39375 3.43711 6.11875 3.33398 5.80937 3.23086V1.68398C6.11875 1.58086 6.39375 1.47773 6.66875 1.34023L6.875 1.23711V3.67773Z" fill="white"/>
<path d="M9.28125 3.4375H8.25V4.22813C8.25 4.57188 8.07813 4.91562 7.76875 5.12187C7.45938 5.29375 7.08125 5.32812 6.77188 5.15625L6.49687 5.01875C6.39375 5.5 5.98125 5.84375 5.46562 5.84375H4.60625C4.19375 5.84375 3.85 5.6375 3.67812 5.25938L2.95625 3.78125C2.85313 3.67812 2.78438 3.575 2.71563 3.4375H1.71875C1.13437 3.4375 0.6875 3.88437 0.6875 4.46875V9.28125C0.6875 9.86563 1.13437 10.3125 1.71875 10.3125H9.28125C9.86563 10.3125 10.3125 9.86563 10.3125 9.28125V4.46875C10.3125 3.88437 9.86563 3.4375 9.28125 3.4375ZM8.49063 7.975C8.62813 8.1125 8.6625 8.31875 8.525 8.45625C8.45625 8.55938 8.35313 8.59375 8.25 8.59375C8.18125 8.59375 8.07812 8.55937 8.00937 8.525L6.66875 7.35625L5.70625 8.18125C5.67188 8.21562 5.56875 8.25 5.5 8.25C5.43125 8.25 5.32813 8.21562 5.25938 8.18125L4.29688 7.35625L2.95625 8.525C2.92188 8.55937 2.81875 8.59375 2.75 8.59375C2.64687 8.59375 2.54375 8.55938 2.475 8.49063C2.3375 8.35313 2.37188 8.14687 2.50938 8.00937L3.78125 6.90938L2.50938 5.80937C2.37188 5.67187 2.3375 5.46563 2.475 5.32812C2.6125 5.19062 2.81875 5.15625 2.95625 5.29375L5.46562 7.49375L7.975 5.29375C8.1125 5.15625 8.31875 5.19062 8.45625 5.32812C8.59375 5.46563 8.55938 5.67187 8.42188 5.80937L7.18437 6.875L8.49063 7.975Z" fill="white"/>
</g>
<defs>
<clipPath id="clip0_146_44">
<rect width="11" height="11" fill="white"/>
</clipPath>
</defs>
</svg>
