<svg width="10" height="11" viewBox="0 0 10 11" fill="none" xmlns="http://www.w3.org/2000/svg">
<g clip-path="url(#clip0_150_102)">
<mask id="mask0_150_102" style="mask-type:luminance" maskUnits="userSpaceOnUse" x="0" y="0" width="10" height="11">
<path d="M10 0.5H0V10.5H10V0.5Z" fill="white"/>
</mask>
<g mask="url(#mask0_150_102)">
<path d="M9.42812 4.69141C9.44311 4.60838 9.45095 4.52422 9.45156 4.43985C9.45794 4.24594 9.42525 4.05274 9.35545 3.87172C9.28564 3.69071 9.18015 3.52558 9.04524 3.38616C8.91032 3.24674 8.74875 3.13588 8.57013 3.06016C8.3915 2.98445 8.19948 2.94543 8.00547 2.94543C7.81146 2.94543 7.61943 2.98445 7.44081 3.06016C7.26219 3.13588 7.10061 3.24674 6.9657 3.38616C6.83079 3.52558 6.72529 3.69071 6.65549 3.87172C6.58569 4.05274 6.553 4.24594 6.55937 4.43985C6.55999 4.52422 6.56783 4.60838 6.58281 4.69141C6.40783 4.83092 6.26573 5.00727 6.16662 5.20792C6.06751 5.40858 6.01382 5.6286 6.00937 5.85235C6.00937 6.65235 6.69375 7.3211 7.60156 7.47579V9.2586H5.32656V1.14141C5.32677 1.1038 5.31952 1.06653 5.30522 1.03174C5.29092 0.996957 5.26987 0.965353 5.24328 0.93876C5.21668 0.912167 5.18508 0.891113 5.15029 0.876817C5.11551 0.86252 5.07823 0.855266 5.04062 0.855473H1.04375C1.00614 0.855266 0.968867 0.86252 0.934082 0.876817C0.899297 0.891113 0.867693 0.912167 0.8411 0.93876C0.814507 0.965353 0.793452 0.996957 0.779156 1.03174C0.76486 1.06653 0.757605 1.1038 0.757813 1.14141V9.26641H0V10.1508H9.27812V9.2586H8.40781V7.47579C9.31719 7.3211 10 6.65235 10 5.85235C9.99553 5.62876 9.94199 5.40889 9.84317 5.20828C9.74435 5.00767 9.60266 4.83122 9.42812 4.69141ZM3.45625 2.15079C3.45625 2.10562 3.47419 2.0623 3.50613 2.03036C3.53807 1.99842 3.58139 1.98047 3.62656 1.98047H4.29844C4.34361 1.98047 4.38693 1.99842 4.41887 2.03036C4.45081 2.0623 4.46875 2.10562 4.46875 2.15079V2.82266C4.46959 2.84555 4.46581 2.86837 4.45762 2.88976C4.44944 2.91115 4.43703 2.93067 4.42113 2.94715C4.40523 2.96363 4.38617 2.97674 4.36509 2.98569C4.34401 2.99464 4.32134 2.99924 4.29844 2.99922H3.62656C3.58139 2.99922 3.53807 2.98128 3.50613 2.94934C3.47419 2.9174 3.45625 2.87408 3.45625 2.82891V2.15079ZM3.45625 3.81797C3.45625 3.7728 3.47419 3.72948 3.50613 3.69754C3.53807 3.6656 3.58139 3.64766 3.62656 3.64766H4.29844C4.34361 3.64766 4.38693 3.6656 4.41887 3.69754C4.45081 3.72948 4.46875 3.7728 4.46875 3.81797V4.48985C4.46875 4.53502 4.45081 4.57834 4.41887 4.61028C4.38693 4.64222 4.34361 4.66016 4.29844 4.66016H3.62656C3.58139 4.66016 3.53807 4.64222 3.50613 4.61028C3.47419 4.57834 3.45625 4.53502 3.45625 4.48985V3.81797ZM3.45625 5.48516C3.45604 5.46266 3.4603 5.44035 3.46876 5.4195C3.47723 5.39866 3.48974 5.3797 3.50558 5.36372C3.52141 5.34774 3.54026 5.33505 3.56102 5.3264C3.58179 5.31774 3.60406 5.31328 3.62656 5.31329H4.29844C4.32094 5.31328 4.34321 5.31774 4.36398 5.3264C4.38474 5.33505 4.40359 5.34774 4.41942 5.36372C4.43526 5.3797 4.44777 5.39866 4.45624 5.4195C4.4647 5.44035 4.46896 5.46266 4.46875 5.48516V6.15547C4.46896 6.17797 4.4647 6.20028 4.45624 6.22113C4.44777 6.24197 4.43526 6.26093 4.41942 6.27691C4.40359 6.29289 4.38474 6.30558 4.36398 6.31424C4.34321 6.32289 4.32094 6.32735 4.29844 6.32735H3.62656C3.60406 6.32735 3.58179 6.32289 3.56102 6.31424C3.54026 6.30558 3.52141 6.29289 3.50558 6.27691C3.48974 6.26093 3.47723 6.24197 3.46876 6.22113C3.4603 6.20028 3.45604 6.17797 3.45625 6.15547V5.48516ZM3.45625 7.15079C3.45625 7.10562 3.47419 7.0623 3.50613 7.03036C3.53807 6.99842 3.58139 6.98047 3.62656 6.98047H4.29844C4.34361 6.98047 4.38693 6.99842 4.41887 7.03036C4.45081 7.0623 4.46875 7.10562 4.46875 7.15079V7.82266C4.46959 7.84555 4.46581 7.86837 4.45762 7.88976C4.44944 7.91115 4.43703 7.93067 4.42113 7.94715C4.40523 7.96363 4.38617 7.97674 4.36509 7.98569C4.34401 7.99464 4.32134 7.99924 4.29844 7.99922H3.62656C3.58139 7.99922 3.53807 7.98128 3.50613 7.94934C3.47419 7.9174 3.45625 7.87408 3.45625 7.82891V7.15079ZM1.61563 2.15079C1.61563 2.10562 1.63357 2.0623 1.66551 2.03036C1.69745 1.99842 1.74077 1.98047 1.78594 1.98047H2.45781C2.48018 1.98047 2.50233 1.98488 2.52299 1.99344C2.54365 2.002 2.56243 2.01454 2.57824 2.03036C2.59406 2.04617 2.6066 2.06495 2.61516 2.08561C2.62372 2.10627 2.62812 2.12842 2.62812 2.15079V2.82266C2.62897 2.84555 2.62518 2.86837 2.617 2.88976C2.60882 2.91115 2.59641 2.93067 2.58051 2.94715C2.56461 2.96363 2.54555 2.97674 2.52446 2.98569C2.50338 2.99464 2.48071 2.99924 2.45781 2.99922H1.78594C1.74077 2.99922 1.69745 2.98128 1.66551 2.94934C1.63357 2.9174 1.61563 2.87408 1.61563 2.82891V2.15079ZM1.61563 3.81797C1.61563 3.79561 1.62003 3.77346 1.62859 3.7528C1.63715 3.73213 1.64969 3.71336 1.66551 3.69754C1.68132 3.68173 1.7001 3.66918 1.72076 3.66062C1.74142 3.65207 1.76357 3.64766 1.78594 3.64766H2.45781C2.48018 3.64766 2.50233 3.65207 2.52299 3.66062C2.54365 3.66918 2.56243 3.68173 2.57824 3.69754C2.59406 3.71336 2.6066 3.73213 2.61516 3.7528C2.62372 3.77346 2.62812 3.79561 2.62812 3.81797V4.48985C2.62812 4.51221 2.62372 4.53436 2.61516 4.55502C2.6066 4.57569 2.59406 4.59446 2.57824 4.61028C2.56243 4.62609 2.54365 4.63864 2.52299 4.6472C2.50233 4.65575 2.48018 4.66016 2.45781 4.66016H1.78594C1.74077 4.66016 1.69745 4.64222 1.66551 4.61028C1.63357 4.57834 1.61563 4.53502 1.61563 4.48985V3.81797ZM1.61563 5.48516C1.61542 5.46266 1.61967 5.44035 1.62814 5.4195C1.6366 5.39866 1.64912 5.3797 1.66495 5.36372C1.68079 5.34774 1.69963 5.33505 1.7204 5.3264C1.74116 5.31774 1.76344 5.31328 1.78594 5.31329H2.45781C2.48031 5.31328 2.50259 5.31774 2.52335 5.3264C2.54412 5.33505 2.56296 5.34774 2.5788 5.36372C2.59463 5.3797 2.60715 5.39866 2.61561 5.4195C2.62408 5.44035 2.62833 5.46266 2.62812 5.48516V6.15547C2.62833 6.17797 2.62408 6.20028 2.61561 6.22113C2.60715 6.24197 2.59463 6.26093 2.5788 6.27691C2.56296 6.29289 2.54412 6.30558 2.52335 6.31424C2.50259 6.32289 2.48031 6.32735 2.45781 6.32735H1.78594C1.76344 6.32735 1.74116 6.32289 1.7204 6.31424C1.69963 6.30558 1.68079 6.29289 1.66495 6.27691C1.64912 6.26093 1.6366 6.24197 1.62814 6.22113C1.61967 6.20028 1.61542 6.17797 1.61563 6.15547V5.48516ZM1.61563 7.15079C1.61563 7.10562 1.63357 7.0623 1.66551 7.03036C1.69745 6.99842 1.74077 6.98047 1.78594 6.98047H2.45781C2.48018 6.98047 2.50233 6.98488 2.52299 6.99344C2.54365 7.002 2.56243 7.01454 2.57824 7.03036C2.59406 7.04617 2.6066 7.06495 2.61516 7.08561C2.62372 7.10627 2.62812 7.12842 2.62812 7.15079V7.82266C2.62897 7.84555 2.62518 7.86837 2.617 7.88976C2.60882 7.91115 2.59641 7.93067 2.58051 7.94715C2.56461 7.96363 2.54555 7.97674 2.52446 7.98569C2.50338 7.99464 2.48071 7.99924 2.45781 7.99922H1.78594C1.74077 7.99922 1.69745 7.98128 1.66551 7.94934C1.63357 7.9174 1.61563 7.87408 1.61563 7.82891V7.15079Z" fill="#3D3B3B"/>
</g>
</g>
<defs>
<clipPath id="clip0_150_102">
<rect width="10" height="10" fill="white" transform="translate(0 0.5)"/>
</clipPath>
</defs>
</svg>
