<svg width="8" height="9" viewBox="0 0 8 9" fill="none" xmlns="http://www.w3.org/2000/svg">
<g clip-path="url(#clip0_150_114)">
<mask id="mask0_150_114" style="mask-type:luminance" maskUnits="userSpaceOnUse" x="0" y="0" width="8" height="9">
<path d="M8 0.5H0V8.5H8V0.5Z" fill="white"/>
</mask>
<g mask="url(#mask0_150_114)">
<path d="M6.01069 6.08881C7.73929 4.17341 7.35981 0.535325 7.35981 0.535325C7.35981 0.535325 3.72177 0.155847 1.80633 1.88441C0.392207 3.16057 0.398847 4.60749 0.947407 5.81637C0.971127 5.78241 0.994928 5.74841 1.01913 5.71373C1.08081 5.62241 1.15233 5.53453 1.22085 5.44177C1.29029 5.34953 1.36065 5.25513 1.43793 5.16365C1.51365 5.07125 1.59077 4.97741 1.66877 4.88233C1.75033 4.79069 1.83293 4.69785 1.91621 4.60429C1.95789 4.55785 1.99981 4.51117 2.04185 4.46429C2.08565 4.41913 2.12965 4.37393 2.17369 4.32853C2.26181 4.23817 2.35025 4.14745 2.43865 4.05681C2.53073 3.97001 2.62301 3.88337 2.71469 3.79693C2.76061 3.75389 2.80633 3.71089 2.85197 3.66809C2.89785 3.62561 2.94653 3.58617 2.99333 3.54545C3.18225 3.38397 3.36497 3.22249 3.55465 3.08149C3.64773 3.00933 3.73929 2.93837 3.82893 2.86893C3.91881 2.80017 4.01193 2.73937 4.09965 2.67685C4.27677 2.55385 4.44109 2.43433 4.60293 2.33849C4.62945 2.32201 4.66421 2.32917 4.68209 2.35481C4.69989 2.38045 4.69453 2.41553 4.66985 2.43469L4.66625 2.43749C4.51529 2.55025 4.36369 2.68649 4.20033 2.82753C4.11953 2.89893 4.03349 2.96921 3.95093 3.04693C3.86893 3.12529 3.78513 3.20537 3.70005 3.28677C3.52625 3.44657 3.36069 3.62561 3.18961 3.80533C3.14729 3.85053 3.10333 3.89485 3.06169 3.94141C3.02077 3.98853 2.97969 4.03585 2.93849 4.08325C2.85609 4.17825 2.77353 4.27353 2.69077 4.36889C2.61213 4.46769 2.53361 4.56657 2.45521 4.66497C2.41609 4.71429 2.37697 4.76349 2.33809 4.81265C2.30109 4.86321 2.26421 4.91361 2.22737 4.96381C2.15417 5.06465 2.08165 5.16465 2.00985 5.26365C1.94209 5.36533 1.87509 5.46589 1.80929 5.56489C1.74181 5.66285 1.68145 5.76313 1.62181 5.86109C1.56313 5.95969 1.50137 6.05341 1.44909 6.14969C1.39561 6.24537 1.34365 6.33833 1.29341 6.42825C1.24365 6.51873 1.20001 6.60885 1.15577 6.69401C1.13397 6.73681 1.11257 6.77865 1.09165 6.81961C1.07221 6.86149 1.05321 6.90237 1.03453 6.94217C0.997846 7.02221 0.961366 7.09709 0.930046 7.16945C0.868806 7.31573 0.814326 7.43937 0.773366 7.55553C0.752726 7.61149 0.734366 7.66149 0.718286 7.70493C0.705326 7.74457 0.694167 7.77829 0.685207 7.80561C0.667207 7.86041 0.657568 7.88957 0.657568 7.88957C0.655088 7.89725 0.652407 7.90645 0.650287 7.91425C0.583607 8.16221 0.730647 8.41737 0.978727 8.48397C1.22677 8.55053 1.48169 8.40345 1.54845 8.15553L1.54889 8.15389C1.54889 8.15389 1.55689 8.12421 1.57173 8.06857C1.57925 8.04081 1.58841 8.00649 1.59925 7.96609C1.61029 7.93061 1.62313 7.88989 1.63737 7.84417C1.66265 7.75573 1.70685 7.63769 1.75389 7.50497C1.77825 7.43841 1.80793 7.36833 1.83705 7.29389C1.85197 7.25677 1.86729 7.21861 1.88281 7.17961C1.89993 7.14105 1.91741 7.10153 1.93533 7.06117C1.95713 7.01281 1.97921 6.96249 2.00181 6.91149C3.22585 7.49529 4.70729 7.53317 6.01069 6.08881Z" fill="#3D3B3B"/>
</g>
</g>
<defs>
<clipPath id="clip0_150_114">
<rect width="8" height="8" fill="white" transform="translate(0 0.5)"/>
</clipPath>
</defs>
</svg>
