<svg width="8" height="9" viewBox="0 0 8 9" fill="none" xmlns="http://www.w3.org/2000/svg">
<g clip-path="url(#clip0_150_108)">
<mask id="mask0_150_108" style="mask-type:luminance" maskUnits="userSpaceOnUse" x="0" y="0" width="8" height="9">
<path d="M8 0.5H0V8.5H8V0.5Z" fill="white"/>
</mask>
<g mask="url(#mask0_150_108)">
<path d="M3.6465 0.853425C3.55273 0.947171 3.50003 1.07433 3.5 1.20693V2.49992H1C0.867392 2.49992 0.740215 2.5526 0.646447 2.64637C0.552678 2.74014 0.5 2.86732 0.5 2.99992V4.99993C0.5 5.13253 0.552678 5.25971 0.646447 5.35348C0.740215 5.44725 0.867392 5.49993 1 5.49993H3.5V8.49993H4.5V5.49993H6.266C6.33929 5.4999 6.41167 5.48376 6.47803 5.45265C6.54439 5.42155 6.6031 5.37624 6.65 5.31993L7.6165 4.15993C7.65392 4.115 7.67441 4.05839 7.67441 3.99993C7.67441 3.94146 7.65392 3.88485 7.6165 3.83992L6.65 2.67992C6.6031 2.62361 6.54439 2.5783 6.47803 2.5472C6.41167 2.51609 6.33929 2.49995 6.266 2.49992H4.5V1.20693C4.49998 1.10805 4.47064 1.0114 4.4157 0.929196C4.36076 0.846991 4.28268 0.782921 4.19133 0.745086C4.09998 0.707251 3.99946 0.697349 3.90248 0.716633C3.80551 0.735917 3.71643 0.78352 3.6465 0.853425Z" fill="#3D3B3B"/>
</g>
</g>
<defs>
<clipPath id="clip0_150_108">
<rect width="8" height="8" fill="white" transform="translate(0 0.5)"/>
</clipPath>
</defs>
</svg>
