<svg width="8" height="9" viewBox="0 0 8 9" fill="none" xmlns="http://www.w3.org/2000/svg">
<g clip-path="url(#clip0_150_120)">
<mask id="mask0_150_120" style="mask-type:luminance" maskUnits="userSpaceOnUse" x="0" y="0" width="8" height="9">
<path d="M8 0.5H0V8.5H8V0.5Z" fill="white"/>
</mask>
<g mask="url(#mask0_150_120)">
<path d="M6.6 5.49981C5.9925 5.49981 5.5 5.99231 5.5 6.59981C5.5 7.20731 5.9925 7.6998 6.6 7.6998C7.2075 7.6998 7.7 7.20731 7.7 6.59981C7.7 5.99231 7.2075 5.49981 6.6 5.49981ZM6.6 6.89981C6.43463 6.89981 6.3 6.76518 6.3 6.59981C6.3 6.43443 6.43463 6.29981 6.6 6.29981C6.76538 6.29981 6.9 6.43443 6.9 6.59981C6.9 6.76518 6.76538 6.89981 6.6 6.89981ZM7.6 3.29981H6.8V2.79731C6.8 2.62081 6.85875 2.4503 6.96438 2.3118C7.01963 2.2393 7.00875 2.13605 6.94788 2.06818L6.6775 1.76605C6.59425 1.67293 6.4485 1.67956 6.36875 1.77581C6.13225 2.06106 6 2.42243 6 2.79731V3.29981H4.72088L4.01975 1.66405C3.97369 1.55591 3.89683 1.46371 3.79874 1.39894C3.70065 1.33416 3.58567 1.29969 3.46813 1.2998H1.8C1.46913 1.2998 1.2 1.56893 1.2 1.8998V3.73131C1.09213 3.64718 0.938 3.65056 0.838875 3.74968L0.45 4.13856C0.342625 4.24593 0.342625 4.42006 0.45 4.52743L0.51325 4.59068C0.450875 4.70643 0.40125 4.82593 0.364375 4.94968H0.275C0.123125 4.94968 0 5.07281 0 5.22468V5.77468C0 5.92656 0.123125 6.04968 0.275 6.04968H0.36425C0.40125 6.17356 0.45075 6.29293 0.513125 6.40881L0.449875 6.47206C0.3425 6.57943 0.3425 6.75356 0.449875 6.86093L0.83875 7.24981C0.946125 7.35718 1.12025 7.35718 1.22763 7.24981L1.29087 7.18656C1.40662 7.24893 1.52613 7.29856 1.64988 7.33543V7.42481C1.64988 7.57668 1.773 7.6998 1.92488 7.6998H2.47488C2.62675 7.6998 2.74988 7.57668 2.74988 7.42481V7.33555C2.87363 7.29868 2.99313 7.24906 3.10888 7.18668L3.17213 7.24993C3.2795 7.35731 3.45363 7.35731 3.561 7.24993L3.94987 6.86106C4.05725 6.75368 4.05725 6.57956 3.94987 6.47218L3.88662 6.40893C3.949 6.29318 3.99863 6.17368 4.0355 6.04993H4.125C4.27688 6.04993 4.4 5.92681 4.4 5.77493V5.69993H5.40675C5.68063 5.33756 6.11075 5.09993 6.6 5.09993C6.833 5.09993 7.05087 5.15756 7.2475 5.25243L7.88275 4.61718C7.95775 4.54218 7.99987 4.44043 7.99987 4.33431V3.69981C8 3.47893 7.82088 3.29981 7.6 3.29981ZM2.2 6.49981C1.64775 6.49981 1.2 6.05206 1.2 5.49981C1.2 4.94756 1.64775 4.49981 2.2 4.49981C2.75225 4.49981 3.2 4.94756 3.2 5.49981C3.2 6.05206 2.75225 6.49981 2.2 6.49981ZM2.475 3.29981H2V2.0998H3.33613L3.8505 3.29981H2.475Z" fill="#3D3B3B"/>
</g>
</g>
<defs>
<clipPath id="clip0_150_120">
<rect width="8" height="8" fill="white" transform="translate(0 0.5)"/>
</clipPath>
</defs>
</svg>
