<svg width="8" height="9" viewBox="0 0 8 9" fill="none" xmlns="http://www.w3.org/2000/svg">
<g clip-path="url(#clip0_150_126)">
<mask id="mask0_150_126" style="mask-type:luminance" maskUnits="userSpaceOnUse" x="0" y="0" width="8" height="9">
<path d="M8 0.5H0V8.5H8V0.5Z" fill="white"/>
</mask>
<g mask="url(#mask0_150_126)">
<path d="M7.14234 7.503C7.19766 7.503 7.24999 7.47808 7.28482 7.43509C7.31966 7.39212 7.33324 7.33574 7.32181 7.28164L7.2063 6.735C7.27209 6.67136 7.31344 6.58251 7.31344 6.48372C7.31344 6.37972 7.26712 6.28747 7.19522 6.22338V4.32509L6.73218 4.61164V6.22338C6.66028 6.28747 6.61395 6.37972 6.61395 6.48372C6.61395 6.58252 6.65531 6.67138 6.7211 6.735L6.60557 7.28164C6.59414 7.33576 6.60774 7.39213 6.64256 7.43509C6.6774 7.47806 6.72973 7.503 6.78504 7.503H7.14234ZM7.29929 3.21736L4.28693 1.35262C4.19871 1.29828 4.09926 1.271 3.9998 1.271C3.90035 1.271 3.80083 1.29825 3.71314 1.35262L0.700733 3.21736C0.620295 3.26713 0.571442 3.35504 0.571442 3.44965C0.571442 3.54428 0.620295 3.63222 0.700733 3.68207L3.71313 5.54683C3.80081 5.60123 3.90034 5.62845 3.99979 5.62845C4.09924 5.62845 4.19871 5.6012 4.28691 5.54683L7.29929 3.68207C7.37973 3.63224 7.42859 3.54428 7.42859 3.44965C7.42859 3.35504 7.37973 3.2671 7.29929 3.21736ZM3.99979 6.09147C3.81214 6.09147 3.629 6.03936 3.46936 5.94055L1.71222 4.85273V6.72585C1.71222 7.28023 2.73688 7.729 3.99979 7.729C5.26315 7.729 6.28772 7.28022 6.28772 6.72585V4.85273L4.53065 5.94055C4.37101 6.03936 4.18743 6.09147 3.99979 6.09147Z" fill="#3D3B3B"/>
</g>
</g>
<defs>
<clipPath id="clip0_150_126">
<rect width="8" height="8" fill="white" transform="translate(0 0.5)"/>
</clipPath>
</defs>
</svg>
