<svg width="8" height="9" viewBox="0 0 8 9" fill="none" xmlns="http://www.w3.org/2000/svg">
<g clip-path="url(#clip0_150_132)">
<mask id="mask0_150_132" style="mask-type:luminance" maskUnits="userSpaceOnUse" x="0" y="0" width="8" height="9">
<path d="M8 0.5H0V8.5H8V0.5Z" fill="white"/>
</mask>
<g mask="url(#mask0_150_132)">
<path d="M6.86554 6.12904C6.55538 5.71519 6.11569 5.41304 5.60738 5.28165L5.59169 5.27827L5.22892 5.89057C5.22831 6.06042 5.09108 6.19765 4.92123 6.19827C4.752 6.19827 4.61354 6.0598 4.452 5.65242C4.452 5.64965 4.452 5.64596 4.452 5.64257C4.452 5.42996 4.27969 5.25796 4.06738 5.25796C3.85508 5.25796 3.68277 5.43027 3.68277 5.64257V5.65273C3.51046 6.06042 3.37077 6.19796 3.20184 6.19796C3.032 6.19734 2.89477 6.06011 2.89415 5.89027L2.54277 5.27673C2.01908 5.41211 1.57969 5.71396 1.27323 6.12165L1.26892 6.1275C1.14954 6.32104 1.07569 6.55396 1.06738 6.8035V6.80565C1.06892 6.8518 1.06738 6.90565 1.06738 6.9595V7.57488C1.06738 7.91488 1.34277 8.19027 1.68277 8.19027H6.452C6.792 8.19027 7.06738 7.91488 7.06738 7.57488V6.9595C7.06738 6.90596 7.06584 6.8518 7.06738 6.80565C7.05877 6.55427 6.98492 6.32165 6.86246 6.12227L6.86554 6.12904ZM2.45169 2.43519C2.45169 3.33365 3.01169 4.65365 4.06708 4.65365C5.104 4.65365 5.68246 3.33365 5.68246 2.43519C5.68246 2.42934 5.68246 2.42227 5.68246 2.41519C5.68246 1.52288 4.95908 0.799805 4.06708 0.799805C3.17508 0.799805 2.45169 1.52319 2.45169 2.41519V2.43519Z" fill="#3D3B3B"/>
<path d="M5.90833 2.96461C5.90833 3.54984 6.27325 4.41015 6.96064 4.41015C7.63602 4.41015 8.01295 3.55015 8.01295 2.96461C8.01295 2.95969 8.01295 2.95415 8.01295 2.94861C8.01295 2.36738 7.54156 1.896 6.96033 1.896C6.3791 1.896 5.90771 2.36738 5.90771 2.94861V2.96553L5.90833 2.96461Z" fill="#3D3B3B"/>
<path d="M0.000615385 3.4568C0.000615385 4.04203 0.365538 4.90234 1.05292 4.90234C1.72831 4.90234 2.10523 4.04234 2.10523 3.4568C2.10523 3.45188 2.10523 3.44634 2.10523 3.4408C2.10523 2.85957 1.63385 2.38818 1.05262 2.38818C0.471385 2.38818 0 2.85957 0 3.4408V3.45772L0.000615385 3.4568Z" fill="#3D3B3B"/>
</g>
</g>
<defs>
<clipPath id="clip0_150_132">
<rect width="8" height="8" fill="white" transform="translate(0 0.5)"/>
</clipPath>
</defs>
</svg>
