<svg width="14" height="8" viewBox="0 0 14 8" fill="none" xmlns="http://www.w3.org/2000/svg">
<g clip-path="url(#clip0_146_27)">
<path fill-rule="evenodd" clip-rule="evenodd" d="M3.33334 2.6665C3.33334 2.48241 3.48257 2.33317 3.66667 2.33317H4.5C4.82764 2.33317 5.10347 2.4444 5.2982 2.63913C5.4898 2.83073 5.58334 3.08405 5.58334 3.33317C5.58334 3.5823 5.4898 3.8356 5.2982 4.0272C5.10347 4.22194 4.82764 4.33317 4.5 4.33317H4V4.6665H5C5.1841 4.6665 5.33334 4.81574 5.33334 4.99984C5.33334 5.18394 5.1841 5.33317 5 5.33317H4V5.6665C4 5.8506 3.85077 5.99984 3.66667 5.99984C3.48257 5.99984 3.33334 5.8506 3.33334 5.6665V5.33317H3C2.81591 5.33317 2.66667 5.18394 2.66667 4.99984C2.66667 4.81574 2.81591 4.6665 3 4.6665H3.33334V4.33317H3C2.81591 4.33317 2.66667 4.18394 2.66667 3.99984C2.66667 3.81574 2.81591 3.6665 3 3.6665H3.33334V2.6665ZM0.666672 3.99984C0.666672 2.15889 2.15905 0.666504 4 0.666504C5.84094 0.666504 7.33334 2.15889 7.33334 3.99984C7.33334 5.84077 5.84094 7.33317 4 7.33317C2.15905 7.33317 0.666672 5.84077 0.666672 3.99984Z" fill="white"/>
<path fill-rule="evenodd" clip-rule="evenodd" d="M4 3.66667V3H4.5C4.67237 3 4.77153 3.05544 4.8268 3.1107C4.8852 3.1691 4.91667 3.24912 4.91667 3.33333C4.91667 3.41753 4.8852 3.49757 4.8268 3.55597C4.77153 3.61123 4.67237 3.66667 4.5 3.66667H4Z" fill="white"/>
</g>
<path d="M11.9794 3.08509C11.9793 3.05134 11.9726 3.01793 11.9597 2.98677C11.9467 2.95562 11.9277 2.92733 11.9037 2.90353L10.0242 0.999938L8.09874 2.90119C8.07404 2.92499 8.05439 2.95353 8.04096 2.9851C8.02754 3.01668 8.02062 3.05063 8.02062 3.08494C8.02033 3.11935 8.02686 3.15347 8.03983 3.18535C8.0528 3.21722 8.07195 3.24621 8.09618 3.27064C8.12041 3.29508 8.14924 3.31447 8.181 3.3277C8.21276 3.34094 8.24683 3.34775 8.28124 3.34775H9.24156C9.24156 3.34775 9.40828 3.68134 9.40828 4.24541C9.40828 4.90369 9.1814 5.87603 8.19812 6.99994C8.19812 6.99994 10.8067 6.47822 10.8067 3.34775H11.718C11.7524 3.34786 11.7866 3.34112 11.8184 3.32794C11.8503 3.31477 11.8792 3.2954 11.9035 3.27098C11.9278 3.24655 11.947 3.21754 11.96 3.18564C11.9731 3.15373 11.9796 3.11956 11.9794 3.08509ZM12.4481 3.08509C12.4483 3.2714 12.3775 3.45077 12.25 3.58666C12.1821 3.65975 12.0997 3.71793 12.008 3.75749C11.9164 3.79706 11.8176 3.81715 11.7178 3.8165H11.2564C11.2069 4.41759 11.0602 4.96509 10.8189 5.44869C10.5742 5.94011 10.225 6.37208 9.79578 6.71431C9.06249 7.30009 8.32124 7.45306 8.28999 7.45963C8.19394 7.47886 8.09427 7.46752 8.00499 7.42719C7.91571 7.38686 7.84131 7.31957 7.79224 7.23478C7.74318 7.14999 7.72191 7.05196 7.73142 6.95446C7.74094 6.85696 7.78077 6.76489 7.84531 6.69119C8.74984 5.65759 8.93906 4.79072 8.93906 4.24541C8.93953 4.1014 8.92555 3.95771 8.89734 3.8165H8.28124C8.1816 3.81697 8.08295 3.79678 7.99151 3.75719C7.90007 3.7176 7.81783 3.65948 7.74999 3.5865C7.6228 3.45048 7.55213 3.27116 7.55234 3.08494C7.55225 2.98858 7.57144 2.89318 7.6088 2.80435C7.64615 2.71553 7.70091 2.63508 7.76984 2.56775L9.69484 0.666344C9.73864 0.623084 9.79054 0.588877 9.84757 0.565677C9.90459 0.542476 9.96563 0.530736 10.0272 0.531128C10.0888 0.53152 10.1496 0.544035 10.2064 0.56796C10.2631 0.591884 10.3146 0.626749 10.3578 0.670563L12.2372 2.57431C12.3724 2.70992 12.4482 2.89362 12.4481 3.08509Z" fill="white"/>
<path d="M11.9794 3.08509C11.9793 3.05134 11.9726 3.01793 11.9597 2.98677C11.9467 2.95562 11.9277 2.92733 11.9037 2.90353L10.0242 0.999938L8.09874 2.90119C8.07404 2.92499 8.05439 2.95353 8.04096 2.9851C8.02754 3.01668 8.02062 3.05063 8.02062 3.08494C8.02033 3.11935 8.02686 3.15347 8.03983 3.18535C8.0528 3.21722 8.07195 3.24621 8.09618 3.27064C8.12041 3.29508 8.14924 3.31447 8.181 3.3277C8.21276 3.34094 8.24683 3.34775 8.28124 3.34775H9.24156C9.24156 3.34775 9.40828 3.68134 9.40828 4.24541C9.40828 4.90369 9.1814 5.87603 8.19812 6.99994C8.19812 6.99994 10.8067 6.47822 10.8067 3.34775H11.718C11.7524 3.34786 11.7866 3.34112 11.8184 3.32794C11.8503 3.31477 11.8792 3.2954 11.9035 3.27098C11.9278 3.24655 11.947 3.21754 11.96 3.18564C11.9731 3.15373 11.9796 3.11956 11.9794 3.08509Z" fill="white"/>
<defs>
<clipPath id="clip0_146_27">
<rect width="8" height="8" fill="white"/>
</clipPath>
</defs>
</svg>
