<svg width="10" height="14" viewBox="0 0 10 14" fill="none" xmlns="http://www.w3.org/2000/svg">
<path d="M9.1875 3.0625H1.75C1.4875 3.0625 1.3125 2.8875 1.3125 2.625C1.3125 2.3625 1.4875 2.1875 1.75 2.1875H9.1875C9.45 2.1875 9.625 2.3625 9.625 2.625C9.625 2.8875 9.45 3.0625 9.1875 3.0625Z" fill="white"/>
<path d="M9.1875 3.5H5.25V9.1875L3.9375 8.75L2.625 9.1875V3.5H1.75C1.26875 3.5 0.875 3.10625 0.875 2.625C0.875 2.14375 1.26875 1.75 1.75 1.75H9.1875C9.45 1.75 9.625 1.575 9.625 1.3125C9.625 1.05 9.45 0.875 9.1875 0.875H1.75C0.7875 0.875 0 1.6625 0 2.625V11.375C0 12.3375 0.7875 13.125 1.75 13.125H9.1875C9.45 13.125 9.625 12.95 9.625 12.6875V3.9375C9.625 3.675 9.45 3.5 9.1875 3.5Z" fill="white"/>
</svg>
