<svg width="14" height="14" viewBox="0 0 14 14" fill="none" xmlns="http://www.w3.org/2000/svg">
<g clip-path="url(#clip0_146_35)">
<path d="M7.21387 0.71582C7.96894 1.19156 8.75939 1.60869 9.57812 1.96387C10.4103 2.33689 11.2712 2.64275 12.1523 2.87793L12.4443 2.95215V6.19531C12.4442 11.4063 7.18628 13.3701 7.13184 13.3701L7 13.417L6.86816 13.3701C6.81761 13.3507 1.55577 11.4024 1.55566 6.19531V2.95215L1.84766 2.87793C2.72996 2.64421 3.59224 2.33967 4.42578 1.96777C5.24451 1.6126 6.03496 1.19547 6.79004 0.719727L7 0.583008L7.21387 0.71582ZM5.74512 4.89941C5.65228 4.89951 5.56359 4.93739 5.49805 5.00293L4.90039 5.59961V8.04883H5.10059L6.08984 8.94434C6.3895 9.18821 6.8303 9.14237 7.07422 8.84277L7.07617 8.84082L7.27246 9.00977C7.44637 9.15195 7.70363 9.12508 7.84473 8.95117L8.1875 8.5293L8.24707 8.57715C8.39691 8.69836 8.61791 8.67626 8.73926 8.52539L8.84277 8.39746C8.96522 8.24659 8.94264 8.02683 8.79297 7.9043L7.16016 6.5791L6.83203 6.87988C6.50719 7.17629 6.00859 7.14715 5.71875 6.83105C5.4249 6.50948 5.44833 6.01176 5.76758 5.71875L6.66211 4.89941H5.74512ZM9.4502 8.05078C9.4502 8.24431 9.6063 8.40029 9.7998 8.40039H10.5V5.60156H9.4502V8.05078ZM3.5 8.39941H4.2002C4.39368 8.39931 4.54978 8.24331 4.5498 8.0498V5.60156H3.5V8.39941ZM4.02539 7.70117C4.12146 7.70138 4.2002 7.77986 4.2002 7.87598C4.20013 7.97204 4.12142 8.05057 4.02539 8.05078C3.92918 8.05078 3.84968 7.97217 3.84961 7.87598C3.84961 7.77863 3.92914 7.70117 4.02539 7.70117ZM9.97461 7.70117C10.0709 7.70117 10.1504 7.77973 10.1504 7.87598C10.1503 7.97217 10.0708 8.05078 9.97461 8.05078C9.87858 8.05057 9.79987 7.97204 9.7998 7.87598C9.7998 7.77986 9.87854 7.70138 9.97461 7.70117ZM7.31543 4.89941C7.22811 4.89941 7.14358 4.93238 7.0791 4.99121L6.00391 5.97559C6.00281 5.97668 6.00109 5.97937 6 5.98047C5.81865 6.15111 5.82229 6.42331 5.97754 6.59277C6.11646 6.74477 6.40818 6.78503 6.59082 6.62207C6.59194 6.62107 6.59464 6.62118 6.5957 6.62012L7.46875 5.81934C7.53982 5.75482 7.65226 5.75904 7.7168 5.83008C7.78242 5.90117 7.77617 6.0125 7.70508 6.07812L7.41992 6.33887L9.0127 7.63184C9.04427 7.65797 9.07248 7.68643 9.09863 7.71582V5.59961L8.50195 5.00293C8.4375 4.93739 8.34773 4.89951 8.25488 4.89941H7.31543Z" fill="white"/>
</g>
<defs>
<clipPath id="clip0_146_35">
<rect width="14" height="14" fill="white"/>
</clipPath>
</defs>
</svg>
