<svg width="8" height="8" viewBox="0 0 8 8" fill="none" xmlns="http://www.w3.org/2000/svg">
<path d="M4.43288 3.80328V4.26563H4.24959H3.44803V3.80328C3.44803 3.53244 3.66963 3.31084 3.94047 3.31084C4.21128 3.31088 4.43288 3.53247 4.43288 3.80328ZM0 6.42922C0 6.42922 0 2.7675 0 2.75519C0 2.29863 0.379312 1.95313 0.786375 1.95313H2.8125V1.18047C2.8125 0.906656 3.06181 0.734375 3.35472 0.734375C3.3485 0.734375 4.48903 0.734375 4.48903 0.734375C4.78819 0.734375 5.03125 0.906656 5.03125 1.18047V1.92188H7.08903C7.49428 1.92188 7.87191 2.27147 7.875 2.73344C7.875 2.74903 7.875 6.45097 7.875 6.45097C7.875 6.966 7.49122 7.26566 7.09209 7.26566H0.78125C0.380344 7.26563 0 6.93822 0 6.42922ZM3.21875 1.95313H4.625V1.17188H3.21875V1.95313ZM2.87194 6.23259H5.00303V4.26563H4.77322V3.80328C4.77322 3.35191 4.40391 2.98256 3.95253 2.98256C3.50113 2.98256 3.13181 3.35188 3.13181 3.80328V4.26563H2.87194V6.23259ZM4.26441 5.08359C4.26441 4.90303 4.11669 4.75531 3.93613 4.75531C3.75556 4.75531 3.60784 4.90303 3.60784 5.08359C3.60784 5.1985 3.66528 5.29697 3.75556 5.35444L3.68991 5.74016H4.18234L4.11669 5.35444C4.20697 5.29697 4.26441 5.1985 4.26441 5.08359Z" fill="white"/>
</svg>
