<svg width="9" height="10" viewBox="0 0 9 10" fill="none" xmlns="http://www.w3.org/2000/svg">
<path d="M3.08333 6.66667L6.41667 3.33333M8.5 5C8.5 7.07108 6.82108 8.75 4.75 8.75C2.67893 8.75 1 7.07108 1 5C1 2.92893 2.67893 1.25 4.75 1.25C6.82108 1.25 8.5 2.92893 8.5 5ZM6.83333 6.25C6.83333 6.71025 6.46025 7.08333 6 7.08333C5.53975 7.08333 5.16667 6.71025 5.16667 6.25C5.16667 5.78975 5.53975 5.41667 6 5.41667C6.46025 5.41667 6.83333 5.78975 6.83333 6.25ZM4.33333 3.75C4.33333 4.21025 3.96025 4.58333 3.5 4.58333C3.03976 4.58333 2.66667 4.21025 2.66667 3.75C2.66667 3.28976 3.03976 2.91667 3.5 2.91667C3.96025 2.91667 4.33333 3.28976 4.33333 3.75Z" stroke="white" stroke-linecap="round" stroke-linejoin="round"/>
</svg>
