<svg width="8" height="9" viewBox="0 0 8 9" fill="none" xmlns="http://www.w3.org/2000/svg">
<g clip-path="url(#clip0_150_84)">
<mask id="mask0_150_84" style="mask-type:luminance" maskUnits="userSpaceOnUse" x="0" y="0" width="8" height="9">
<path d="M8 0.5H0V8.5H8V0.5Z" fill="white"/>
</mask>
<g mask="url(#mask0_150_84)">
<path d="M3.38522 1.65619C3.73932 1.65619 4.02635 1.94322 4.02635 2.29731C4.02635 2.65141 3.73932 2.93844 3.38522 2.93844C3.03113 2.93844 2.74407 2.65141 2.74407 2.29731C2.74407 1.94322 3.03113 1.65619 3.38522 1.65619ZM1.03341 5.54138L1.0275 5.53547C1.00091 5.51775 0.977286 5.50297 0.956599 5.47934L1.0275 6.29184L0.135224 7.55638C0.00819212 7.73956 0.0525047 7.98775 0.229755 8.11478C0.412942 8.24181 0.66113 8.1975 0.788161 8.02025L1.75135 6.63163C1.80157 6.56072 1.83407 6.46616 1.82225 6.37162L1.78975 5.97869L1.03341 5.54138ZM3.68363 8.18569H7.50679L6.79179 5.95503C6.79179 5.95503 6.387 6.0555 5.58635 6.90637C5.56863 6.92409 5.54794 6.94478 5.53022 6.9625L3.59797 5.84569C3.63047 5.78366 3.63638 5.71272 3.62457 5.63591L2.93907 3.09503C2.88294 2.84684 2.66135 2.65775 2.40135 2.65775H1.12204C1.0275 2.65775 0.932942 2.70797 0.879755 2.79072L0.241599 3.89866C0.15888 4.03163 0.209099 4.20297 0.342067 4.27978L1.05707 4.69047L0.962536 4.85C0.847317 5.03909 0.912317 5.28137 1.10732 5.38772L2.71157 6.3125V7.77794C2.71157 7.99953 2.88885 8.17681 3.11044 8.17681C3.33204 8.17681 3.50932 7.99953 3.50932 7.77794V6.10569L5.28497 7.13387C4.9186 7.34366 4.49907 7.38206 4.20066 7.55931C3.83429 7.77797 3.68363 8.18569 3.68363 8.18569ZM1.19294 4.45706L0.723161 4.18525L1.28157 3.22206H1.90794L1.19294 4.45706ZM2.2241 5.05387L2.66729 4.27978L2.99819 5.49703L2.2241 5.05387ZM6.57191 0.812781L5.20547 1.26784V3.08919C5.20547 3.08919 5.22169 3.93172 6.5715 4.45522C7.92129 3.93172 7.9375 3.08919 7.9375 3.08919V1.26784L6.57191 0.812781ZM6.39447 3.17741L5.72869 2.51175L5.97032 2.27013L6.39479 2.69472L7.17313 1.91866L7.41432 2.16056L6.39447 3.17741Z" fill="#3D3B3B"/>
</g>
</g>
<defs>
<clipPath id="clip0_150_84">
<rect width="8" height="8" fill="white" transform="translate(0 0.5)"/>
</clipPath>
</defs>
</svg>
