<svg width="8" height="9" viewBox="0 0 8 9" fill="none" xmlns="http://www.w3.org/2000/svg">
<g clip-path="url(#clip0_150_96)">
<mask id="mask0_150_96" style="mask-type:luminance" maskUnits="userSpaceOnUse" x="0" y="0" width="8" height="9">
<path d="M8 0.5H0V8.5H8V0.5Z" fill="white"/>
</mask>
<g mask="url(#mask0_150_96)">
<path d="M4.00002 1.2998C3.69042 1.29976 3.38954 1.40231 3.14442 1.59142C2.89929 1.78053 2.72374 2.04554 2.64522 2.345C2.30607 2.43387 2.01259 2.64671 1.82277 2.94147C1.63295 3.23624 1.5606 3.59148 1.62002 3.93701C1.37069 4.10418 1.18171 4.34707 1.08094 4.62983C0.980166 4.9126 0.97295 5.22026 1.06035 5.50744C1.14776 5.79462 1.32515 6.0461 1.56636 6.22478C1.80758 6.40346 2.09983 6.49987 2.40002 6.49981H3.20002V7.19981C3.20002 7.47581 3.42402 7.69981 3.70002 7.69981H4.30002C4.57602 7.69981 4.80002 7.47581 4.80002 7.19981V6.49981H5.60002C5.9002 6.49987 6.19246 6.40346 6.43367 6.22478C6.67488 6.0461 6.85228 5.79462 6.93968 5.50744C7.02709 5.22026 7.01987 4.9126 6.9191 4.62983C6.81833 4.34707 6.62934 4.10418 6.38002 3.93701C6.43943 3.59148 6.36708 3.23624 6.17726 2.94147C5.98745 2.64671 5.69397 2.43387 5.35482 2.345C5.27629 2.04554 5.10074 1.78053 4.85562 1.59142C4.61049 1.40231 4.30961 1.29976 4.00002 1.2998ZM3.60002 6.49981H4.40002V7.19981C4.40002 7.22633 4.38948 7.25176 4.37073 7.27052C4.35198 7.28927 4.32654 7.29981 4.30002 7.29981H3.70002C3.6735 7.29981 3.64806 7.28927 3.62931 7.27052C3.61055 7.25176 3.60002 7.22633 3.60002 7.19981V6.49981Z" fill="#3D3B3B"/>
</g>
</g>
<defs>
<clipPath id="clip0_150_96">
<rect width="8" height="8" fill="white" transform="translate(0 0.5)"/>
</clipPath>
</defs>
</svg>
