<svg width="32" height="32" viewBox="0 0 32 32" fill="none" xmlns="http://www.w3.org/2000/svg">
<path d="M4 7.99992C4 6.52716 5.19391 5.33325 6.66667 5.33325H25.3333C26.8061 5.33325 28 6.52716 28 7.99992V19.9999H4V7.99992Z" fill="#222222"/>
<path d="M4 7.99992C4 6.52716 5.19391 5.33325 6.66667 5.33325H25.3333C26.8061 5.33325 28 6.52716 28 7.99992V19.9999H4V7.99992Z" fill="url(#paint0_linear_5536_126091)"/>
<path d="M1.33594 22.6666C1.33594 21.9302 1.93289 21.3333 2.66927 21.3333H29.3359C30.0723 21.3333 30.6693 21.9302 30.6693 22.6666V23.9999C30.6693 25.4727 29.4754 26.6666 28.0026 26.6666H4.0026C2.52985 26.6666 1.33594 25.4727 1.33594 23.9999V22.6666Z" fill="#222222"/>
<path d="M1.33594 22.6666C1.33594 21.9302 1.93289 21.3333 2.66927 21.3333H29.3359C30.0723 21.3333 30.6693 21.9302 30.6693 22.6666V23.9999C30.6693 25.4727 29.4754 26.6666 28.0026 26.6666H4.0026C2.52985 26.6666 1.33594 25.4727 1.33594 23.9999V22.6666Z" fill="url(#paint1_linear_5536_126091)"/>
<defs>
<linearGradient id="paint0_linear_5536_126091" x1="16" y1="5.33325" x2="16" y2="20.2618" gradientUnits="userSpaceOnUse">
<stop stop-color="#3971FF"/>
<stop offset="1" stop-color="#029CDA"/>
</linearGradient>
<linearGradient id="paint1_linear_5536_126091" x1="16.0026" y1="21.3333" x2="16.0026" y2="26.7618" gradientUnits="userSpaceOnUse">
<stop stop-color="#3971FF"/>
<stop offset="1" stop-color="#029CDA"/>
</linearGradient>
</defs>
</svg>
